M48
; DRILL file {KiCad 8.0.4} date 2024-11-10T20:26:29+0100
; FORMAT={-:-/ absolute / metric / decimal}
; #@! TF.CreationDate,2024-11-10T20:26:29+01:00
; #@! TF.GenerationSoftware,Kicad,Pcbnew,8.0.4
; #@! TF.FileFunction,Plated,1,4,PTH
FMAT,2
METRIC
; #@! TA.AperFunction,Plated,PTH,ViaDrill
T1C0.300
; #@! TA.AperFunction,Plated,PTH,ComponentDrill
T2C0.600
; #@! TA.AperFunction,Plated,PTH,ComponentDrill
T3C0.700
; #@! TA.AperFunction,Plated,PTH,ComponentDrill
T4C1.000
%
G90
G05
T1
X120.14Y-103.146
X120.143Y-96.782
X123.318Y-95.893
X123.318Y-97.798
X123.318Y-99.703
X123.343Y-105.621
X124.842Y-103.767
X124.842Y-105.799
X125.02Y-99.728
X125.477Y-104.783
X127.128Y-99.83
X127.455Y-95.512
X129.875Y-95.93
X129.922Y-103.767
X129.922Y-105.799
X130.938Y-97.925
X131.011Y-106.561
X132.614Y-103.386
X135.256Y-103.386
X136.526Y-106.561
X136.551Y-103.386
X137.669Y-107.704
X137.716Y-104.609
X137.95Y-95.93
X140.155Y-104.148
X140.2Y-99.474
X143.966Y-89.977
X144.019Y-104.758
X145.01Y-98.433
X145.695Y-101.837
X145.71Y-103.056
X145.87Y-91.194
X145.984Y-97.426
X147.042Y-98.458
X156.008Y-93.059
X156.719Y-93.734
X157.221Y-98.656
X157.227Y-94.496
X157.227Y-95.512
X157.227Y-96.528
X157.227Y-97.544
X157.227Y-99.703
X157.227Y-104.616
X157.227Y-106.053
X157.792Y-105.352
X158.547Y-106.169
X158.548Y-104.605
X158.621Y-107.066
X158.642Y-92.675
X158.751Y-103.157
X159.259Y-100.13
X159.346Y-103.894
X159.361Y-93.429
X159.64Y-106.434
X160.148Y-105.215
X160.275Y-94.115
X160.402Y-103.894
X160.577Y-102.421
X160.656Y-106.434
X161.291Y-94.115
X161.672Y-106.434
X162.307Y-94.115
X162.459Y-105.545
X165.562Y-92.921
X165.584Y-106.637
X166.803Y-92.921
X166.803Y-106.612
X168.073Y-92.921
X169.343Y-92.921
X169.861Y-97.62
X169.861Y-102.02
X169.886Y-99.795
X170.308Y-93.861
X170.308Y-106.561
X171.857Y-94.496
X171.881Y-108.58
X172.108Y-106.739
X173.151Y-91.08
T3
X124.715Y-107.958
X128.652Y-107.958
T4
X120.143Y-88.4
X120.143Y-111.26
X122.683Y-88.4
X122.683Y-111.26
X125.223Y-88.4
X125.223Y-111.26
X127.763Y-88.4
X127.763Y-111.26
X130.303Y-88.4
X130.303Y-111.26
X132.843Y-88.4
X132.843Y-111.26
X135.383Y-88.4
X135.383Y-111.26
X137.923Y-88.4
X137.923Y-111.26
X140.463Y-88.4
X140.463Y-111.26
X143.003Y-88.4
X143.003Y-111.26
X145.543Y-88.4
X145.543Y-111.26
X148.083Y-88.4
X148.083Y-111.26
X150.623Y-88.4
X150.623Y-111.26
X153.163Y-88.4
X153.163Y-111.26
X155.703Y-88.4
X155.703Y-111.26
X158.243Y-88.4
X158.243Y-111.26
X160.783Y-88.4
X160.783Y-111.26
X163.323Y-88.4
X163.323Y-111.26
X165.863Y-88.4
X165.863Y-111.26
X168.403Y-88.4
X168.403Y-111.26
X170.943Y-88.4
X170.943Y-111.26
X173.483Y-88.4
X173.483Y-111.26
T2
X114.701Y-95.628G85X113.901Y-95.628
G05
X114.701Y-104.278G85X113.901Y-104.278
G05
X119.021Y-95.628G85X117.921Y-95.628
G05
X119.021Y-104.278G85X117.921Y-104.278
G05
M30
