G04 #@! TF.GenerationSoftware,KiCad,Pcbnew,8.0.4*
G04 #@! TF.CreationDate,2024-11-10T20:26:25+01:00*
G04 #@! TF.ProjectId,NatSi-DevKit,4e617453-692d-4446-9576-4b69742e6b69,v1.0.0*
G04 #@! TF.SameCoordinates,Original*
G04 #@! TF.FileFunction,Copper,L4,Bot*
G04 #@! TF.FilePolarity,Positive*
%FSLAX46Y46*%
G04 Gerber Fmt 4.6, Leading zero omitted, Abs format (unit mm)*
G04 Created by KiCad (PCBNEW 8.0.4) date 2024-11-10 20:26:25*
%MOMM*%
%LPD*%
G01*
G04 APERTURE LIST*
G04 #@! TA.AperFunction,ComponentPad*
%ADD10C,1.500000*%
G04 #@! TD*
G04 #@! TA.AperFunction,ComponentPad*
%ADD11O,2.000000X0.900000*%
G04 #@! TD*
G04 #@! TA.AperFunction,ComponentPad*
%ADD12O,1.700000X0.900000*%
G04 #@! TD*
G04 #@! TA.AperFunction,SMDPad,CuDef*
%ADD13R,1.200000X0.800000*%
G04 #@! TD*
G04 #@! TA.AperFunction,SMDPad,CuDef*
%ADD14R,2.000000X1.500000*%
G04 #@! TD*
G04 #@! TA.AperFunction,ComponentPad*
%ADD15R,1.700000X1.700000*%
G04 #@! TD*
G04 #@! TA.AperFunction,ComponentPad*
%ADD16O,1.700000X1.700000*%
G04 #@! TD*
G04 #@! TA.AperFunction,ViaPad*
%ADD17C,0.700000*%
G04 #@! TD*
G04 #@! TA.AperFunction,Conductor*
%ADD18C,0.250000*%
G04 #@! TD*
G04 #@! TA.AperFunction,Conductor*
%ADD19C,0.200000*%
G04 #@! TD*
G04 #@! TA.AperFunction,Conductor*
%ADD20C,0.500000*%
G04 #@! TD*
G04 APERTURE END LIST*
D10*
X124715000Y-107958000D03*
X128652000Y-107958000D03*
D11*
X118471000Y-95628000D03*
X118471000Y-104278000D03*
D12*
X114301000Y-95628000D03*
X114301000Y-104278000D03*
D13*
X169886000Y-103095000D03*
X169886000Y-101995000D03*
X169886000Y-100895000D03*
X169886000Y-99795000D03*
X169886000Y-98695000D03*
X169886000Y-97595000D03*
X169886000Y-96495000D03*
X169886000Y-95395000D03*
D14*
X172086000Y-92925000D03*
X163886000Y-92925000D03*
X163886000Y-106815000D03*
X172086000Y-106815000D03*
D15*
X173483000Y-88400000D03*
D16*
X170943000Y-88400000D03*
X168403000Y-88400000D03*
X165863000Y-88400000D03*
X163323000Y-88400000D03*
X160783000Y-88400000D03*
X158243000Y-88400000D03*
X155703000Y-88400000D03*
X153163000Y-88400000D03*
X150623000Y-88400000D03*
X148083000Y-88400000D03*
X145543000Y-88400000D03*
X143003000Y-88400000D03*
X140463000Y-88400000D03*
X137923000Y-88400000D03*
X135383000Y-88400000D03*
X132843000Y-88400000D03*
X130303000Y-88400000D03*
X127763000Y-88400000D03*
X125223000Y-88400000D03*
X122683000Y-88400000D03*
X120143000Y-88400000D03*
D15*
X173483000Y-111260000D03*
D16*
X170943000Y-111260000D03*
X168403000Y-111260000D03*
X165863000Y-111260000D03*
X163323000Y-111260000D03*
X160783000Y-111260000D03*
X158243000Y-111260000D03*
X155703000Y-111260000D03*
X153163000Y-111260000D03*
X150623000Y-111260000D03*
X148083000Y-111260000D03*
X145543000Y-111260000D03*
X143003000Y-111260000D03*
X140463000Y-111260000D03*
X137923000Y-111260000D03*
X135383000Y-111260000D03*
X132843000Y-111260000D03*
X130303000Y-111260000D03*
X127763000Y-111260000D03*
X125223000Y-111260000D03*
X122683000Y-111260000D03*
X120143000Y-111260000D03*
D17*
X127455000Y-95512000D03*
X170308000Y-93861000D03*
X156719000Y-93734000D03*
X158751000Y-103157000D03*
X129922000Y-103767000D03*
X129922000Y-105799000D03*
X159346000Y-103894000D03*
X125477000Y-104783000D03*
X160148000Y-105214800D03*
X132614400Y-103386000D03*
X169860600Y-97620400D03*
X140200000Y-99474400D03*
X130938000Y-97925000D03*
X160576600Y-102420800D03*
X123318000Y-95893000D03*
X129875000Y-95930000D03*
X172108200Y-106738800D03*
X137950000Y-95930000D03*
X125019800Y-99728400D03*
X135256000Y-103386000D03*
X173151000Y-91080000D03*
X123343400Y-105621200D03*
X140155000Y-104148000D03*
X145009600Y-98433000D03*
X131011000Y-106561000D03*
X120143000Y-96782000D03*
X120140000Y-103145813D03*
X147041600Y-98458400D03*
X143965552Y-89977448D03*
X145870000Y-91194000D03*
X158642002Y-92674598D03*
X136526000Y-106561000D03*
X158547800Y-104605200D03*
X145695400Y-101836600D03*
X136551400Y-103386000D03*
X158546899Y-106169102D03*
X158621045Y-107066045D03*
X168072800Y-92921200D03*
X169342800Y-92921200D03*
X157227000Y-97544000D03*
X157221061Y-98655799D03*
X157227000Y-95512000D03*
X159259000Y-100130000D03*
X145984200Y-97425600D03*
X169886000Y-99795000D03*
X171857400Y-94496000D03*
X166802800Y-92921200D03*
X157227000Y-96528000D03*
X169860600Y-102020400D03*
X165562002Y-92921200D03*
X144019000Y-104757600D03*
X160402000Y-103894000D03*
X127128000Y-99830000D03*
X124842000Y-103767000D03*
X123318000Y-99703000D03*
X166802800Y-106611800D03*
X161672000Y-106434000D03*
X157227000Y-94496000D03*
X161291000Y-94115000D03*
X160275000Y-94115000D03*
X159640000Y-106434000D03*
X157791935Y-105352391D03*
X162307000Y-94115000D03*
X157227000Y-106053000D03*
X162459400Y-105545000D03*
X171881000Y-108580000D03*
X156007540Y-93059000D03*
X165583600Y-106637200D03*
X159360600Y-93429200D03*
X170308000Y-106561000D03*
X160656000Y-106434000D03*
X157227000Y-99703000D03*
X123318000Y-97798000D03*
X124842000Y-105799000D03*
X145710000Y-103055800D03*
X137716220Y-104608780D03*
X137669000Y-107704000D03*
X157227000Y-104616000D03*
D18*
X168403000Y-89479500D02*
X168403000Y-88400000D01*
X169814087Y-91970085D02*
X169166322Y-91322321D01*
X170308000Y-93861000D02*
X170308000Y-93162500D01*
X169814087Y-91970085D02*
G75*
G02*
X170308010Y-93162500I-1192387J-1192415D01*
G01*
X169166322Y-91322321D02*
G75*
G02*
X168402988Y-89479500I1842778J1842821D01*
G01*
X142806208Y-90743207D02*
X140463000Y-88400000D01*
X155674829Y-93734000D02*
X156719000Y-93734000D01*
X152302172Y-92337000D02*
X146653964Y-92337000D01*
X155674829Y-93734000D02*
G75*
G02*
X153988492Y-93035508I-29J2384800D01*
G01*
X146653964Y-92337000D02*
G75*
G02*
X142806215Y-90743200I36J5441600D01*
G01*
X152302172Y-92337000D02*
G75*
G02*
X153988508Y-93035492I28J-2384800D01*
G01*
D19*
X131272320Y-104557999D02*
X135494045Y-104557999D01*
X158751000Y-103157000D02*
X158675000Y-103081000D01*
X158491520Y-103005000D02*
X149607091Y-103005000D01*
X130317500Y-104162499D02*
X129922000Y-103767000D01*
X137815555Y-105519600D02*
X143536310Y-105519600D01*
X127255828Y-106433172D02*
X129922000Y-103767000D01*
X126267999Y-108818001D02*
X126267999Y-109476075D01*
X125745500Y-110737500D02*
X125223000Y-111260000D01*
X146571700Y-104262300D02*
G75*
G02*
X143536310Y-105519604I-3035400J3035400D01*
G01*
X146571700Y-104262300D02*
G75*
G02*
X149607091Y-103004996I3035400J-3035400D01*
G01*
X131272320Y-104557999D02*
G75*
G02*
X130317494Y-104162505I-20J1350299D01*
G01*
X136654800Y-105038799D02*
G75*
G03*
X137815555Y-105519618I1160800J1160799D01*
G01*
X126267999Y-108818001D02*
G75*
G02*
X127255818Y-106433162I3372701J1D01*
G01*
X125745500Y-110737500D02*
G75*
G03*
X126267989Y-109476075I-1261400J1261400D01*
G01*
X158675000Y-103081000D02*
G75*
G03*
X158491520Y-103004992I-183500J-183500D01*
G01*
X135494045Y-104557999D02*
G75*
G02*
X136654766Y-105038833I-45J-1641501D01*
G01*
X126718001Y-108886125D02*
X126718001Y-109476075D01*
X159346000Y-103894000D02*
X158914536Y-103894000D01*
X149882538Y-103405000D02*
X157733985Y-103405000D01*
X129922000Y-105799000D02*
X129224199Y-105799000D01*
X127622199Y-106703198D02*
X128032977Y-106292420D01*
X143673663Y-105976800D02*
X137642845Y-105976800D01*
X127240501Y-110737500D02*
X127763000Y-111260000D01*
X129922000Y-105799000D02*
X130317500Y-105403500D01*
X131272320Y-105008001D02*
X135303957Y-105008001D01*
X146778100Y-104690900D02*
G75*
G02*
X149882538Y-103405015I3104400J-3104400D01*
G01*
X131272320Y-105008001D02*
G75*
G03*
X130317494Y-105403494I-20J-1350299D01*
G01*
X126718001Y-108886125D02*
G75*
G02*
X127622192Y-106703191I3087099J25D01*
G01*
X136473401Y-105492400D02*
G75*
G03*
X137642845Y-105976751I1169399J1169500D01*
G01*
X136473401Y-105492400D02*
G75*
G03*
X135303957Y-105008018I-1169401J-1169400D01*
G01*
X158914536Y-103894000D02*
G75*
G02*
X158324237Y-103649523I-36J834800D01*
G01*
X129224199Y-105799000D02*
G75*
G03*
X128032986Y-106292429I1J-1684600D01*
G01*
X127240501Y-110737500D02*
G75*
G02*
X126718012Y-109476075I1261399J1261400D01*
G01*
X158324260Y-103649500D02*
G75*
G03*
X157733985Y-103405018I-590260J-590300D01*
G01*
X143673663Y-105976800D02*
G75*
G03*
X146778111Y-104690911I37J4390300D01*
G01*
D18*
X146876500Y-89733500D02*
X145543000Y-88400000D01*
X158065687Y-92337000D02*
X155966026Y-92337000D01*
X143965552Y-90052600D02*
X143965552Y-89977448D01*
X145450900Y-91194000D02*
X145870000Y-91194000D01*
X158473203Y-92505799D02*
X158642002Y-92674598D01*
X144018692Y-90180892D02*
X144735451Y-90897651D01*
X152899975Y-91067000D02*
X150095854Y-91067000D01*
X146876500Y-89733500D02*
G75*
G03*
X150095854Y-91067019I3219400J3219400D01*
G01*
X145450900Y-91194000D02*
G75*
G02*
X144735450Y-90897652I0J1011800D01*
G01*
X154433000Y-91702000D02*
G75*
G03*
X155966026Y-92336989I1533000J1533000D01*
G01*
X158065687Y-92337000D02*
G75*
G02*
X158473207Y-92505795I13J-576300D01*
G01*
X152899975Y-91067000D02*
G75*
G02*
X154433008Y-91701992I25J-2168000D01*
G01*
X143965552Y-90052600D02*
G75*
G03*
X144018689Y-90180895I181448J0D01*
G01*
X135764000Y-106561000D02*
X136526000Y-106561000D01*
X143944381Y-106561000D02*
X136526000Y-106561000D01*
X158215700Y-104273100D02*
X158547800Y-104605200D01*
X134463185Y-107099815D02*
X130303000Y-111260000D01*
X145695400Y-101836600D02*
X139196392Y-101836600D01*
X150269620Y-103941000D02*
X157413940Y-103941000D01*
X136551400Y-103386000D02*
X137326100Y-102611300D01*
X137326100Y-102611300D02*
G75*
G02*
X139196392Y-101836596I1870300J-1870300D01*
G01*
X135764000Y-106561000D02*
G75*
G03*
X134463191Y-107099821I0J-1839600D01*
G01*
X150269620Y-103941000D02*
G75*
G03*
X147106994Y-105250994I-20J-4472600D01*
G01*
X147107000Y-105251000D02*
G75*
G02*
X143944381Y-106560992I-3162600J3162600D01*
G01*
X158215700Y-104273100D02*
G75*
G03*
X157413940Y-103940954I-801800J-801700D01*
G01*
X147543250Y-108339000D02*
X146591742Y-109290508D01*
X151222512Y-106815000D02*
X157444283Y-106815000D01*
X143827509Y-110435491D02*
X143003000Y-111260000D01*
X158546899Y-106169102D02*
X158223950Y-106492051D01*
X145209625Y-109863000D02*
G75*
G03*
X146591728Y-109290494I-25J1954600D01*
G01*
X157444283Y-106815000D02*
G75*
G03*
X158223955Y-106492056I17J1102600D01*
G01*
X145209625Y-109863000D02*
G75*
G03*
X143827498Y-110435480I-25J-1954600D01*
G01*
X151222512Y-106815000D02*
G75*
G03*
X147543236Y-108338986I-12J-5203300D01*
G01*
X147759208Y-109043792D02*
X145543000Y-111260000D01*
X158621045Y-107066045D02*
X158429068Y-107258022D01*
X151606964Y-107450000D02*
X157965593Y-107450000D01*
X157965593Y-107450000D02*
G75*
G03*
X158429081Y-107258035I7J655500D01*
G01*
X151606964Y-107450000D02*
G75*
G03*
X147759216Y-109043800I36J-5441600D01*
G01*
X169572500Y-98655000D02*
X170012000Y-98655000D01*
X168072800Y-92921200D02*
X168072800Y-92718000D01*
X163640500Y-88400000D02*
X163323000Y-88400000D01*
X168822227Y-98344226D02*
X168602901Y-98124899D01*
X168072800Y-96845125D02*
X168072800Y-92921200D01*
X164182507Y-88624506D02*
X167929116Y-92371115D01*
X168822227Y-98344226D02*
G75*
G03*
X169572500Y-98654984I750273J750326D01*
G01*
X164182507Y-88624506D02*
G75*
G03*
X163640500Y-88399996I-542007J-541994D01*
G01*
X167929116Y-92371115D02*
G75*
G02*
X168072791Y-92718000I-346916J-346885D01*
G01*
X168602901Y-98124899D02*
G75*
G02*
X168072791Y-96845125I1279799J1279799D01*
G01*
X169037323Y-96273322D02*
X169021500Y-96257500D01*
X169342800Y-92921200D02*
X169342800Y-92781500D01*
X166132408Y-89431407D02*
X169244018Y-92543017D01*
X165863000Y-88781000D02*
X165863000Y-88400000D01*
X169063400Y-93200600D02*
X169342800Y-92921200D01*
X168784000Y-95684124D02*
X168784000Y-93875131D01*
X169572500Y-96495000D02*
X169886000Y-96495000D01*
X166132408Y-89431407D02*
G75*
G02*
X165862996Y-88781000I650392J650407D01*
G01*
X168784000Y-95684124D02*
G75*
G03*
X169021507Y-96257493I810900J24D01*
G01*
X169572500Y-96495000D02*
G75*
G02*
X169037313Y-96273332I0J756900D01*
G01*
X169063400Y-93200600D02*
G75*
G03*
X168784013Y-93875131I674500J-674500D01*
G01*
X169244018Y-92543017D02*
G75*
G02*
X169342791Y-92781500I-238518J-238483D01*
G01*
X141675794Y-93168792D02*
X141790208Y-93283207D01*
X136231065Y-91575000D02*
X137828037Y-91575000D01*
X156655500Y-96972500D02*
X157227000Y-97544000D01*
X155275777Y-96401000D02*
X154875631Y-96401000D01*
X130557000Y-88400000D02*
X130303000Y-88400000D01*
X132398500Y-89987500D02*
X130990606Y-88579605D01*
X151196370Y-94877000D02*
X145637964Y-94877000D01*
X132398500Y-89987500D02*
G75*
G03*
X136231065Y-91575015I3832600J3832600D01*
G01*
X130557000Y-88400000D02*
G75*
G02*
X130990603Y-88579608I0J-613200D01*
G01*
X154875631Y-96401000D02*
G75*
G02*
X153035991Y-95639009I-31J2601600D01*
G01*
X151196370Y-94877000D02*
G75*
G02*
X153036009Y-95638991I30J-2601600D01*
G01*
X141675794Y-93168792D02*
G75*
G03*
X137828037Y-91574988I-3847794J-3847808D01*
G01*
X155275777Y-96401000D02*
G75*
G02*
X156655507Y-96972493I23J-1951200D01*
G01*
X145637964Y-94877000D02*
G75*
G02*
X141790215Y-93283200I36J5441600D01*
G01*
X145383964Y-95512000D02*
X150942370Y-95512000D01*
X130239500Y-89797000D02*
X130147829Y-89797000D01*
X141421793Y-93803792D02*
X141536208Y-93918206D01*
X132525500Y-91003500D02*
X132082322Y-90560321D01*
X156328614Y-97763351D02*
X157221061Y-98655799D01*
X128461500Y-89098500D02*
X127763000Y-88400000D01*
X152816649Y-96308648D02*
X152782001Y-96273999D01*
X135438249Y-92210000D02*
X137574037Y-92210000D01*
X150942370Y-95512000D02*
G75*
G02*
X152782009Y-96273991I30J-2601600D01*
G01*
X141421793Y-93803792D02*
G75*
G03*
X137574037Y-92209959I-3847793J-3847708D01*
G01*
X152816649Y-96308648D02*
G75*
G03*
X154572631Y-97035988I1755951J1755948D01*
G01*
X130239500Y-89797000D02*
G75*
G02*
X132082312Y-90560331I0J-2606100D01*
G01*
X145383964Y-95512000D02*
G75*
G02*
X141536215Y-93918199I36J5441600D01*
G01*
X154572631Y-97036000D02*
G75*
G02*
X156328591Y-97763374I-31J-2483300D01*
G01*
X135438249Y-92210000D02*
G75*
G02*
X132525515Y-91003485I51J4119300D01*
G01*
X128461500Y-89098500D02*
G75*
G03*
X130147829Y-89796988I1686300J1686300D01*
G01*
X157227000Y-95512000D02*
X157036500Y-95321500D01*
X136335500Y-89352500D02*
X135383000Y-88400000D01*
X138635039Y-90305000D02*
X138939000Y-90305000D01*
X156576593Y-95131000D02*
X155383631Y-95131000D01*
X146145964Y-93607000D02*
X151704370Y-93607000D01*
X142298208Y-92013206D02*
X141757434Y-91472433D01*
X146145964Y-93607000D02*
G75*
G02*
X142298215Y-92013199I36J5441600D01*
G01*
X156576593Y-95131000D02*
G75*
G02*
X157036502Y-95321498I7J-650400D01*
G01*
X151704370Y-93607000D02*
G75*
G02*
X153544009Y-94368991I30J-2601600D01*
G01*
X138939000Y-90305000D02*
G75*
G02*
X141757440Y-91472427I0J-3985900D01*
G01*
X155383631Y-95131000D02*
G75*
G02*
X153543991Y-94369009I-31J2601600D01*
G01*
X138635039Y-90305000D02*
G75*
G02*
X136335489Y-89352511I-39J3252000D01*
G01*
D20*
X157199500Y-100504704D02*
X157375341Y-100504704D01*
X171094843Y-99472157D02*
X171334700Y-99232300D01*
X150191969Y-96968400D02*
X146764690Y-96968400D01*
X152235481Y-97886480D02*
X152113200Y-97764200D01*
X158279956Y-100130000D02*
X159259000Y-100130000D01*
X146212800Y-97197000D02*
X145984200Y-97425600D01*
X170412000Y-99755000D02*
X170012000Y-99755000D01*
X156447015Y-100193014D02*
X155487520Y-99233519D01*
X171857400Y-97970390D02*
X171857400Y-94496000D01*
X171094843Y-99472157D02*
G75*
G02*
X170412000Y-99754996I-682843J682857D01*
G01*
X152235481Y-97886480D02*
G75*
G03*
X153861500Y-98560011I1626019J1625980D01*
G01*
X153861500Y-98560000D02*
G75*
G02*
X155487512Y-99233527I0J-2299500D01*
G01*
X171857400Y-97970390D02*
G75*
G02*
X171334703Y-99232303I-1784600J-10D01*
G01*
X146764690Y-96968400D02*
G75*
G03*
X146212803Y-97197003I10J-780500D01*
G01*
X157199500Y-100504704D02*
G75*
G02*
X156447009Y-100193020I0J1064204D01*
G01*
X158279956Y-100130000D02*
G75*
G03*
X157827662Y-100317366I44J-639700D01*
G01*
X157375341Y-100504704D02*
G75*
G03*
X157827637Y-100317341I-41J639704D01*
G01*
X150191969Y-96968400D02*
G75*
G02*
X152113209Y-97764191I31J-2717000D01*
G01*
D18*
X168877723Y-100558722D02*
X167988401Y-99669399D01*
X162223580Y-89840579D02*
X160783000Y-88400000D01*
X166802800Y-92654500D02*
X166802800Y-92921200D01*
X169593000Y-100855000D02*
X170012000Y-100855000D01*
X165692421Y-91277420D02*
X166614215Y-92199214D01*
X166802800Y-96807108D02*
X166802800Y-92921200D01*
X166802800Y-92654500D02*
G75*
G03*
X166614221Y-92199208I-643900J0D01*
G01*
X169593000Y-100855000D02*
G75*
G02*
X168877713Y-100558732I0J1011600D01*
G01*
X163958000Y-90559000D02*
G75*
G02*
X165692412Y-91277429I0J-2452800D01*
G01*
X162223580Y-89840579D02*
G75*
G03*
X163958000Y-90559011I1734420J1734379D01*
G01*
X166802800Y-96807108D02*
G75*
G03*
X167988402Y-99669398I4047900J8D01*
G01*
X157227000Y-96528000D02*
X156846000Y-96147000D01*
X137179052Y-90940000D02*
X138082037Y-90940000D01*
X142044208Y-92648207D02*
X141929794Y-92533792D01*
X155129631Y-95766000D02*
X155926185Y-95766000D01*
X134113000Y-89670000D02*
X132843000Y-88400000D01*
X151450370Y-94242000D02*
X145891964Y-94242000D01*
X141929794Y-92533792D02*
G75*
G03*
X138082037Y-90939988I-3847794J-3847808D01*
G01*
X156846000Y-96147000D02*
G75*
G03*
X155926185Y-95766006I-919800J-919800D01*
G01*
X137179052Y-90940000D02*
G75*
G02*
X134113014Y-89669986I48J4336100D01*
G01*
X151450370Y-94242000D02*
G75*
G02*
X153290009Y-95003991I30J-2601600D01*
G01*
X155129631Y-95766000D02*
G75*
G02*
X153289991Y-95004009I-31J2601600D01*
G01*
X142044208Y-92648207D02*
G75*
G03*
X145891964Y-94242010I3847792J3847807D01*
G01*
X169444500Y-102020400D02*
X169900356Y-102020400D01*
X165338840Y-92066839D02*
X165141002Y-91869000D01*
X165562002Y-92605601D02*
X165562002Y-92921200D01*
X165562002Y-92921200D02*
X165562002Y-96386038D01*
X158560500Y-88400000D02*
X158243000Y-88400000D01*
X160402000Y-103873702D02*
X160402000Y-103894000D01*
X146376000Y-103619800D02*
X145669253Y-104326547D01*
X167155795Y-100233794D02*
X168587362Y-101665361D01*
X158979123Y-102482000D02*
X149122893Y-102482000D01*
X163323000Y-91448000D02*
X164124615Y-91448000D01*
X159102507Y-88624506D02*
X160938173Y-90460171D01*
X159066993Y-102518397D02*
X160387648Y-103839052D01*
X169979300Y-101987700D02*
X170012000Y-101955000D01*
X144628600Y-104757600D02*
X144019000Y-104757600D01*
X163323000Y-91448000D02*
G75*
G02*
X160938163Y-90460181I0J3372700D01*
G01*
X165338840Y-92066839D02*
G75*
G02*
X165562008Y-92605601I-538740J-538761D01*
G01*
X146376000Y-103619800D02*
G75*
G02*
X149122893Y-102481997I2746900J-2746900D01*
G01*
X158979123Y-102482000D02*
G75*
G02*
X159066988Y-102518402I-23J-124300D01*
G01*
X160402000Y-103873702D02*
G75*
G03*
X160387648Y-103839052I-49000J2D01*
G01*
X165141002Y-91869000D02*
G75*
G03*
X164124615Y-91447992I-1016402J-1016400D01*
G01*
X167155795Y-100233794D02*
G75*
G02*
X165561990Y-96386038I3847805J3847794D01*
G01*
X158560500Y-88400000D02*
G75*
G02*
X159102504Y-88624509I0J-766500D01*
G01*
X144628600Y-104757600D02*
G75*
G03*
X145669252Y-104326546I0J1471700D01*
G01*
X169444500Y-102020400D02*
G75*
G02*
X168587357Y-101665366I0J1212200D01*
G01*
X169900356Y-102020400D02*
G75*
G03*
X169979313Y-101987713I44J111600D01*
G01*
D20*
X122683000Y-90051000D02*
X122683000Y-88400000D01*
X124534308Y-93553306D02*
X123850434Y-92869433D01*
X127128000Y-99830000D02*
X127128000Y-99815029D01*
X123850434Y-92869433D02*
G75*
G02*
X122683010Y-90051000I2818466J2818433D01*
G01*
X124534308Y-93553306D02*
G75*
G02*
X127127982Y-99815029I-6261708J-6261694D01*
G01*
D18*
X124842000Y-103767000D02*
X124080000Y-103005000D01*
X123318000Y-99703000D02*
X123318000Y-101165369D01*
X123318000Y-101165369D02*
G75*
G03*
X124079991Y-103005009I2601600J-31D01*
G01*
X165012520Y-108935480D02*
X166614215Y-107333785D01*
X161760481Y-110282519D02*
X160783000Y-111260000D01*
X166802800Y-106611800D02*
X166802800Y-106878500D01*
X165012520Y-108935480D02*
G75*
G02*
X163386500Y-109609011I-1626020J1625980D01*
G01*
X163386500Y-109609000D02*
G75*
G03*
X161760489Y-110282527I0J-2299500D01*
G01*
X166802800Y-106878500D02*
G75*
G02*
X166614221Y-107333791I-643900J0D01*
G01*
X161672000Y-106561000D02*
X161672000Y-106434000D01*
X157119147Y-109355000D02*
X156415039Y-109355000D01*
X154115500Y-110307500D02*
X153163000Y-111260000D01*
X161582198Y-106777802D02*
X160338500Y-108021500D01*
X157119147Y-109355000D02*
G75*
G03*
X160338486Y-108021486I-47J4552900D01*
G01*
X161672000Y-106561000D02*
G75*
G02*
X161582197Y-106777801I-306600J0D01*
G01*
X154115500Y-110307500D02*
G75*
G02*
X156415039Y-109355016I2299500J-2299500D01*
G01*
X138667284Y-89144283D02*
X137923000Y-88400000D01*
X146399964Y-92972000D02*
X151958370Y-92972000D01*
X141485717Y-90311716D02*
X142552208Y-91378206D01*
X155637631Y-94496000D02*
X157227000Y-94496000D01*
X140076500Y-89728000D02*
G75*
G02*
X141485710Y-90311723I0J-1992900D01*
G01*
X146399964Y-92972000D02*
G75*
G02*
X142552215Y-91378199I36J5441600D01*
G01*
X153798000Y-93734000D02*
G75*
G03*
X155637631Y-94495987I1839600J1839600D01*
G01*
X140076500Y-89728000D02*
G75*
G02*
X138667290Y-89144277I0J1992900D01*
G01*
X153798000Y-93734000D02*
G75*
G03*
X151958370Y-92972013I-1839600J-1839600D01*
G01*
X154022507Y-88624506D02*
X154814001Y-89415999D01*
X153480500Y-88400000D02*
X153163000Y-88400000D01*
X160021000Y-91321000D02*
X160371185Y-91671184D01*
X160910000Y-93464592D02*
X160910000Y-92972000D01*
X157874765Y-90432000D02*
X157266841Y-90432000D01*
X161100500Y-93924500D02*
X161291000Y-94115000D01*
X157874765Y-90432000D02*
G75*
G02*
X160021011Y-91320989I35J-3035200D01*
G01*
X160371185Y-91671184D02*
G75*
G02*
X160910010Y-92972000I-1300785J-1300816D01*
G01*
X157266841Y-90432000D02*
G75*
G02*
X154813988Y-89416012I-41J3468800D01*
G01*
X161100500Y-93924500D02*
G75*
G02*
X160910003Y-93464592I459900J459900D01*
G01*
X153480500Y-88400000D02*
G75*
G02*
X154022504Y-88624509I0J-766500D01*
G01*
X160275000Y-94115000D02*
X160275000Y-93289500D01*
X157890172Y-91067000D02*
X156474026Y-91067000D01*
X151321500Y-89098500D02*
X150623000Y-88400000D01*
X153007829Y-89797000D02*
X153407975Y-89797000D01*
X159691284Y-91880283D02*
X159576501Y-91765499D01*
X154941000Y-90432000D02*
G75*
G03*
X153407975Y-89797011I-1533000J-1533000D01*
G01*
X159691284Y-91880283D02*
G75*
G02*
X160275010Y-93289500I-1409184J-1409217D01*
G01*
X153007829Y-89797000D02*
G75*
G02*
X151321492Y-89098508I-29J2384800D01*
G01*
X154941000Y-90432000D02*
G75*
G03*
X156474026Y-91066989I1533000J1533000D01*
G01*
X157890172Y-91067000D02*
G75*
G02*
X159576508Y-91765492I28J-2384800D01*
G01*
X149670500Y-109672500D02*
X148083000Y-111260000D01*
X159640000Y-106434000D02*
X159640000Y-106717842D01*
X153503065Y-108085000D02*
X157790666Y-108085000D01*
X159439294Y-107202391D02*
X159098343Y-107543342D01*
X159439294Y-107202391D02*
G75*
G03*
X159640047Y-106717842I-484494J484591D01*
G01*
X149670500Y-109672500D02*
G75*
G02*
X153503065Y-108084985I3832600J-3832600D01*
G01*
X159098343Y-107543342D02*
G75*
G02*
X157790666Y-108084986I-1307643J1307642D01*
G01*
X139935854Y-108593000D02*
X143289037Y-108593000D01*
X147136793Y-106999207D02*
X147189817Y-106946183D01*
X136716500Y-109926500D02*
X135383000Y-111260000D01*
X157791935Y-105352391D02*
X151037573Y-105352391D01*
X151037573Y-105352391D02*
G75*
G03*
X147189839Y-106946205I27J-5441509D01*
G01*
X147136793Y-106999207D02*
G75*
G02*
X143289037Y-108593011I-3847793J3847807D01*
G01*
X136716500Y-109926500D02*
G75*
G02*
X139935854Y-108592981I3219400J-3219400D01*
G01*
X158087829Y-89797000D02*
X158243000Y-89797000D01*
X161994013Y-93675012D02*
X162459400Y-94140400D01*
X156401500Y-89098500D02*
X155703000Y-88400000D01*
X160194224Y-90605223D02*
X161095988Y-91506987D01*
X161545000Y-92591000D02*
G75*
G03*
X161994018Y-93675007I1533000J0D01*
G01*
X158087829Y-89797000D02*
G75*
G02*
X156401492Y-89098508I-29J2384800D01*
G01*
X161545000Y-92591000D02*
G75*
G03*
X161095982Y-91506993I-1533000J0D01*
G01*
X160194224Y-90605223D02*
G75*
G03*
X158243000Y-89796986I-1951224J-1951177D01*
G01*
X138939000Y-110244000D02*
X137923000Y-111260000D01*
X151217065Y-106053000D02*
X157227000Y-106053000D01*
X143551936Y-109228000D02*
X141391841Y-109228000D01*
X138939000Y-110244000D02*
G75*
G02*
X141391841Y-109228017I2452800J-2452800D01*
G01*
X147384500Y-107640500D02*
G75*
G02*
X151217065Y-106052985I3832600J-3832600D01*
G01*
X147384500Y-107640500D02*
G75*
G02*
X143551936Y-109228015I-3832600J3832600D01*
G01*
X162459400Y-106167300D02*
X162459400Y-105545000D01*
X158116000Y-109990000D02*
X157871026Y-109990000D01*
X160067224Y-109181776D02*
X162019368Y-107229632D01*
X156338000Y-110625000D02*
X155703000Y-111260000D01*
X158116000Y-109990000D02*
G75*
G03*
X160067235Y-109181787I0J2759500D01*
G01*
X162459400Y-106167300D02*
G75*
G02*
X162019375Y-107229639I-1502400J0D01*
G01*
X156338000Y-110625000D02*
G75*
G02*
X157871026Y-109990011I1533000J-1533000D01*
G01*
X166553000Y-110570000D02*
X165863000Y-111260000D01*
X171881000Y-109352602D02*
X171555002Y-109678600D01*
X170984769Y-109880000D02*
X168218808Y-109880000D01*
X171881000Y-108580000D02*
X171881000Y-109352602D01*
X171555002Y-109678600D02*
G75*
G02*
X170984769Y-109880022I-574202J717700D01*
G01*
X168218808Y-109880000D02*
G75*
G03*
X166552998Y-110569998I-8J-2355800D01*
G01*
X149213236Y-91702000D02*
X152584457Y-91702000D01*
X144458988Y-89474987D02*
X143518704Y-88534703D01*
X156007540Y-93059000D02*
X155454270Y-93059000D01*
X146627013Y-90373012D02*
X147067000Y-90813000D01*
X143193500Y-88400000D02*
X143003000Y-88400000D01*
X154222501Y-92380499D02*
X154509780Y-92667779D01*
X147067000Y-90813000D02*
G75*
G03*
X149213236Y-91701985I2146200J2146200D01*
G01*
X155454270Y-93059000D02*
G75*
G02*
X154509797Y-92667762I30J1335700D01*
G01*
X145543000Y-89924000D02*
G75*
G02*
X146627007Y-90373018I0J-1533000D01*
G01*
X154222501Y-92380499D02*
G75*
G03*
X152584457Y-91702017I-1638001J-1638001D01*
G01*
X144458988Y-89474987D02*
G75*
G03*
X145543000Y-89924007I1084012J1083987D01*
G01*
X143518704Y-88534703D02*
G75*
G03*
X143193500Y-88399997I-325204J-325197D01*
G01*
X164834300Y-108224700D02*
X165287252Y-107771748D01*
X160131271Y-110006729D02*
X159102507Y-111035493D01*
X165583600Y-106637200D02*
X165583600Y-107056300D01*
X165583600Y-106637200D02*
X165572327Y-106648473D01*
X162624500Y-108974000D02*
X163025330Y-108974000D01*
X158560500Y-111260000D02*
X158243000Y-111260000D01*
X165562002Y-106673399D02*
X165562002Y-106688000D01*
X159102507Y-111035493D02*
G75*
G02*
X158560500Y-111260004I-542007J541993D01*
G01*
X160131271Y-110006729D02*
G75*
G02*
X162624500Y-108974012I2493229J-2493271D01*
G01*
X165583600Y-107056300D02*
G75*
G02*
X165287253Y-107771749I-1011800J0D01*
G01*
X165562002Y-106673399D02*
G75*
G02*
X165572318Y-106648464I35298J-1D01*
G01*
X163025330Y-108974000D02*
G75*
G03*
X164834291Y-108224691I-30J2558300D01*
G01*
X159360600Y-92742654D02*
X159360600Y-93429200D01*
X151551841Y-90432000D02*
X153134925Y-90432000D01*
X149099000Y-89416000D02*
X148083000Y-88400000D01*
X158319946Y-91702000D02*
X156200976Y-91702000D01*
X153134925Y-90432000D02*
G75*
G02*
X154667933Y-91067017I-25J-2168000D01*
G01*
X154667950Y-91067000D02*
G75*
G03*
X156200976Y-91702025I1533050J1533000D01*
G01*
X149099000Y-89416000D02*
G75*
G03*
X151551841Y-90431983I2452800J2452800D01*
G01*
X158319946Y-91702000D02*
G75*
G02*
X159055815Y-92006785I54J-1040600D01*
G01*
X159360600Y-92742654D02*
G75*
G03*
X159055815Y-92006785I-1040600J54D01*
G01*
X163666803Y-111170197D02*
X167557580Y-107279420D01*
X170308000Y-106561000D02*
X169292000Y-106561000D01*
X163450000Y-111260000D02*
X163323000Y-111260000D01*
X163666803Y-111170197D02*
G75*
G02*
X163450000Y-111260002I-216803J216797D01*
G01*
X169292000Y-106561000D02*
G75*
G03*
X167557588Y-107279428I0J-2452800D01*
G01*
X151893000Y-109990000D02*
X150623000Y-111260000D01*
X160521297Y-106949703D02*
X159703500Y-107767500D01*
X160656000Y-106434000D02*
X160656000Y-106624500D01*
X154959052Y-108720000D02*
X157403962Y-108720000D01*
X157403962Y-108720000D02*
G75*
G03*
X159703511Y-107767511I38J3252000D01*
G01*
X151893000Y-109990000D02*
G75*
G02*
X154959052Y-108719980I3066100J-3066100D01*
G01*
X160521297Y-106949703D02*
G75*
G03*
X160656002Y-106624500I-325197J325203D01*
G01*
X152616481Y-96997480D02*
X152528000Y-96909000D01*
X141167793Y-94438792D02*
X141282208Y-94553206D01*
X129231752Y-90432000D02*
X128691841Y-90432000D01*
X157227000Y-99703000D02*
X155868520Y-98344519D01*
X137320037Y-92845000D02*
X135057249Y-92845000D01*
X126239000Y-89416000D02*
X125223000Y-88400000D01*
X150688370Y-96147000D02*
X145129964Y-96147000D01*
X157254296Y-99830000D02*
X157254296Y-99929704D01*
X155868520Y-98344519D02*
G75*
G03*
X154242500Y-97670988I-1626020J-1625981D01*
G01*
X152616481Y-96997480D02*
G75*
G03*
X154242500Y-97671011I1626019J1625980D01*
G01*
X128691841Y-90432000D02*
G75*
G02*
X126238988Y-89416012I-41J3468800D01*
G01*
X145129964Y-96147000D02*
G75*
G02*
X141282215Y-94553199I36J5441600D01*
G01*
X135057249Y-92845000D02*
G75*
G02*
X132144515Y-91638485I51J4119300D01*
G01*
X129231752Y-90432000D02*
G75*
G02*
X132144514Y-91638486I48J-4119200D01*
G01*
X150688370Y-96147000D02*
G75*
G02*
X152528009Y-96908991I30J-2601600D01*
G01*
X137320037Y-92845000D02*
G75*
G02*
X141167764Y-94438821I-37J-5441500D01*
G01*
X123699000Y-104656000D02*
X124842000Y-105799000D01*
X123318000Y-97798000D02*
X122937000Y-98179000D01*
X122556000Y-101896553D02*
X122556000Y-99098815D01*
X122937000Y-98179000D02*
G75*
G03*
X122556006Y-99098815I919800J-919800D01*
G01*
X123699000Y-104656000D02*
G75*
G02*
X122555978Y-101896553I2759500J2759500D01*
G01*
X135949988Y-108153012D02*
X132843000Y-111260000D01*
X157227000Y-104616000D02*
X150814546Y-104616000D01*
X145710000Y-103055800D02*
X145710000Y-102878000D01*
X137669000Y-107704000D02*
X143359455Y-107704000D01*
X137716220Y-104608780D02*
X138492710Y-103832290D01*
X137669000Y-107704000D02*
X137034000Y-107704000D01*
X145710000Y-103055800D02*
X140367323Y-103055800D01*
X150814546Y-104616000D02*
G75*
G03*
X147086987Y-106159987I-46J-5271500D01*
G01*
X143359455Y-107704000D02*
G75*
G03*
X147087013Y-106160013I45J5271500D01*
G01*
X138492710Y-103832290D02*
G75*
G02*
X140367323Y-103055815I1874590J-1874610D01*
G01*
X135949988Y-108153012D02*
G75*
G02*
X137034000Y-107703992I1084012J-1083988D01*
G01*
G04 #@! TA.AperFunction,Conductor*
G36*
X119002643Y-87450185D02*
G01*
X119048398Y-87502989D01*
X119058342Y-87572147D01*
X119037179Y-87625623D01*
X118969400Y-87722420D01*
X118969399Y-87722422D01*
X118869570Y-87936507D01*
X118869567Y-87936513D01*
X118812364Y-88149999D01*
X118812364Y-88150000D01*
X119709988Y-88150000D01*
X119677075Y-88207007D01*
X119643000Y-88334174D01*
X119643000Y-88465826D01*
X119677075Y-88592993D01*
X119709988Y-88650000D01*
X118812364Y-88650000D01*
X118869567Y-88863486D01*
X118869570Y-88863492D01*
X118969399Y-89077578D01*
X119104894Y-89271082D01*
X119271917Y-89438105D01*
X119465421Y-89573600D01*
X119679507Y-89673429D01*
X119679516Y-89673433D01*
X119893000Y-89730634D01*
X119893000Y-88833012D01*
X119950007Y-88865925D01*
X120077174Y-88900000D01*
X120208826Y-88900000D01*
X120335993Y-88865925D01*
X120393000Y-88833012D01*
X120393000Y-89730633D01*
X120606483Y-89673433D01*
X120606492Y-89673429D01*
X120820578Y-89573600D01*
X121014082Y-89438105D01*
X121181105Y-89271082D01*
X121311119Y-89085405D01*
X121365696Y-89041781D01*
X121435195Y-89034588D01*
X121497549Y-89066110D01*
X121514269Y-89085405D01*
X121644505Y-89271401D01*
X121644506Y-89271402D01*
X121811595Y-89438492D01*
X121811598Y-89438494D01*
X121811599Y-89438495D01*
X121879623Y-89486125D01*
X121923248Y-89540701D01*
X121932500Y-89587700D01*
X121932500Y-90130930D01*
X121932511Y-90131153D01*
X121932511Y-90237097D01*
X121961712Y-90608128D01*
X121961712Y-90608129D01*
X121984096Y-90749455D01*
X122019934Y-90975730D01*
X122103410Y-91323434D01*
X122106821Y-91337641D01*
X122221825Y-91691592D01*
X122364257Y-92035454D01*
X122533212Y-92367050D01*
X122533224Y-92367072D01*
X122727684Y-92684404D01*
X122727701Y-92684429D01*
X122946442Y-92985505D01*
X123022784Y-93074891D01*
X123170753Y-93248142D01*
X123188163Y-93268526D01*
X123263143Y-93343507D01*
X123263174Y-93343541D01*
X123302304Y-93382670D01*
X123302306Y-93382673D01*
X123302307Y-93382673D01*
X123319747Y-93400113D01*
X123319747Y-93400114D01*
X123343498Y-93423865D01*
X123379854Y-93460221D01*
X123379865Y-93460231D01*
X123947847Y-94028212D01*
X124002169Y-94082534D01*
X124004991Y-94085450D01*
X124363401Y-94468121D01*
X124368752Y-94474222D01*
X124700067Y-94877933D01*
X124705006Y-94884370D01*
X125009207Y-95308882D01*
X125013715Y-95315629D01*
X125289497Y-95759125D01*
X125293554Y-95766152D01*
X125539741Y-96226737D01*
X125543330Y-96234015D01*
X125758865Y-96709713D01*
X125761970Y-96717209D01*
X125945929Y-97205980D01*
X125948538Y-97213664D01*
X126100142Y-97713439D01*
X126102242Y-97721277D01*
X126126655Y-97825978D01*
X126201721Y-98147926D01*
X126220831Y-98229883D01*
X126222413Y-98237837D01*
X126302382Y-98722208D01*
X126307486Y-98753120D01*
X126308545Y-98761166D01*
X126359731Y-99280896D01*
X126360262Y-99288993D01*
X126364362Y-99414263D01*
X126348898Y-99476012D01*
X126349392Y-99476232D01*
X126348137Y-99479049D01*
X126347823Y-99480305D01*
X126346753Y-99482158D01*
X126346749Y-99482167D01*
X126291504Y-99652192D01*
X126291503Y-99652194D01*
X126272815Y-99830000D01*
X126291503Y-100007805D01*
X126291504Y-100007807D01*
X126346747Y-100177829D01*
X126346750Y-100177835D01*
X126436141Y-100332665D01*
X126476260Y-100377221D01*
X126555764Y-100465521D01*
X126555767Y-100465523D01*
X126555770Y-100465526D01*
X126700407Y-100570612D01*
X126863733Y-100643329D01*
X127038609Y-100680500D01*
X127038610Y-100680500D01*
X127217389Y-100680500D01*
X127217391Y-100680500D01*
X127392267Y-100643329D01*
X127555593Y-100570612D01*
X127700230Y-100465526D01*
X127819859Y-100332665D01*
X127909250Y-100177835D01*
X127964497Y-100007803D01*
X127983185Y-99830000D01*
X127964497Y-99652197D01*
X127923231Y-99525194D01*
X127909251Y-99482167D01*
X127907451Y-99479049D01*
X127886623Y-99442975D01*
X127870237Y-99388462D01*
X127869695Y-99379495D01*
X127843433Y-98945311D01*
X127773461Y-98369023D01*
X127668821Y-97798012D01*
X127529895Y-97234361D01*
X127529894Y-97234360D01*
X127529892Y-97234349D01*
X127395789Y-96803997D01*
X127357190Y-96680126D01*
X127151336Y-96137330D01*
X126913084Y-95607953D01*
X126643304Y-95093928D01*
X126583804Y-94995502D01*
X126342986Y-94597139D01*
X126342979Y-94597129D01*
X126013208Y-94119371D01*
X125655191Y-93662394D01*
X125270236Y-93227869D01*
X125197683Y-93155315D01*
X125117262Y-93074892D01*
X125117259Y-93074890D01*
X124409258Y-92366890D01*
X124409257Y-92366889D01*
X124383265Y-92340896D01*
X124379070Y-92336489D01*
X124220919Y-92161994D01*
X124171987Y-92108005D01*
X124164270Y-92098602D01*
X124150851Y-92080509D01*
X124041383Y-91932906D01*
X123982395Y-91853369D01*
X123975634Y-91843251D01*
X123818666Y-91581363D01*
X123812930Y-91570631D01*
X123682393Y-91294631D01*
X123677736Y-91283389D01*
X123651470Y-91209980D01*
X123574870Y-90995897D01*
X123571345Y-90984274D01*
X123497156Y-90688094D01*
X123494783Y-90676162D01*
X123449984Y-90374149D01*
X123448791Y-90362040D01*
X123433648Y-90053794D01*
X123433500Y-90047739D01*
X123433500Y-89587700D01*
X123453185Y-89520661D01*
X123486375Y-89486126D01*
X123554401Y-89438495D01*
X123721495Y-89271401D01*
X123851426Y-89085841D01*
X123906002Y-89042217D01*
X123975500Y-89035023D01*
X124037855Y-89066546D01*
X124054575Y-89085842D01*
X124184281Y-89271082D01*
X124184505Y-89271401D01*
X124351599Y-89438495D01*
X124448384Y-89506265D01*
X124545165Y-89574032D01*
X124545167Y-89574033D01*
X124545170Y-89574035D01*
X124759337Y-89673903D01*
X124759343Y-89673904D01*
X124759344Y-89673905D01*
X124810698Y-89687665D01*
X124987592Y-89735063D01*
X125164034Y-89750500D01*
X125222999Y-89755659D01*
X125223000Y-89755659D01*
X125223001Y-89755659D01*
X125281966Y-89750500D01*
X125458408Y-89735063D01*
X125558873Y-89708143D01*
X125628722Y-89709806D01*
X125678647Y-89740237D01*
X125738665Y-89800255D01*
X125738675Y-89800266D01*
X125742999Y-89804590D01*
X125743000Y-89804591D01*
X125760372Y-89821963D01*
X125760399Y-89822012D01*
X125796693Y-89858306D01*
X125796693Y-89858307D01*
X125923098Y-89984713D01*
X126196980Y-90214526D01*
X126196985Y-90214530D01*
X126489849Y-90419595D01*
X126595915Y-90480831D01*
X126799478Y-90598357D01*
X126937801Y-90662857D01*
X127123495Y-90749447D01*
X127123514Y-90749455D01*
X127459464Y-90871729D01*
X127459484Y-90871736D01*
X127541422Y-90893690D01*
X127804821Y-90964265D01*
X127804837Y-90964267D01*
X127804842Y-90964269D01*
X128156910Y-91026345D01*
X128156912Y-91026345D01*
X128156917Y-91026346D01*
X128513085Y-91057502D01*
X128691848Y-91057500D01*
X129155806Y-91057500D01*
X129155810Y-91057501D01*
X129228709Y-91057500D01*
X129234792Y-91057648D01*
X129568132Y-91074021D01*
X129580230Y-91075213D01*
X129907338Y-91123732D01*
X129919257Y-91126102D01*
X130240030Y-91206449D01*
X130251671Y-91209980D01*
X130563029Y-91321383D01*
X130574272Y-91326040D01*
X130873195Y-91467418D01*
X130883928Y-91473154D01*
X131167570Y-91643162D01*
X131177677Y-91649915D01*
X131443286Y-91846904D01*
X131452685Y-91854616D01*
X131659935Y-92042457D01*
X131699665Y-92078466D01*
X131704073Y-92082663D01*
X131729418Y-92108009D01*
X131761198Y-92139789D01*
X131761462Y-92140022D01*
X131834039Y-92212600D01*
X132117550Y-92454741D01*
X132419184Y-92673893D01*
X132436377Y-92684429D01*
X132737071Y-92868696D01*
X132737076Y-92868699D01*
X132737083Y-92868703D01*
X133069287Y-93037971D01*
X133413746Y-93180654D01*
X133768339Y-93295871D01*
X134130878Y-93382912D01*
X134499129Y-93441241D01*
X134870820Y-93470498D01*
X134988038Y-93470498D01*
X134988048Y-93470500D01*
X135057241Y-93470500D01*
X135133191Y-93470501D01*
X135133195Y-93470500D01*
X137317607Y-93470500D01*
X137322475Y-93470595D01*
X137693041Y-93485158D01*
X137702715Y-93485919D01*
X138068587Y-93529226D01*
X138078199Y-93530748D01*
X138439552Y-93602629D01*
X138448983Y-93604893D01*
X138803589Y-93704905D01*
X138812819Y-93707904D01*
X139158485Y-93835431D01*
X139167455Y-93839147D01*
X139502031Y-93993392D01*
X139510706Y-93997812D01*
X139832136Y-94177826D01*
X139840438Y-94182913D01*
X140146770Y-94387601D01*
X140154634Y-94393315D01*
X140443979Y-94621421D01*
X140451351Y-94627718D01*
X140507800Y-94679900D01*
X140724438Y-94880163D01*
X140727940Y-94883530D01*
X140734109Y-94889698D01*
X140774730Y-94930320D01*
X140786264Y-94941854D01*
X140786271Y-94941860D01*
X140832716Y-94988305D01*
X140839914Y-94995502D01*
X140887987Y-95043575D01*
X140888127Y-95043701D01*
X140993140Y-95148714D01*
X141085409Y-95228665D01*
X141320666Y-95432517D01*
X141667584Y-95692216D01*
X141667589Y-95692219D01*
X142032162Y-95926516D01*
X142412521Y-96134209D01*
X142806728Y-96314238D01*
X143212773Y-96465686D01*
X143456965Y-96537387D01*
X143628589Y-96587782D01*
X144052046Y-96679902D01*
X144052050Y-96679902D01*
X144052052Y-96679903D01*
X144481010Y-96741580D01*
X144866942Y-96769184D01*
X144913274Y-96772498D01*
X144913275Y-96772498D01*
X145058361Y-96772498D01*
X145058369Y-96772500D01*
X145068358Y-96772500D01*
X145129960Y-96772500D01*
X145164420Y-96772500D01*
X145231459Y-96792185D01*
X145277214Y-96844989D01*
X145287158Y-96914147D01*
X145271808Y-96958499D01*
X145202949Y-97077767D01*
X145202947Y-97077770D01*
X145147704Y-97247792D01*
X145147703Y-97247794D01*
X145129015Y-97425600D01*
X145147703Y-97603405D01*
X145147704Y-97603407D01*
X145202947Y-97773429D01*
X145202950Y-97773435D01*
X145292341Y-97928265D01*
X145300615Y-97937454D01*
X145411964Y-98061121D01*
X145411967Y-98061123D01*
X145411970Y-98061126D01*
X145556607Y-98166212D01*
X145719933Y-98238929D01*
X145894809Y-98276100D01*
X145894810Y-98276100D01*
X146073589Y-98276100D01*
X146073591Y-98276100D01*
X146248467Y-98238929D01*
X146411793Y-98166212D01*
X146556430Y-98061126D01*
X146676059Y-97928265D01*
X146761140Y-97780899D01*
X146811707Y-97732685D01*
X146868527Y-97718900D01*
X150113092Y-97718900D01*
X150113097Y-97718901D01*
X150188498Y-97718900D01*
X150195450Y-97719095D01*
X150210361Y-97719932D01*
X150405218Y-97730873D01*
X150419013Y-97732427D01*
X150622718Y-97767036D01*
X150636249Y-97770124D01*
X150834797Y-97827323D01*
X150847915Y-97831913D01*
X151038797Y-97910978D01*
X151051304Y-97917001D01*
X151232137Y-98016942D01*
X151243911Y-98024340D01*
X151412409Y-98143895D01*
X151423281Y-98152565D01*
X151579764Y-98292407D01*
X151584818Y-98297186D01*
X151638294Y-98350662D01*
X151638295Y-98350662D01*
X151761210Y-98473576D01*
X151761351Y-98473704D01*
X151810750Y-98523103D01*
X151940039Y-98629210D01*
X152042403Y-98713220D01*
X152291562Y-98879707D01*
X152291572Y-98879713D01*
X152291574Y-98879714D01*
X152555866Y-99020983D01*
X152832732Y-99135667D01*
X153119506Y-99222660D01*
X153413426Y-99281126D01*
X153711661Y-99310500D01*
X153782619Y-99310500D01*
X153857433Y-99310500D01*
X153865542Y-99310765D01*
X153882396Y-99311869D01*
X154055594Y-99323221D01*
X154071654Y-99325336D01*
X154254455Y-99361698D01*
X154270095Y-99365888D01*
X154446592Y-99425802D01*
X154461570Y-99432007D01*
X154628719Y-99514437D01*
X154642763Y-99522545D01*
X154731604Y-99581907D01*
X154797730Y-99626092D01*
X154810598Y-99635967D01*
X154953903Y-99761645D01*
X154959824Y-99767191D01*
X154974658Y-99782025D01*
X155019666Y-99827035D01*
X155019680Y-99827047D01*
X155856220Y-100663587D01*
X155856239Y-100663608D01*
X155860562Y-100667930D01*
X155860563Y-100667932D01*
X155880014Y-100687381D01*
X155880029Y-100687410D01*
X156000431Y-100807810D01*
X156000434Y-100807812D01*
X156000438Y-100807815D01*
X156000439Y-100807816D01*
X156189163Y-100952624D01*
X156315247Y-101025416D01*
X156395167Y-101071557D01*
X156395169Y-101071558D01*
X156395173Y-101071560D01*
X156614945Y-101162590D01*
X156707607Y-101187418D01*
X156844713Y-101224155D01*
X156844715Y-101224155D01*
X156844718Y-101224156D01*
X157014975Y-101246569D01*
X157080560Y-101255204D01*
X157080561Y-101255204D01*
X157125582Y-101255204D01*
X157290092Y-101255204D01*
X157290190Y-101255208D01*
X157296502Y-101255207D01*
X157296508Y-101255209D01*
X157324009Y-101255207D01*
X157324060Y-101255221D01*
X157375389Y-101255218D01*
X157375389Y-101255219D01*
X157466501Y-101255214D01*
X157647164Y-101231419D01*
X157823177Y-101184249D01*
X157991528Y-101114510D01*
X158149336Y-101023395D01*
X158293903Y-100912464D01*
X158293920Y-100912446D01*
X158295257Y-100911276D01*
X158295746Y-100911049D01*
X158297125Y-100909991D01*
X158297361Y-100910299D01*
X158358638Y-100881870D01*
X158377021Y-100880500D01*
X158827259Y-100880500D01*
X158877693Y-100891219D01*
X158994733Y-100943329D01*
X159169609Y-100980500D01*
X159169610Y-100980500D01*
X159348389Y-100980500D01*
X159348391Y-100980500D01*
X159523267Y-100943329D01*
X159686593Y-100870612D01*
X159831230Y-100765526D01*
X159950859Y-100632665D01*
X160040250Y-100477835D01*
X160095497Y-100307803D01*
X160114185Y-100130000D01*
X160095497Y-99952197D01*
X160040250Y-99782165D01*
X159950859Y-99627335D01*
X159904003Y-99575296D01*
X159831235Y-99494478D01*
X159831232Y-99494476D01*
X159831231Y-99494475D01*
X159831230Y-99494474D01*
X159686593Y-99389388D01*
X159523267Y-99316671D01*
X159523265Y-99316670D01*
X159386108Y-99287517D01*
X159348391Y-99279500D01*
X159169609Y-99279500D01*
X159161955Y-99281127D01*
X158994733Y-99316670D01*
X158877694Y-99368780D01*
X158827259Y-99379500D01*
X158365201Y-99379500D01*
X158365102Y-99379495D01*
X158358785Y-99379495D01*
X158353261Y-99379495D01*
X158331283Y-99379496D01*
X158331221Y-99379478D01*
X158188792Y-99379486D01*
X158116206Y-99389046D01*
X158047171Y-99378284D01*
X157994913Y-99331906D01*
X157992629Y-99328108D01*
X157939598Y-99236255D01*
X157923125Y-99168354D01*
X157939597Y-99112257D01*
X158002311Y-99003634D01*
X158057558Y-98833602D01*
X158076246Y-98655799D01*
X158057558Y-98477996D01*
X158022147Y-98369013D01*
X158002313Y-98307969D01*
X158002310Y-98307963D01*
X157999579Y-98303233D01*
X157920950Y-98167042D01*
X157904477Y-98099141D01*
X157920949Y-98043044D01*
X158008250Y-97891835D01*
X158063497Y-97721803D01*
X158082185Y-97544000D01*
X158063497Y-97366197D01*
X158026949Y-97253715D01*
X158008252Y-97196170D01*
X158008249Y-97196164D01*
X157951573Y-97097998D01*
X157935101Y-97030100D01*
X157951573Y-96974001D01*
X158008250Y-96875835D01*
X158063497Y-96705803D01*
X158082185Y-96528000D01*
X158063497Y-96350197D01*
X158025747Y-96234015D01*
X158008252Y-96180170D01*
X158008249Y-96180164D01*
X157983519Y-96137330D01*
X157951573Y-96081998D01*
X157935101Y-96014100D01*
X157951573Y-95958001D01*
X158008250Y-95859835D01*
X158063497Y-95689803D01*
X158082185Y-95512000D01*
X158063497Y-95334197D01*
X158029210Y-95228674D01*
X158008252Y-95164170D01*
X158008249Y-95164164D01*
X157951573Y-95065998D01*
X157935101Y-94998100D01*
X157951573Y-94942001D01*
X158008250Y-94843835D01*
X158063497Y-94673803D01*
X158082185Y-94496000D01*
X158063497Y-94318197D01*
X158027963Y-94208835D01*
X158008252Y-94148170D01*
X158008249Y-94148164D01*
X157918859Y-93993335D01*
X157863509Y-93931863D01*
X157799235Y-93860478D01*
X157799232Y-93860476D01*
X157799231Y-93860475D01*
X157799230Y-93860474D01*
X157684379Y-93777029D01*
X157654592Y-93755387D01*
X157654590Y-93755386D01*
X157637994Y-93747997D01*
X157584758Y-93702746D01*
X157565112Y-93647683D01*
X157555497Y-93556197D01*
X157512500Y-93423865D01*
X157500252Y-93386170D01*
X157500249Y-93386164D01*
X157498371Y-93382912D01*
X157410859Y-93231335D01*
X157407737Y-93227868D01*
X157355158Y-93169472D01*
X157324928Y-93106480D01*
X157333554Y-93037145D01*
X157378295Y-92983479D01*
X157444948Y-92962522D01*
X157447308Y-92962500D01*
X157754559Y-92962500D01*
X157821598Y-92982185D01*
X157861946Y-93024501D01*
X157950139Y-93177258D01*
X157950141Y-93177261D01*
X158069766Y-93310119D01*
X158069769Y-93310121D01*
X158069772Y-93310124D01*
X158214409Y-93415210D01*
X158377735Y-93487927D01*
X158426523Y-93498297D01*
X158488005Y-93531489D01*
X158521781Y-93592652D01*
X158524061Y-93606608D01*
X158524101Y-93606994D01*
X158524104Y-93607007D01*
X158579347Y-93777029D01*
X158579350Y-93777035D01*
X158668741Y-93931865D01*
X158686032Y-93951068D01*
X158788364Y-94064721D01*
X158788367Y-94064723D01*
X158788370Y-94064726D01*
X158933007Y-94169812D01*
X159096333Y-94242529D01*
X159271209Y-94279700D01*
X159344155Y-94279700D01*
X159411194Y-94299385D01*
X159456949Y-94352189D01*
X159462086Y-94365383D01*
X159493746Y-94462826D01*
X159493750Y-94462835D01*
X159583141Y-94617665D01*
X159606087Y-94643149D01*
X159702764Y-94750521D01*
X159702767Y-94750523D01*
X159702770Y-94750526D01*
X159847407Y-94855612D01*
X160010733Y-94928329D01*
X160185609Y-94965500D01*
X160185610Y-94965500D01*
X160364389Y-94965500D01*
X160364391Y-94965500D01*
X160539267Y-94928329D01*
X160702593Y-94855612D01*
X160710112Y-94850148D01*
X160775918Y-94826667D01*
X160843972Y-94842491D01*
X160855887Y-94850148D01*
X160863407Y-94855612D01*
X161026733Y-94928329D01*
X161201609Y-94965500D01*
X161201610Y-94965500D01*
X161380389Y-94965500D01*
X161380391Y-94965500D01*
X161555267Y-94928329D01*
X161718593Y-94855612D01*
X161726112Y-94850148D01*
X161791918Y-94826667D01*
X161859972Y-94842491D01*
X161871887Y-94850148D01*
X161879407Y-94855612D01*
X162042733Y-94928329D01*
X162217609Y-94965500D01*
X162217610Y-94965500D01*
X162396389Y-94965500D01*
X162396391Y-94965500D01*
X162571267Y-94928329D01*
X162734593Y-94855612D01*
X162879230Y-94750526D01*
X162889181Y-94739475D01*
X162905148Y-94721741D01*
X162998859Y-94617665D01*
X163088250Y-94462835D01*
X163143497Y-94292803D01*
X163144207Y-94286038D01*
X163170790Y-94221426D01*
X163228086Y-94181440D01*
X163267528Y-94175000D01*
X163636000Y-94175000D01*
X163636000Y-92799000D01*
X163655685Y-92731961D01*
X163708489Y-92686206D01*
X163760000Y-92675000D01*
X164012000Y-92675000D01*
X164079039Y-92694685D01*
X164124794Y-92747489D01*
X164136000Y-92799000D01*
X164136000Y-94175000D01*
X164812502Y-94175000D01*
X164879541Y-94194685D01*
X164925296Y-94247489D01*
X164936502Y-94299000D01*
X164936502Y-96334667D01*
X164936490Y-96334707D01*
X164936491Y-96602727D01*
X164967411Y-97034993D01*
X165029088Y-97463957D01*
X165121207Y-97887415D01*
X165226832Y-98247128D01*
X165243306Y-98303233D01*
X165374807Y-98655799D01*
X165394757Y-98709285D01*
X165574782Y-99103481D01*
X165782474Y-99483842D01*
X165782482Y-99483855D01*
X166016759Y-99848399D01*
X166016776Y-99848423D01*
X166276475Y-100195341D01*
X166462962Y-100410558D01*
X166560280Y-100522869D01*
X166696059Y-100658648D01*
X166696062Y-100658652D01*
X166774268Y-100736858D01*
X166774274Y-100736863D01*
X168087034Y-102049624D01*
X168087044Y-102049635D01*
X168111052Y-102073642D01*
X168111067Y-102073670D01*
X168230236Y-102192834D01*
X168230241Y-102192838D01*
X168421072Y-102339265D01*
X168421353Y-102339480D01*
X168629975Y-102459926D01*
X168629981Y-102459928D01*
X168629984Y-102459930D01*
X168712377Y-102494058D01*
X168766781Y-102537899D01*
X168788846Y-102604193D01*
X168788215Y-102621870D01*
X168785500Y-102647125D01*
X168785500Y-103542870D01*
X168785501Y-103542876D01*
X168791908Y-103602483D01*
X168842202Y-103737328D01*
X168842206Y-103737335D01*
X168928452Y-103852544D01*
X168928455Y-103852547D01*
X169043664Y-103938793D01*
X169043671Y-103938797D01*
X169178517Y-103989091D01*
X169178516Y-103989091D01*
X169185444Y-103989835D01*
X169238127Y-103995500D01*
X170533872Y-103995499D01*
X170593483Y-103989091D01*
X170728331Y-103938796D01*
X170843546Y-103852546D01*
X170929796Y-103737331D01*
X170980091Y-103602483D01*
X170986500Y-103542873D01*
X170986499Y-102647128D01*
X170980091Y-102587517D01*
X170980090Y-102587515D01*
X170980090Y-102587512D01*
X170978308Y-102579969D01*
X170979773Y-102579622D01*
X170975409Y-102518651D01*
X170979819Y-102503633D01*
X170980089Y-102502488D01*
X170980091Y-102502483D01*
X170986500Y-102442873D01*
X170986499Y-101547128D01*
X170980091Y-101487517D01*
X170980090Y-101487515D01*
X170980090Y-101487512D01*
X170978308Y-101479969D01*
X170979773Y-101479622D01*
X170975409Y-101418651D01*
X170979819Y-101403633D01*
X170980089Y-101402488D01*
X170980091Y-101402483D01*
X170986500Y-101342873D01*
X170986499Y-100491782D01*
X171006183Y-100424744D01*
X171058987Y-100378989D01*
X171062986Y-100377247D01*
X171172673Y-100331815D01*
X171367501Y-100219333D01*
X171545982Y-100082383D01*
X171567400Y-100060965D01*
X171567422Y-100060945D01*
X171573256Y-100055110D01*
X171573259Y-100055109D01*
X171667148Y-99961220D01*
X171681299Y-99947070D01*
X171681299Y-99947067D01*
X171691499Y-99936869D01*
X171691502Y-99936864D01*
X171829065Y-99799302D01*
X171829074Y-99799297D01*
X171865385Y-99762985D01*
X171865386Y-99762986D01*
X171966056Y-99662316D01*
X172143587Y-99439698D01*
X172295077Y-99198603D01*
X172418620Y-98942063D01*
X172512662Y-98673303D01*
X172576021Y-98395703D01*
X172585907Y-98307963D01*
X172599477Y-98187517D01*
X172607900Y-98112755D01*
X172607900Y-97970386D01*
X172607900Y-97891505D01*
X172607900Y-94930320D01*
X172624512Y-94868322D01*
X172638650Y-94843835D01*
X172693897Y-94673803D01*
X172712585Y-94496000D01*
X172693897Y-94318197D01*
X172693895Y-94318193D01*
X172693241Y-94311962D01*
X172705810Y-94243232D01*
X172753542Y-94192208D01*
X172816562Y-94175000D01*
X173133828Y-94175000D01*
X173133844Y-94174999D01*
X173193372Y-94168598D01*
X173193379Y-94168596D01*
X173328086Y-94118354D01*
X173328093Y-94118350D01*
X173443187Y-94032190D01*
X173443190Y-94032187D01*
X173529350Y-93917093D01*
X173529354Y-93917086D01*
X173579596Y-93782379D01*
X173579598Y-93782372D01*
X173585999Y-93722844D01*
X173586000Y-93722827D01*
X173586000Y-93175000D01*
X171960000Y-93175000D01*
X171892961Y-93155315D01*
X171847206Y-93102511D01*
X171836000Y-93051000D01*
X171836000Y-92675000D01*
X172336000Y-92675000D01*
X173586000Y-92675000D01*
X173586000Y-92127172D01*
X173585999Y-92127155D01*
X173579598Y-92067627D01*
X173579596Y-92067620D01*
X173529354Y-91932913D01*
X173529350Y-91932906D01*
X173443190Y-91817812D01*
X173443187Y-91817809D01*
X173328093Y-91731649D01*
X173328086Y-91731645D01*
X173193379Y-91681403D01*
X173193372Y-91681401D01*
X173133844Y-91675000D01*
X172336000Y-91675000D01*
X172336000Y-92675000D01*
X171836000Y-92675000D01*
X171836000Y-91675000D01*
X171038155Y-91675000D01*
X170978627Y-91681401D01*
X170978620Y-91681403D01*
X170843913Y-91731645D01*
X170843906Y-91731649D01*
X170728812Y-91817809D01*
X170716459Y-91834311D01*
X170660524Y-91876182D01*
X170590832Y-91881165D01*
X170529510Y-91847678D01*
X170512204Y-91825978D01*
X170510080Y-91822597D01*
X170409650Y-91696665D01*
X170348183Y-91619589D01*
X170279794Y-91551201D01*
X170279794Y-91551200D01*
X170279793Y-91551200D01*
X169669390Y-90940798D01*
X169669378Y-90940784D01*
X169622282Y-90893690D01*
X169611069Y-90882477D01*
X169606291Y-90877424D01*
X169465247Y-90719598D01*
X169456577Y-90708726D01*
X169385198Y-90608129D01*
X169336104Y-90538938D01*
X169328707Y-90527166D01*
X169269253Y-90419595D01*
X169228003Y-90344960D01*
X169221971Y-90332434D01*
X169219487Y-90326436D01*
X169142299Y-90140091D01*
X169137712Y-90126983D01*
X169080070Y-89926908D01*
X169076983Y-89913380D01*
X169042107Y-89708118D01*
X169040552Y-89694316D01*
X169039447Y-89674649D01*
X169055341Y-89606613D01*
X169092129Y-89566123D01*
X169120808Y-89546042D01*
X169274401Y-89438495D01*
X169441495Y-89271401D01*
X169571426Y-89085841D01*
X169626002Y-89042217D01*
X169695500Y-89035023D01*
X169757855Y-89066546D01*
X169774575Y-89085842D01*
X169904281Y-89271082D01*
X169904505Y-89271401D01*
X170071599Y-89438495D01*
X170168384Y-89506265D01*
X170265165Y-89574032D01*
X170265167Y-89574033D01*
X170265170Y-89574035D01*
X170479337Y-89673903D01*
X170479343Y-89673904D01*
X170479344Y-89673905D01*
X170530698Y-89687665D01*
X170707592Y-89735063D01*
X170884034Y-89750500D01*
X170942999Y-89755659D01*
X170943000Y-89755659D01*
X170943001Y-89755659D01*
X171001966Y-89750500D01*
X171178408Y-89735063D01*
X171406663Y-89673903D01*
X171620830Y-89574035D01*
X171814401Y-89438495D01*
X171936329Y-89316566D01*
X171997648Y-89283084D01*
X172067340Y-89288068D01*
X172123274Y-89329939D01*
X172140189Y-89360917D01*
X172189202Y-89492328D01*
X172189206Y-89492335D01*
X172275452Y-89607544D01*
X172275455Y-89607547D01*
X172390664Y-89693793D01*
X172390671Y-89693797D01*
X172525517Y-89744091D01*
X172525516Y-89744091D01*
X172532444Y-89744835D01*
X172585127Y-89750500D01*
X174328500Y-89750499D01*
X174395539Y-89770184D01*
X174441294Y-89822987D01*
X174452500Y-89874499D01*
X174452500Y-109786000D01*
X174432815Y-109853039D01*
X174380011Y-109898794D01*
X174328500Y-109910000D01*
X173733000Y-109910000D01*
X173733000Y-110826988D01*
X173675993Y-110794075D01*
X173548826Y-110760000D01*
X173417174Y-110760000D01*
X173290007Y-110794075D01*
X173233000Y-110826988D01*
X173233000Y-109910000D01*
X172585155Y-109910000D01*
X172525627Y-109916401D01*
X172518070Y-109918187D01*
X172517684Y-109916555D01*
X172457301Y-109920867D01*
X172395981Y-109887376D01*
X172362503Y-109826049D01*
X172367495Y-109756358D01*
X172380570Y-109730813D01*
X172403766Y-109696099D01*
X172435311Y-109648888D01*
X172435312Y-109648887D01*
X172468466Y-109568846D01*
X172482463Y-109535054D01*
X172495190Y-109471068D01*
X172498900Y-109452420D01*
X172498900Y-109452417D01*
X172506500Y-109414209D01*
X172506500Y-109290995D01*
X172506500Y-109203962D01*
X172526185Y-109136923D01*
X172538351Y-109120989D01*
X172572859Y-109082665D01*
X172662250Y-108927835D01*
X172717497Y-108757803D01*
X172736185Y-108580000D01*
X172717497Y-108402197D01*
X172662250Y-108232165D01*
X172662249Y-108232164D01*
X172660675Y-108227318D01*
X172658680Y-108157477D01*
X172694760Y-108097644D01*
X172757461Y-108066816D01*
X172778606Y-108065000D01*
X173133828Y-108065000D01*
X173133844Y-108064999D01*
X173193372Y-108058598D01*
X173193379Y-108058596D01*
X173328086Y-108008354D01*
X173328093Y-108008350D01*
X173443187Y-107922190D01*
X173443190Y-107922187D01*
X173529350Y-107807093D01*
X173529354Y-107807086D01*
X173579596Y-107672379D01*
X173579598Y-107672372D01*
X173585999Y-107612844D01*
X173586000Y-107612827D01*
X173586000Y-107065000D01*
X171960000Y-107065000D01*
X171892961Y-107045315D01*
X171847206Y-106992511D01*
X171836000Y-106941000D01*
X171836000Y-106565000D01*
X172336000Y-106565000D01*
X173586000Y-106565000D01*
X173586000Y-106017172D01*
X173585999Y-106017155D01*
X173579598Y-105957627D01*
X173579596Y-105957620D01*
X173529354Y-105822913D01*
X173529350Y-105822906D01*
X173443190Y-105707812D01*
X173443187Y-105707809D01*
X173328093Y-105621649D01*
X173328086Y-105621645D01*
X173193379Y-105571403D01*
X173193372Y-105571401D01*
X173133844Y-105565000D01*
X172336000Y-105565000D01*
X172336000Y-106565000D01*
X171836000Y-106565000D01*
X171836000Y-105565000D01*
X171038155Y-105565000D01*
X170978627Y-105571401D01*
X170978620Y-105571403D01*
X170843913Y-105621645D01*
X170843906Y-105621649D01*
X170728814Y-105707808D01*
X170728806Y-105707816D01*
X170726598Y-105710766D01*
X170723647Y-105712974D01*
X170722537Y-105714085D01*
X170722377Y-105713925D01*
X170670663Y-105752636D01*
X170600972Y-105757619D01*
X170576899Y-105749733D01*
X170572270Y-105747672D01*
X170572265Y-105747670D01*
X170444594Y-105720533D01*
X170397391Y-105710500D01*
X170218609Y-105710500D01*
X170206970Y-105712974D01*
X170043733Y-105747670D01*
X170043728Y-105747672D01*
X169880408Y-105820387D01*
X169754566Y-105911818D01*
X169688759Y-105935298D01*
X169681680Y-105935500D01*
X169343374Y-105935500D01*
X169343333Y-105935488D01*
X169140773Y-105935488D01*
X168839776Y-105965133D01*
X168839764Y-105965135D01*
X168578163Y-106017172D01*
X168543118Y-106024143D01*
X168543115Y-106024143D01*
X168543102Y-106024147D01*
X168253687Y-106111942D01*
X167974253Y-106227689D01*
X167974238Y-106227696D01*
X167762364Y-106340946D01*
X167693962Y-106355188D01*
X167628718Y-106330188D01*
X167587347Y-106273883D01*
X167585978Y-106269900D01*
X167584050Y-106263965D01*
X167494659Y-106109135D01*
X167423835Y-106030477D01*
X167375035Y-105976278D01*
X167375032Y-105976276D01*
X167375031Y-105976275D01*
X167375030Y-105976274D01*
X167230393Y-105871188D01*
X167067067Y-105798471D01*
X167067065Y-105798470D01*
X166919421Y-105767088D01*
X166892191Y-105761300D01*
X166713409Y-105761300D01*
X166686179Y-105767088D01*
X166538533Y-105798470D01*
X166538528Y-105798472D01*
X166375208Y-105871187D01*
X166248604Y-105963170D01*
X166182797Y-105986649D01*
X166114743Y-105970823D01*
X166102833Y-105963169D01*
X166011194Y-105896589D01*
X166011193Y-105896588D01*
X165847867Y-105823871D01*
X165847865Y-105823870D01*
X165720194Y-105796733D01*
X165672991Y-105786700D01*
X165494209Y-105786700D01*
X165443657Y-105797445D01*
X165406136Y-105805420D01*
X165336469Y-105800103D01*
X165281091Y-105758441D01*
X165243187Y-105707809D01*
X165128093Y-105621649D01*
X165128086Y-105621645D01*
X164993379Y-105571403D01*
X164993372Y-105571401D01*
X164933844Y-105565000D01*
X164136000Y-105565000D01*
X164136000Y-106941000D01*
X164116315Y-107008039D01*
X164063511Y-107053794D01*
X164012000Y-107065000D01*
X163760000Y-107065000D01*
X163692961Y-107045315D01*
X163647206Y-106992511D01*
X163636000Y-106941000D01*
X163636000Y-105565000D01*
X163428337Y-105565000D01*
X163361298Y-105545315D01*
X163315543Y-105492511D01*
X163305016Y-105453962D01*
X163302339Y-105428490D01*
X163295897Y-105367197D01*
X163268273Y-105282181D01*
X163240652Y-105197170D01*
X163240649Y-105197164D01*
X163227582Y-105174531D01*
X163151259Y-105042335D01*
X163100238Y-104985671D01*
X163031635Y-104909478D01*
X163031632Y-104909476D01*
X163031631Y-104909475D01*
X163031630Y-104909474D01*
X162886993Y-104804388D01*
X162723667Y-104731671D01*
X162723665Y-104731670D01*
X162566038Y-104698166D01*
X162548791Y-104694500D01*
X162370009Y-104694500D01*
X162352762Y-104698166D01*
X162195133Y-104731670D01*
X162195128Y-104731672D01*
X162031808Y-104804387D01*
X161887168Y-104909475D01*
X161767540Y-105042336D01*
X161678150Y-105197164D01*
X161678147Y-105197170D01*
X161622904Y-105367192D01*
X161622903Y-105367195D01*
X161618051Y-105413356D01*
X161610228Y-105487796D01*
X161609987Y-105490085D01*
X161583402Y-105554700D01*
X161526104Y-105594684D01*
X161512447Y-105598413D01*
X161407733Y-105620670D01*
X161244412Y-105693385D01*
X161244408Y-105693388D01*
X161236879Y-105698857D01*
X161171073Y-105722333D01*
X161103020Y-105706505D01*
X161091112Y-105698851D01*
X161083592Y-105693387D01*
X160965159Y-105640658D01*
X160920267Y-105620671D01*
X160920265Y-105620670D01*
X160792594Y-105593533D01*
X160745391Y-105583500D01*
X160566609Y-105583500D01*
X160535954Y-105590015D01*
X160391733Y-105620670D01*
X160228412Y-105693385D01*
X160228408Y-105693388D01*
X160220879Y-105698857D01*
X160155073Y-105722333D01*
X160087020Y-105706505D01*
X160075112Y-105698851D01*
X160067592Y-105693387D01*
X159949159Y-105640658D01*
X159904267Y-105620671D01*
X159904265Y-105620670D01*
X159776594Y-105593533D01*
X159729391Y-105583500D01*
X159550609Y-105583500D01*
X159519954Y-105590015D01*
X159375733Y-105620670D01*
X159375732Y-105620670D01*
X159330839Y-105640658D01*
X159261589Y-105649941D01*
X159198313Y-105620311D01*
X159188256Y-105610349D01*
X159119134Y-105533580D01*
X159119131Y-105533578D01*
X159119130Y-105533577D01*
X159119129Y-105533576D01*
X159056116Y-105487794D01*
X159013453Y-105432466D01*
X159007474Y-105362852D01*
X159040080Y-105301057D01*
X159056115Y-105287163D01*
X159120030Y-105240726D01*
X159125984Y-105234114D01*
X159159248Y-105197170D01*
X159239659Y-105107865D01*
X159329050Y-104953035D01*
X159330745Y-104947820D01*
X159350029Y-104888469D01*
X159371822Y-104821395D01*
X159411259Y-104763721D01*
X159463970Y-104738425D01*
X159584929Y-104712714D01*
X159610263Y-104707330D01*
X159610263Y-104707329D01*
X159610267Y-104707329D01*
X159773593Y-104634612D01*
X159801113Y-104614616D01*
X159866919Y-104591136D01*
X159934973Y-104606961D01*
X159946883Y-104614614D01*
X159974407Y-104634612D01*
X160137733Y-104707329D01*
X160312609Y-104744500D01*
X160312610Y-104744500D01*
X160491389Y-104744500D01*
X160491391Y-104744500D01*
X160666267Y-104707329D01*
X160829593Y-104634612D01*
X160974230Y-104529526D01*
X161093859Y-104396665D01*
X161183250Y-104241835D01*
X161238497Y-104071803D01*
X161257185Y-103894000D01*
X161238497Y-103716197D01*
X161197232Y-103589197D01*
X161183252Y-103546170D01*
X161183249Y-103546164D01*
X161181349Y-103542873D01*
X161093859Y-103391335D01*
X161043307Y-103335191D01*
X160974235Y-103258478D01*
X160974232Y-103258476D01*
X160974231Y-103258475D01*
X160974230Y-103258474D01*
X160829593Y-103153388D01*
X160666267Y-103080671D01*
X160666265Y-103080670D01*
X160508644Y-103047167D01*
X160447162Y-103013975D01*
X160446744Y-103013558D01*
X159568368Y-102135182D01*
X159568316Y-102135123D01*
X159509263Y-102076077D01*
X159461307Y-102028121D01*
X159461187Y-102028012D01*
X159457057Y-102023882D01*
X159457053Y-102023879D01*
X159334288Y-101941849D01*
X159197877Y-101885335D01*
X159053066Y-101856511D01*
X159053057Y-101856510D01*
X159046796Y-101856509D01*
X159046590Y-101856500D01*
X159040729Y-101856500D01*
X158979240Y-101856500D01*
X158979196Y-101856499D01*
X158903289Y-101856486D01*
X158903287Y-101856486D01*
X158895955Y-101856485D01*
X158895707Y-101856500D01*
X149174257Y-101856500D01*
X149174247Y-101856497D01*
X149122892Y-101856497D01*
X148925973Y-101856497D01*
X148925972Y-101856497D01*
X148533629Y-101890823D01*
X148145783Y-101959212D01*
X148145780Y-101959212D01*
X148145778Y-101959213D01*
X148145773Y-101959214D01*
X148145770Y-101959215D01*
X147765369Y-102061142D01*
X147637541Y-102107668D01*
X147395272Y-102195847D01*
X147395268Y-102195848D01*
X147395262Y-102195851D01*
X147395254Y-102195854D01*
X147038342Y-102362286D01*
X147038326Y-102362294D01*
X146697267Y-102559206D01*
X146697245Y-102559220D01*
X146600245Y-102627139D01*
X146534039Y-102649466D01*
X146466272Y-102632454D01*
X146421735Y-102587562D01*
X146421706Y-102587512D01*
X146401859Y-102553135D01*
X146385980Y-102535500D01*
X146372982Y-102521064D01*
X146342752Y-102458073D01*
X146351377Y-102388737D01*
X146372982Y-102355120D01*
X146387259Y-102339265D01*
X146476650Y-102184435D01*
X146531897Y-102014403D01*
X146550585Y-101836600D01*
X146531897Y-101658797D01*
X146495612Y-101547123D01*
X146476652Y-101488770D01*
X146476649Y-101488764D01*
X146475929Y-101487517D01*
X146387259Y-101333935D01*
X146340403Y-101281896D01*
X146267635Y-101201078D01*
X146267632Y-101201076D01*
X146267631Y-101201075D01*
X146267630Y-101201074D01*
X146122993Y-101095988D01*
X145959667Y-101023271D01*
X145959665Y-101023270D01*
X145831994Y-100996133D01*
X145784791Y-100986100D01*
X145606009Y-100986100D01*
X145575354Y-100992615D01*
X145431133Y-101023270D01*
X145431128Y-101023272D01*
X145267808Y-101095987D01*
X145141966Y-101187418D01*
X145076159Y-101210898D01*
X145069080Y-101211100D01*
X139247755Y-101211100D01*
X139247744Y-101211097D01*
X139035724Y-101211097D01*
X138715941Y-101242593D01*
X138715928Y-101242595D01*
X138400773Y-101305285D01*
X138400770Y-101305285D01*
X138306322Y-101333936D01*
X138093267Y-101398566D01*
X138093261Y-101398568D01*
X138093259Y-101398569D01*
X137796387Y-101521538D01*
X137796382Y-101521540D01*
X137513006Y-101673008D01*
X137512988Y-101673019D01*
X137245807Y-101851544D01*
X136997415Y-102055394D01*
X136958554Y-102094256D01*
X136883805Y-102169005D01*
X136830100Y-102222709D01*
X136830098Y-102222711D01*
X136690516Y-102362294D01*
X136553629Y-102499181D01*
X136492306Y-102532666D01*
X136465948Y-102535500D01*
X136462009Y-102535500D01*
X136450723Y-102537899D01*
X136287133Y-102572670D01*
X136287128Y-102572672D01*
X136123808Y-102645387D01*
X135979168Y-102750475D01*
X135859540Y-102883336D01*
X135770150Y-103038164D01*
X135770147Y-103038170D01*
X135714904Y-103208192D01*
X135714903Y-103208194D01*
X135696215Y-103386000D01*
X135714903Y-103563805D01*
X135714904Y-103563807D01*
X135770147Y-103733829D01*
X135770150Y-103733835D01*
X135781670Y-103753789D01*
X135795904Y-103778442D01*
X135812377Y-103846343D01*
X135789524Y-103912369D01*
X135734603Y-103955560D01*
X135674631Y-103963662D01*
X135619967Y-103957501D01*
X135577514Y-103957500D01*
X135577482Y-103957499D01*
X135573102Y-103957499D01*
X135494061Y-103957499D01*
X135421148Y-103957497D01*
X135421147Y-103957497D01*
X135413563Y-103957497D01*
X135413531Y-103957499D01*
X131352836Y-103957499D01*
X131352820Y-103957498D01*
X131278401Y-103957498D01*
X131266248Y-103956901D01*
X131138183Y-103944289D01*
X131114342Y-103939547D01*
X130997055Y-103903970D01*
X130974596Y-103894668D01*
X130866500Y-103836889D01*
X130846295Y-103823388D01*
X130816483Y-103798922D01*
X130777149Y-103741177D01*
X130771828Y-103716036D01*
X130758497Y-103589197D01*
X130712390Y-103447295D01*
X130703252Y-103419170D01*
X130703249Y-103419164D01*
X130613859Y-103264335D01*
X130563309Y-103208194D01*
X130494235Y-103131478D01*
X130494232Y-103131476D01*
X130494231Y-103131475D01*
X130494230Y-103131474D01*
X130349593Y-103026388D01*
X130186267Y-102953671D01*
X130186265Y-102953670D01*
X130058594Y-102926533D01*
X130011391Y-102916500D01*
X129832609Y-102916500D01*
X129801954Y-102923015D01*
X129657733Y-102953670D01*
X129657728Y-102953672D01*
X129494408Y-103026387D01*
X129349768Y-103131475D01*
X129230140Y-103264336D01*
X129140750Y-103419164D01*
X129140747Y-103419170D01*
X129085504Y-103589192D01*
X129085503Y-103589195D01*
X129070706Y-103729977D01*
X129044121Y-103794592D01*
X129035066Y-103804696D01*
X126882766Y-105956998D01*
X126867534Y-105972230D01*
X126867492Y-105972252D01*
X126708542Y-106131205D01*
X126708523Y-106131226D01*
X126485521Y-106396994D01*
X126286528Y-106681192D01*
X126113059Y-106981654D01*
X126113055Y-106981662D01*
X125981919Y-107262887D01*
X125935747Y-107315326D01*
X125868553Y-107334478D01*
X125801672Y-107314262D01*
X125767962Y-107281605D01*
X125676599Y-107151124D01*
X125665340Y-107139865D01*
X125521877Y-106996402D01*
X125342639Y-106870898D01*
X125342640Y-106870898D01*
X125342638Y-106870897D01*
X125190122Y-106799778D01*
X125137683Y-106753606D01*
X125118531Y-106686412D01*
X125138747Y-106619531D01*
X125191908Y-106574199D01*
X125269593Y-106539612D01*
X125414230Y-106434526D01*
X125434451Y-106412069D01*
X125448024Y-106396994D01*
X125533859Y-106301665D01*
X125623250Y-106146835D01*
X125678497Y-105976803D01*
X125697185Y-105799000D01*
X125678497Y-105621197D01*
X125623250Y-105451165D01*
X125533859Y-105296335D01*
X125483784Y-105240721D01*
X125414235Y-105163478D01*
X125414232Y-105163476D01*
X125414231Y-105163475D01*
X125414230Y-105163474D01*
X125269593Y-105058388D01*
X125106267Y-104985671D01*
X125106265Y-104985670D01*
X124978381Y-104958488D01*
X124931391Y-104948500D01*
X124931390Y-104948500D01*
X124927452Y-104948500D01*
X124925255Y-104947854D01*
X124924923Y-104947820D01*
X124924929Y-104947759D01*
X124860413Y-104928815D01*
X124839771Y-104912181D01*
X124756771Y-104829181D01*
X124723286Y-104767858D01*
X124728270Y-104698166D01*
X124770142Y-104642233D01*
X124835606Y-104617816D01*
X124844452Y-104617500D01*
X124931389Y-104617500D01*
X124931391Y-104617500D01*
X125106267Y-104580329D01*
X125269593Y-104507612D01*
X125414230Y-104402526D01*
X125414818Y-104401874D01*
X125440148Y-104373741D01*
X125533859Y-104269665D01*
X125623250Y-104114835D01*
X125678497Y-103944803D01*
X125697185Y-103767000D01*
X125678497Y-103589197D01*
X125632390Y-103447295D01*
X125623252Y-103419170D01*
X125623249Y-103419164D01*
X125533859Y-103264335D01*
X125483309Y-103208194D01*
X125414235Y-103131478D01*
X125414232Y-103131476D01*
X125414231Y-103131475D01*
X125414230Y-103131474D01*
X125269593Y-103026388D01*
X125106267Y-102953671D01*
X125106265Y-102953670D01*
X124978594Y-102926533D01*
X124931391Y-102916500D01*
X124931390Y-102916500D01*
X124927452Y-102916500D01*
X124925255Y-102915854D01*
X124924923Y-102915820D01*
X124924929Y-102915759D01*
X124860413Y-102896815D01*
X124839771Y-102880181D01*
X124583073Y-102623483D01*
X124583069Y-102623478D01*
X124576000Y-102616409D01*
X124524736Y-102565146D01*
X124519993Y-102560129D01*
X124379263Y-102402650D01*
X124370604Y-102391792D01*
X124368436Y-102388737D01*
X124298575Y-102290276D01*
X124250425Y-102222414D01*
X124243027Y-102210640D01*
X124142569Y-102028873D01*
X124136536Y-102016344D01*
X124070332Y-101856511D01*
X124057064Y-101824480D01*
X124052473Y-101811359D01*
X124008521Y-101658794D01*
X123994979Y-101611789D01*
X123991887Y-101598237D01*
X123983203Y-101547123D01*
X123957100Y-101393487D01*
X123955546Y-101379688D01*
X123943694Y-101168614D01*
X123943500Y-101161667D01*
X123943501Y-101089427D01*
X123943500Y-101089422D01*
X123943500Y-100326962D01*
X123963185Y-100259923D01*
X123975351Y-100243989D01*
X124009859Y-100205665D01*
X124099250Y-100050835D01*
X124154497Y-99880803D01*
X124173185Y-99703000D01*
X124154497Y-99525197D01*
X124107156Y-99379496D01*
X124099252Y-99355170D01*
X124099249Y-99355164D01*
X124085821Y-99331906D01*
X124009859Y-99200335D01*
X123958119Y-99142872D01*
X123890235Y-99067478D01*
X123890232Y-99067476D01*
X123890231Y-99067475D01*
X123890230Y-99067474D01*
X123745593Y-98962388D01*
X123582267Y-98889671D01*
X123582265Y-98889670D01*
X123498143Y-98871790D01*
X123436661Y-98838598D01*
X123402885Y-98777435D01*
X123407537Y-98707720D01*
X123449142Y-98651588D01*
X123498143Y-98629210D01*
X123582267Y-98611329D01*
X123745593Y-98538612D01*
X123890230Y-98433526D01*
X124009859Y-98300665D01*
X124099250Y-98145835D01*
X124154497Y-97975803D01*
X124173185Y-97798000D01*
X124154497Y-97620197D01*
X124107249Y-97474782D01*
X124099252Y-97450170D01*
X124099249Y-97450164D01*
X124067689Y-97395500D01*
X124009859Y-97295335D01*
X123936322Y-97213664D01*
X123890235Y-97162478D01*
X123890232Y-97162476D01*
X123890231Y-97162475D01*
X123890230Y-97162474D01*
X123745593Y-97057388D01*
X123582267Y-96984671D01*
X123582265Y-96984670D01*
X123454594Y-96957533D01*
X123407391Y-96947500D01*
X123228609Y-96947500D01*
X123197954Y-96954015D01*
X123053733Y-96984670D01*
X123053728Y-96984672D01*
X122890408Y-97057387D01*
X122745768Y-97162475D01*
X122626140Y-97295336D01*
X122536750Y-97450164D01*
X122536747Y-97450170D01*
X122481504Y-97620192D01*
X122481503Y-97620194D01*
X122470859Y-97721461D01*
X122444273Y-97786076D01*
X122435222Y-97796177D01*
X122405420Y-97825980D01*
X122251701Y-98026314D01*
X122251694Y-98026323D01*
X122125446Y-98244993D01*
X122125438Y-98245009D01*
X122028816Y-98478279D01*
X122028811Y-98478295D01*
X121963454Y-98722212D01*
X121930499Y-98972561D01*
X121930500Y-99037209D01*
X121930500Y-101814478D01*
X121930499Y-101814500D01*
X121930499Y-101845176D01*
X121930477Y-101845250D01*
X121930479Y-102094256D01*
X121964945Y-102488141D01*
X122033608Y-102877518D01*
X122033612Y-102877537D01*
X122135942Y-103259422D01*
X122135947Y-103259440D01*
X122203013Y-103443697D01*
X122271179Y-103630978D01*
X122348899Y-103797646D01*
X122438281Y-103989324D01*
X122635972Y-104331731D01*
X122635975Y-104331735D01*
X122635976Y-104331737D01*
X122690612Y-104409765D01*
X122862761Y-104655618D01*
X123116900Y-104958488D01*
X123116906Y-104958495D01*
X123116914Y-104958504D01*
X123256705Y-105098295D01*
X123310409Y-105152000D01*
X123317476Y-105159067D01*
X123317483Y-105159073D01*
X123959218Y-105800808D01*
X123992703Y-105862131D01*
X123994857Y-105875524D01*
X124005503Y-105976803D01*
X124005504Y-105976805D01*
X124005504Y-105976807D01*
X124060747Y-106146829D01*
X124060750Y-106146835D01*
X124150141Y-106301665D01*
X124185510Y-106340946D01*
X124269764Y-106434521D01*
X124269767Y-106434523D01*
X124269770Y-106434526D01*
X124384185Y-106517654D01*
X124409535Y-106536072D01*
X124452200Y-106591403D01*
X124458179Y-106661016D01*
X124425573Y-106722811D01*
X124368743Y-106756165D01*
X124285675Y-106778423D01*
X124285668Y-106778426D01*
X124087361Y-106870898D01*
X124087357Y-106870900D01*
X123908121Y-106996402D01*
X123753402Y-107151121D01*
X123627900Y-107330357D01*
X123627898Y-107330361D01*
X123535426Y-107528668D01*
X123535422Y-107528677D01*
X123478793Y-107740020D01*
X123478793Y-107740024D01*
X123460502Y-107949101D01*
X123459723Y-107958000D01*
X123478477Y-108172370D01*
X123478793Y-108175975D01*
X123478793Y-108175979D01*
X123535422Y-108387322D01*
X123535424Y-108387326D01*
X123535425Y-108387330D01*
X123562136Y-108444611D01*
X123627897Y-108585638D01*
X123652998Y-108621486D01*
X123753402Y-108764877D01*
X123908123Y-108919598D01*
X124087361Y-109045102D01*
X124285670Y-109137575D01*
X124285676Y-109137576D01*
X124285677Y-109137577D01*
X124316364Y-109145799D01*
X124497023Y-109194207D01*
X124679926Y-109210208D01*
X124714998Y-109213277D01*
X124715000Y-109213277D01*
X124715002Y-109213277D01*
X124743254Y-109210805D01*
X124932977Y-109194207D01*
X125144330Y-109137575D01*
X125342639Y-109045102D01*
X125472377Y-108954258D01*
X125538581Y-108931931D01*
X125606348Y-108948941D01*
X125654161Y-108999888D01*
X125667499Y-109055833D01*
X125667499Y-109397036D01*
X125667498Y-109397058D01*
X125667498Y-109471210D01*
X125667116Y-109480937D01*
X125653696Y-109651483D01*
X125650652Y-109670702D01*
X125611859Y-109832292D01*
X125605858Y-109850771D01*
X125605103Y-109852595D01*
X125561275Y-109907009D01*
X125494986Y-109929090D01*
X125463796Y-109925553D01*
X125463739Y-109925877D01*
X125458493Y-109924952D01*
X125458442Y-109924946D01*
X125458408Y-109924937D01*
X125253495Y-109907009D01*
X125223001Y-109904341D01*
X125222999Y-109904341D01*
X124987596Y-109924936D01*
X124987586Y-109924938D01*
X124759344Y-109986094D01*
X124759335Y-109986098D01*
X124545171Y-110085964D01*
X124545169Y-110085965D01*
X124351597Y-110221505D01*
X124184508Y-110388594D01*
X124054269Y-110574595D01*
X123999692Y-110618219D01*
X123930193Y-110625412D01*
X123867839Y-110593890D01*
X123851119Y-110574594D01*
X123721113Y-110388926D01*
X123721108Y-110388920D01*
X123554082Y-110221894D01*
X123360578Y-110086399D01*
X123146492Y-109986570D01*
X123146486Y-109986567D01*
X122933000Y-109929364D01*
X122933000Y-110826988D01*
X122875993Y-110794075D01*
X122748826Y-110760000D01*
X122617174Y-110760000D01*
X122490007Y-110794075D01*
X122433000Y-110826988D01*
X122433000Y-109929364D01*
X122432999Y-109929364D01*
X122219513Y-109986567D01*
X122219507Y-109986570D01*
X122005422Y-110086399D01*
X122005420Y-110086400D01*
X121811926Y-110221886D01*
X121811920Y-110221891D01*
X121644891Y-110388920D01*
X121644890Y-110388922D01*
X121514575Y-110575031D01*
X121459998Y-110618655D01*
X121390499Y-110625848D01*
X121328145Y-110594326D01*
X121311425Y-110575031D01*
X121181109Y-110388922D01*
X121181108Y-110388920D01*
X121014082Y-110221894D01*
X120820578Y-110086399D01*
X120606492Y-109986570D01*
X120606486Y-109986567D01*
X120393000Y-109929364D01*
X120393000Y-110826988D01*
X120335993Y-110794075D01*
X120208826Y-110760000D01*
X120077174Y-110760000D01*
X119950007Y-110794075D01*
X119893000Y-110826988D01*
X119893000Y-109929364D01*
X119892999Y-109929364D01*
X119679513Y-109986567D01*
X119679507Y-109986570D01*
X119465422Y-110086399D01*
X119465420Y-110086400D01*
X119271926Y-110221886D01*
X119271920Y-110221891D01*
X119104891Y-110388920D01*
X119104886Y-110388926D01*
X118969400Y-110582420D01*
X118969399Y-110582422D01*
X118869570Y-110796507D01*
X118869567Y-110796513D01*
X118812364Y-111009999D01*
X118812364Y-111010000D01*
X119709988Y-111010000D01*
X119677075Y-111067007D01*
X119643000Y-111194174D01*
X119643000Y-111325826D01*
X119677075Y-111452993D01*
X119709988Y-111510000D01*
X118812364Y-111510000D01*
X118869567Y-111723486D01*
X118869570Y-111723492D01*
X118969399Y-111937578D01*
X119037179Y-112034376D01*
X119059506Y-112100582D01*
X119042496Y-112168350D01*
X118991548Y-112216163D01*
X118935604Y-112229500D01*
X113406833Y-112229500D01*
X113339794Y-112209815D01*
X113319152Y-112193181D01*
X112551819Y-111425848D01*
X112518334Y-111364525D01*
X112515500Y-111338167D01*
X112515500Y-95512125D01*
X112779500Y-95512125D01*
X112779500Y-97050495D01*
X112779500Y-102830495D01*
X112779500Y-104401874D01*
X112779759Y-104409770D01*
X112780583Y-104434942D01*
X112781644Y-104451131D01*
X112784887Y-104484049D01*
X112798730Y-104589198D01*
X112811630Y-104654054D01*
X112820004Y-104685309D01*
X112820007Y-104685322D01*
X112841262Y-104747934D01*
X112841266Y-104747945D01*
X112878714Y-104838354D01*
X112907970Y-104897680D01*
X112924149Y-104925702D01*
X112960880Y-104980673D01*
X112960885Y-104980680D01*
X113020468Y-105058330D01*
X113052939Y-105095355D01*
X113064070Y-105108048D01*
X113086950Y-105130928D01*
X113086956Y-105130933D01*
X113136669Y-105174531D01*
X113214319Y-105234114D01*
X113214325Y-105234118D01*
X113269296Y-105270849D01*
X113297318Y-105287028D01*
X113297322Y-105287030D01*
X113297329Y-105287034D01*
X113356635Y-105316280D01*
X113356640Y-105316282D01*
X113356644Y-105316284D01*
X113401848Y-105335008D01*
X113447062Y-105353736D01*
X113509674Y-105374990D01*
X113540941Y-105383368D01*
X113605793Y-105396268D01*
X113651649Y-105402305D01*
X113651652Y-105402306D01*
X113651652Y-105402305D01*
X113685361Y-105406743D01*
X113697922Y-105408397D01*
X113697922Y-105408398D01*
X113710946Y-105410113D01*
X113736993Y-105412678D01*
X113743862Y-105413355D01*
X113743867Y-105413355D01*
X113743874Y-105413356D01*
X113760059Y-105414417D01*
X113793126Y-105415500D01*
X113793140Y-105415500D01*
X119126860Y-105415500D01*
X119126874Y-105415500D01*
X119159943Y-105414417D01*
X119176127Y-105413356D01*
X119209042Y-105410114D01*
X119220382Y-105408621D01*
X119314208Y-105396268D01*
X119379058Y-105383368D01*
X119410325Y-105374990D01*
X119472937Y-105353736D01*
X119563364Y-105316280D01*
X119622670Y-105287034D01*
X119650703Y-105270849D01*
X119705680Y-105234114D01*
X119783330Y-105174531D01*
X119833043Y-105130933D01*
X119855933Y-105108043D01*
X119899531Y-105058330D01*
X119959114Y-104980680D01*
X119995849Y-104925703D01*
X120012034Y-104897670D01*
X120041280Y-104838364D01*
X120078736Y-104747937D01*
X120099990Y-104685325D01*
X120099991Y-104685319D01*
X120099995Y-104685309D01*
X120104579Y-104668195D01*
X120108368Y-104654058D01*
X120121268Y-104589209D01*
X120135114Y-104484045D01*
X120138356Y-104451125D01*
X120139417Y-104434939D01*
X120140500Y-104401874D01*
X120140500Y-103389824D01*
X120130786Y-103291202D01*
X120121347Y-103243751D01*
X120102556Y-103181804D01*
X120101933Y-103111937D01*
X120102557Y-103109813D01*
X120103319Y-103107301D01*
X120121350Y-103047864D01*
X120130788Y-103000413D01*
X120140500Y-102901801D01*
X120140500Y-97018768D01*
X120130786Y-96920144D01*
X120121347Y-96872694D01*
X120121342Y-96872677D01*
X120104754Y-96817994D01*
X120104130Y-96748128D01*
X120104754Y-96746002D01*
X120121350Y-96691294D01*
X120130788Y-96643843D01*
X120140500Y-96545231D01*
X120140500Y-95512125D01*
X120139417Y-95479060D01*
X120138356Y-95462874D01*
X120135114Y-95429954D01*
X120121268Y-95324790D01*
X120108368Y-95259941D01*
X120099990Y-95228674D01*
X120078736Y-95166062D01*
X120041280Y-95075635D01*
X120012034Y-95016329D01*
X120001509Y-94998100D01*
X119995849Y-94988296D01*
X119959118Y-94933325D01*
X119959114Y-94933319D01*
X119899531Y-94855669D01*
X119855933Y-94805956D01*
X119855928Y-94805950D01*
X119833048Y-94783070D01*
X119783336Y-94739473D01*
X119705695Y-94679896D01*
X119705690Y-94679893D01*
X119705684Y-94679888D01*
X119650697Y-94643146D01*
X119650693Y-94643143D01*
X119650680Y-94643135D01*
X119622673Y-94626967D01*
X119622663Y-94626961D01*
X119622650Y-94626954D01*
X119622636Y-94626947D01*
X119563365Y-94597719D01*
X119563357Y-94597715D01*
X119472945Y-94560266D01*
X119472934Y-94560262D01*
X119410323Y-94539008D01*
X119379054Y-94530630D01*
X119346174Y-94524090D01*
X119314204Y-94517731D01*
X119314201Y-94517730D01*
X119314198Y-94517730D01*
X119209049Y-94503887D01*
X119209043Y-94503886D01*
X119209040Y-94503886D01*
X119202883Y-94503279D01*
X119176131Y-94500644D01*
X119159942Y-94499583D01*
X119157736Y-94499510D01*
X119126874Y-94498500D01*
X113793126Y-94498500D01*
X113760059Y-94499583D01*
X113743858Y-94500645D01*
X113710957Y-94503885D01*
X113605803Y-94517729D01*
X113605801Y-94517729D01*
X113605796Y-94517730D01*
X113540952Y-94530628D01*
X113540947Y-94530629D01*
X113509692Y-94539003D01*
X113509684Y-94539005D01*
X113447076Y-94560256D01*
X113447052Y-94560265D01*
X113356666Y-94597703D01*
X113356630Y-94597720D01*
X113297324Y-94626966D01*
X113269296Y-94643149D01*
X113214325Y-94679879D01*
X113214297Y-94679900D01*
X113136666Y-94739469D01*
X113086937Y-94783082D01*
X113064082Y-94805937D01*
X113020469Y-94855666D01*
X112960887Y-94933313D01*
X112960876Y-94933328D01*
X112924149Y-94988295D01*
X112924140Y-94988311D01*
X112907960Y-95016336D01*
X112878720Y-95075631D01*
X112841266Y-95166053D01*
X112841262Y-95166064D01*
X112820008Y-95228675D01*
X112811630Y-95259944D01*
X112798730Y-95324800D01*
X112784887Y-95429949D01*
X112781644Y-95462867D01*
X112781644Y-95462873D01*
X112780583Y-95479058D01*
X112779500Y-95512125D01*
X112515500Y-95512125D01*
X112515500Y-88321833D01*
X112535185Y-88254794D01*
X112551819Y-88234152D01*
X113319152Y-87466819D01*
X113380475Y-87433334D01*
X113406833Y-87430500D01*
X118935604Y-87430500D01*
X119002643Y-87450185D01*
G37*
G04 #@! TD.AperFunction*
G04 #@! TA.AperFunction,Conductor*
G36*
X122217075Y-111067007D02*
G01*
X122183000Y-111194174D01*
X122183000Y-111325826D01*
X122217075Y-111452993D01*
X122249988Y-111510000D01*
X120576012Y-111510000D01*
X120608925Y-111452993D01*
X120643000Y-111325826D01*
X120643000Y-111194174D01*
X120608925Y-111067007D01*
X120576012Y-111010000D01*
X122249988Y-111010000D01*
X122217075Y-111067007D01*
G37*
G04 #@! TD.AperFunction*
G04 #@! TA.AperFunction,Conductor*
G36*
X135231059Y-105608502D02*
G01*
X135299102Y-105608501D01*
X135308828Y-105608883D01*
X135459031Y-105620700D01*
X135478232Y-105623741D01*
X135619984Y-105657770D01*
X135638483Y-105663781D01*
X135718513Y-105696930D01*
X135772917Y-105740770D01*
X135794982Y-105807064D01*
X135777703Y-105874764D01*
X135726566Y-105922375D01*
X135671061Y-105935491D01*
X135625555Y-105935491D01*
X135350434Y-105966490D01*
X135350422Y-105966492D01*
X135080492Y-106028103D01*
X135080483Y-106028105D01*
X134819150Y-106119550D01*
X134819143Y-106119553D01*
X134569684Y-106239688D01*
X134335247Y-106386998D01*
X134335236Y-106387005D01*
X134118776Y-106559630D01*
X134036556Y-106641854D01*
X134036554Y-106641855D01*
X130758646Y-109919762D01*
X130697323Y-109953247D01*
X130638872Y-109951856D01*
X130538413Y-109924938D01*
X130538403Y-109924936D01*
X130303001Y-109904341D01*
X130302999Y-109904341D01*
X130067596Y-109924936D01*
X130067586Y-109924938D01*
X129839344Y-109986094D01*
X129839335Y-109986098D01*
X129625171Y-110085964D01*
X129625169Y-110085965D01*
X129431597Y-110221505D01*
X129264505Y-110388597D01*
X129134575Y-110574158D01*
X129079998Y-110617783D01*
X129010500Y-110624977D01*
X128948145Y-110593454D01*
X128931425Y-110574158D01*
X128801494Y-110388597D01*
X128634402Y-110221506D01*
X128634395Y-110221501D01*
X128440834Y-110085967D01*
X128440830Y-110085965D01*
X128434045Y-110082801D01*
X128226663Y-109986097D01*
X128226659Y-109986096D01*
X128226655Y-109986094D01*
X127998413Y-109924938D01*
X127998403Y-109924936D01*
X127763001Y-109904341D01*
X127762999Y-109904341D01*
X127527596Y-109924936D01*
X127527577Y-109924940D01*
X127527563Y-109924944D01*
X127527556Y-109924943D01*
X127522258Y-109925878D01*
X127522070Y-109924812D01*
X127457713Y-109923276D01*
X127399854Y-109884109D01*
X127380908Y-109852595D01*
X127380148Y-109850759D01*
X127374150Y-109832290D01*
X127366808Y-109801706D01*
X127335355Y-109670692D01*
X127332314Y-109651488D01*
X127318883Y-109480797D01*
X127318501Y-109471068D01*
X127318501Y-109445487D01*
X127318502Y-109403170D01*
X127318501Y-109403165D01*
X127318501Y-108889599D01*
X127318696Y-108882647D01*
X127321265Y-108836888D01*
X127332408Y-108638437D01*
X127355820Y-108572609D01*
X127411106Y-108529886D01*
X127480713Y-108523835D01*
X127542542Y-108556378D01*
X127563601Y-108583392D01*
X127564897Y-108585637D01*
X127564898Y-108585639D01*
X127690402Y-108764877D01*
X127845123Y-108919598D01*
X128024361Y-109045102D01*
X128222670Y-109137575D01*
X128222676Y-109137576D01*
X128222677Y-109137577D01*
X128253364Y-109145799D01*
X128434023Y-109194207D01*
X128616926Y-109210208D01*
X128651998Y-109213277D01*
X128652000Y-109213277D01*
X128652002Y-109213277D01*
X128680254Y-109210805D01*
X128869977Y-109194207D01*
X129081330Y-109137575D01*
X129279639Y-109045102D01*
X129458877Y-108919598D01*
X129613598Y-108764877D01*
X129739102Y-108585639D01*
X129831575Y-108387330D01*
X129888207Y-108175977D01*
X129907277Y-107958000D01*
X129906498Y-107949101D01*
X129903569Y-107915618D01*
X129888207Y-107740023D01*
X129847319Y-107587428D01*
X129831577Y-107528677D01*
X129831576Y-107528676D01*
X129831575Y-107528670D01*
X129739102Y-107330362D01*
X129739100Y-107330359D01*
X129739099Y-107330357D01*
X129613599Y-107151124D01*
X129602340Y-107139865D01*
X129458877Y-106996402D01*
X129279639Y-106870898D01*
X129279640Y-106870898D01*
X129279638Y-106870897D01*
X129159772Y-106815003D01*
X129081330Y-106778425D01*
X129081326Y-106778424D01*
X129081322Y-106778422D01*
X128869978Y-106721793D01*
X128853989Y-106720394D01*
X128788921Y-106694939D01*
X128747945Y-106638346D01*
X128744069Y-106568584D01*
X128778525Y-106507801D01*
X128817344Y-106482307D01*
X128880170Y-106456283D01*
X128898666Y-106450273D01*
X129045118Y-106415112D01*
X129064328Y-106412069D01*
X129219180Y-106399881D01*
X129228909Y-106399500D01*
X129263271Y-106399500D01*
X129330310Y-106419185D01*
X129346245Y-106431351D01*
X129349766Y-106434521D01*
X129349770Y-106434526D01*
X129494407Y-106539612D01*
X129657733Y-106612329D01*
X129832609Y-106649500D01*
X129832610Y-106649500D01*
X130011389Y-106649500D01*
X130011391Y-106649500D01*
X130186267Y-106612329D01*
X130349593Y-106539612D01*
X130494230Y-106434526D01*
X130514451Y-106412069D01*
X130528024Y-106396994D01*
X130613859Y-106301665D01*
X130703250Y-106146835D01*
X130758497Y-105976803D01*
X130771826Y-105849979D01*
X130798410Y-105785366D01*
X130816479Y-105767090D01*
X130846305Y-105742613D01*
X130866503Y-105729117D01*
X130974606Y-105671335D01*
X130997053Y-105662037D01*
X131114356Y-105626455D01*
X131138177Y-105621717D01*
X131266331Y-105609097D01*
X131278479Y-105608501D01*
X131345225Y-105608502D01*
X131345229Y-105608501D01*
X135231055Y-105608501D01*
X135231059Y-105608502D01*
G37*
G04 #@! TD.AperFunction*
G04 #@! TA.AperFunction,Conductor*
G36*
X143879174Y-103700985D02*
G01*
X143924929Y-103753789D01*
X143934873Y-103822947D01*
X143905848Y-103886503D01*
X143847070Y-103924277D01*
X143837916Y-103926590D01*
X143754733Y-103944270D01*
X143754728Y-103944272D01*
X143591408Y-104016987D01*
X143446768Y-104122075D01*
X143327140Y-104254936D01*
X143237750Y-104409764D01*
X143237747Y-104409770D01*
X143182504Y-104579792D01*
X143182503Y-104579794D01*
X143174697Y-104654067D01*
X143165831Y-104738424D01*
X143163815Y-104757601D01*
X143166394Y-104782140D01*
X143153824Y-104850870D01*
X143106091Y-104901893D01*
X143043073Y-104919100D01*
X138676504Y-104919100D01*
X138609465Y-104899415D01*
X138563710Y-104846611D01*
X138553183Y-104782143D01*
X138563361Y-104685305D01*
X138589944Y-104620694D01*
X138598990Y-104610599D01*
X138932561Y-104277029D01*
X138937560Y-104272302D01*
X139099202Y-104127852D01*
X139110048Y-104119203D01*
X139216599Y-104043603D01*
X139283960Y-103995809D01*
X139295734Y-103988411D01*
X139482356Y-103885270D01*
X139494870Y-103879243D01*
X139691878Y-103797642D01*
X139704983Y-103793056D01*
X139909907Y-103734020D01*
X139923432Y-103730933D01*
X140133669Y-103695215D01*
X140147459Y-103693661D01*
X140364130Y-103681494D01*
X140371081Y-103681300D01*
X140443267Y-103681301D01*
X140443271Y-103681300D01*
X143812135Y-103681300D01*
X143879174Y-103700985D01*
G37*
G04 #@! TD.AperFunction*
G04 #@! TA.AperFunction,Conductor*
G36*
X119143059Y-95005061D02*
G01*
X119248223Y-95018906D01*
X119279491Y-95027284D01*
X119369918Y-95064740D01*
X119397952Y-95080925D01*
X119475602Y-95140509D01*
X119498491Y-95163398D01*
X119558074Y-95241048D01*
X119574259Y-95269081D01*
X119611715Y-95359508D01*
X119620093Y-95390775D01*
X119633939Y-95495939D01*
X119635000Y-95512125D01*
X119635000Y-96545231D01*
X119625562Y-96592682D01*
X119606669Y-96638293D01*
X119599298Y-96694284D01*
X119587750Y-96782000D01*
X119606670Y-96925709D01*
X119625561Y-96971318D01*
X119635000Y-97018768D01*
X119635000Y-102901801D01*
X119625562Y-102949252D01*
X119603669Y-103002105D01*
X119584750Y-103145812D01*
X119584750Y-103145813D01*
X119603670Y-103289522D01*
X119625561Y-103342373D01*
X119635000Y-103389824D01*
X119635000Y-104401874D01*
X119633939Y-104418060D01*
X119620093Y-104523224D01*
X119611715Y-104554491D01*
X119574259Y-104644918D01*
X119558074Y-104672951D01*
X119498491Y-104750601D01*
X119475601Y-104773491D01*
X119397951Y-104833074D01*
X119369918Y-104849259D01*
X119279491Y-104886715D01*
X119248224Y-104895093D01*
X119154398Y-104907446D01*
X119143058Y-104908939D01*
X119126874Y-104910000D01*
X113793126Y-104910000D01*
X113776941Y-104908939D01*
X113763917Y-104907224D01*
X113671775Y-104895093D01*
X113640508Y-104886715D01*
X113550081Y-104849259D01*
X113522048Y-104833074D01*
X113444398Y-104773491D01*
X113421508Y-104750601D01*
X113361925Y-104672951D01*
X113345740Y-104644918D01*
X113308284Y-104554491D01*
X113299906Y-104523223D01*
X113286061Y-104418059D01*
X113285000Y-104401874D01*
X113285000Y-102763943D01*
X117380500Y-102763943D01*
X117380500Y-102922057D01*
X117401949Y-103002104D01*
X117421423Y-103074783D01*
X117421426Y-103074790D01*
X117500475Y-103211709D01*
X117500479Y-103211714D01*
X117500480Y-103211716D01*
X117612284Y-103323520D01*
X117612286Y-103323521D01*
X117612290Y-103323524D01*
X117727127Y-103389824D01*
X117749216Y-103402577D01*
X117901943Y-103443500D01*
X117901945Y-103443500D01*
X118060055Y-103443500D01*
X118060057Y-103443500D01*
X118212784Y-103402577D01*
X118349716Y-103323520D01*
X118461520Y-103211716D01*
X118540577Y-103074784D01*
X118581500Y-102922057D01*
X118581500Y-102763943D01*
X118540577Y-102611216D01*
X118540573Y-102611209D01*
X118461524Y-102474290D01*
X118461518Y-102474282D01*
X118349717Y-102362481D01*
X118349709Y-102362475D01*
X118212790Y-102283426D01*
X118212786Y-102283424D01*
X118212784Y-102283423D01*
X118060057Y-102242500D01*
X117901943Y-102242500D01*
X117749216Y-102283423D01*
X117749209Y-102283426D01*
X117612290Y-102362475D01*
X117612282Y-102362481D01*
X117500481Y-102474282D01*
X117500475Y-102474290D01*
X117421426Y-102611209D01*
X117421423Y-102611216D01*
X117380500Y-102763943D01*
X113285000Y-102763943D01*
X113285000Y-96983943D01*
X117380500Y-96983943D01*
X117380500Y-97142057D01*
X117412870Y-97262861D01*
X117421423Y-97294783D01*
X117421426Y-97294790D01*
X117500475Y-97431709D01*
X117500479Y-97431714D01*
X117500480Y-97431716D01*
X117612284Y-97543520D01*
X117612286Y-97543521D01*
X117612290Y-97543524D01*
X117749209Y-97622573D01*
X117749216Y-97622577D01*
X117901943Y-97663500D01*
X117901945Y-97663500D01*
X118060055Y-97663500D01*
X118060057Y-97663500D01*
X118212784Y-97622577D01*
X118349716Y-97543520D01*
X118461520Y-97431716D01*
X118540577Y-97294784D01*
X118581500Y-97142057D01*
X118581500Y-96983943D01*
X118540577Y-96831216D01*
X118540573Y-96831209D01*
X118461524Y-96694290D01*
X118461518Y-96694282D01*
X118349717Y-96582481D01*
X118349709Y-96582475D01*
X118212790Y-96503426D01*
X118212786Y-96503424D01*
X118212784Y-96503423D01*
X118060057Y-96462500D01*
X117901943Y-96462500D01*
X117749216Y-96503423D01*
X117749209Y-96503426D01*
X117612290Y-96582475D01*
X117612282Y-96582481D01*
X117500481Y-96694282D01*
X117500475Y-96694290D01*
X117421426Y-96831209D01*
X117421423Y-96831216D01*
X117380500Y-96983943D01*
X113285000Y-96983943D01*
X113285000Y-95512125D01*
X113286061Y-95495940D01*
X113299906Y-95390776D01*
X113308284Y-95359508D01*
X113345740Y-95269081D01*
X113361923Y-95241050D01*
X113421513Y-95163392D01*
X113444392Y-95140513D01*
X113522050Y-95080923D01*
X113550079Y-95064740D01*
X113640509Y-95027283D01*
X113671775Y-95018906D01*
X113776941Y-95005061D01*
X113793126Y-95004000D01*
X119126874Y-95004000D01*
X119143059Y-95005061D01*
G37*
G04 #@! TD.AperFunction*
M02*
