%TF.GenerationSoftware,KiCad,Pcbnew,8.0.4*%
%TF.CreationDate,2024-11-09T01:04:37+01:00*%
%TF.ProjectId,NatSi-DevKit,4e617453-692d-4446-9576-4b69742e6b69,v1.0.0*%
%TF.SameCoordinates,Original*%
%TF.FileFunction,Drillmap*%
%TF.FilePolarity,Positive*%
%FSLAX45Y45*%
G04 Gerber Fmt 4.5, Leading zero omitted, Abs format (unit mm)*
G04 Created by KiCad (PCBNEW 8.0.4) date 2024-11-09 01:04:37*
%MOMM*%
%LPD*%
G01*
G04 APERTURE LIST*
%ADD10C,0.100000*%
%ADD11C,0.200000*%
G04 APERTURE END LIST*
D10*
X11323100Y-8713000D02*
X11221500Y-8814600D01*
X11221500Y-8814600D02*
X11221500Y-11151400D01*
X17475300Y-8713000D02*
X17475300Y-11253000D01*
X17475300Y-11253000D02*
X11323100Y-11253000D01*
X11221500Y-11151400D02*
X11323100Y-11253000D01*
X11323100Y-8713000D02*
X17475300Y-8713000D01*
D11*
D10*
X11999000Y-10299581D02*
X12029000Y-10329581D01*
X12029000Y-10299581D02*
X11999000Y-10329581D01*
X11999300Y-9663200D02*
X12029300Y-9693200D01*
X12029300Y-9663200D02*
X11999300Y-9693200D01*
X12316800Y-9574300D02*
X12346800Y-9604300D01*
X12346800Y-9574300D02*
X12316800Y-9604300D01*
X12316800Y-9764800D02*
X12346800Y-9794800D01*
X12346800Y-9764800D02*
X12316800Y-9794800D01*
X12316800Y-9955300D02*
X12346800Y-9985300D01*
X12346800Y-9955300D02*
X12316800Y-9985300D01*
X12319340Y-10547120D02*
X12349340Y-10577120D01*
X12349340Y-10547120D02*
X12319340Y-10577120D01*
X12469200Y-10361700D02*
X12499200Y-10391700D01*
X12499200Y-10361700D02*
X12469200Y-10391700D01*
X12469200Y-10564900D02*
X12499200Y-10594900D01*
X12499200Y-10564900D02*
X12469200Y-10594900D01*
X12486980Y-9957840D02*
X12516980Y-9987840D01*
X12516980Y-9957840D02*
X12486980Y-9987840D01*
X12532700Y-10463300D02*
X12562700Y-10493300D01*
X12562700Y-10463300D02*
X12532700Y-10493300D01*
X12692400Y-9485400D02*
X12722400Y-9515400D01*
X12722400Y-9485400D02*
X12692400Y-9515400D01*
X12697800Y-9968000D02*
X12727800Y-9998000D01*
X12727800Y-9968000D02*
X12697800Y-9998000D01*
X12972500Y-9578000D02*
X13002500Y-9608000D01*
X13002500Y-9578000D02*
X12972500Y-9608000D01*
X12977200Y-10361700D02*
X13007200Y-10391700D01*
X13007200Y-10361700D02*
X12977200Y-10391700D01*
X12977200Y-10564900D02*
X13007200Y-10594900D01*
X13007200Y-10564900D02*
X12977200Y-10594900D01*
X13078800Y-9777500D02*
X13108800Y-9807500D01*
X13108800Y-9777500D02*
X13078800Y-9807500D01*
X13086100Y-10641100D02*
X13116100Y-10671100D01*
X13116100Y-10641100D02*
X13086100Y-10671100D01*
X13246440Y-10323600D02*
X13276440Y-10353600D01*
X13276440Y-10323600D02*
X13246440Y-10353600D01*
X13510600Y-10323600D02*
X13540600Y-10353600D01*
X13540600Y-10323600D02*
X13510600Y-10353600D01*
X13637600Y-10641100D02*
X13667600Y-10671100D01*
X13667600Y-10641100D02*
X13637600Y-10671100D01*
X13640140Y-10323600D02*
X13670140Y-10353600D01*
X13670140Y-10323600D02*
X13640140Y-10353600D01*
X13751900Y-10755400D02*
X13781900Y-10785400D01*
X13781900Y-10755400D02*
X13751900Y-10785400D01*
X13756622Y-10445878D02*
X13786622Y-10475878D01*
X13786622Y-10445878D02*
X13756622Y-10475878D01*
X13780000Y-9578000D02*
X13810000Y-9608000D01*
X13810000Y-9578000D02*
X13780000Y-9608000D01*
X14000500Y-10399800D02*
X14030500Y-10429800D01*
X14030500Y-10399800D02*
X14000500Y-10429800D01*
X14005000Y-9932440D02*
X14035000Y-9962440D01*
X14035000Y-9932440D02*
X14005000Y-9962440D01*
X14381555Y-8982745D02*
X14411555Y-9012745D01*
X14411555Y-8982745D02*
X14381555Y-9012745D01*
X14386900Y-10460760D02*
X14416900Y-10490760D01*
X14416900Y-10460760D02*
X14386900Y-10490760D01*
X14485960Y-9828300D02*
X14515960Y-9858300D01*
X14515960Y-9828300D02*
X14485960Y-9858300D01*
X14554540Y-10168660D02*
X14584540Y-10198660D01*
X14584540Y-10168660D02*
X14554540Y-10198660D01*
X14556000Y-10290580D02*
X14586000Y-10320580D01*
X14586000Y-10290580D02*
X14556000Y-10320580D01*
X14572000Y-9104400D02*
X14602000Y-9134400D01*
X14602000Y-9104400D02*
X14572000Y-9134400D01*
X14583420Y-9727560D02*
X14613420Y-9757560D01*
X14613420Y-9727560D02*
X14583420Y-9757560D01*
X14689160Y-9830840D02*
X14719160Y-9860840D01*
X14719160Y-9830840D02*
X14689160Y-9860840D01*
X15585754Y-9290900D02*
X15615754Y-9320900D01*
X15615754Y-9290900D02*
X15585754Y-9320900D01*
X15656900Y-9358400D02*
X15686900Y-9388400D01*
X15686900Y-9358400D02*
X15656900Y-9388400D01*
X15707106Y-9850580D02*
X15737106Y-9880580D01*
X15737106Y-9850580D02*
X15707106Y-9880580D01*
X15707700Y-9434600D02*
X15737700Y-9464600D01*
X15737700Y-9434600D02*
X15707700Y-9464600D01*
X15707700Y-9536200D02*
X15737700Y-9566200D01*
X15737700Y-9536200D02*
X15707700Y-9566200D01*
X15707700Y-9637800D02*
X15737700Y-9667800D01*
X15737700Y-9637800D02*
X15707700Y-9667800D01*
X15707700Y-9739400D02*
X15737700Y-9769400D01*
X15737700Y-9739400D02*
X15707700Y-9769400D01*
X15707700Y-9955300D02*
X15737700Y-9985300D01*
X15737700Y-9955300D02*
X15707700Y-9985300D01*
X15707700Y-10446600D02*
X15737700Y-10476600D01*
X15737700Y-10446600D02*
X15707700Y-10476600D01*
X15707700Y-10590300D02*
X15737700Y-10620300D01*
X15737700Y-10590300D02*
X15707700Y-10620300D01*
X15764193Y-10520239D02*
X15794193Y-10550239D01*
X15794193Y-10520239D02*
X15764193Y-10550239D01*
X15839690Y-10601910D02*
X15869690Y-10631910D01*
X15869690Y-10601910D02*
X15839690Y-10631910D01*
X15839780Y-10445520D02*
X15869780Y-10475520D01*
X15869780Y-10445520D02*
X15839780Y-10475520D01*
X15847104Y-10691605D02*
X15877104Y-10721605D01*
X15877104Y-10691605D02*
X15847104Y-10721605D01*
X15849200Y-9252460D02*
X15879200Y-9282460D01*
X15879200Y-9252460D02*
X15849200Y-9282460D01*
X15860100Y-10300700D02*
X15890100Y-10330700D01*
X15890100Y-10300700D02*
X15860100Y-10330700D01*
X15910900Y-9998000D02*
X15940900Y-10028000D01*
X15940900Y-9998000D02*
X15910900Y-10028000D01*
X15919600Y-10374400D02*
X15949600Y-10404400D01*
X15949600Y-10374400D02*
X15919600Y-10404400D01*
X15921060Y-9327920D02*
X15951060Y-9357920D01*
X15951060Y-9327920D02*
X15921060Y-9357920D01*
X15949000Y-10628400D02*
X15979000Y-10658400D01*
X15979000Y-10628400D02*
X15949000Y-10658400D01*
X15999800Y-10506480D02*
X16029800Y-10536480D01*
X16029800Y-10506480D02*
X15999800Y-10536480D01*
X16012500Y-9396500D02*
X16042500Y-9426500D01*
X16042500Y-9396500D02*
X16012500Y-9426500D01*
X16025200Y-10374400D02*
X16055200Y-10404400D01*
X16055200Y-10374400D02*
X16025200Y-10404400D01*
X16042660Y-10227080D02*
X16072660Y-10257080D01*
X16072660Y-10227080D02*
X16042660Y-10257080D01*
X16050600Y-10628400D02*
X16080600Y-10658400D01*
X16080600Y-10628400D02*
X16050600Y-10658400D01*
X16114100Y-9396500D02*
X16144100Y-9426500D01*
X16144100Y-9396500D02*
X16114100Y-9426500D01*
X16152200Y-10628400D02*
X16182200Y-10658400D01*
X16182200Y-10628400D02*
X16152200Y-10658400D01*
X16215700Y-9396500D02*
X16245700Y-9426500D01*
X16245700Y-9396500D02*
X16215700Y-9426500D01*
X16230940Y-10539500D02*
X16260940Y-10569500D01*
X16260940Y-10539500D02*
X16230940Y-10569500D01*
X16541200Y-9277120D02*
X16571200Y-9307120D01*
X16571200Y-9277120D02*
X16541200Y-9307120D01*
X16543360Y-10648720D02*
X16573360Y-10678720D01*
X16573360Y-10648720D02*
X16543360Y-10678720D01*
X16665280Y-9277120D02*
X16695280Y-9307120D01*
X16695280Y-9277120D02*
X16665280Y-9307120D01*
X16665280Y-10646180D02*
X16695280Y-10676180D01*
X16695280Y-10646180D02*
X16665280Y-10676180D01*
X16792280Y-9277120D02*
X16822280Y-9307120D01*
X16822280Y-9277120D02*
X16792280Y-9307120D01*
X16919280Y-9277120D02*
X16949280Y-9307120D01*
X16949280Y-9277120D02*
X16919280Y-9307120D01*
X16971060Y-9747040D02*
X17001060Y-9777040D01*
X17001060Y-9747040D02*
X16971060Y-9777040D01*
X16971060Y-10187040D02*
X17001060Y-10217040D01*
X17001060Y-10187040D02*
X16971060Y-10217040D01*
X16973600Y-9964500D02*
X17003600Y-9994500D01*
X17003600Y-9964500D02*
X16973600Y-9994500D01*
X17015800Y-9371100D02*
X17045800Y-9401100D01*
X17045800Y-9371100D02*
X17015800Y-9401100D01*
X17015800Y-10641100D02*
X17045800Y-10671100D01*
X17045800Y-10641100D02*
X17015800Y-10671100D01*
X17170740Y-9434600D02*
X17200740Y-9464600D01*
X17200740Y-9434600D02*
X17170740Y-9464600D01*
X17173100Y-10843000D02*
X17203100Y-10873000D01*
X17203100Y-10843000D02*
X17173100Y-10873000D01*
X17195820Y-10658880D02*
X17225820Y-10688880D01*
X17225820Y-10658880D02*
X17195820Y-10688880D01*
X17300100Y-9093000D02*
X17330100Y-9123000D01*
X17330100Y-9093000D02*
X17300100Y-9123000D01*
X11460100Y-9562800D02*
G75*
G02*
X11400100Y-9562800I-30000J0D01*
G01*
X11400100Y-9562800D02*
G75*
G02*
X11460100Y-9562800I30000J0D01*
G01*
X11470100Y-9532800D02*
X11390100Y-9532800D01*
X11390100Y-9592800D02*
G75*
G02*
X11390100Y-9532800I0J30000D01*
G01*
X11390100Y-9592800D02*
X11470100Y-9592800D01*
X11470100Y-9592800D02*
G75*
G03*
X11470100Y-9532800I0J30000D01*
G01*
X11460100Y-10427800D02*
G75*
G02*
X11400100Y-10427800I-30000J0D01*
G01*
X11400100Y-10427800D02*
G75*
G02*
X11460100Y-10427800I30000J0D01*
G01*
X11470100Y-10397800D02*
X11390100Y-10397800D01*
X11390100Y-10457800D02*
G75*
G02*
X11390100Y-10397800I0J30000D01*
G01*
X11390100Y-10457800D02*
X11470100Y-10457800D01*
X11470100Y-10457800D02*
G75*
G03*
X11470100Y-10397800I0J30000D01*
G01*
X11877100Y-9562800D02*
G75*
G02*
X11817100Y-9562800I-30000J0D01*
G01*
X11817100Y-9562800D02*
G75*
G02*
X11877100Y-9562800I30000J0D01*
G01*
X11902100Y-9532800D02*
X11792100Y-9532800D01*
X11792100Y-9592800D02*
G75*
G02*
X11792100Y-9532800I0J30000D01*
G01*
X11792100Y-9592800D02*
X11902100Y-9592800D01*
X11902100Y-9592800D02*
G75*
G03*
X11902100Y-9532800I0J30000D01*
G01*
X11877100Y-10427800D02*
G75*
G02*
X11817100Y-10427800I-30000J0D01*
G01*
X11817100Y-10427800D02*
G75*
G02*
X11877100Y-10427800I30000J0D01*
G01*
X11902100Y-10397800D02*
X11792100Y-10397800D01*
X11792100Y-10457800D02*
G75*
G02*
X11792100Y-10397800I0J30000D01*
G01*
X11792100Y-10457800D02*
X11902100Y-10457800D01*
X11902100Y-10457800D02*
G75*
G03*
X11902100Y-10397800I0J30000D01*
G01*
X12471500Y-10760800D02*
X12471500Y-10830800D01*
X12436500Y-10795800D02*
X12506500Y-10795800D01*
X12865200Y-10760800D02*
X12865200Y-10830800D01*
X12830200Y-10795800D02*
X12900200Y-10795800D01*
X12049656Y-8875356D02*
X12049656Y-8804644D01*
X11978944Y-8804644D01*
X11978944Y-8875356D01*
X12049656Y-8875356D01*
X12049656Y-11161356D02*
X12049656Y-11090644D01*
X11978944Y-11090644D01*
X11978944Y-11161356D01*
X12049656Y-11161356D01*
X12303656Y-8875356D02*
X12303656Y-8804644D01*
X12232944Y-8804644D01*
X12232944Y-8875356D01*
X12303656Y-8875356D01*
X12303656Y-11161356D02*
X12303656Y-11090644D01*
X12232944Y-11090644D01*
X12232944Y-11161356D01*
X12303656Y-11161356D01*
X12557656Y-8875356D02*
X12557656Y-8804644D01*
X12486944Y-8804644D01*
X12486944Y-8875356D01*
X12557656Y-8875356D01*
X12557656Y-11161356D02*
X12557656Y-11090644D01*
X12486944Y-11090644D01*
X12486944Y-11161356D01*
X12557656Y-11161356D01*
X12811656Y-8875356D02*
X12811656Y-8804644D01*
X12740944Y-8804644D01*
X12740944Y-8875356D01*
X12811656Y-8875356D01*
X12811656Y-11161356D02*
X12811656Y-11090644D01*
X12740944Y-11090644D01*
X12740944Y-11161356D01*
X12811656Y-11161356D01*
X13065656Y-8875356D02*
X13065656Y-8804644D01*
X12994944Y-8804644D01*
X12994944Y-8875356D01*
X13065656Y-8875356D01*
X13065656Y-11161356D02*
X13065656Y-11090644D01*
X12994944Y-11090644D01*
X12994944Y-11161356D01*
X13065656Y-11161356D01*
X13319656Y-8875356D02*
X13319656Y-8804644D01*
X13248944Y-8804644D01*
X13248944Y-8875356D01*
X13319656Y-8875356D01*
X13319656Y-11161356D02*
X13319656Y-11090644D01*
X13248944Y-11090644D01*
X13248944Y-11161356D01*
X13319656Y-11161356D01*
X13573656Y-8875356D02*
X13573656Y-8804644D01*
X13502944Y-8804644D01*
X13502944Y-8875356D01*
X13573656Y-8875356D01*
X13573656Y-11161356D02*
X13573656Y-11090644D01*
X13502944Y-11090644D01*
X13502944Y-11161356D01*
X13573656Y-11161356D01*
X13827656Y-8875356D02*
X13827656Y-8804644D01*
X13756944Y-8804644D01*
X13756944Y-8875356D01*
X13827656Y-8875356D01*
X13827656Y-11161356D02*
X13827656Y-11090644D01*
X13756944Y-11090644D01*
X13756944Y-11161356D01*
X13827656Y-11161356D01*
X14081656Y-8875356D02*
X14081656Y-8804644D01*
X14010944Y-8804644D01*
X14010944Y-8875356D01*
X14081656Y-8875356D01*
X14081656Y-11161356D02*
X14081656Y-11090644D01*
X14010944Y-11090644D01*
X14010944Y-11161356D01*
X14081656Y-11161356D01*
X14335656Y-8875356D02*
X14335656Y-8804644D01*
X14264944Y-8804644D01*
X14264944Y-8875356D01*
X14335656Y-8875356D01*
X14335656Y-11161356D02*
X14335656Y-11090644D01*
X14264944Y-11090644D01*
X14264944Y-11161356D01*
X14335656Y-11161356D01*
X14589656Y-8875356D02*
X14589656Y-8804644D01*
X14518944Y-8804644D01*
X14518944Y-8875356D01*
X14589656Y-8875356D01*
X14589656Y-11161356D02*
X14589656Y-11090644D01*
X14518944Y-11090644D01*
X14518944Y-11161356D01*
X14589656Y-11161356D01*
X14843656Y-8875356D02*
X14843656Y-8804644D01*
X14772944Y-8804644D01*
X14772944Y-8875356D01*
X14843656Y-8875356D01*
X14843656Y-11161356D02*
X14843656Y-11090644D01*
X14772944Y-11090644D01*
X14772944Y-11161356D01*
X14843656Y-11161356D01*
X15097656Y-8875356D02*
X15097656Y-8804644D01*
X15026944Y-8804644D01*
X15026944Y-8875356D01*
X15097656Y-8875356D01*
X15097656Y-11161356D02*
X15097656Y-11090644D01*
X15026944Y-11090644D01*
X15026944Y-11161356D01*
X15097656Y-11161356D01*
X15351656Y-8875356D02*
X15351656Y-8804644D01*
X15280944Y-8804644D01*
X15280944Y-8875356D01*
X15351656Y-8875356D01*
X15351656Y-11161356D02*
X15351656Y-11090644D01*
X15280944Y-11090644D01*
X15280944Y-11161356D01*
X15351656Y-11161356D01*
X15605656Y-8875356D02*
X15605656Y-8804644D01*
X15534944Y-8804644D01*
X15534944Y-8875356D01*
X15605656Y-8875356D01*
X15605656Y-11161356D02*
X15605656Y-11090644D01*
X15534944Y-11090644D01*
X15534944Y-11161356D01*
X15605656Y-11161356D01*
X15859656Y-8875356D02*
X15859656Y-8804644D01*
X15788944Y-8804644D01*
X15788944Y-8875356D01*
X15859656Y-8875356D01*
X15859656Y-11161356D02*
X15859656Y-11090644D01*
X15788944Y-11090644D01*
X15788944Y-11161356D01*
X15859656Y-11161356D01*
X16113656Y-8875356D02*
X16113656Y-8804644D01*
X16042944Y-8804644D01*
X16042944Y-8875356D01*
X16113656Y-8875356D01*
X16113656Y-11161356D02*
X16113656Y-11090644D01*
X16042944Y-11090644D01*
X16042944Y-11161356D01*
X16113656Y-11161356D01*
X16367656Y-8875356D02*
X16367656Y-8804644D01*
X16296944Y-8804644D01*
X16296944Y-8875356D01*
X16367656Y-8875356D01*
X16367656Y-11161356D02*
X16367656Y-11090644D01*
X16296944Y-11090644D01*
X16296944Y-11161356D01*
X16367656Y-11161356D01*
X16621656Y-8875356D02*
X16621656Y-8804644D01*
X16550944Y-8804644D01*
X16550944Y-8875356D01*
X16621656Y-8875356D01*
X16621656Y-11161356D02*
X16621656Y-11090644D01*
X16550944Y-11090644D01*
X16550944Y-11161356D01*
X16621656Y-11161356D01*
X16875656Y-8875356D02*
X16875656Y-8804644D01*
X16804944Y-8804644D01*
X16804944Y-8875356D01*
X16875656Y-8875356D01*
X16875656Y-11161356D02*
X16875656Y-11090644D01*
X16804944Y-11090644D01*
X16804944Y-11161356D01*
X16875656Y-11161356D01*
X17129656Y-8875356D02*
X17129656Y-8804644D01*
X17058944Y-8804644D01*
X17058944Y-8875356D01*
X17129656Y-8875356D01*
X17129656Y-11161356D02*
X17129656Y-11090644D01*
X17058944Y-11090644D01*
X17058944Y-11161356D01*
X17129656Y-11161356D01*
X17383656Y-8875356D02*
X17383656Y-8804644D01*
X17312944Y-8804644D01*
X17312944Y-8875356D01*
X17383656Y-8875356D01*
X17383656Y-11161356D02*
X17383656Y-11090644D01*
X17312944Y-11090644D01*
X17312944Y-11161356D01*
X17383656Y-11161356D01*
D11*
X11477277Y-11569484D02*
X11477277Y-11369484D01*
X11477277Y-11369484D02*
X11524896Y-11369484D01*
X11524896Y-11369484D02*
X11553467Y-11379008D01*
X11553467Y-11379008D02*
X11572515Y-11398055D01*
X11572515Y-11398055D02*
X11582039Y-11417103D01*
X11582039Y-11417103D02*
X11591562Y-11455198D01*
X11591562Y-11455198D02*
X11591562Y-11483769D01*
X11591562Y-11483769D02*
X11582039Y-11521865D01*
X11582039Y-11521865D02*
X11572515Y-11540912D01*
X11572515Y-11540912D02*
X11553467Y-11559960D01*
X11553467Y-11559960D02*
X11524896Y-11569484D01*
X11524896Y-11569484D02*
X11477277Y-11569484D01*
X11677277Y-11569484D02*
X11677277Y-11436150D01*
X11677277Y-11474246D02*
X11686801Y-11455198D01*
X11686801Y-11455198D02*
X11696324Y-11445674D01*
X11696324Y-11445674D02*
X11715372Y-11436150D01*
X11715372Y-11436150D02*
X11734420Y-11436150D01*
X11801086Y-11569484D02*
X11801086Y-11436150D01*
X11801086Y-11369484D02*
X11791562Y-11379008D01*
X11791562Y-11379008D02*
X11801086Y-11388531D01*
X11801086Y-11388531D02*
X11810610Y-11379008D01*
X11810610Y-11379008D02*
X11801086Y-11369484D01*
X11801086Y-11369484D02*
X11801086Y-11388531D01*
X11924896Y-11569484D02*
X11905848Y-11559960D01*
X11905848Y-11559960D02*
X11896324Y-11540912D01*
X11896324Y-11540912D02*
X11896324Y-11369484D01*
X12029658Y-11569484D02*
X12010610Y-11559960D01*
X12010610Y-11559960D02*
X12001086Y-11540912D01*
X12001086Y-11540912D02*
X12001086Y-11369484D01*
X12258229Y-11569484D02*
X12258229Y-11369484D01*
X12258229Y-11369484D02*
X12324896Y-11512341D01*
X12324896Y-11512341D02*
X12391562Y-11369484D01*
X12391562Y-11369484D02*
X12391562Y-11569484D01*
X12572515Y-11569484D02*
X12572515Y-11464722D01*
X12572515Y-11464722D02*
X12562991Y-11445674D01*
X12562991Y-11445674D02*
X12543943Y-11436150D01*
X12543943Y-11436150D02*
X12505848Y-11436150D01*
X12505848Y-11436150D02*
X12486801Y-11445674D01*
X12572515Y-11559960D02*
X12553467Y-11569484D01*
X12553467Y-11569484D02*
X12505848Y-11569484D01*
X12505848Y-11569484D02*
X12486801Y-11559960D01*
X12486801Y-11559960D02*
X12477277Y-11540912D01*
X12477277Y-11540912D02*
X12477277Y-11521865D01*
X12477277Y-11521865D02*
X12486801Y-11502817D01*
X12486801Y-11502817D02*
X12505848Y-11493293D01*
X12505848Y-11493293D02*
X12553467Y-11493293D01*
X12553467Y-11493293D02*
X12572515Y-11483769D01*
X12667753Y-11436150D02*
X12667753Y-11636150D01*
X12667753Y-11445674D02*
X12686801Y-11436150D01*
X12686801Y-11436150D02*
X12724896Y-11436150D01*
X12724896Y-11436150D02*
X12743943Y-11445674D01*
X12743943Y-11445674D02*
X12753467Y-11455198D01*
X12753467Y-11455198D02*
X12762991Y-11474246D01*
X12762991Y-11474246D02*
X12762991Y-11531388D01*
X12762991Y-11531388D02*
X12753467Y-11550436D01*
X12753467Y-11550436D02*
X12743943Y-11559960D01*
X12743943Y-11559960D02*
X12724896Y-11569484D01*
X12724896Y-11569484D02*
X12686801Y-11569484D01*
X12686801Y-11569484D02*
X12667753Y-11559960D01*
X12848705Y-11550436D02*
X12858229Y-11559960D01*
X12858229Y-11559960D02*
X12848705Y-11569484D01*
X12848705Y-11569484D02*
X12839182Y-11559960D01*
X12839182Y-11559960D02*
X12848705Y-11550436D01*
X12848705Y-11550436D02*
X12848705Y-11569484D01*
X12848705Y-11445674D02*
X12858229Y-11455198D01*
X12858229Y-11455198D02*
X12848705Y-11464722D01*
X12848705Y-11464722D02*
X12839182Y-11455198D01*
X12839182Y-11455198D02*
X12848705Y-11445674D01*
X12848705Y-11445674D02*
X12848705Y-11464722D01*
D10*
X11186500Y-11883000D02*
X11216500Y-11913000D01*
X11216500Y-11883000D02*
X11186500Y-11913000D01*
D11*
X11515372Y-11789484D02*
X11534420Y-11789484D01*
X11534420Y-11789484D02*
X11553467Y-11799008D01*
X11553467Y-11799008D02*
X11562991Y-11808531D01*
X11562991Y-11808531D02*
X11572515Y-11827579D01*
X11572515Y-11827579D02*
X11582039Y-11865674D01*
X11582039Y-11865674D02*
X11582039Y-11913293D01*
X11582039Y-11913293D02*
X11572515Y-11951388D01*
X11572515Y-11951388D02*
X11562991Y-11970436D01*
X11562991Y-11970436D02*
X11553467Y-11979960D01*
X11553467Y-11979960D02*
X11534420Y-11989484D01*
X11534420Y-11989484D02*
X11515372Y-11989484D01*
X11515372Y-11989484D02*
X11496324Y-11979960D01*
X11496324Y-11979960D02*
X11486801Y-11970436D01*
X11486801Y-11970436D02*
X11477277Y-11951388D01*
X11477277Y-11951388D02*
X11467753Y-11913293D01*
X11467753Y-11913293D02*
X11467753Y-11865674D01*
X11467753Y-11865674D02*
X11477277Y-11827579D01*
X11477277Y-11827579D02*
X11486801Y-11808531D01*
X11486801Y-11808531D02*
X11496324Y-11799008D01*
X11496324Y-11799008D02*
X11515372Y-11789484D01*
X11667753Y-11970436D02*
X11677277Y-11979960D01*
X11677277Y-11979960D02*
X11667753Y-11989484D01*
X11667753Y-11989484D02*
X11658229Y-11979960D01*
X11658229Y-11979960D02*
X11667753Y-11970436D01*
X11667753Y-11970436D02*
X11667753Y-11989484D01*
X11743943Y-11789484D02*
X11867753Y-11789484D01*
X11867753Y-11789484D02*
X11801086Y-11865674D01*
X11801086Y-11865674D02*
X11829658Y-11865674D01*
X11829658Y-11865674D02*
X11848705Y-11875198D01*
X11848705Y-11875198D02*
X11858229Y-11884722D01*
X11858229Y-11884722D02*
X11867753Y-11903769D01*
X11867753Y-11903769D02*
X11867753Y-11951388D01*
X11867753Y-11951388D02*
X11858229Y-11970436D01*
X11858229Y-11970436D02*
X11848705Y-11979960D01*
X11848705Y-11979960D02*
X11829658Y-11989484D01*
X11829658Y-11989484D02*
X11772515Y-11989484D01*
X11772515Y-11989484D02*
X11753467Y-11979960D01*
X11753467Y-11979960D02*
X11743943Y-11970436D01*
X11991562Y-11789484D02*
X12010610Y-11789484D01*
X12010610Y-11789484D02*
X12029658Y-11799008D01*
X12029658Y-11799008D02*
X12039182Y-11808531D01*
X12039182Y-11808531D02*
X12048705Y-11827579D01*
X12048705Y-11827579D02*
X12058229Y-11865674D01*
X12058229Y-11865674D02*
X12058229Y-11913293D01*
X12058229Y-11913293D02*
X12048705Y-11951388D01*
X12048705Y-11951388D02*
X12039182Y-11970436D01*
X12039182Y-11970436D02*
X12029658Y-11979960D01*
X12029658Y-11979960D02*
X12010610Y-11989484D01*
X12010610Y-11989484D02*
X11991562Y-11989484D01*
X11991562Y-11989484D02*
X11972515Y-11979960D01*
X11972515Y-11979960D02*
X11962991Y-11970436D01*
X11962991Y-11970436D02*
X11953467Y-11951388D01*
X11953467Y-11951388D02*
X11943943Y-11913293D01*
X11943943Y-11913293D02*
X11943943Y-11865674D01*
X11943943Y-11865674D02*
X11953467Y-11827579D01*
X11953467Y-11827579D02*
X11962991Y-11808531D01*
X11962991Y-11808531D02*
X11972515Y-11799008D01*
X11972515Y-11799008D02*
X11991562Y-11789484D01*
X12182039Y-11789484D02*
X12201086Y-11789484D01*
X12201086Y-11789484D02*
X12220134Y-11799008D01*
X12220134Y-11799008D02*
X12229658Y-11808531D01*
X12229658Y-11808531D02*
X12239182Y-11827579D01*
X12239182Y-11827579D02*
X12248705Y-11865674D01*
X12248705Y-11865674D02*
X12248705Y-11913293D01*
X12248705Y-11913293D02*
X12239182Y-11951388D01*
X12239182Y-11951388D02*
X12229658Y-11970436D01*
X12229658Y-11970436D02*
X12220134Y-11979960D01*
X12220134Y-11979960D02*
X12201086Y-11989484D01*
X12201086Y-11989484D02*
X12182039Y-11989484D01*
X12182039Y-11989484D02*
X12162991Y-11979960D01*
X12162991Y-11979960D02*
X12153467Y-11970436D01*
X12153467Y-11970436D02*
X12143943Y-11951388D01*
X12143943Y-11951388D02*
X12134420Y-11913293D01*
X12134420Y-11913293D02*
X12134420Y-11865674D01*
X12134420Y-11865674D02*
X12143943Y-11827579D01*
X12143943Y-11827579D02*
X12153467Y-11808531D01*
X12153467Y-11808531D02*
X12162991Y-11799008D01*
X12162991Y-11799008D02*
X12182039Y-11789484D01*
X12334420Y-11989484D02*
X12334420Y-11856150D01*
X12334420Y-11875198D02*
X12343943Y-11865674D01*
X12343943Y-11865674D02*
X12362991Y-11856150D01*
X12362991Y-11856150D02*
X12391563Y-11856150D01*
X12391563Y-11856150D02*
X12410610Y-11865674D01*
X12410610Y-11865674D02*
X12420134Y-11884722D01*
X12420134Y-11884722D02*
X12420134Y-11989484D01*
X12420134Y-11884722D02*
X12429658Y-11865674D01*
X12429658Y-11865674D02*
X12448705Y-11856150D01*
X12448705Y-11856150D02*
X12477277Y-11856150D01*
X12477277Y-11856150D02*
X12496324Y-11865674D01*
X12496324Y-11865674D02*
X12505848Y-11884722D01*
X12505848Y-11884722D02*
X12505848Y-11989484D01*
X12601086Y-11989484D02*
X12601086Y-11856150D01*
X12601086Y-11875198D02*
X12610610Y-11865674D01*
X12610610Y-11865674D02*
X12629658Y-11856150D01*
X12629658Y-11856150D02*
X12658229Y-11856150D01*
X12658229Y-11856150D02*
X12677277Y-11865674D01*
X12677277Y-11865674D02*
X12686801Y-11884722D01*
X12686801Y-11884722D02*
X12686801Y-11989484D01*
X12686801Y-11884722D02*
X12696324Y-11865674D01*
X12696324Y-11865674D02*
X12715372Y-11856150D01*
X12715372Y-11856150D02*
X12743943Y-11856150D01*
X12743943Y-11856150D02*
X12762991Y-11865674D01*
X12762991Y-11865674D02*
X12772515Y-11884722D01*
X12772515Y-11884722D02*
X12772515Y-11989484D01*
X13162991Y-11779960D02*
X12991563Y-12037103D01*
X13420134Y-11789484D02*
X13439182Y-11789484D01*
X13439182Y-11789484D02*
X13458229Y-11799008D01*
X13458229Y-11799008D02*
X13467753Y-11808531D01*
X13467753Y-11808531D02*
X13477277Y-11827579D01*
X13477277Y-11827579D02*
X13486801Y-11865674D01*
X13486801Y-11865674D02*
X13486801Y-11913293D01*
X13486801Y-11913293D02*
X13477277Y-11951388D01*
X13477277Y-11951388D02*
X13467753Y-11970436D01*
X13467753Y-11970436D02*
X13458229Y-11979960D01*
X13458229Y-11979960D02*
X13439182Y-11989484D01*
X13439182Y-11989484D02*
X13420134Y-11989484D01*
X13420134Y-11989484D02*
X13401086Y-11979960D01*
X13401086Y-11979960D02*
X13391563Y-11970436D01*
X13391563Y-11970436D02*
X13382039Y-11951388D01*
X13382039Y-11951388D02*
X13372515Y-11913293D01*
X13372515Y-11913293D02*
X13372515Y-11865674D01*
X13372515Y-11865674D02*
X13382039Y-11827579D01*
X13382039Y-11827579D02*
X13391563Y-11808531D01*
X13391563Y-11808531D02*
X13401086Y-11799008D01*
X13401086Y-11799008D02*
X13420134Y-11789484D01*
X13572515Y-11970436D02*
X13582039Y-11979960D01*
X13582039Y-11979960D02*
X13572515Y-11989484D01*
X13572515Y-11989484D02*
X13562991Y-11979960D01*
X13562991Y-11979960D02*
X13572515Y-11970436D01*
X13572515Y-11970436D02*
X13572515Y-11989484D01*
X13705848Y-11789484D02*
X13724896Y-11789484D01*
X13724896Y-11789484D02*
X13743944Y-11799008D01*
X13743944Y-11799008D02*
X13753467Y-11808531D01*
X13753467Y-11808531D02*
X13762991Y-11827579D01*
X13762991Y-11827579D02*
X13772515Y-11865674D01*
X13772515Y-11865674D02*
X13772515Y-11913293D01*
X13772515Y-11913293D02*
X13762991Y-11951388D01*
X13762991Y-11951388D02*
X13753467Y-11970436D01*
X13753467Y-11970436D02*
X13743944Y-11979960D01*
X13743944Y-11979960D02*
X13724896Y-11989484D01*
X13724896Y-11989484D02*
X13705848Y-11989484D01*
X13705848Y-11989484D02*
X13686801Y-11979960D01*
X13686801Y-11979960D02*
X13677277Y-11970436D01*
X13677277Y-11970436D02*
X13667753Y-11951388D01*
X13667753Y-11951388D02*
X13658229Y-11913293D01*
X13658229Y-11913293D02*
X13658229Y-11865674D01*
X13658229Y-11865674D02*
X13667753Y-11827579D01*
X13667753Y-11827579D02*
X13677277Y-11808531D01*
X13677277Y-11808531D02*
X13686801Y-11799008D01*
X13686801Y-11799008D02*
X13705848Y-11789484D01*
X13962991Y-11989484D02*
X13848706Y-11989484D01*
X13905848Y-11989484D02*
X13905848Y-11789484D01*
X13905848Y-11789484D02*
X13886801Y-11818055D01*
X13886801Y-11818055D02*
X13867753Y-11837103D01*
X13867753Y-11837103D02*
X13848706Y-11846627D01*
X14153467Y-11989484D02*
X14039182Y-11989484D01*
X14096325Y-11989484D02*
X14096325Y-11789484D01*
X14096325Y-11789484D02*
X14077277Y-11818055D01*
X14077277Y-11818055D02*
X14058229Y-11837103D01*
X14058229Y-11837103D02*
X14039182Y-11846627D01*
X14267753Y-11875198D02*
X14248706Y-11865674D01*
X14248706Y-11865674D02*
X14239182Y-11856150D01*
X14239182Y-11856150D02*
X14229658Y-11837103D01*
X14229658Y-11837103D02*
X14229658Y-11827579D01*
X14229658Y-11827579D02*
X14239182Y-11808531D01*
X14239182Y-11808531D02*
X14248706Y-11799008D01*
X14248706Y-11799008D02*
X14267753Y-11789484D01*
X14267753Y-11789484D02*
X14305848Y-11789484D01*
X14305848Y-11789484D02*
X14324896Y-11799008D01*
X14324896Y-11799008D02*
X14334420Y-11808531D01*
X14334420Y-11808531D02*
X14343944Y-11827579D01*
X14343944Y-11827579D02*
X14343944Y-11837103D01*
X14343944Y-11837103D02*
X14334420Y-11856150D01*
X14334420Y-11856150D02*
X14324896Y-11865674D01*
X14324896Y-11865674D02*
X14305848Y-11875198D01*
X14305848Y-11875198D02*
X14267753Y-11875198D01*
X14267753Y-11875198D02*
X14248706Y-11884722D01*
X14248706Y-11884722D02*
X14239182Y-11894246D01*
X14239182Y-11894246D02*
X14229658Y-11913293D01*
X14229658Y-11913293D02*
X14229658Y-11951388D01*
X14229658Y-11951388D02*
X14239182Y-11970436D01*
X14239182Y-11970436D02*
X14248706Y-11979960D01*
X14248706Y-11979960D02*
X14267753Y-11989484D01*
X14267753Y-11989484D02*
X14305848Y-11989484D01*
X14305848Y-11989484D02*
X14324896Y-11979960D01*
X14324896Y-11979960D02*
X14334420Y-11970436D01*
X14334420Y-11970436D02*
X14343944Y-11951388D01*
X14343944Y-11951388D02*
X14343944Y-11913293D01*
X14343944Y-11913293D02*
X14334420Y-11894246D01*
X14334420Y-11894246D02*
X14324896Y-11884722D01*
X14324896Y-11884722D02*
X14305848Y-11875198D01*
X14420134Y-11789484D02*
X14420134Y-11827579D01*
X14496325Y-11789484D02*
X14496325Y-11827579D01*
X14791563Y-12065674D02*
X14782039Y-12056150D01*
X14782039Y-12056150D02*
X14762991Y-12027579D01*
X14762991Y-12027579D02*
X14753468Y-12008531D01*
X14753468Y-12008531D02*
X14743944Y-11979960D01*
X14743944Y-11979960D02*
X14734420Y-11932341D01*
X14734420Y-11932341D02*
X14734420Y-11894246D01*
X14734420Y-11894246D02*
X14743944Y-11846627D01*
X14743944Y-11846627D02*
X14753468Y-11818055D01*
X14753468Y-11818055D02*
X14762991Y-11799008D01*
X14762991Y-11799008D02*
X14782039Y-11770436D01*
X14782039Y-11770436D02*
X14791563Y-11760912D01*
X14848706Y-11789484D02*
X14982039Y-11789484D01*
X14982039Y-11789484D02*
X14896325Y-11989484D01*
X15086801Y-11875198D02*
X15067753Y-11865674D01*
X15067753Y-11865674D02*
X15058229Y-11856150D01*
X15058229Y-11856150D02*
X15048706Y-11837103D01*
X15048706Y-11837103D02*
X15048706Y-11827579D01*
X15048706Y-11827579D02*
X15058229Y-11808531D01*
X15058229Y-11808531D02*
X15067753Y-11799008D01*
X15067753Y-11799008D02*
X15086801Y-11789484D01*
X15086801Y-11789484D02*
X15124896Y-11789484D01*
X15124896Y-11789484D02*
X15143944Y-11799008D01*
X15143944Y-11799008D02*
X15153468Y-11808531D01*
X15153468Y-11808531D02*
X15162991Y-11827579D01*
X15162991Y-11827579D02*
X15162991Y-11837103D01*
X15162991Y-11837103D02*
X15153468Y-11856150D01*
X15153468Y-11856150D02*
X15143944Y-11865674D01*
X15143944Y-11865674D02*
X15124896Y-11875198D01*
X15124896Y-11875198D02*
X15086801Y-11875198D01*
X15086801Y-11875198D02*
X15067753Y-11884722D01*
X15067753Y-11884722D02*
X15058229Y-11894246D01*
X15058229Y-11894246D02*
X15048706Y-11913293D01*
X15048706Y-11913293D02*
X15048706Y-11951388D01*
X15048706Y-11951388D02*
X15058229Y-11970436D01*
X15058229Y-11970436D02*
X15067753Y-11979960D01*
X15067753Y-11979960D02*
X15086801Y-11989484D01*
X15086801Y-11989484D02*
X15124896Y-11989484D01*
X15124896Y-11989484D02*
X15143944Y-11979960D01*
X15143944Y-11979960D02*
X15153468Y-11970436D01*
X15153468Y-11970436D02*
X15162991Y-11951388D01*
X15162991Y-11951388D02*
X15162991Y-11913293D01*
X15162991Y-11913293D02*
X15153468Y-11894246D01*
X15153468Y-11894246D02*
X15143944Y-11884722D01*
X15143944Y-11884722D02*
X15124896Y-11875198D01*
X15401087Y-11989484D02*
X15401087Y-11789484D01*
X15486801Y-11989484D02*
X15486801Y-11884722D01*
X15486801Y-11884722D02*
X15477277Y-11865674D01*
X15477277Y-11865674D02*
X15458230Y-11856150D01*
X15458230Y-11856150D02*
X15429658Y-11856150D01*
X15429658Y-11856150D02*
X15410610Y-11865674D01*
X15410610Y-11865674D02*
X15401087Y-11875198D01*
X15610610Y-11989484D02*
X15591563Y-11979960D01*
X15591563Y-11979960D02*
X15582039Y-11970436D01*
X15582039Y-11970436D02*
X15572515Y-11951388D01*
X15572515Y-11951388D02*
X15572515Y-11894246D01*
X15572515Y-11894246D02*
X15582039Y-11875198D01*
X15582039Y-11875198D02*
X15591563Y-11865674D01*
X15591563Y-11865674D02*
X15610610Y-11856150D01*
X15610610Y-11856150D02*
X15639182Y-11856150D01*
X15639182Y-11856150D02*
X15658230Y-11865674D01*
X15658230Y-11865674D02*
X15667753Y-11875198D01*
X15667753Y-11875198D02*
X15677277Y-11894246D01*
X15677277Y-11894246D02*
X15677277Y-11951388D01*
X15677277Y-11951388D02*
X15667753Y-11970436D01*
X15667753Y-11970436D02*
X15658230Y-11979960D01*
X15658230Y-11979960D02*
X15639182Y-11989484D01*
X15639182Y-11989484D02*
X15610610Y-11989484D01*
X15791563Y-11989484D02*
X15772515Y-11979960D01*
X15772515Y-11979960D02*
X15762991Y-11960912D01*
X15762991Y-11960912D02*
X15762991Y-11789484D01*
X15943944Y-11979960D02*
X15924896Y-11989484D01*
X15924896Y-11989484D02*
X15886801Y-11989484D01*
X15886801Y-11989484D02*
X15867753Y-11979960D01*
X15867753Y-11979960D02*
X15858230Y-11960912D01*
X15858230Y-11960912D02*
X15858230Y-11884722D01*
X15858230Y-11884722D02*
X15867753Y-11865674D01*
X15867753Y-11865674D02*
X15886801Y-11856150D01*
X15886801Y-11856150D02*
X15924896Y-11856150D01*
X15924896Y-11856150D02*
X15943944Y-11865674D01*
X15943944Y-11865674D02*
X15953468Y-11884722D01*
X15953468Y-11884722D02*
X15953468Y-11903769D01*
X15953468Y-11903769D02*
X15858230Y-11922817D01*
X16029658Y-11979960D02*
X16048706Y-11989484D01*
X16048706Y-11989484D02*
X16086801Y-11989484D01*
X16086801Y-11989484D02*
X16105849Y-11979960D01*
X16105849Y-11979960D02*
X16115372Y-11960912D01*
X16115372Y-11960912D02*
X16115372Y-11951388D01*
X16115372Y-11951388D02*
X16105849Y-11932341D01*
X16105849Y-11932341D02*
X16086801Y-11922817D01*
X16086801Y-11922817D02*
X16058230Y-11922817D01*
X16058230Y-11922817D02*
X16039182Y-11913293D01*
X16039182Y-11913293D02*
X16029658Y-11894246D01*
X16029658Y-11894246D02*
X16029658Y-11884722D01*
X16029658Y-11884722D02*
X16039182Y-11865674D01*
X16039182Y-11865674D02*
X16058230Y-11856150D01*
X16058230Y-11856150D02*
X16086801Y-11856150D01*
X16086801Y-11856150D02*
X16105849Y-11865674D01*
X16182039Y-12065674D02*
X16191563Y-12056150D01*
X16191563Y-12056150D02*
X16210611Y-12027579D01*
X16210611Y-12027579D02*
X16220134Y-12008531D01*
X16220134Y-12008531D02*
X16229658Y-11979960D01*
X16229658Y-11979960D02*
X16239182Y-11932341D01*
X16239182Y-11932341D02*
X16239182Y-11894246D01*
X16239182Y-11894246D02*
X16229658Y-11846627D01*
X16229658Y-11846627D02*
X16220134Y-11818055D01*
X16220134Y-11818055D02*
X16210611Y-11799008D01*
X16210611Y-11799008D02*
X16191563Y-11770436D01*
X16191563Y-11770436D02*
X16182039Y-11760912D01*
D10*
X11216500Y-12162000D02*
G75*
G02*
X11156500Y-12162000I-30000J0D01*
G01*
X11156500Y-12162000D02*
G75*
G02*
X11216500Y-12162000I30000J0D01*
G01*
D11*
X11515372Y-12053484D02*
X11534420Y-12053484D01*
X11534420Y-12053484D02*
X11553467Y-12063008D01*
X11553467Y-12063008D02*
X11562991Y-12072531D01*
X11562991Y-12072531D02*
X11572515Y-12091579D01*
X11572515Y-12091579D02*
X11582039Y-12129674D01*
X11582039Y-12129674D02*
X11582039Y-12177293D01*
X11582039Y-12177293D02*
X11572515Y-12215388D01*
X11572515Y-12215388D02*
X11562991Y-12234436D01*
X11562991Y-12234436D02*
X11553467Y-12243960D01*
X11553467Y-12243960D02*
X11534420Y-12253484D01*
X11534420Y-12253484D02*
X11515372Y-12253484D01*
X11515372Y-12253484D02*
X11496324Y-12243960D01*
X11496324Y-12243960D02*
X11486801Y-12234436D01*
X11486801Y-12234436D02*
X11477277Y-12215388D01*
X11477277Y-12215388D02*
X11467753Y-12177293D01*
X11467753Y-12177293D02*
X11467753Y-12129674D01*
X11467753Y-12129674D02*
X11477277Y-12091579D01*
X11477277Y-12091579D02*
X11486801Y-12072531D01*
X11486801Y-12072531D02*
X11496324Y-12063008D01*
X11496324Y-12063008D02*
X11515372Y-12053484D01*
X11667753Y-12234436D02*
X11677277Y-12243960D01*
X11677277Y-12243960D02*
X11667753Y-12253484D01*
X11667753Y-12253484D02*
X11658229Y-12243960D01*
X11658229Y-12243960D02*
X11667753Y-12234436D01*
X11667753Y-12234436D02*
X11667753Y-12253484D01*
X11848705Y-12053484D02*
X11810610Y-12053484D01*
X11810610Y-12053484D02*
X11791562Y-12063008D01*
X11791562Y-12063008D02*
X11782039Y-12072531D01*
X11782039Y-12072531D02*
X11762991Y-12101103D01*
X11762991Y-12101103D02*
X11753467Y-12139198D01*
X11753467Y-12139198D02*
X11753467Y-12215388D01*
X11753467Y-12215388D02*
X11762991Y-12234436D01*
X11762991Y-12234436D02*
X11772515Y-12243960D01*
X11772515Y-12243960D02*
X11791562Y-12253484D01*
X11791562Y-12253484D02*
X11829658Y-12253484D01*
X11829658Y-12253484D02*
X11848705Y-12243960D01*
X11848705Y-12243960D02*
X11858229Y-12234436D01*
X11858229Y-12234436D02*
X11867753Y-12215388D01*
X11867753Y-12215388D02*
X11867753Y-12167769D01*
X11867753Y-12167769D02*
X11858229Y-12148722D01*
X11858229Y-12148722D02*
X11848705Y-12139198D01*
X11848705Y-12139198D02*
X11829658Y-12129674D01*
X11829658Y-12129674D02*
X11791562Y-12129674D01*
X11791562Y-12129674D02*
X11772515Y-12139198D01*
X11772515Y-12139198D02*
X11762991Y-12148722D01*
X11762991Y-12148722D02*
X11753467Y-12167769D01*
X11991562Y-12053484D02*
X12010610Y-12053484D01*
X12010610Y-12053484D02*
X12029658Y-12063008D01*
X12029658Y-12063008D02*
X12039182Y-12072531D01*
X12039182Y-12072531D02*
X12048705Y-12091579D01*
X12048705Y-12091579D02*
X12058229Y-12129674D01*
X12058229Y-12129674D02*
X12058229Y-12177293D01*
X12058229Y-12177293D02*
X12048705Y-12215388D01*
X12048705Y-12215388D02*
X12039182Y-12234436D01*
X12039182Y-12234436D02*
X12029658Y-12243960D01*
X12029658Y-12243960D02*
X12010610Y-12253484D01*
X12010610Y-12253484D02*
X11991562Y-12253484D01*
X11991562Y-12253484D02*
X11972515Y-12243960D01*
X11972515Y-12243960D02*
X11962991Y-12234436D01*
X11962991Y-12234436D02*
X11953467Y-12215388D01*
X11953467Y-12215388D02*
X11943943Y-12177293D01*
X11943943Y-12177293D02*
X11943943Y-12129674D01*
X11943943Y-12129674D02*
X11953467Y-12091579D01*
X11953467Y-12091579D02*
X11962991Y-12072531D01*
X11962991Y-12072531D02*
X11972515Y-12063008D01*
X11972515Y-12063008D02*
X11991562Y-12053484D01*
X12182039Y-12053484D02*
X12201086Y-12053484D01*
X12201086Y-12053484D02*
X12220134Y-12063008D01*
X12220134Y-12063008D02*
X12229658Y-12072531D01*
X12229658Y-12072531D02*
X12239182Y-12091579D01*
X12239182Y-12091579D02*
X12248705Y-12129674D01*
X12248705Y-12129674D02*
X12248705Y-12177293D01*
X12248705Y-12177293D02*
X12239182Y-12215388D01*
X12239182Y-12215388D02*
X12229658Y-12234436D01*
X12229658Y-12234436D02*
X12220134Y-12243960D01*
X12220134Y-12243960D02*
X12201086Y-12253484D01*
X12201086Y-12253484D02*
X12182039Y-12253484D01*
X12182039Y-12253484D02*
X12162991Y-12243960D01*
X12162991Y-12243960D02*
X12153467Y-12234436D01*
X12153467Y-12234436D02*
X12143943Y-12215388D01*
X12143943Y-12215388D02*
X12134420Y-12177293D01*
X12134420Y-12177293D02*
X12134420Y-12129674D01*
X12134420Y-12129674D02*
X12143943Y-12091579D01*
X12143943Y-12091579D02*
X12153467Y-12072531D01*
X12153467Y-12072531D02*
X12162991Y-12063008D01*
X12162991Y-12063008D02*
X12182039Y-12053484D01*
X12334420Y-12253484D02*
X12334420Y-12120150D01*
X12334420Y-12139198D02*
X12343943Y-12129674D01*
X12343943Y-12129674D02*
X12362991Y-12120150D01*
X12362991Y-12120150D02*
X12391563Y-12120150D01*
X12391563Y-12120150D02*
X12410610Y-12129674D01*
X12410610Y-12129674D02*
X12420134Y-12148722D01*
X12420134Y-12148722D02*
X12420134Y-12253484D01*
X12420134Y-12148722D02*
X12429658Y-12129674D01*
X12429658Y-12129674D02*
X12448705Y-12120150D01*
X12448705Y-12120150D02*
X12477277Y-12120150D01*
X12477277Y-12120150D02*
X12496324Y-12129674D01*
X12496324Y-12129674D02*
X12505848Y-12148722D01*
X12505848Y-12148722D02*
X12505848Y-12253484D01*
X12601086Y-12253484D02*
X12601086Y-12120150D01*
X12601086Y-12139198D02*
X12610610Y-12129674D01*
X12610610Y-12129674D02*
X12629658Y-12120150D01*
X12629658Y-12120150D02*
X12658229Y-12120150D01*
X12658229Y-12120150D02*
X12677277Y-12129674D01*
X12677277Y-12129674D02*
X12686801Y-12148722D01*
X12686801Y-12148722D02*
X12686801Y-12253484D01*
X12686801Y-12148722D02*
X12696324Y-12129674D01*
X12696324Y-12129674D02*
X12715372Y-12120150D01*
X12715372Y-12120150D02*
X12743943Y-12120150D01*
X12743943Y-12120150D02*
X12762991Y-12129674D01*
X12762991Y-12129674D02*
X12772515Y-12148722D01*
X12772515Y-12148722D02*
X12772515Y-12253484D01*
X13162991Y-12043960D02*
X12991563Y-12301103D01*
X13420134Y-12053484D02*
X13439182Y-12053484D01*
X13439182Y-12053484D02*
X13458229Y-12063008D01*
X13458229Y-12063008D02*
X13467753Y-12072531D01*
X13467753Y-12072531D02*
X13477277Y-12091579D01*
X13477277Y-12091579D02*
X13486801Y-12129674D01*
X13486801Y-12129674D02*
X13486801Y-12177293D01*
X13486801Y-12177293D02*
X13477277Y-12215388D01*
X13477277Y-12215388D02*
X13467753Y-12234436D01*
X13467753Y-12234436D02*
X13458229Y-12243960D01*
X13458229Y-12243960D02*
X13439182Y-12253484D01*
X13439182Y-12253484D02*
X13420134Y-12253484D01*
X13420134Y-12253484D02*
X13401086Y-12243960D01*
X13401086Y-12243960D02*
X13391563Y-12234436D01*
X13391563Y-12234436D02*
X13382039Y-12215388D01*
X13382039Y-12215388D02*
X13372515Y-12177293D01*
X13372515Y-12177293D02*
X13372515Y-12129674D01*
X13372515Y-12129674D02*
X13382039Y-12091579D01*
X13382039Y-12091579D02*
X13391563Y-12072531D01*
X13391563Y-12072531D02*
X13401086Y-12063008D01*
X13401086Y-12063008D02*
X13420134Y-12053484D01*
X13572515Y-12234436D02*
X13582039Y-12243960D01*
X13582039Y-12243960D02*
X13572515Y-12253484D01*
X13572515Y-12253484D02*
X13562991Y-12243960D01*
X13562991Y-12243960D02*
X13572515Y-12234436D01*
X13572515Y-12234436D02*
X13572515Y-12253484D01*
X13705848Y-12053484D02*
X13724896Y-12053484D01*
X13724896Y-12053484D02*
X13743944Y-12063008D01*
X13743944Y-12063008D02*
X13753467Y-12072531D01*
X13753467Y-12072531D02*
X13762991Y-12091579D01*
X13762991Y-12091579D02*
X13772515Y-12129674D01*
X13772515Y-12129674D02*
X13772515Y-12177293D01*
X13772515Y-12177293D02*
X13762991Y-12215388D01*
X13762991Y-12215388D02*
X13753467Y-12234436D01*
X13753467Y-12234436D02*
X13743944Y-12243960D01*
X13743944Y-12243960D02*
X13724896Y-12253484D01*
X13724896Y-12253484D02*
X13705848Y-12253484D01*
X13705848Y-12253484D02*
X13686801Y-12243960D01*
X13686801Y-12243960D02*
X13677277Y-12234436D01*
X13677277Y-12234436D02*
X13667753Y-12215388D01*
X13667753Y-12215388D02*
X13658229Y-12177293D01*
X13658229Y-12177293D02*
X13658229Y-12129674D01*
X13658229Y-12129674D02*
X13667753Y-12091579D01*
X13667753Y-12091579D02*
X13677277Y-12072531D01*
X13677277Y-12072531D02*
X13686801Y-12063008D01*
X13686801Y-12063008D02*
X13705848Y-12053484D01*
X13848706Y-12072531D02*
X13858229Y-12063008D01*
X13858229Y-12063008D02*
X13877277Y-12053484D01*
X13877277Y-12053484D02*
X13924896Y-12053484D01*
X13924896Y-12053484D02*
X13943944Y-12063008D01*
X13943944Y-12063008D02*
X13953467Y-12072531D01*
X13953467Y-12072531D02*
X13962991Y-12091579D01*
X13962991Y-12091579D02*
X13962991Y-12110627D01*
X13962991Y-12110627D02*
X13953467Y-12139198D01*
X13953467Y-12139198D02*
X13839182Y-12253484D01*
X13839182Y-12253484D02*
X13962991Y-12253484D01*
X14029658Y-12053484D02*
X14153467Y-12053484D01*
X14153467Y-12053484D02*
X14086801Y-12129674D01*
X14086801Y-12129674D02*
X14115372Y-12129674D01*
X14115372Y-12129674D02*
X14134420Y-12139198D01*
X14134420Y-12139198D02*
X14143944Y-12148722D01*
X14143944Y-12148722D02*
X14153467Y-12167769D01*
X14153467Y-12167769D02*
X14153467Y-12215388D01*
X14153467Y-12215388D02*
X14143944Y-12234436D01*
X14143944Y-12234436D02*
X14134420Y-12243960D01*
X14134420Y-12243960D02*
X14115372Y-12253484D01*
X14115372Y-12253484D02*
X14058229Y-12253484D01*
X14058229Y-12253484D02*
X14039182Y-12243960D01*
X14039182Y-12243960D02*
X14029658Y-12234436D01*
X14324896Y-12053484D02*
X14286801Y-12053484D01*
X14286801Y-12053484D02*
X14267753Y-12063008D01*
X14267753Y-12063008D02*
X14258229Y-12072531D01*
X14258229Y-12072531D02*
X14239182Y-12101103D01*
X14239182Y-12101103D02*
X14229658Y-12139198D01*
X14229658Y-12139198D02*
X14229658Y-12215388D01*
X14229658Y-12215388D02*
X14239182Y-12234436D01*
X14239182Y-12234436D02*
X14248706Y-12243960D01*
X14248706Y-12243960D02*
X14267753Y-12253484D01*
X14267753Y-12253484D02*
X14305848Y-12253484D01*
X14305848Y-12253484D02*
X14324896Y-12243960D01*
X14324896Y-12243960D02*
X14334420Y-12234436D01*
X14334420Y-12234436D02*
X14343944Y-12215388D01*
X14343944Y-12215388D02*
X14343944Y-12167769D01*
X14343944Y-12167769D02*
X14334420Y-12148722D01*
X14334420Y-12148722D02*
X14324896Y-12139198D01*
X14324896Y-12139198D02*
X14305848Y-12129674D01*
X14305848Y-12129674D02*
X14267753Y-12129674D01*
X14267753Y-12129674D02*
X14248706Y-12139198D01*
X14248706Y-12139198D02*
X14239182Y-12148722D01*
X14239182Y-12148722D02*
X14229658Y-12167769D01*
X14420134Y-12053484D02*
X14420134Y-12091579D01*
X14496325Y-12053484D02*
X14496325Y-12091579D01*
X14791563Y-12329674D02*
X14782039Y-12320150D01*
X14782039Y-12320150D02*
X14762991Y-12291579D01*
X14762991Y-12291579D02*
X14753468Y-12272531D01*
X14753468Y-12272531D02*
X14743944Y-12243960D01*
X14743944Y-12243960D02*
X14734420Y-12196341D01*
X14734420Y-12196341D02*
X14734420Y-12158246D01*
X14734420Y-12158246D02*
X14743944Y-12110627D01*
X14743944Y-12110627D02*
X14753468Y-12082055D01*
X14753468Y-12082055D02*
X14762991Y-12063008D01*
X14762991Y-12063008D02*
X14782039Y-12034436D01*
X14782039Y-12034436D02*
X14791563Y-12024912D01*
X14905848Y-12053484D02*
X14924896Y-12053484D01*
X14924896Y-12053484D02*
X14943944Y-12063008D01*
X14943944Y-12063008D02*
X14953468Y-12072531D01*
X14953468Y-12072531D02*
X14962991Y-12091579D01*
X14962991Y-12091579D02*
X14972515Y-12129674D01*
X14972515Y-12129674D02*
X14972515Y-12177293D01*
X14972515Y-12177293D02*
X14962991Y-12215388D01*
X14962991Y-12215388D02*
X14953468Y-12234436D01*
X14953468Y-12234436D02*
X14943944Y-12243960D01*
X14943944Y-12243960D02*
X14924896Y-12253484D01*
X14924896Y-12253484D02*
X14905848Y-12253484D01*
X14905848Y-12253484D02*
X14886801Y-12243960D01*
X14886801Y-12243960D02*
X14877277Y-12234436D01*
X14877277Y-12234436D02*
X14867753Y-12215388D01*
X14867753Y-12215388D02*
X14858229Y-12177293D01*
X14858229Y-12177293D02*
X14858229Y-12129674D01*
X14858229Y-12129674D02*
X14867753Y-12091579D01*
X14867753Y-12091579D02*
X14877277Y-12072531D01*
X14877277Y-12072531D02*
X14886801Y-12063008D01*
X14886801Y-12063008D02*
X14905848Y-12053484D01*
X15210610Y-12253484D02*
X15210610Y-12053484D01*
X15296325Y-12253484D02*
X15296325Y-12148722D01*
X15296325Y-12148722D02*
X15286801Y-12129674D01*
X15286801Y-12129674D02*
X15267753Y-12120150D01*
X15267753Y-12120150D02*
X15239182Y-12120150D01*
X15239182Y-12120150D02*
X15220134Y-12129674D01*
X15220134Y-12129674D02*
X15210610Y-12139198D01*
X15420134Y-12253484D02*
X15401087Y-12243960D01*
X15401087Y-12243960D02*
X15391563Y-12234436D01*
X15391563Y-12234436D02*
X15382039Y-12215388D01*
X15382039Y-12215388D02*
X15382039Y-12158246D01*
X15382039Y-12158246D02*
X15391563Y-12139198D01*
X15391563Y-12139198D02*
X15401087Y-12129674D01*
X15401087Y-12129674D02*
X15420134Y-12120150D01*
X15420134Y-12120150D02*
X15448706Y-12120150D01*
X15448706Y-12120150D02*
X15467753Y-12129674D01*
X15467753Y-12129674D02*
X15477277Y-12139198D01*
X15477277Y-12139198D02*
X15486801Y-12158246D01*
X15486801Y-12158246D02*
X15486801Y-12215388D01*
X15486801Y-12215388D02*
X15477277Y-12234436D01*
X15477277Y-12234436D02*
X15467753Y-12243960D01*
X15467753Y-12243960D02*
X15448706Y-12253484D01*
X15448706Y-12253484D02*
X15420134Y-12253484D01*
X15601087Y-12253484D02*
X15582039Y-12243960D01*
X15582039Y-12243960D02*
X15572515Y-12224912D01*
X15572515Y-12224912D02*
X15572515Y-12053484D01*
X15753468Y-12243960D02*
X15734420Y-12253484D01*
X15734420Y-12253484D02*
X15696325Y-12253484D01*
X15696325Y-12253484D02*
X15677277Y-12243960D01*
X15677277Y-12243960D02*
X15667753Y-12224912D01*
X15667753Y-12224912D02*
X15667753Y-12148722D01*
X15667753Y-12148722D02*
X15677277Y-12129674D01*
X15677277Y-12129674D02*
X15696325Y-12120150D01*
X15696325Y-12120150D02*
X15734420Y-12120150D01*
X15734420Y-12120150D02*
X15753468Y-12129674D01*
X15753468Y-12129674D02*
X15762991Y-12148722D01*
X15762991Y-12148722D02*
X15762991Y-12167769D01*
X15762991Y-12167769D02*
X15667753Y-12186817D01*
X15839182Y-12243960D02*
X15858230Y-12253484D01*
X15858230Y-12253484D02*
X15896325Y-12253484D01*
X15896325Y-12253484D02*
X15915372Y-12243960D01*
X15915372Y-12243960D02*
X15924896Y-12224912D01*
X15924896Y-12224912D02*
X15924896Y-12215388D01*
X15924896Y-12215388D02*
X15915372Y-12196341D01*
X15915372Y-12196341D02*
X15896325Y-12186817D01*
X15896325Y-12186817D02*
X15867753Y-12186817D01*
X15867753Y-12186817D02*
X15848706Y-12177293D01*
X15848706Y-12177293D02*
X15839182Y-12158246D01*
X15839182Y-12158246D02*
X15839182Y-12148722D01*
X15839182Y-12148722D02*
X15848706Y-12129674D01*
X15848706Y-12129674D02*
X15867753Y-12120150D01*
X15867753Y-12120150D02*
X15896325Y-12120150D01*
X15896325Y-12120150D02*
X15915372Y-12129674D01*
X16162992Y-12177293D02*
X16315373Y-12177293D01*
X16239182Y-12253484D02*
X16239182Y-12101103D01*
X16648706Y-12120150D02*
X16648706Y-12253484D01*
X16601087Y-12043960D02*
X16553468Y-12186817D01*
X16553468Y-12186817D02*
X16677277Y-12186817D01*
X16896325Y-12243960D02*
X16915373Y-12253484D01*
X16915373Y-12253484D02*
X16953468Y-12253484D01*
X16953468Y-12253484D02*
X16972516Y-12243960D01*
X16972516Y-12243960D02*
X16982039Y-12224912D01*
X16982039Y-12224912D02*
X16982039Y-12215388D01*
X16982039Y-12215388D02*
X16972516Y-12196341D01*
X16972516Y-12196341D02*
X16953468Y-12186817D01*
X16953468Y-12186817D02*
X16924896Y-12186817D01*
X16924896Y-12186817D02*
X16905849Y-12177293D01*
X16905849Y-12177293D02*
X16896325Y-12158246D01*
X16896325Y-12158246D02*
X16896325Y-12148722D01*
X16896325Y-12148722D02*
X16905849Y-12129674D01*
X16905849Y-12129674D02*
X16924896Y-12120150D01*
X16924896Y-12120150D02*
X16953468Y-12120150D01*
X16953468Y-12120150D02*
X16972516Y-12129674D01*
X17096325Y-12253484D02*
X17077277Y-12243960D01*
X17077277Y-12243960D02*
X17067754Y-12224912D01*
X17067754Y-12224912D02*
X17067754Y-12053484D01*
X17201087Y-12253484D02*
X17182039Y-12243960D01*
X17182039Y-12243960D02*
X17172516Y-12234436D01*
X17172516Y-12234436D02*
X17162992Y-12215388D01*
X17162992Y-12215388D02*
X17162992Y-12158246D01*
X17162992Y-12158246D02*
X17172516Y-12139198D01*
X17172516Y-12139198D02*
X17182039Y-12129674D01*
X17182039Y-12129674D02*
X17201087Y-12120150D01*
X17201087Y-12120150D02*
X17229658Y-12120150D01*
X17229658Y-12120150D02*
X17248706Y-12129674D01*
X17248706Y-12129674D02*
X17258230Y-12139198D01*
X17258230Y-12139198D02*
X17267754Y-12158246D01*
X17267754Y-12158246D02*
X17267754Y-12215388D01*
X17267754Y-12215388D02*
X17258230Y-12234436D01*
X17258230Y-12234436D02*
X17248706Y-12243960D01*
X17248706Y-12243960D02*
X17229658Y-12253484D01*
X17229658Y-12253484D02*
X17201087Y-12253484D01*
X17324897Y-12120150D02*
X17401087Y-12120150D01*
X17353468Y-12053484D02*
X17353468Y-12224912D01*
X17353468Y-12224912D02*
X17362992Y-12243960D01*
X17362992Y-12243960D02*
X17382039Y-12253484D01*
X17382039Y-12253484D02*
X17401087Y-12253484D01*
X17458230Y-12243960D02*
X17477277Y-12253484D01*
X17477277Y-12253484D02*
X17515373Y-12253484D01*
X17515373Y-12253484D02*
X17534420Y-12243960D01*
X17534420Y-12243960D02*
X17543944Y-12224912D01*
X17543944Y-12224912D02*
X17543944Y-12215388D01*
X17543944Y-12215388D02*
X17534420Y-12196341D01*
X17534420Y-12196341D02*
X17515373Y-12186817D01*
X17515373Y-12186817D02*
X17486801Y-12186817D01*
X17486801Y-12186817D02*
X17467754Y-12177293D01*
X17467754Y-12177293D02*
X17458230Y-12158246D01*
X17458230Y-12158246D02*
X17458230Y-12148722D01*
X17458230Y-12148722D02*
X17467754Y-12129674D01*
X17467754Y-12129674D02*
X17486801Y-12120150D01*
X17486801Y-12120150D02*
X17515373Y-12120150D01*
X17515373Y-12120150D02*
X17534420Y-12129674D01*
X17610611Y-12329674D02*
X17620135Y-12320150D01*
X17620135Y-12320150D02*
X17639182Y-12291579D01*
X17639182Y-12291579D02*
X17648706Y-12272531D01*
X17648706Y-12272531D02*
X17658230Y-12243960D01*
X17658230Y-12243960D02*
X17667754Y-12196341D01*
X17667754Y-12196341D02*
X17667754Y-12158246D01*
X17667754Y-12158246D02*
X17658230Y-12110627D01*
X17658230Y-12110627D02*
X17648706Y-12082055D01*
X17648706Y-12082055D02*
X17639182Y-12063008D01*
X17639182Y-12063008D02*
X17620135Y-12034436D01*
X17620135Y-12034436D02*
X17610611Y-12024912D01*
D10*
X11181500Y-12391000D02*
X11181500Y-12461000D01*
X11146500Y-12426000D02*
X11216500Y-12426000D01*
D11*
X11515372Y-12317484D02*
X11534420Y-12317484D01*
X11534420Y-12317484D02*
X11553467Y-12327008D01*
X11553467Y-12327008D02*
X11562991Y-12336531D01*
X11562991Y-12336531D02*
X11572515Y-12355579D01*
X11572515Y-12355579D02*
X11582039Y-12393674D01*
X11582039Y-12393674D02*
X11582039Y-12441293D01*
X11582039Y-12441293D02*
X11572515Y-12479388D01*
X11572515Y-12479388D02*
X11562991Y-12498436D01*
X11562991Y-12498436D02*
X11553467Y-12507960D01*
X11553467Y-12507960D02*
X11534420Y-12517484D01*
X11534420Y-12517484D02*
X11515372Y-12517484D01*
X11515372Y-12517484D02*
X11496324Y-12507960D01*
X11496324Y-12507960D02*
X11486801Y-12498436D01*
X11486801Y-12498436D02*
X11477277Y-12479388D01*
X11477277Y-12479388D02*
X11467753Y-12441293D01*
X11467753Y-12441293D02*
X11467753Y-12393674D01*
X11467753Y-12393674D02*
X11477277Y-12355579D01*
X11477277Y-12355579D02*
X11486801Y-12336531D01*
X11486801Y-12336531D02*
X11496324Y-12327008D01*
X11496324Y-12327008D02*
X11515372Y-12317484D01*
X11667753Y-12498436D02*
X11677277Y-12507960D01*
X11677277Y-12507960D02*
X11667753Y-12517484D01*
X11667753Y-12517484D02*
X11658229Y-12507960D01*
X11658229Y-12507960D02*
X11667753Y-12498436D01*
X11667753Y-12498436D02*
X11667753Y-12517484D01*
X11743943Y-12317484D02*
X11877277Y-12317484D01*
X11877277Y-12317484D02*
X11791562Y-12517484D01*
X11991562Y-12317484D02*
X12010610Y-12317484D01*
X12010610Y-12317484D02*
X12029658Y-12327008D01*
X12029658Y-12327008D02*
X12039182Y-12336531D01*
X12039182Y-12336531D02*
X12048705Y-12355579D01*
X12048705Y-12355579D02*
X12058229Y-12393674D01*
X12058229Y-12393674D02*
X12058229Y-12441293D01*
X12058229Y-12441293D02*
X12048705Y-12479388D01*
X12048705Y-12479388D02*
X12039182Y-12498436D01*
X12039182Y-12498436D02*
X12029658Y-12507960D01*
X12029658Y-12507960D02*
X12010610Y-12517484D01*
X12010610Y-12517484D02*
X11991562Y-12517484D01*
X11991562Y-12517484D02*
X11972515Y-12507960D01*
X11972515Y-12507960D02*
X11962991Y-12498436D01*
X11962991Y-12498436D02*
X11953467Y-12479388D01*
X11953467Y-12479388D02*
X11943943Y-12441293D01*
X11943943Y-12441293D02*
X11943943Y-12393674D01*
X11943943Y-12393674D02*
X11953467Y-12355579D01*
X11953467Y-12355579D02*
X11962991Y-12336531D01*
X11962991Y-12336531D02*
X11972515Y-12327008D01*
X11972515Y-12327008D02*
X11991562Y-12317484D01*
X12182039Y-12317484D02*
X12201086Y-12317484D01*
X12201086Y-12317484D02*
X12220134Y-12327008D01*
X12220134Y-12327008D02*
X12229658Y-12336531D01*
X12229658Y-12336531D02*
X12239182Y-12355579D01*
X12239182Y-12355579D02*
X12248705Y-12393674D01*
X12248705Y-12393674D02*
X12248705Y-12441293D01*
X12248705Y-12441293D02*
X12239182Y-12479388D01*
X12239182Y-12479388D02*
X12229658Y-12498436D01*
X12229658Y-12498436D02*
X12220134Y-12507960D01*
X12220134Y-12507960D02*
X12201086Y-12517484D01*
X12201086Y-12517484D02*
X12182039Y-12517484D01*
X12182039Y-12517484D02*
X12162991Y-12507960D01*
X12162991Y-12507960D02*
X12153467Y-12498436D01*
X12153467Y-12498436D02*
X12143943Y-12479388D01*
X12143943Y-12479388D02*
X12134420Y-12441293D01*
X12134420Y-12441293D02*
X12134420Y-12393674D01*
X12134420Y-12393674D02*
X12143943Y-12355579D01*
X12143943Y-12355579D02*
X12153467Y-12336531D01*
X12153467Y-12336531D02*
X12162991Y-12327008D01*
X12162991Y-12327008D02*
X12182039Y-12317484D01*
X12334420Y-12517484D02*
X12334420Y-12384150D01*
X12334420Y-12403198D02*
X12343943Y-12393674D01*
X12343943Y-12393674D02*
X12362991Y-12384150D01*
X12362991Y-12384150D02*
X12391563Y-12384150D01*
X12391563Y-12384150D02*
X12410610Y-12393674D01*
X12410610Y-12393674D02*
X12420134Y-12412722D01*
X12420134Y-12412722D02*
X12420134Y-12517484D01*
X12420134Y-12412722D02*
X12429658Y-12393674D01*
X12429658Y-12393674D02*
X12448705Y-12384150D01*
X12448705Y-12384150D02*
X12477277Y-12384150D01*
X12477277Y-12384150D02*
X12496324Y-12393674D01*
X12496324Y-12393674D02*
X12505848Y-12412722D01*
X12505848Y-12412722D02*
X12505848Y-12517484D01*
X12601086Y-12517484D02*
X12601086Y-12384150D01*
X12601086Y-12403198D02*
X12610610Y-12393674D01*
X12610610Y-12393674D02*
X12629658Y-12384150D01*
X12629658Y-12384150D02*
X12658229Y-12384150D01*
X12658229Y-12384150D02*
X12677277Y-12393674D01*
X12677277Y-12393674D02*
X12686801Y-12412722D01*
X12686801Y-12412722D02*
X12686801Y-12517484D01*
X12686801Y-12412722D02*
X12696324Y-12393674D01*
X12696324Y-12393674D02*
X12715372Y-12384150D01*
X12715372Y-12384150D02*
X12743943Y-12384150D01*
X12743943Y-12384150D02*
X12762991Y-12393674D01*
X12762991Y-12393674D02*
X12772515Y-12412722D01*
X12772515Y-12412722D02*
X12772515Y-12517484D01*
X13162991Y-12307960D02*
X12991563Y-12565103D01*
X13420134Y-12317484D02*
X13439182Y-12317484D01*
X13439182Y-12317484D02*
X13458229Y-12327008D01*
X13458229Y-12327008D02*
X13467753Y-12336531D01*
X13467753Y-12336531D02*
X13477277Y-12355579D01*
X13477277Y-12355579D02*
X13486801Y-12393674D01*
X13486801Y-12393674D02*
X13486801Y-12441293D01*
X13486801Y-12441293D02*
X13477277Y-12479388D01*
X13477277Y-12479388D02*
X13467753Y-12498436D01*
X13467753Y-12498436D02*
X13458229Y-12507960D01*
X13458229Y-12507960D02*
X13439182Y-12517484D01*
X13439182Y-12517484D02*
X13420134Y-12517484D01*
X13420134Y-12517484D02*
X13401086Y-12507960D01*
X13401086Y-12507960D02*
X13391563Y-12498436D01*
X13391563Y-12498436D02*
X13382039Y-12479388D01*
X13382039Y-12479388D02*
X13372515Y-12441293D01*
X13372515Y-12441293D02*
X13372515Y-12393674D01*
X13372515Y-12393674D02*
X13382039Y-12355579D01*
X13382039Y-12355579D02*
X13391563Y-12336531D01*
X13391563Y-12336531D02*
X13401086Y-12327008D01*
X13401086Y-12327008D02*
X13420134Y-12317484D01*
X13572515Y-12498436D02*
X13582039Y-12507960D01*
X13582039Y-12507960D02*
X13572515Y-12517484D01*
X13572515Y-12517484D02*
X13562991Y-12507960D01*
X13562991Y-12507960D02*
X13572515Y-12498436D01*
X13572515Y-12498436D02*
X13572515Y-12517484D01*
X13705848Y-12317484D02*
X13724896Y-12317484D01*
X13724896Y-12317484D02*
X13743944Y-12327008D01*
X13743944Y-12327008D02*
X13753467Y-12336531D01*
X13753467Y-12336531D02*
X13762991Y-12355579D01*
X13762991Y-12355579D02*
X13772515Y-12393674D01*
X13772515Y-12393674D02*
X13772515Y-12441293D01*
X13772515Y-12441293D02*
X13762991Y-12479388D01*
X13762991Y-12479388D02*
X13753467Y-12498436D01*
X13753467Y-12498436D02*
X13743944Y-12507960D01*
X13743944Y-12507960D02*
X13724896Y-12517484D01*
X13724896Y-12517484D02*
X13705848Y-12517484D01*
X13705848Y-12517484D02*
X13686801Y-12507960D01*
X13686801Y-12507960D02*
X13677277Y-12498436D01*
X13677277Y-12498436D02*
X13667753Y-12479388D01*
X13667753Y-12479388D02*
X13658229Y-12441293D01*
X13658229Y-12441293D02*
X13658229Y-12393674D01*
X13658229Y-12393674D02*
X13667753Y-12355579D01*
X13667753Y-12355579D02*
X13677277Y-12336531D01*
X13677277Y-12336531D02*
X13686801Y-12327008D01*
X13686801Y-12327008D02*
X13705848Y-12317484D01*
X13848706Y-12336531D02*
X13858229Y-12327008D01*
X13858229Y-12327008D02*
X13877277Y-12317484D01*
X13877277Y-12317484D02*
X13924896Y-12317484D01*
X13924896Y-12317484D02*
X13943944Y-12327008D01*
X13943944Y-12327008D02*
X13953467Y-12336531D01*
X13953467Y-12336531D02*
X13962991Y-12355579D01*
X13962991Y-12355579D02*
X13962991Y-12374627D01*
X13962991Y-12374627D02*
X13953467Y-12403198D01*
X13953467Y-12403198D02*
X13839182Y-12517484D01*
X13839182Y-12517484D02*
X13962991Y-12517484D01*
X14029658Y-12317484D02*
X14162991Y-12317484D01*
X14162991Y-12317484D02*
X14077277Y-12517484D01*
X14324896Y-12317484D02*
X14286801Y-12317484D01*
X14286801Y-12317484D02*
X14267753Y-12327008D01*
X14267753Y-12327008D02*
X14258229Y-12336531D01*
X14258229Y-12336531D02*
X14239182Y-12365103D01*
X14239182Y-12365103D02*
X14229658Y-12403198D01*
X14229658Y-12403198D02*
X14229658Y-12479388D01*
X14229658Y-12479388D02*
X14239182Y-12498436D01*
X14239182Y-12498436D02*
X14248706Y-12507960D01*
X14248706Y-12507960D02*
X14267753Y-12517484D01*
X14267753Y-12517484D02*
X14305848Y-12517484D01*
X14305848Y-12517484D02*
X14324896Y-12507960D01*
X14324896Y-12507960D02*
X14334420Y-12498436D01*
X14334420Y-12498436D02*
X14343944Y-12479388D01*
X14343944Y-12479388D02*
X14343944Y-12431769D01*
X14343944Y-12431769D02*
X14334420Y-12412722D01*
X14334420Y-12412722D02*
X14324896Y-12403198D01*
X14324896Y-12403198D02*
X14305848Y-12393674D01*
X14305848Y-12393674D02*
X14267753Y-12393674D01*
X14267753Y-12393674D02*
X14248706Y-12403198D01*
X14248706Y-12403198D02*
X14239182Y-12412722D01*
X14239182Y-12412722D02*
X14229658Y-12431769D01*
X14420134Y-12317484D02*
X14420134Y-12355579D01*
X14496325Y-12317484D02*
X14496325Y-12355579D01*
X14791563Y-12593674D02*
X14782039Y-12584150D01*
X14782039Y-12584150D02*
X14762991Y-12555579D01*
X14762991Y-12555579D02*
X14753468Y-12536531D01*
X14753468Y-12536531D02*
X14743944Y-12507960D01*
X14743944Y-12507960D02*
X14734420Y-12460341D01*
X14734420Y-12460341D02*
X14734420Y-12422246D01*
X14734420Y-12422246D02*
X14743944Y-12374627D01*
X14743944Y-12374627D02*
X14753468Y-12346055D01*
X14753468Y-12346055D02*
X14762991Y-12327008D01*
X14762991Y-12327008D02*
X14782039Y-12298436D01*
X14782039Y-12298436D02*
X14791563Y-12288912D01*
X14858229Y-12336531D02*
X14867753Y-12327008D01*
X14867753Y-12327008D02*
X14886801Y-12317484D01*
X14886801Y-12317484D02*
X14934420Y-12317484D01*
X14934420Y-12317484D02*
X14953468Y-12327008D01*
X14953468Y-12327008D02*
X14962991Y-12336531D01*
X14962991Y-12336531D02*
X14972515Y-12355579D01*
X14972515Y-12355579D02*
X14972515Y-12374627D01*
X14972515Y-12374627D02*
X14962991Y-12403198D01*
X14962991Y-12403198D02*
X14848706Y-12517484D01*
X14848706Y-12517484D02*
X14972515Y-12517484D01*
X15210610Y-12517484D02*
X15210610Y-12317484D01*
X15296325Y-12517484D02*
X15296325Y-12412722D01*
X15296325Y-12412722D02*
X15286801Y-12393674D01*
X15286801Y-12393674D02*
X15267753Y-12384150D01*
X15267753Y-12384150D02*
X15239182Y-12384150D01*
X15239182Y-12384150D02*
X15220134Y-12393674D01*
X15220134Y-12393674D02*
X15210610Y-12403198D01*
X15420134Y-12517484D02*
X15401087Y-12507960D01*
X15401087Y-12507960D02*
X15391563Y-12498436D01*
X15391563Y-12498436D02*
X15382039Y-12479388D01*
X15382039Y-12479388D02*
X15382039Y-12422246D01*
X15382039Y-12422246D02*
X15391563Y-12403198D01*
X15391563Y-12403198D02*
X15401087Y-12393674D01*
X15401087Y-12393674D02*
X15420134Y-12384150D01*
X15420134Y-12384150D02*
X15448706Y-12384150D01*
X15448706Y-12384150D02*
X15467753Y-12393674D01*
X15467753Y-12393674D02*
X15477277Y-12403198D01*
X15477277Y-12403198D02*
X15486801Y-12422246D01*
X15486801Y-12422246D02*
X15486801Y-12479388D01*
X15486801Y-12479388D02*
X15477277Y-12498436D01*
X15477277Y-12498436D02*
X15467753Y-12507960D01*
X15467753Y-12507960D02*
X15448706Y-12517484D01*
X15448706Y-12517484D02*
X15420134Y-12517484D01*
X15601087Y-12517484D02*
X15582039Y-12507960D01*
X15582039Y-12507960D02*
X15572515Y-12488912D01*
X15572515Y-12488912D02*
X15572515Y-12317484D01*
X15753468Y-12507960D02*
X15734420Y-12517484D01*
X15734420Y-12517484D02*
X15696325Y-12517484D01*
X15696325Y-12517484D02*
X15677277Y-12507960D01*
X15677277Y-12507960D02*
X15667753Y-12488912D01*
X15667753Y-12488912D02*
X15667753Y-12412722D01*
X15667753Y-12412722D02*
X15677277Y-12393674D01*
X15677277Y-12393674D02*
X15696325Y-12384150D01*
X15696325Y-12384150D02*
X15734420Y-12384150D01*
X15734420Y-12384150D02*
X15753468Y-12393674D01*
X15753468Y-12393674D02*
X15762991Y-12412722D01*
X15762991Y-12412722D02*
X15762991Y-12431769D01*
X15762991Y-12431769D02*
X15667753Y-12450817D01*
X15839182Y-12507960D02*
X15858230Y-12517484D01*
X15858230Y-12517484D02*
X15896325Y-12517484D01*
X15896325Y-12517484D02*
X15915372Y-12507960D01*
X15915372Y-12507960D02*
X15924896Y-12488912D01*
X15924896Y-12488912D02*
X15924896Y-12479388D01*
X15924896Y-12479388D02*
X15915372Y-12460341D01*
X15915372Y-12460341D02*
X15896325Y-12450817D01*
X15896325Y-12450817D02*
X15867753Y-12450817D01*
X15867753Y-12450817D02*
X15848706Y-12441293D01*
X15848706Y-12441293D02*
X15839182Y-12422246D01*
X15839182Y-12422246D02*
X15839182Y-12412722D01*
X15839182Y-12412722D02*
X15848706Y-12393674D01*
X15848706Y-12393674D02*
X15867753Y-12384150D01*
X15867753Y-12384150D02*
X15896325Y-12384150D01*
X15896325Y-12384150D02*
X15915372Y-12393674D01*
X15991563Y-12593674D02*
X16001087Y-12584150D01*
X16001087Y-12584150D02*
X16020134Y-12555579D01*
X16020134Y-12555579D02*
X16029658Y-12536531D01*
X16029658Y-12536531D02*
X16039182Y-12507960D01*
X16039182Y-12507960D02*
X16048706Y-12460341D01*
X16048706Y-12460341D02*
X16048706Y-12422246D01*
X16048706Y-12422246D02*
X16039182Y-12374627D01*
X16039182Y-12374627D02*
X16029658Y-12346055D01*
X16029658Y-12346055D02*
X16020134Y-12327008D01*
X16020134Y-12327008D02*
X16001087Y-12298436D01*
X16001087Y-12298436D02*
X15991563Y-12288912D01*
D10*
X11201856Y-12725356D02*
X11201856Y-12654644D01*
X11131144Y-12654644D01*
X11131144Y-12725356D01*
X11201856Y-12725356D01*
D11*
X11582039Y-12781484D02*
X11467753Y-12781484D01*
X11524896Y-12781484D02*
X11524896Y-12581484D01*
X11524896Y-12581484D02*
X11505848Y-12610055D01*
X11505848Y-12610055D02*
X11486801Y-12629103D01*
X11486801Y-12629103D02*
X11467753Y-12638627D01*
X11667753Y-12762436D02*
X11677277Y-12771960D01*
X11677277Y-12771960D02*
X11667753Y-12781484D01*
X11667753Y-12781484D02*
X11658229Y-12771960D01*
X11658229Y-12771960D02*
X11667753Y-12762436D01*
X11667753Y-12762436D02*
X11667753Y-12781484D01*
X11801086Y-12581484D02*
X11820134Y-12581484D01*
X11820134Y-12581484D02*
X11839182Y-12591008D01*
X11839182Y-12591008D02*
X11848705Y-12600531D01*
X11848705Y-12600531D02*
X11858229Y-12619579D01*
X11858229Y-12619579D02*
X11867753Y-12657674D01*
X11867753Y-12657674D02*
X11867753Y-12705293D01*
X11867753Y-12705293D02*
X11858229Y-12743388D01*
X11858229Y-12743388D02*
X11848705Y-12762436D01*
X11848705Y-12762436D02*
X11839182Y-12771960D01*
X11839182Y-12771960D02*
X11820134Y-12781484D01*
X11820134Y-12781484D02*
X11801086Y-12781484D01*
X11801086Y-12781484D02*
X11782039Y-12771960D01*
X11782039Y-12771960D02*
X11772515Y-12762436D01*
X11772515Y-12762436D02*
X11762991Y-12743388D01*
X11762991Y-12743388D02*
X11753467Y-12705293D01*
X11753467Y-12705293D02*
X11753467Y-12657674D01*
X11753467Y-12657674D02*
X11762991Y-12619579D01*
X11762991Y-12619579D02*
X11772515Y-12600531D01*
X11772515Y-12600531D02*
X11782039Y-12591008D01*
X11782039Y-12591008D02*
X11801086Y-12581484D01*
X11991562Y-12581484D02*
X12010610Y-12581484D01*
X12010610Y-12581484D02*
X12029658Y-12591008D01*
X12029658Y-12591008D02*
X12039182Y-12600531D01*
X12039182Y-12600531D02*
X12048705Y-12619579D01*
X12048705Y-12619579D02*
X12058229Y-12657674D01*
X12058229Y-12657674D02*
X12058229Y-12705293D01*
X12058229Y-12705293D02*
X12048705Y-12743388D01*
X12048705Y-12743388D02*
X12039182Y-12762436D01*
X12039182Y-12762436D02*
X12029658Y-12771960D01*
X12029658Y-12771960D02*
X12010610Y-12781484D01*
X12010610Y-12781484D02*
X11991562Y-12781484D01*
X11991562Y-12781484D02*
X11972515Y-12771960D01*
X11972515Y-12771960D02*
X11962991Y-12762436D01*
X11962991Y-12762436D02*
X11953467Y-12743388D01*
X11953467Y-12743388D02*
X11943943Y-12705293D01*
X11943943Y-12705293D02*
X11943943Y-12657674D01*
X11943943Y-12657674D02*
X11953467Y-12619579D01*
X11953467Y-12619579D02*
X11962991Y-12600531D01*
X11962991Y-12600531D02*
X11972515Y-12591008D01*
X11972515Y-12591008D02*
X11991562Y-12581484D01*
X12182039Y-12581484D02*
X12201086Y-12581484D01*
X12201086Y-12581484D02*
X12220134Y-12591008D01*
X12220134Y-12591008D02*
X12229658Y-12600531D01*
X12229658Y-12600531D02*
X12239182Y-12619579D01*
X12239182Y-12619579D02*
X12248705Y-12657674D01*
X12248705Y-12657674D02*
X12248705Y-12705293D01*
X12248705Y-12705293D02*
X12239182Y-12743388D01*
X12239182Y-12743388D02*
X12229658Y-12762436D01*
X12229658Y-12762436D02*
X12220134Y-12771960D01*
X12220134Y-12771960D02*
X12201086Y-12781484D01*
X12201086Y-12781484D02*
X12182039Y-12781484D01*
X12182039Y-12781484D02*
X12162991Y-12771960D01*
X12162991Y-12771960D02*
X12153467Y-12762436D01*
X12153467Y-12762436D02*
X12143943Y-12743388D01*
X12143943Y-12743388D02*
X12134420Y-12705293D01*
X12134420Y-12705293D02*
X12134420Y-12657674D01*
X12134420Y-12657674D02*
X12143943Y-12619579D01*
X12143943Y-12619579D02*
X12153467Y-12600531D01*
X12153467Y-12600531D02*
X12162991Y-12591008D01*
X12162991Y-12591008D02*
X12182039Y-12581484D01*
X12334420Y-12781484D02*
X12334420Y-12648150D01*
X12334420Y-12667198D02*
X12343943Y-12657674D01*
X12343943Y-12657674D02*
X12362991Y-12648150D01*
X12362991Y-12648150D02*
X12391563Y-12648150D01*
X12391563Y-12648150D02*
X12410610Y-12657674D01*
X12410610Y-12657674D02*
X12420134Y-12676722D01*
X12420134Y-12676722D02*
X12420134Y-12781484D01*
X12420134Y-12676722D02*
X12429658Y-12657674D01*
X12429658Y-12657674D02*
X12448705Y-12648150D01*
X12448705Y-12648150D02*
X12477277Y-12648150D01*
X12477277Y-12648150D02*
X12496324Y-12657674D01*
X12496324Y-12657674D02*
X12505848Y-12676722D01*
X12505848Y-12676722D02*
X12505848Y-12781484D01*
X12601086Y-12781484D02*
X12601086Y-12648150D01*
X12601086Y-12667198D02*
X12610610Y-12657674D01*
X12610610Y-12657674D02*
X12629658Y-12648150D01*
X12629658Y-12648150D02*
X12658229Y-12648150D01*
X12658229Y-12648150D02*
X12677277Y-12657674D01*
X12677277Y-12657674D02*
X12686801Y-12676722D01*
X12686801Y-12676722D02*
X12686801Y-12781484D01*
X12686801Y-12676722D02*
X12696324Y-12657674D01*
X12696324Y-12657674D02*
X12715372Y-12648150D01*
X12715372Y-12648150D02*
X12743943Y-12648150D01*
X12743943Y-12648150D02*
X12762991Y-12657674D01*
X12762991Y-12657674D02*
X12772515Y-12676722D01*
X12772515Y-12676722D02*
X12772515Y-12781484D01*
X13162991Y-12571960D02*
X12991563Y-12829103D01*
X13420134Y-12581484D02*
X13439182Y-12581484D01*
X13439182Y-12581484D02*
X13458229Y-12591008D01*
X13458229Y-12591008D02*
X13467753Y-12600531D01*
X13467753Y-12600531D02*
X13477277Y-12619579D01*
X13477277Y-12619579D02*
X13486801Y-12657674D01*
X13486801Y-12657674D02*
X13486801Y-12705293D01*
X13486801Y-12705293D02*
X13477277Y-12743388D01*
X13477277Y-12743388D02*
X13467753Y-12762436D01*
X13467753Y-12762436D02*
X13458229Y-12771960D01*
X13458229Y-12771960D02*
X13439182Y-12781484D01*
X13439182Y-12781484D02*
X13420134Y-12781484D01*
X13420134Y-12781484D02*
X13401086Y-12771960D01*
X13401086Y-12771960D02*
X13391563Y-12762436D01*
X13391563Y-12762436D02*
X13382039Y-12743388D01*
X13382039Y-12743388D02*
X13372515Y-12705293D01*
X13372515Y-12705293D02*
X13372515Y-12657674D01*
X13372515Y-12657674D02*
X13382039Y-12619579D01*
X13382039Y-12619579D02*
X13391563Y-12600531D01*
X13391563Y-12600531D02*
X13401086Y-12591008D01*
X13401086Y-12591008D02*
X13420134Y-12581484D01*
X13572515Y-12762436D02*
X13582039Y-12771960D01*
X13582039Y-12771960D02*
X13572515Y-12781484D01*
X13572515Y-12781484D02*
X13562991Y-12771960D01*
X13562991Y-12771960D02*
X13572515Y-12762436D01*
X13572515Y-12762436D02*
X13572515Y-12781484D01*
X13705848Y-12581484D02*
X13724896Y-12581484D01*
X13724896Y-12581484D02*
X13743944Y-12591008D01*
X13743944Y-12591008D02*
X13753467Y-12600531D01*
X13753467Y-12600531D02*
X13762991Y-12619579D01*
X13762991Y-12619579D02*
X13772515Y-12657674D01*
X13772515Y-12657674D02*
X13772515Y-12705293D01*
X13772515Y-12705293D02*
X13762991Y-12743388D01*
X13762991Y-12743388D02*
X13753467Y-12762436D01*
X13753467Y-12762436D02*
X13743944Y-12771960D01*
X13743944Y-12771960D02*
X13724896Y-12781484D01*
X13724896Y-12781484D02*
X13705848Y-12781484D01*
X13705848Y-12781484D02*
X13686801Y-12771960D01*
X13686801Y-12771960D02*
X13677277Y-12762436D01*
X13677277Y-12762436D02*
X13667753Y-12743388D01*
X13667753Y-12743388D02*
X13658229Y-12705293D01*
X13658229Y-12705293D02*
X13658229Y-12657674D01*
X13658229Y-12657674D02*
X13667753Y-12619579D01*
X13667753Y-12619579D02*
X13677277Y-12600531D01*
X13677277Y-12600531D02*
X13686801Y-12591008D01*
X13686801Y-12591008D02*
X13705848Y-12581484D01*
X13839182Y-12581484D02*
X13962991Y-12581484D01*
X13962991Y-12581484D02*
X13896325Y-12657674D01*
X13896325Y-12657674D02*
X13924896Y-12657674D01*
X13924896Y-12657674D02*
X13943944Y-12667198D01*
X13943944Y-12667198D02*
X13953467Y-12676722D01*
X13953467Y-12676722D02*
X13962991Y-12695769D01*
X13962991Y-12695769D02*
X13962991Y-12743388D01*
X13962991Y-12743388D02*
X13953467Y-12762436D01*
X13953467Y-12762436D02*
X13943944Y-12771960D01*
X13943944Y-12771960D02*
X13924896Y-12781484D01*
X13924896Y-12781484D02*
X13867753Y-12781484D01*
X13867753Y-12781484D02*
X13848706Y-12771960D01*
X13848706Y-12771960D02*
X13839182Y-12762436D01*
X14058229Y-12781484D02*
X14096325Y-12781484D01*
X14096325Y-12781484D02*
X14115372Y-12771960D01*
X14115372Y-12771960D02*
X14124896Y-12762436D01*
X14124896Y-12762436D02*
X14143944Y-12733865D01*
X14143944Y-12733865D02*
X14153467Y-12695769D01*
X14153467Y-12695769D02*
X14153467Y-12619579D01*
X14153467Y-12619579D02*
X14143944Y-12600531D01*
X14143944Y-12600531D02*
X14134420Y-12591008D01*
X14134420Y-12591008D02*
X14115372Y-12581484D01*
X14115372Y-12581484D02*
X14077277Y-12581484D01*
X14077277Y-12581484D02*
X14058229Y-12591008D01*
X14058229Y-12591008D02*
X14048706Y-12600531D01*
X14048706Y-12600531D02*
X14039182Y-12619579D01*
X14039182Y-12619579D02*
X14039182Y-12667198D01*
X14039182Y-12667198D02*
X14048706Y-12686246D01*
X14048706Y-12686246D02*
X14058229Y-12695769D01*
X14058229Y-12695769D02*
X14077277Y-12705293D01*
X14077277Y-12705293D02*
X14115372Y-12705293D01*
X14115372Y-12705293D02*
X14134420Y-12695769D01*
X14134420Y-12695769D02*
X14143944Y-12686246D01*
X14143944Y-12686246D02*
X14153467Y-12667198D01*
X14324896Y-12648150D02*
X14324896Y-12781484D01*
X14277277Y-12571960D02*
X14229658Y-12714817D01*
X14229658Y-12714817D02*
X14353467Y-12714817D01*
X14420134Y-12581484D02*
X14420134Y-12619579D01*
X14496325Y-12581484D02*
X14496325Y-12619579D01*
X14791563Y-12857674D02*
X14782039Y-12848150D01*
X14782039Y-12848150D02*
X14762991Y-12819579D01*
X14762991Y-12819579D02*
X14753468Y-12800531D01*
X14753468Y-12800531D02*
X14743944Y-12771960D01*
X14743944Y-12771960D02*
X14734420Y-12724341D01*
X14734420Y-12724341D02*
X14734420Y-12686246D01*
X14734420Y-12686246D02*
X14743944Y-12638627D01*
X14743944Y-12638627D02*
X14753468Y-12610055D01*
X14753468Y-12610055D02*
X14762991Y-12591008D01*
X14762991Y-12591008D02*
X14782039Y-12562436D01*
X14782039Y-12562436D02*
X14791563Y-12552912D01*
X14953468Y-12648150D02*
X14953468Y-12781484D01*
X14905848Y-12571960D02*
X14858229Y-12714817D01*
X14858229Y-12714817D02*
X14982039Y-12714817D01*
X15143944Y-12648150D02*
X15143944Y-12781484D01*
X15096325Y-12571960D02*
X15048706Y-12714817D01*
X15048706Y-12714817D02*
X15172515Y-12714817D01*
X15401087Y-12781484D02*
X15401087Y-12581484D01*
X15486801Y-12781484D02*
X15486801Y-12676722D01*
X15486801Y-12676722D02*
X15477277Y-12657674D01*
X15477277Y-12657674D02*
X15458230Y-12648150D01*
X15458230Y-12648150D02*
X15429658Y-12648150D01*
X15429658Y-12648150D02*
X15410610Y-12657674D01*
X15410610Y-12657674D02*
X15401087Y-12667198D01*
X15610610Y-12781484D02*
X15591563Y-12771960D01*
X15591563Y-12771960D02*
X15582039Y-12762436D01*
X15582039Y-12762436D02*
X15572515Y-12743388D01*
X15572515Y-12743388D02*
X15572515Y-12686246D01*
X15572515Y-12686246D02*
X15582039Y-12667198D01*
X15582039Y-12667198D02*
X15591563Y-12657674D01*
X15591563Y-12657674D02*
X15610610Y-12648150D01*
X15610610Y-12648150D02*
X15639182Y-12648150D01*
X15639182Y-12648150D02*
X15658230Y-12657674D01*
X15658230Y-12657674D02*
X15667753Y-12667198D01*
X15667753Y-12667198D02*
X15677277Y-12686246D01*
X15677277Y-12686246D02*
X15677277Y-12743388D01*
X15677277Y-12743388D02*
X15667753Y-12762436D01*
X15667753Y-12762436D02*
X15658230Y-12771960D01*
X15658230Y-12771960D02*
X15639182Y-12781484D01*
X15639182Y-12781484D02*
X15610610Y-12781484D01*
X15791563Y-12781484D02*
X15772515Y-12771960D01*
X15772515Y-12771960D02*
X15762991Y-12752912D01*
X15762991Y-12752912D02*
X15762991Y-12581484D01*
X15943944Y-12771960D02*
X15924896Y-12781484D01*
X15924896Y-12781484D02*
X15886801Y-12781484D01*
X15886801Y-12781484D02*
X15867753Y-12771960D01*
X15867753Y-12771960D02*
X15858230Y-12752912D01*
X15858230Y-12752912D02*
X15858230Y-12676722D01*
X15858230Y-12676722D02*
X15867753Y-12657674D01*
X15867753Y-12657674D02*
X15886801Y-12648150D01*
X15886801Y-12648150D02*
X15924896Y-12648150D01*
X15924896Y-12648150D02*
X15943944Y-12657674D01*
X15943944Y-12657674D02*
X15953468Y-12676722D01*
X15953468Y-12676722D02*
X15953468Y-12695769D01*
X15953468Y-12695769D02*
X15858230Y-12714817D01*
X16029658Y-12771960D02*
X16048706Y-12781484D01*
X16048706Y-12781484D02*
X16086801Y-12781484D01*
X16086801Y-12781484D02*
X16105849Y-12771960D01*
X16105849Y-12771960D02*
X16115372Y-12752912D01*
X16115372Y-12752912D02*
X16115372Y-12743388D01*
X16115372Y-12743388D02*
X16105849Y-12724341D01*
X16105849Y-12724341D02*
X16086801Y-12714817D01*
X16086801Y-12714817D02*
X16058230Y-12714817D01*
X16058230Y-12714817D02*
X16039182Y-12705293D01*
X16039182Y-12705293D02*
X16029658Y-12686246D01*
X16029658Y-12686246D02*
X16029658Y-12676722D01*
X16029658Y-12676722D02*
X16039182Y-12657674D01*
X16039182Y-12657674D02*
X16058230Y-12648150D01*
X16058230Y-12648150D02*
X16086801Y-12648150D01*
X16086801Y-12648150D02*
X16105849Y-12657674D01*
X16182039Y-12857674D02*
X16191563Y-12848150D01*
X16191563Y-12848150D02*
X16210611Y-12819579D01*
X16210611Y-12819579D02*
X16220134Y-12800531D01*
X16220134Y-12800531D02*
X16229658Y-12771960D01*
X16229658Y-12771960D02*
X16239182Y-12724341D01*
X16239182Y-12724341D02*
X16239182Y-12686246D01*
X16239182Y-12686246D02*
X16229658Y-12638627D01*
X16229658Y-12638627D02*
X16220134Y-12610055D01*
X16220134Y-12610055D02*
X16210611Y-12591008D01*
X16210611Y-12591008D02*
X16191563Y-12562436D01*
X16191563Y-12562436D02*
X16182039Y-12552912D01*
M02*
