G04 #@! TF.GenerationSoftware,KiCad,Pcbnew,8.0.4*
G04 #@! TF.CreationDate,2024-11-10T20:26:25+01:00*
G04 #@! TF.ProjectId,NatSi-DevKit,4e617453-692d-4446-9576-4b69742e6b69,v1.0.0*
G04 #@! TF.SameCoordinates,Original*
G04 #@! TF.FileFunction,Copper,L1,Top*
G04 #@! TF.FilePolarity,Positive*
%FSLAX46Y46*%
G04 Gerber Fmt 4.6, Leading zero omitted, Abs format (unit mm)*
G04 Created by KiCad (PCBNEW 8.0.4) date 2024-11-10 20:26:25*
%MOMM*%
%LPD*%
G01*
G04 APERTURE LIST*
G04 Aperture macros list*
%AMRoundRect*
0 Rectangle with rounded corners*
0 $1 Rounding radius*
0 $2 $3 $4 $5 $6 $7 $8 $9 X,Y pos of 4 corners*
0 Add a 4 corners polygon primitive as box body*
4,1,4,$2,$3,$4,$5,$6,$7,$8,$9,$2,$3,0*
0 Add four circle primitives for the rounded corners*
1,1,$1+$1,$2,$3*
1,1,$1+$1,$4,$5*
1,1,$1+$1,$6,$7*
1,1,$1+$1,$8,$9*
0 Add four rect primitives between the rounded corners*
20,1,$1+$1,$2,$3,$4,$5,0*
20,1,$1+$1,$4,$5,$6,$7,0*
20,1,$1+$1,$6,$7,$8,$9,0*
20,1,$1+$1,$8,$9,$2,$3,0*%
G04 Aperture macros list end*
G04 #@! TA.AperFunction,Conductor*
%ADD10C,0.200000*%
G04 #@! TD*
G04 #@! TA.AperFunction,SMDPad,CuDef*
%ADD11RoundRect,0.250000X-0.350000X-0.450000X0.350000X-0.450000X0.350000X0.450000X-0.350000X0.450000X0*%
G04 #@! TD*
G04 #@! TA.AperFunction,SMDPad,CuDef*
%ADD12RoundRect,0.250000X-0.325000X-0.450000X0.325000X-0.450000X0.325000X0.450000X-0.325000X0.450000X0*%
G04 #@! TD*
G04 #@! TA.AperFunction,SMDPad,CuDef*
%ADD13RoundRect,0.162500X-0.837500X-0.162500X0.837500X-0.162500X0.837500X0.162500X-0.837500X0.162500X0*%
G04 #@! TD*
G04 #@! TA.AperFunction,SMDPad,CuDef*
%ADD14RoundRect,0.250000X0.537500X0.425000X-0.537500X0.425000X-0.537500X-0.425000X0.537500X-0.425000X0*%
G04 #@! TD*
G04 #@! TA.AperFunction,ComponentPad*
%ADD15C,1.500000*%
G04 #@! TD*
G04 #@! TA.AperFunction,SMDPad,CuDef*
%ADD16RoundRect,0.250000X0.337500X0.475000X-0.337500X0.475000X-0.337500X-0.475000X0.337500X-0.475000X0*%
G04 #@! TD*
G04 #@! TA.AperFunction,SMDPad,CuDef*
%ADD17R,0.900000X1.500000*%
G04 #@! TD*
G04 #@! TA.AperFunction,SMDPad,CuDef*
%ADD18R,1.500000X0.900000*%
G04 #@! TD*
G04 #@! TA.AperFunction,SMDPad,CuDef*
%ADD19R,0.900000X0.900000*%
G04 #@! TD*
G04 #@! TA.AperFunction,SMDPad,CuDef*
%ADD20R,0.900000X1.700000*%
G04 #@! TD*
G04 #@! TA.AperFunction,SMDPad,CuDef*
%ADD21RoundRect,0.250000X-0.337500X-0.475000X0.337500X-0.475000X0.337500X0.475000X-0.337500X0.475000X0*%
G04 #@! TD*
G04 #@! TA.AperFunction,SMDPad,CuDef*
%ADD22RoundRect,0.375000X-0.375000X0.625000X-0.375000X-0.625000X0.375000X-0.625000X0.375000X0.625000X0*%
G04 #@! TD*
G04 #@! TA.AperFunction,SMDPad,CuDef*
%ADD23RoundRect,0.500000X-1.400000X0.500000X-1.400000X-0.500000X1.400000X-0.500000X1.400000X0.500000X0*%
G04 #@! TD*
G04 #@! TA.AperFunction,SMDPad,CuDef*
%ADD24RoundRect,0.243750X0.243750X0.456250X-0.243750X0.456250X-0.243750X-0.456250X0.243750X-0.456250X0*%
G04 #@! TD*
G04 #@! TA.AperFunction,SMDPad,CuDef*
%ADD25RoundRect,0.250000X0.350000X0.450000X-0.350000X0.450000X-0.350000X-0.450000X0.350000X-0.450000X0*%
G04 #@! TD*
G04 #@! TA.AperFunction,SMDPad,CuDef*
%ADD26RoundRect,0.250000X-0.537500X-0.425000X0.537500X-0.425000X0.537500X0.425000X-0.537500X0.425000X0*%
G04 #@! TD*
G04 #@! TA.AperFunction,SMDPad,CuDef*
%ADD27R,1.320000X0.600000*%
G04 #@! TD*
G04 #@! TA.AperFunction,SMDPad,CuDef*
%ADD28R,1.320000X0.300000*%
G04 #@! TD*
G04 #@! TA.AperFunction,ComponentPad*
%ADD29O,2.000000X0.900000*%
G04 #@! TD*
G04 #@! TA.AperFunction,ComponentPad*
%ADD30O,1.700000X0.900000*%
G04 #@! TD*
G04 #@! TA.AperFunction,SMDPad,CuDef*
%ADD31RoundRect,0.250001X0.462499X0.624999X-0.462499X0.624999X-0.462499X-0.624999X0.462499X-0.624999X0*%
G04 #@! TD*
G04 #@! TA.AperFunction,ComponentPad*
%ADD32R,1.700000X1.700000*%
G04 #@! TD*
G04 #@! TA.AperFunction,ComponentPad*
%ADD33O,1.700000X1.700000*%
G04 #@! TD*
G04 #@! TA.AperFunction,ViaPad*
%ADD34C,0.700000*%
G04 #@! TD*
G04 #@! TA.AperFunction,Conductor*
%ADD35C,0.500000*%
G04 #@! TD*
G04 #@! TA.AperFunction,Conductor*
%ADD36C,0.250000*%
G04 #@! TD*
G04 #@! TA.AperFunction,Conductor*
%ADD37C,0.400000*%
G04 #@! TD*
G04 #@! TA.AperFunction,Conductor*
%ADD38C,1.000000*%
G04 #@! TD*
G04 APERTURE END LIST*
D10*
X172340000Y-89924000D02*
X172340000Y-89162000D01*
X172975000Y-89162000D01*
X172340000Y-89924000D01*
G04 #@! TA.AperFunction,Conductor*
G36*
X172340000Y-89924000D02*
G01*
X172340000Y-89162000D01*
X172975000Y-89162000D01*
X172340000Y-89924000D01*
G37*
G04 #@! TD.AperFunction*
X171451000Y-89955750D02*
X170816000Y-89193750D01*
X171451000Y-89193750D01*
X171451000Y-89955750D01*
G04 #@! TA.AperFunction,Conductor*
G36*
X171451000Y-89955750D02*
G01*
X170816000Y-89193750D01*
X171451000Y-89193750D01*
X171451000Y-89955750D01*
G37*
G04 #@! TD.AperFunction*
X172340000Y-92083000D02*
X172086000Y-92337000D01*
X171705000Y-92337000D01*
X171451000Y-92083000D01*
X171451000Y-87638000D01*
X172340000Y-87638000D01*
X172340000Y-92083000D01*
G04 #@! TA.AperFunction,Conductor*
G36*
X172340000Y-92083000D02*
G01*
X172086000Y-92337000D01*
X171705000Y-92337000D01*
X171451000Y-92083000D01*
X171451000Y-87638000D01*
X172340000Y-87638000D01*
X172340000Y-92083000D01*
G37*
G04 #@! TD.AperFunction*
X174245000Y-89162000D02*
X170435000Y-89162000D01*
X170181000Y-88908000D01*
X170181000Y-87892000D01*
X170435000Y-87638000D01*
X174245000Y-87638000D01*
X174245000Y-89162000D01*
G04 #@! TA.AperFunction,Conductor*
G36*
X174245000Y-89162000D02*
G01*
X170435000Y-89162000D01*
X170181000Y-88908000D01*
X170181000Y-87892000D01*
X170435000Y-87638000D01*
X174245000Y-87638000D01*
X174245000Y-89162000D01*
G37*
G04 #@! TD.AperFunction*
D11*
X144009600Y-105367200D03*
X146009600Y-105367200D03*
D12*
X140200000Y-99474400D03*
X142250000Y-99474400D03*
D13*
X125545000Y-103833000D03*
X125545000Y-104783000D03*
X125545000Y-105733000D03*
X128965000Y-105733000D03*
X128965000Y-104783000D03*
X128965000Y-103833000D03*
D14*
X132750000Y-95930000D03*
X129875000Y-95930000D03*
D15*
X124715000Y-107958000D03*
D16*
X127124100Y-99753800D03*
X125049100Y-99753800D03*
D14*
X142002100Y-105545000D03*
X139127100Y-105545000D03*
D16*
X136950000Y-97980000D03*
X134875000Y-97980000D03*
D12*
X140200000Y-103436800D03*
X142250000Y-103436800D03*
D17*
X173151000Y-91080000D03*
X171881000Y-91080000D03*
X170611000Y-91080000D03*
X169341000Y-91080000D03*
X168071000Y-91080000D03*
X166801000Y-91080000D03*
X165531000Y-91080000D03*
X164261000Y-91080000D03*
X162991000Y-91080000D03*
X161721000Y-91080000D03*
X160451000Y-91080000D03*
X159181000Y-91080000D03*
X157911000Y-91080000D03*
X156641000Y-91080000D03*
D18*
X155391000Y-92845000D03*
X155391000Y-94115000D03*
X155391000Y-95385000D03*
X155391000Y-96655000D03*
X155391000Y-97925000D03*
X155391000Y-99195000D03*
X155391000Y-100465000D03*
X155391000Y-101735000D03*
X155391000Y-103005000D03*
X155391000Y-104275000D03*
X155391000Y-105545000D03*
X155391000Y-106815000D03*
D17*
X156641000Y-108580000D03*
X157911000Y-108580000D03*
X159181000Y-108580000D03*
X160451000Y-108580000D03*
X161721000Y-108580000D03*
X162991000Y-108580000D03*
X164261000Y-108580000D03*
X165531000Y-108580000D03*
X166801000Y-108580000D03*
X168071000Y-108580000D03*
X169341000Y-108580000D03*
X170611000Y-108580000D03*
X171881000Y-108580000D03*
X173151000Y-108580000D03*
D19*
X166831000Y-96930000D03*
X165431000Y-96930000D03*
X164031000Y-96930000D03*
X164031000Y-96930000D03*
X166831000Y-98330000D03*
X166831000Y-98330000D03*
X165431000Y-98330000D03*
X164031000Y-98330000D03*
X166831000Y-99730000D03*
X165431000Y-99730000D03*
X164031000Y-99730000D03*
D20*
X144830000Y-92718000D03*
X141430000Y-92718000D03*
D16*
X123352500Y-103580000D03*
X121277500Y-103580000D03*
X146021700Y-107323000D03*
X143946700Y-107323000D03*
D14*
X142002100Y-107653200D03*
X139127100Y-107653200D03*
D21*
X130875000Y-97980000D03*
X132950000Y-97980000D03*
D20*
X113871000Y-91956000D03*
X117271000Y-91956000D03*
D21*
X125023700Y-95893000D03*
X127098700Y-95893000D03*
D22*
X136162500Y-100298400D03*
X133862500Y-100298400D03*
D23*
X133862500Y-106598400D03*
D22*
X131562500Y-100298400D03*
D24*
X123452500Y-101630000D03*
X121577500Y-101630000D03*
D25*
X145984200Y-103436800D03*
X143984200Y-103436800D03*
D15*
X128652000Y-107958000D03*
D21*
X121289900Y-105570400D03*
X123364900Y-105570400D03*
D11*
X143984200Y-97425600D03*
X145984200Y-97425600D03*
D20*
X113871000Y-107704000D03*
X117271000Y-107704000D03*
D12*
X140200000Y-101455600D03*
X142250000Y-101455600D03*
D11*
X121315000Y-99730000D03*
X123315000Y-99730000D03*
X121315000Y-97830000D03*
X123315000Y-97830000D03*
D21*
X140162100Y-97417000D03*
X142237100Y-97417000D03*
D11*
X140199600Y-95461200D03*
X142199600Y-95461200D03*
D25*
X145984200Y-99474400D03*
X143984200Y-99474400D03*
D16*
X146021700Y-95461200D03*
X143946700Y-95461200D03*
D26*
X135075000Y-95930000D03*
X137950000Y-95930000D03*
D25*
X145984200Y-101455600D03*
X143984200Y-101455600D03*
D11*
X125035800Y-97823400D03*
X127035800Y-97823400D03*
D27*
X119141000Y-96753000D03*
X119141000Y-97553000D03*
D28*
X119141000Y-98703000D03*
X119141000Y-99703000D03*
X119141000Y-100203000D03*
X119141000Y-101203000D03*
D27*
X119141000Y-103153000D03*
X119141000Y-102353000D03*
D28*
X119141000Y-101703000D03*
X119141000Y-100703000D03*
X119141000Y-99203000D03*
X119141000Y-98203000D03*
D29*
X118471000Y-95628000D03*
X118471000Y-104278000D03*
D30*
X114301000Y-95628000D03*
X114301000Y-104278000D03*
D11*
X121315000Y-95927800D03*
X123315000Y-95927800D03*
D31*
X128132900Y-101862000D03*
X125157900Y-101862000D03*
D32*
X173483000Y-88400000D03*
D33*
X170943000Y-88400000D03*
X168403000Y-88400000D03*
X165863000Y-88400000D03*
X163323000Y-88400000D03*
X160783000Y-88400000D03*
X158243000Y-88400000D03*
X155703000Y-88400000D03*
X153163000Y-88400000D03*
X150623000Y-88400000D03*
X148083000Y-88400000D03*
X145543000Y-88400000D03*
X143003000Y-88400000D03*
X140463000Y-88400000D03*
X137923000Y-88400000D03*
X135383000Y-88400000D03*
X132843000Y-88400000D03*
X130303000Y-88400000D03*
X127763000Y-88400000D03*
X125223000Y-88400000D03*
X122683000Y-88400000D03*
X120143000Y-88400000D03*
D32*
X173483000Y-111260000D03*
D33*
X170943000Y-111260000D03*
X168403000Y-111260000D03*
X165863000Y-111260000D03*
X163323000Y-111260000D03*
X160783000Y-111260000D03*
X158243000Y-111260000D03*
X155703000Y-111260000D03*
X153163000Y-111260000D03*
X150623000Y-111260000D03*
X148083000Y-111260000D03*
X145543000Y-111260000D03*
X143003000Y-111260000D03*
X140463000Y-111260000D03*
X137923000Y-111260000D03*
X135383000Y-111260000D03*
X132843000Y-111260000D03*
X130303000Y-111260000D03*
X127763000Y-111260000D03*
X125223000Y-111260000D03*
X122683000Y-111260000D03*
X120143000Y-111260000D03*
D34*
X127455000Y-95512000D03*
X170308000Y-93861000D03*
X156719000Y-93734000D03*
X158751000Y-103157000D03*
X129922000Y-103767000D03*
X129922000Y-105799000D03*
X159346000Y-103894000D03*
X125477000Y-104783000D03*
X160148000Y-105214800D03*
X132614400Y-103386000D03*
X169860600Y-97620400D03*
X140200000Y-99474400D03*
X130938000Y-97925000D03*
X160576600Y-102420800D03*
X123318000Y-95893000D03*
X129875000Y-95930000D03*
X172108200Y-106738800D03*
X137950000Y-95930000D03*
X125019800Y-99728400D03*
X135256000Y-103386000D03*
X173151000Y-91080000D03*
X123343400Y-105621200D03*
X140155000Y-104148000D03*
X145009600Y-98433000D03*
X131011000Y-106561000D03*
X120143000Y-96782000D03*
X120140000Y-103145813D03*
X147041600Y-98458400D03*
X143965552Y-89977448D03*
X145870000Y-91194000D03*
X158642002Y-92674598D03*
X136526000Y-106561000D03*
X158547800Y-104605200D03*
X145695400Y-101836600D03*
X136551400Y-103386000D03*
X158546899Y-106169102D03*
X158621045Y-107066045D03*
X168072800Y-92921200D03*
X169342800Y-92921200D03*
X157227000Y-97544000D03*
X157221061Y-98655799D03*
X157227000Y-95512000D03*
X159259000Y-100130000D03*
X145984200Y-97425600D03*
X169886000Y-99795000D03*
X171857400Y-94496000D03*
X166802800Y-92921200D03*
X157227000Y-96528000D03*
X169860600Y-102020400D03*
X165562002Y-92921200D03*
X144019000Y-104757600D03*
X160402000Y-103894000D03*
X127128000Y-99830000D03*
X124842000Y-103767000D03*
X123318000Y-99703000D03*
X166802800Y-106611800D03*
X161672000Y-106434000D03*
X157227000Y-94496000D03*
X161291000Y-94115000D03*
X160275000Y-94115000D03*
X159640000Y-106434000D03*
X157791935Y-105352391D03*
X162307000Y-94115000D03*
X157227000Y-106053000D03*
X162459400Y-105545000D03*
X171881000Y-108580000D03*
X156007540Y-93059000D03*
X165583600Y-106637200D03*
X159360600Y-93429200D03*
X170308000Y-106561000D03*
X160656000Y-106434000D03*
X157227000Y-99703000D03*
X123318000Y-97798000D03*
X124842000Y-105799000D03*
X145710000Y-103055800D03*
X137716220Y-104608780D03*
X137669000Y-107704000D03*
X157227000Y-104616000D03*
D35*
X125023700Y-95599668D02*
X125023700Y-95642180D01*
D36*
X170308000Y-93861000D02*
X170308000Y-91593576D01*
D35*
X125023700Y-96250097D02*
X125023700Y-96284106D01*
D36*
X118549871Y-90692600D02*
X118619809Y-90635203D01*
X165776028Y-89938844D02*
X145871819Y-89938844D01*
X125065000Y-95930000D02*
X125023700Y-95888700D01*
D35*
X125023700Y-95514643D02*
X125023700Y-95540150D01*
D36*
X142656478Y-90777352D02*
X143847482Y-90777352D01*
X170609300Y-91085200D02*
X170612800Y-91085200D01*
D35*
X125023700Y-96892025D02*
X125023700Y-97070574D01*
X125023700Y-96619950D02*
X125023700Y-96713476D01*
X125023700Y-95990777D02*
X125023700Y-95999279D01*
D36*
X140799171Y-89819790D02*
X140721427Y-89809554D01*
D35*
X125023700Y-97802744D02*
X125023700Y-97664097D01*
D36*
X167633578Y-89169422D02*
X168403000Y-88400000D01*
X142005794Y-90341574D02*
X141943585Y-90293838D01*
X124461350Y-95058350D02*
X124927427Y-95524427D01*
D35*
X125023700Y-95642180D02*
X125023700Y-95688943D01*
X125023700Y-96216088D02*
X125023700Y-96250097D01*
X125023700Y-95688943D02*
X125023700Y-95824981D01*
D36*
X142236037Y-90554035D02*
X142319966Y-90637964D01*
D35*
X125023700Y-96602944D02*
X125023700Y-96611447D01*
X125023700Y-97386803D02*
X125023700Y-97070574D01*
X125023700Y-96148070D02*
X125023700Y-96216088D01*
D36*
X123103717Y-94496000D02*
X120130403Y-94496000D01*
X120685630Y-89807955D02*
X120595590Y-89816822D01*
D35*
X125023700Y-96352125D02*
X125023700Y-96522172D01*
D36*
X118108500Y-93658500D02*
X117576823Y-93126823D01*
D35*
X125023700Y-96713476D02*
X125023700Y-96892025D01*
X125023700Y-96046041D02*
X125023700Y-96080050D01*
X125023700Y-95540150D02*
X125023700Y-95557156D01*
X125029750Y-97817350D02*
X125035800Y-97823400D01*
X125023700Y-95893000D02*
X125023700Y-95914256D01*
X125023700Y-96114059D02*
X125023700Y-96148070D01*
D36*
X121047131Y-89797000D02*
X140408389Y-89797000D01*
D35*
X125023700Y-96611447D02*
X125023700Y-96619950D01*
D36*
X125023700Y-95365854D02*
X125023700Y-95399863D01*
D35*
X125023700Y-96012032D02*
X125023700Y-95999279D01*
X125023700Y-95514643D02*
X125023700Y-95501890D01*
X125023700Y-97386803D02*
X125023700Y-97664097D01*
X125023700Y-95557156D02*
X125023700Y-95599668D01*
X125023700Y-95956768D02*
X125023700Y-95982275D01*
D36*
X125023700Y-95893000D02*
X125023700Y-95756850D01*
D35*
X125023700Y-95982275D02*
X125023700Y-95990777D01*
X125023700Y-95824981D02*
X125023700Y-95893000D01*
X125023700Y-96284106D02*
X125023700Y-96352125D01*
X125023700Y-95914256D02*
X125023700Y-95956768D01*
X125023700Y-96012032D02*
X125023700Y-96046041D01*
D36*
X170456900Y-91234100D02*
X170603326Y-91087674D01*
D35*
X125023700Y-96602944D02*
X125023700Y-96522172D01*
D36*
X117576823Y-91650176D02*
X118286516Y-90940483D01*
D35*
X125023700Y-96080050D02*
X125023700Y-96114059D01*
D36*
X120685630Y-89807955D02*
G75*
G02*
X120866163Y-89798043I204570J-2076845D01*
G01*
X117271000Y-92388500D02*
G75*
G03*
X117576833Y-93126813I1044100J0D01*
G01*
X120238015Y-89869860D02*
G75*
G02*
X120595590Y-89816822I718585J-3612740D01*
G01*
X142236037Y-90554035D02*
G75*
G03*
X142124298Y-90443949I-7455637J-7455865D01*
G01*
X142656478Y-90777352D02*
G75*
G02*
X142319966Y-90637964I22J475952D01*
G01*
X117576823Y-91650176D02*
G75*
G03*
X117270985Y-92388500I738277J-738324D01*
G01*
X118549871Y-90692600D02*
G75*
G03*
X118415211Y-90813251I1322829J-1611900D01*
G01*
X120238015Y-89869860D02*
G75*
G03*
X119887358Y-89957689I718585J-3612840D01*
G01*
X121047131Y-89797000D02*
G75*
G03*
X120866163Y-89798043I-231J-15654800D01*
G01*
X170603326Y-91087674D02*
G75*
G02*
X170609300Y-91085185I5974J-5926D01*
G01*
X165776028Y-89938844D02*
G75*
G03*
X167633558Y-89169402I-28J2626944D01*
G01*
X140799171Y-89819790D02*
G75*
G02*
X141106177Y-89880858I-312271J-2372110D01*
G01*
X118286516Y-90940483D02*
G75*
G02*
X118415212Y-90813252I11169884J-11169817D01*
G01*
X124461350Y-95058350D02*
G75*
G03*
X123103717Y-94495993I-1357650J-1357650D01*
G01*
X170456900Y-91234100D02*
G75*
G03*
X170307990Y-91593576I359500J-359500D01*
G01*
X119220219Y-90234025D02*
G75*
G03*
X118910160Y-90419866I1736381J-3248575D01*
G01*
X142124298Y-90443949D02*
G75*
G03*
X142005791Y-90341578I-941098J-969651D01*
G01*
X144859651Y-90358098D02*
G75*
G02*
X143847482Y-90777331I-1012151J1012198D01*
G01*
X144859651Y-90358098D02*
G75*
G02*
X145871819Y-89938868I1012149J-1012202D01*
G01*
X118108500Y-93658500D02*
G75*
G03*
X120130403Y-94495998I2021900J2021900D01*
G01*
X140721427Y-89809554D02*
G75*
G03*
X140565244Y-89798162I-176027J-1337046D01*
G01*
X118910160Y-90419866D02*
G75*
G03*
X118619809Y-90635203I2046140J-3062334D01*
G01*
X119220219Y-90234025D02*
G75*
G02*
X119547001Y-90079472I1736081J-3247975D01*
G01*
X140408389Y-89797000D02*
G75*
G02*
X140565244Y-89798158I111J-10605600D01*
G01*
X141943585Y-90293838D02*
G75*
G03*
X141683318Y-90119932I-1456685J-1898362D01*
G01*
X141402583Y-89981481D02*
G75*
G02*
X141683320Y-90119929I-915683J-2210619D01*
G01*
D35*
X125023700Y-97802744D02*
G75*
G03*
X125029763Y-97817337I20700J44D01*
G01*
D36*
X141106176Y-89880860D02*
G75*
G02*
X141402583Y-89981481I-619276J-2311140D01*
G01*
X119887359Y-89957692D02*
G75*
G03*
X119547002Y-90079473I1069041J-3524308D01*
G01*
X125023700Y-95756850D02*
G75*
G03*
X124927403Y-95524451I-328700J-50D01*
G01*
X118890000Y-98705000D02*
X119195000Y-98705000D01*
X156068593Y-94115000D02*
X155391000Y-94115000D01*
X156719000Y-93734000D02*
X156528500Y-93924500D01*
X156528500Y-93924500D02*
G75*
G02*
X156068593Y-94114997I-459900J459900D01*
G01*
D35*
X120940000Y-103917500D02*
X121277500Y-103580000D01*
X120125203Y-104255000D02*
X118285000Y-104255000D01*
X120763946Y-95605000D02*
X118285000Y-95605000D01*
X121153600Y-95766400D02*
X121315000Y-95927800D01*
X121153600Y-95766400D02*
G75*
G03*
X120763946Y-95604952I-389700J-389600D01*
G01*
X120125203Y-104255000D02*
G75*
G03*
X120939999Y-103917499I-3J1152300D01*
G01*
D36*
X119825290Y-100703000D02*
X119141000Y-100703000D01*
X120651000Y-99703000D02*
X120397000Y-99957000D01*
X120251655Y-100513445D02*
X120229550Y-100535550D01*
X120651000Y-99703000D02*
X121268909Y-99703000D01*
X120143000Y-99703000D02*
X119141000Y-99703000D01*
X120397000Y-99703000D02*
X120143000Y-99703000D01*
X120397000Y-99957000D02*
X120397000Y-100162550D01*
X121301500Y-99716500D02*
X121315000Y-99730000D01*
X120651000Y-99703000D02*
X120397000Y-99703000D01*
X120397000Y-99703000D02*
X120397000Y-99957000D01*
X120397000Y-99957000D02*
X120143000Y-99703000D01*
X119825290Y-100703000D02*
G75*
G03*
X120229553Y-100535553I10J571700D01*
G01*
X120251655Y-100513445D02*
G75*
G03*
X120396977Y-100162550I-350855J350845D01*
G01*
X121268909Y-99703000D02*
G75*
G02*
X121301498Y-99716502I-9J-46100D01*
G01*
X118757394Y-99203000D02*
X118693131Y-99203000D01*
X118564605Y-99203000D02*
X118500342Y-99203000D01*
X118866578Y-99203000D02*
X118860024Y-99203000D01*
X118476244Y-99203000D02*
X118460178Y-99203000D01*
X119089526Y-99203000D02*
X119081000Y-99203000D01*
X117984000Y-99622948D02*
X117984000Y-99783051D01*
X119602250Y-99203000D02*
X119594750Y-99203000D01*
X119362250Y-99203000D02*
X119321000Y-99203000D01*
X118403949Y-99203000D02*
X118411981Y-99203000D01*
X118460178Y-99203000D02*
X118444112Y-99203000D01*
X119576000Y-99203000D02*
X119546000Y-99203000D01*
X118860024Y-99203000D02*
X118770183Y-99203000D01*
X118693131Y-99203000D02*
X118628868Y-99203000D01*
X121315000Y-97909500D02*
X121315000Y-97830000D01*
X119467250Y-99203000D02*
X119459750Y-99203000D01*
X119081000Y-99203000D02*
X119072474Y-99203000D01*
X118403949Y-100203000D02*
X119141000Y-100203000D01*
X119072474Y-99203000D02*
X119063948Y-99203000D01*
X119576000Y-99203000D02*
X119587250Y-99203000D01*
X119437250Y-99203000D02*
X119459750Y-99203000D01*
X119602250Y-99203000D02*
X119609750Y-99203000D01*
X119617250Y-99203000D02*
X119609750Y-99203000D01*
X119063948Y-99203000D02*
X119044605Y-99203000D01*
X119321000Y-99203000D02*
X119201000Y-99203000D01*
X119516000Y-99203000D02*
X119486000Y-99203000D01*
X118444112Y-99203000D02*
X118428046Y-99203000D01*
X118969526Y-99203000D02*
X118866578Y-99203000D01*
X119113131Y-99203000D02*
X119089526Y-99203000D01*
X119399750Y-99203000D02*
X119362250Y-99203000D01*
X118428046Y-99203000D02*
X118411981Y-99203000D01*
X121258786Y-98045214D02*
X120440412Y-98863588D01*
X119168868Y-99203000D02*
X119201000Y-99203000D01*
X119044605Y-99203000D02*
X118997394Y-99203000D01*
X119474750Y-99203000D02*
X119486000Y-99203000D01*
X118997394Y-99203000D02*
X118969526Y-99203000D01*
X119168868Y-99203000D02*
X119113131Y-99203000D01*
X119594750Y-99203000D02*
X119587250Y-99203000D01*
X119546000Y-99203000D02*
X119516000Y-99203000D01*
X118476244Y-99203000D02*
X118500342Y-99203000D01*
X118628868Y-99203000D02*
X118564605Y-99203000D01*
X118757394Y-99203000D02*
X118770183Y-99203000D01*
X119437250Y-99203000D02*
X119399750Y-99203000D01*
X119621000Y-99203000D02*
X119617250Y-99203000D01*
X119474750Y-99203000D02*
X119467250Y-99203000D01*
X121258786Y-98045214D02*
G75*
G03*
X121315009Y-97909500I-135686J135714D01*
G01*
X118403949Y-100203000D02*
G75*
G02*
X118107015Y-100079985I51J420000D01*
G01*
X119621000Y-99203000D02*
G75*
G03*
X120440407Y-98863583I0J1158800D01*
G01*
X117984000Y-99622948D02*
G75*
G02*
X118106986Y-99325986I419900J48D01*
G01*
X117984000Y-99783051D02*
G75*
G03*
X118107015Y-100079985I420000J51D01*
G01*
X118107000Y-99326000D02*
G75*
G02*
X118403949Y-99203020I296900J-296900D01*
G01*
D10*
X158751000Y-103157000D02*
X158370000Y-102776000D01*
D36*
X129635000Y-103800000D02*
X129668000Y-103767000D01*
D37*
X129283500Y-103833000D02*
X129809331Y-103833000D01*
D10*
X157192544Y-93191543D02*
X157315001Y-93313999D01*
X156641000Y-91860000D02*
X156641000Y-91080000D01*
D36*
X129555331Y-103833000D02*
X129283500Y-103833000D01*
D10*
X157989000Y-101856184D02*
X157989000Y-94941179D01*
D37*
X129922000Y-103767000D02*
X129889000Y-103800000D01*
D36*
X129635000Y-103800000D02*
G75*
G02*
X129555331Y-103833013I-79700J79700D01*
G01*
D37*
X129283500Y-103833000D02*
X129283500Y-103833000D01*
D10*
X156641000Y-91860000D02*
G75*
G03*
X157192541Y-93191546I1883100J0D01*
G01*
X157989000Y-94941179D02*
G75*
G03*
X157314994Y-93314006I-2301200J-21D01*
G01*
X157989000Y-101856184D02*
G75*
G03*
X158369995Y-102776005I1300800J-16D01*
G01*
D37*
X129809331Y-103833000D02*
G75*
G03*
X129888991Y-103799991I-31J112700D01*
G01*
D36*
X156210250Y-108580000D02*
X156641000Y-108580000D01*
X138078172Y-109863000D02*
X124888224Y-109863000D01*
X117779000Y-108212000D02*
X117271000Y-107704000D01*
X118738046Y-106236954D02*
X117271000Y-107704000D01*
X120347250Y-105570400D02*
X121289900Y-105570400D01*
X142847829Y-109863000D02*
X153589282Y-109863000D01*
X119005421Y-108720000D02*
X122128777Y-108720000D01*
X155138000Y-109221500D02*
X155474914Y-108884586D01*
X139764500Y-110561500D02*
G75*
G03*
X138078172Y-109863012I-1686300J-1686300D01*
G01*
X139764500Y-110561500D02*
G75*
G03*
X141161500Y-110561500I698500J698501D01*
G01*
X155474914Y-108884586D02*
G75*
G02*
X156210250Y-108580029I735286J-735314D01*
G01*
X155138000Y-109221500D02*
G75*
G02*
X153589282Y-109862993I-1548700J1548700D01*
G01*
X118738046Y-106236954D02*
G75*
G02*
X120347250Y-105570448I1609154J-1609246D01*
G01*
X122128777Y-108720000D02*
G75*
G02*
X123508507Y-109291493I23J-1951200D01*
G01*
X117779000Y-108212000D02*
G75*
G03*
X119005421Y-108719992I1226400J1226400D01*
G01*
X142847829Y-109863000D02*
G75*
G03*
X141161492Y-110561492I-29J-2384800D01*
G01*
X124888224Y-109863000D02*
G75*
G02*
X123508493Y-109291507I-24J1951200D01*
G01*
D35*
X169341000Y-109119000D02*
X169341000Y-108580000D01*
X169722131Y-110039130D02*
X170943000Y-111260000D01*
X169341000Y-109119000D02*
G75*
G03*
X169722122Y-110039139I1301300J0D01*
G01*
D10*
X157911000Y-92484474D02*
X157911000Y-91080000D01*
X158497000Y-93899203D02*
X158497000Y-100842952D01*
X159373500Y-103866500D02*
X159346000Y-103894000D01*
D37*
X129922000Y-105799000D02*
X129889000Y-105766000D01*
D10*
X159401000Y-103800109D02*
X159401000Y-102953371D01*
X159303718Y-102790476D02*
X159354603Y-102841360D01*
D37*
X129809331Y-105733000D02*
X128965000Y-105733000D01*
D10*
X158497000Y-100842952D02*
G75*
G03*
X159303704Y-102790490I2754100J-48D01*
G01*
X159401000Y-102953371D02*
G75*
G03*
X159354587Y-102841376I-158400J-29D01*
G01*
X159373500Y-103866500D02*
G75*
G03*
X159401004Y-103800109I-66400J66400D01*
G01*
X158204000Y-93191839D02*
G75*
G02*
X158496987Y-93899203I-707400J-707361D01*
G01*
X158204000Y-93191839D02*
G75*
G02*
X157911028Y-92484474I707400J707339D01*
G01*
D37*
X129809331Y-105733000D02*
G75*
G02*
X129888991Y-105766009I-31J-112700D01*
G01*
D35*
X168071000Y-110693240D02*
X168071000Y-108580000D01*
X168237000Y-111094000D02*
X168403000Y-111260000D01*
X168237000Y-111094000D02*
G75*
G02*
X168070983Y-110693240I400800J400800D01*
G01*
X139537977Y-97253976D02*
X138307339Y-96023338D01*
X129875000Y-95930000D02*
X129487000Y-96318000D01*
D36*
X143996525Y-95461200D02*
X144046350Y-95461200D01*
D35*
X120136407Y-103149406D02*
X120140000Y-103145813D01*
X137321232Y-96558768D02*
X137856662Y-96023338D01*
X129487000Y-96318000D02*
X129487000Y-97798000D01*
D38*
X173317000Y-111094000D02*
X173483000Y-111260000D01*
D35*
X140200000Y-103954450D02*
X140200000Y-103463599D01*
X120143000Y-96782000D02*
X120128500Y-96767500D01*
D36*
X145009600Y-105508516D02*
X145009600Y-96935457D01*
X144577801Y-95892999D02*
X144216464Y-95531663D01*
D38*
X173151000Y-110693240D02*
X173151000Y-108580000D01*
D36*
X144478150Y-106791550D02*
X143946700Y-107323000D01*
D35*
X136556250Y-98373750D02*
X136578769Y-98351231D01*
X120127732Y-103153000D02*
X119141000Y-103153000D01*
X139833967Y-104838133D02*
X139127100Y-105545000D01*
X120093494Y-96753000D02*
X119141000Y-96753000D01*
X136162500Y-99657407D02*
X136162500Y-99324346D01*
X144388350Y-95019550D02*
X143981932Y-95425968D01*
X140162100Y-103372100D02*
X140162100Y-97647550D01*
X144830000Y-93953312D02*
X144830000Y-92718000D01*
X120093494Y-96753000D02*
G75*
G02*
X120128502Y-96767498I6J-49500D01*
G01*
X136162500Y-99657407D02*
G75*
G02*
X135709248Y-100751648I-1547500J7D01*
G01*
X140181050Y-103417850D02*
G75*
G02*
X140162100Y-103372100I45750J45750D01*
G01*
X120136407Y-103149406D02*
G75*
G02*
X120127732Y-103153013I-8707J8706D01*
G01*
X139537977Y-97253976D02*
G75*
G03*
X139931550Y-97417034I393623J393576D01*
G01*
D36*
X144577801Y-95892999D02*
G75*
G02*
X145009619Y-96935457I-1042501J-1042501D01*
G01*
D35*
X143996525Y-95461200D02*
G75*
G02*
X143981966Y-95426002I-25J20600D01*
G01*
X138082000Y-95930000D02*
G75*
G03*
X137856657Y-96023333I0J-318700D01*
G01*
X144388350Y-95019550D02*
G75*
G03*
X144830005Y-93953312I-1066250J1066250D01*
G01*
X139931550Y-97417000D02*
G75*
G02*
X140162100Y-97647550I50J-230500D01*
G01*
X140181050Y-103417850D02*
G75*
G02*
X140200000Y-103463599I-45750J-45750D01*
G01*
X136950000Y-97455000D02*
G75*
G02*
X136578777Y-98351239I-1267500J0D01*
G01*
X137321232Y-96558768D02*
G75*
G03*
X136950011Y-97455000I896268J-896232D01*
G01*
D38*
X173317000Y-111094000D02*
G75*
G02*
X173150983Y-110693240I400800J400800D01*
G01*
D35*
X140200000Y-103954450D02*
G75*
G02*
X139833988Y-104838154I-1249700J-50D01*
G01*
X136556250Y-98373750D02*
G75*
G03*
X136162549Y-99324346I950650J-950550D01*
G01*
X138082000Y-95930000D02*
G75*
G02*
X138307343Y-96023334I0J-318700D01*
G01*
D36*
X145009600Y-105508516D02*
G75*
G02*
X144478145Y-106791545I-1814500J16D01*
G01*
X144046350Y-95461200D02*
G75*
G02*
X144216493Y-95531634I50J-240600D01*
G01*
X142218532Y-97398432D02*
X142218350Y-97398250D01*
X142239653Y-97419552D02*
X142239921Y-97419820D01*
X142238780Y-97418678D02*
X142238982Y-97418880D01*
X142231261Y-97411161D02*
X142231724Y-97411624D01*
X142240795Y-97420695D02*
X142240593Y-97420493D01*
X142222033Y-97401933D02*
X142221693Y-97401593D01*
X142223780Y-97403680D02*
X142225867Y-97405767D01*
X142236025Y-97415924D02*
X142236764Y-97416663D01*
X142226267Y-97406167D02*
X142227555Y-97407455D01*
X142230839Y-97410739D02*
X142231220Y-97411120D01*
X142240795Y-97420695D02*
X142240929Y-97420829D01*
X145870000Y-91194000D02*
X145806500Y-91257500D01*
X142223780Y-97403680D02*
X142222971Y-97402871D01*
D35*
X142245700Y-97425600D02*
X142237100Y-97417000D01*
X143984200Y-97425600D02*
X142245700Y-97425600D01*
D36*
X142238376Y-97418275D02*
X142238106Y-97418005D01*
X142230458Y-97410358D02*
X142230839Y-97410739D01*
X159181000Y-91754470D02*
X159181000Y-91080000D01*
X142230458Y-97410358D02*
X142230036Y-97409936D01*
X143203000Y-92405012D02*
X143203000Y-93748289D01*
X142240929Y-97420829D02*
X142241063Y-97420963D01*
X142238376Y-97418275D02*
X142238780Y-97418678D01*
X142239519Y-97419418D02*
X142239653Y-97419552D01*
X142236764Y-97416663D02*
X142237435Y-97417334D01*
X142228811Y-97408711D02*
X142230036Y-97409936D01*
X142233875Y-97413775D02*
X142233222Y-97413122D01*
X142227586Y-97407486D02*
X142228811Y-97408711D01*
X142218532Y-97398432D02*
X142218897Y-97398797D01*
X142232378Y-97412278D02*
X142233222Y-97413122D01*
X142251782Y-97425600D02*
X143984200Y-97425600D01*
X142241197Y-97421097D02*
X142241063Y-97420963D01*
X142701300Y-94959500D02*
X142450450Y-95210350D01*
X142219707Y-97399607D02*
X142220229Y-97400128D01*
X142219185Y-97399085D02*
X142219707Y-97399607D01*
X142231724Y-97411624D02*
X142232187Y-97412087D01*
X142232187Y-97412087D02*
X142232378Y-97412278D01*
X142220544Y-97400443D02*
X142221693Y-97401593D01*
X142222502Y-97402402D02*
X142222971Y-97402871D01*
X142233875Y-97413775D02*
X142236025Y-97415924D01*
D35*
X142237100Y-95498700D02*
X142199600Y-95461200D01*
D36*
X142220229Y-97400128D02*
X142220544Y-97400443D01*
X143965552Y-89977448D02*
X145453198Y-88489802D01*
X142225867Y-97405767D02*
X142226267Y-97406167D01*
X142222033Y-97401933D02*
X142222502Y-97402402D01*
X142218897Y-97398797D02*
X142219185Y-97399085D01*
X158642002Y-92674598D02*
X158911501Y-92405099D01*
X144287012Y-91321000D02*
X145653197Y-91321000D01*
X142240056Y-97419955D02*
X142239921Y-97419820D01*
X142237435Y-97417334D02*
X142238106Y-97418005D01*
X142240056Y-97419955D02*
X142240593Y-97420493D01*
X142241400Y-97421300D02*
X142241332Y-97421232D01*
X142199600Y-97352983D02*
X142199600Y-95815955D01*
X145543000Y-88527000D02*
X145543000Y-88654000D01*
D35*
X142237100Y-97417000D02*
X142237100Y-95498700D01*
D36*
X142227555Y-97407455D02*
X142227586Y-97407486D01*
X142231220Y-97411120D02*
X142231261Y-97411161D01*
X142241197Y-97421097D02*
X142241332Y-97421232D01*
X145543000Y-88527000D02*
G75*
G03*
X145453204Y-88489808I-52600J0D01*
G01*
X143520500Y-91638500D02*
G75*
G02*
X144287012Y-91321005I766500J-766500D01*
G01*
X143203000Y-93748289D02*
G75*
G02*
X142701303Y-94959503I-1712900J-11D01*
G01*
X142199600Y-97352983D02*
G75*
G03*
X142218345Y-97398255I64000J-17D01*
G01*
X145653197Y-91321000D02*
G75*
G03*
X145806501Y-91257501I3J216800D01*
G01*
X158911501Y-92405099D02*
G75*
G03*
X159180987Y-91754470I-650601J650599D01*
G01*
X143520500Y-91638500D02*
G75*
G03*
X143203005Y-92405012I766500J-766500D01*
G01*
X142251782Y-97425600D02*
G75*
G02*
X142241406Y-97421294I18J14700D01*
G01*
X142450450Y-95210350D02*
G75*
G03*
X142199552Y-95815955I605550J-605650D01*
G01*
X142239519Y-97419418D02*
G75*
G02*
X142238982Y-97418880I144181J144418D01*
G01*
X141430000Y-92933000D02*
X141430000Y-92718000D01*
X141277973Y-93300027D02*
X140582428Y-93995572D01*
X140199600Y-94919800D02*
X140199600Y-95461200D01*
X140582428Y-93995572D02*
G75*
G03*
X140199613Y-94919800I924272J-924228D01*
G01*
X141430000Y-92933000D02*
G75*
G02*
X141277982Y-93300036I-519100J0D01*
G01*
X136526000Y-103429360D02*
X136526000Y-106561000D01*
X136551400Y-103386000D02*
X136538700Y-103398700D01*
X156169300Y-103005000D02*
X155391000Y-103005000D01*
X157497942Y-103555341D02*
X158547800Y-104605200D01*
X146051000Y-101522400D02*
X145984200Y-101455600D01*
X136526000Y-103429360D02*
G75*
G02*
X136538712Y-103398712I43400J-40D01*
G01*
X157497942Y-103555341D02*
G75*
G03*
X156169300Y-103005004I-1328642J-1328659D01*
G01*
X157735000Y-107271718D02*
X157735000Y-108279549D01*
X158546899Y-106169102D02*
X158463899Y-106169102D01*
X158057949Y-106492051D02*
X158322208Y-106227792D01*
X157823000Y-108492000D02*
X157911000Y-108580000D01*
X158057949Y-106492051D02*
G75*
G03*
X157735008Y-107271718I779651J-779649D01*
G01*
X158463899Y-106169102D02*
G75*
G03*
X158322205Y-106227789I1J-200398D01*
G01*
X157823000Y-108492000D02*
G75*
G02*
X157734980Y-108279549I212500J212500D01*
G01*
X159181000Y-108021947D02*
X159181000Y-108580000D01*
X158621045Y-107066045D02*
X158901023Y-107346022D01*
X158901023Y-107346022D02*
G75*
G02*
X159180968Y-108021947I-675923J-675878D01*
G01*
X168072800Y-92921200D02*
X168072800Y-91085200D01*
X169341000Y-91080000D02*
X169341000Y-90500000D01*
X169342800Y-92921200D02*
X169342800Y-91085200D01*
X157227000Y-97544000D02*
X156669535Y-98101465D01*
X156489930Y-98535070D02*
X155985210Y-99039790D01*
X155610500Y-99195000D02*
X155391000Y-99195000D01*
X155610500Y-99195000D02*
G75*
G03*
X155985206Y-99039786I0J529900D01*
G01*
X156579732Y-98318268D02*
G75*
G02*
X156489952Y-98535092I-306632J-32D01*
G01*
X156579732Y-98318268D02*
G75*
G02*
X156669559Y-98101489I306568J-32D01*
G01*
X156849299Y-98953097D02*
X157120271Y-98682125D01*
X156552000Y-99670839D02*
X156552000Y-99882876D01*
X157221061Y-98655799D02*
X157183829Y-98655799D01*
X155969877Y-100465000D02*
X155391000Y-100465000D01*
X157183829Y-98655799D02*
G75*
G03*
X157120253Y-98682107I-29J-89901D01*
G01*
X156552000Y-99670839D02*
G75*
G02*
X156849288Y-98953086I1015000J39D01*
G01*
X156381500Y-100294500D02*
G75*
G02*
X155969877Y-100464990I-411600J411600D01*
G01*
X156381500Y-100294500D02*
G75*
G03*
X156551990Y-99882876I-411600J411600D01*
G01*
X155737500Y-96655000D02*
X155391000Y-96655000D01*
X156329013Y-96409987D02*
X157227000Y-95512000D01*
X156329013Y-96409987D02*
G75*
G02*
X155737500Y-96655007I-591513J591487D01*
G01*
D35*
X142002100Y-107653200D02*
X141341700Y-108313600D01*
X142002100Y-107653200D02*
X142002100Y-105545000D01*
X171869200Y-94484200D02*
X171857400Y-94496000D01*
X127102500Y-97880000D02*
X127092750Y-97880000D01*
X146865364Y-99755363D02*
X146914601Y-99804599D01*
X145386700Y-107958000D02*
X146015650Y-107329050D01*
X133862500Y-106598400D02*
X134641806Y-107377705D01*
X135075000Y-95930000D02*
X135075000Y-97638578D01*
X128779000Y-107831000D02*
X128652000Y-107958000D01*
X146021700Y-95905183D02*
X146021700Y-95461200D01*
D36*
X145984200Y-99525200D02*
X146003000Y-99506400D01*
D35*
X146211556Y-105367200D02*
X146413511Y-105367200D01*
X136217295Y-108030294D02*
X136526000Y-108339000D01*
X133862500Y-106598400D02*
X133862500Y-101014345D01*
X145984200Y-95995716D02*
X145984200Y-97425600D01*
X146009600Y-105569155D02*
X146009600Y-107302344D01*
X142002100Y-107653200D02*
X141987000Y-107668300D01*
X127912647Y-96946553D02*
X127035800Y-97823400D01*
X169233500Y-100447500D02*
X169886000Y-99795000D01*
X171881000Y-94455712D02*
X171881000Y-91080000D01*
X134875000Y-98121421D02*
X134875000Y-98632950D01*
X142472000Y-108123100D02*
X142002100Y-107653200D01*
X147194000Y-104586710D02*
X147194000Y-100479131D01*
X159744000Y-100615000D02*
X159259000Y-100130000D01*
X127076106Y-97873105D02*
X126747000Y-97544000D01*
X133862500Y-106598400D02*
X133309700Y-107151200D01*
X145984200Y-99525200D02*
X145984200Y-97457693D01*
X145993600Y-97435000D02*
X146003000Y-97425600D01*
X139747354Y-108974000D02*
X138059026Y-108974000D01*
X134358000Y-95213000D02*
X135075000Y-95930000D01*
X143853675Y-108593000D02*
X143606439Y-108593000D01*
X145984200Y-99525200D02*
X146309700Y-99525200D01*
X127102500Y-97880000D02*
X127102500Y-97988503D01*
X129085606Y-107704000D02*
X131975123Y-107704000D01*
X134368750Y-99792150D02*
X134413295Y-99747605D01*
X127102500Y-97880000D02*
X127255000Y-98032500D01*
X128629354Y-95216268D02*
X128810311Y-95035311D01*
X160914894Y-101100000D02*
X167658226Y-101100000D01*
X132627009Y-94496000D02*
X130112323Y-94496000D01*
X142472000Y-108123100D02*
G75*
G03*
X143606439Y-108592955I1134400J1134500D01*
G01*
X145984200Y-95995716D02*
G75*
G02*
X146002945Y-95950445I64000J16D01*
G01*
X145386700Y-107958000D02*
G75*
G02*
X143853675Y-108592989I-1533000J1533000D01*
G01*
X134368750Y-99792150D02*
G75*
G03*
X133862548Y-101014345I1222250J-1222150D01*
G01*
X146413511Y-105367200D02*
G75*
G03*
X146965397Y-105138597I-11J780500D01*
G01*
X146211556Y-105367200D02*
G75*
G03*
X146009600Y-105569155I44J-202000D01*
G01*
X146021700Y-95905183D02*
G75*
G02*
X146002955Y-95950455I-64000J-17D01*
G01*
X145993600Y-97435000D02*
G75*
G03*
X145984197Y-97457693I22700J-22700D01*
G01*
X136526000Y-108339000D02*
G75*
G03*
X138059026Y-108973989I1533000J1533000D01*
G01*
X171881000Y-94455712D02*
G75*
G02*
X171869196Y-94484196I-40300J12D01*
G01*
X147194000Y-100479131D02*
G75*
G03*
X146914609Y-99804591I-953900J31D01*
G01*
X131975123Y-107704000D02*
G75*
G03*
X133309693Y-107151193I-23J1887400D01*
G01*
X128810311Y-95035311D02*
G75*
G02*
X130112323Y-94496009I1301989J-1301989D01*
G01*
X169233500Y-100447500D02*
G75*
G02*
X167658226Y-101100011I-1575300J1575300D01*
G01*
X146015650Y-107316950D02*
G75*
G02*
X146009582Y-107302344I14650J14650D01*
G01*
X128629354Y-95216268D02*
G75*
G03*
X128271009Y-96081411I865146J-865132D01*
G01*
X134875000Y-98632950D02*
G75*
G02*
X134413328Y-99747638I-1576400J-50D01*
G01*
X128779000Y-107831000D02*
G75*
G02*
X129085606Y-107704002I306600J-306600D01*
G01*
X147194000Y-104586710D02*
G75*
G02*
X146965397Y-105138597I-780500J10D01*
G01*
X139747354Y-108974000D02*
G75*
G03*
X141341734Y-108313634I46J2254800D01*
G01*
X128271000Y-96081411D02*
G75*
G02*
X127912642Y-96946548I-1223500J11D01*
G01*
X134358000Y-95213000D02*
G75*
G03*
X132627009Y-94495996I-1731000J-1731000D01*
G01*
X134875000Y-98121421D02*
G75*
G02*
X134974994Y-97879994I341400J21D01*
G01*
X146865364Y-99755363D02*
G75*
G03*
X146309700Y-99525192I-555664J-555637D01*
G01*
X136217295Y-108030294D02*
G75*
G03*
X135429550Y-107704023I-787695J-787706D01*
G01*
X135075000Y-97638578D02*
G75*
G02*
X134975006Y-97880006I-341400J-22D01*
G01*
X134641806Y-107377705D02*
G75*
G03*
X135429550Y-107704046I787794J787705D01*
G01*
X159744000Y-100615000D02*
G75*
G03*
X160914894Y-101100003I1170900J1170900D01*
G01*
X127076106Y-97873105D02*
G75*
G03*
X127092750Y-97880046I16694J16605D01*
G01*
X146015650Y-107316950D02*
G75*
G02*
X146015650Y-107329050I-6050J-6050D01*
G01*
D36*
X166802800Y-92921200D02*
X166802800Y-91085200D01*
X157227000Y-96528000D02*
X155985210Y-97769790D01*
X155610500Y-97925000D02*
X155391000Y-97925000D01*
X155985210Y-97769790D02*
G75*
G02*
X155610500Y-97925006I-374710J374690D01*
G01*
X161052408Y-103513000D02*
X167312573Y-103513000D01*
X165562002Y-92921200D02*
X165547401Y-92906599D01*
X165532800Y-92871349D02*
X165532800Y-91085200D01*
X169860600Y-102020400D02*
X169114300Y-102766700D01*
X160592500Y-103703500D02*
X160402000Y-103894000D01*
X161052408Y-103513000D02*
G75*
G03*
X160592498Y-103703498I-8J-650400D01*
G01*
X165532800Y-92871349D02*
G75*
G03*
X165547415Y-92906585I49900J49D01*
G01*
X167312573Y-103513000D02*
G75*
G03*
X169114308Y-102766708I27J2548000D01*
G01*
D35*
X131162678Y-100298400D02*
X131029404Y-100298400D01*
X132950000Y-98512087D02*
X132950000Y-98121421D01*
X127255000Y-105867012D02*
X127255000Y-105948330D01*
X131162678Y-100298400D02*
X131207450Y-100298400D01*
X131742894Y-100251280D02*
X132573758Y-99420416D01*
X131501069Y-100298400D02*
X131512522Y-100298400D01*
X131545841Y-100298400D02*
X131512522Y-100298400D01*
X131441720Y-100298400D02*
X131433390Y-100298400D01*
X132750000Y-97638578D02*
X132750000Y-95930000D01*
X131383413Y-100298400D02*
X131400072Y-100298400D01*
X131466710Y-100298400D02*
X131469834Y-100298400D01*
X131616642Y-100298400D02*
X131608313Y-100298400D01*
X131471916Y-100298400D02*
X131469834Y-100298400D01*
X127572500Y-105100500D02*
X127890000Y-104783000D01*
X131458380Y-100298400D02*
X131450050Y-100298400D01*
X131416730Y-100298400D02*
X131408401Y-100298400D01*
X126880001Y-106853659D02*
X126150660Y-107583000D01*
X131588530Y-100298400D02*
X131591654Y-100298400D01*
X131466710Y-100298400D02*
X131458380Y-100298400D01*
X131628095Y-100298400D02*
X131626012Y-100298400D01*
X127693950Y-102300950D02*
X128132900Y-101862000D01*
X131623930Y-100298400D02*
X131626012Y-100298400D01*
X131623930Y-100298400D02*
X131621848Y-100298400D01*
X127255000Y-103698987D02*
X127255000Y-103360669D01*
X131567707Y-100298400D02*
X131557295Y-100298400D01*
X131473998Y-100298400D02*
X131471916Y-100298400D01*
X131501069Y-100298400D02*
X131490657Y-100298400D01*
X131433390Y-100298400D02*
X131416730Y-100298400D01*
X131557295Y-100298400D02*
X131545841Y-100298400D01*
X131383413Y-100298400D02*
X131341765Y-100298400D01*
X131588530Y-100298400D02*
X131586448Y-100298400D01*
X131294910Y-100298400D02*
X131251180Y-100298400D01*
X127572500Y-104465500D02*
X127890000Y-104783000D01*
X131317816Y-100298400D02*
X131294910Y-100298400D01*
X131586448Y-100298400D02*
X131584366Y-100298400D01*
X125245330Y-107958000D02*
X124715000Y-107958000D01*
X131578119Y-100298400D02*
X131567707Y-100298400D01*
X131480245Y-100298400D02*
X131473998Y-100298400D01*
X131490657Y-100298400D02*
X131480245Y-100298400D01*
X131608313Y-100298400D02*
X131599984Y-100298400D01*
X129036770Y-100958130D02*
X128132900Y-101862000D01*
X131599984Y-100298400D02*
X131591654Y-100298400D01*
X127124100Y-100303500D02*
X127124100Y-99753800D01*
X127890000Y-104783000D02*
X128965000Y-104783000D01*
X131628095Y-100298400D02*
X131629137Y-100298400D01*
X131450050Y-100298400D02*
X131441720Y-100298400D01*
X131029404Y-100298400D02*
X130629500Y-100298400D01*
X131251180Y-100298400D02*
X131207450Y-100298400D01*
X127512797Y-101241896D02*
X128132900Y-101862000D01*
X131619766Y-100298400D02*
X131616642Y-100298400D01*
X131621848Y-100298400D02*
X131619766Y-100298400D01*
X131319899Y-100298400D02*
X131317816Y-100298400D01*
X131584366Y-100298400D02*
X131578119Y-100298400D01*
X131321982Y-100298400D02*
X131319899Y-100298400D01*
X131341765Y-100298400D02*
X131321982Y-100298400D01*
X131408401Y-100298400D02*
X131400072Y-100298400D01*
X127572500Y-105100500D02*
G75*
G03*
X127255005Y-105867012I766500J-766500D01*
G01*
X132750000Y-97638578D02*
G75*
G03*
X132849994Y-97880006I341400J-22D01*
G01*
X126880001Y-106853659D02*
G75*
G03*
X127255030Y-105948330I-905301J905359D01*
G01*
X132850000Y-97880000D02*
G75*
G02*
X132949991Y-98121421I-241400J-241400D01*
G01*
X125245330Y-107958000D02*
G75*
G03*
X126150639Y-107582979I-30J1280300D01*
G01*
X131742894Y-100251280D02*
G75*
G02*
X131629137Y-100298419I-113794J113780D01*
G01*
X127512797Y-101241896D02*
G75*
G02*
X127124103Y-100303500I938403J938396D01*
G01*
X130629500Y-100298400D02*
G75*
G03*
X129036762Y-100958122I0J-2252500D01*
G01*
X132950000Y-98512087D02*
G75*
G02*
X132573770Y-99420428I-1284600J-13D01*
G01*
X127572500Y-104465500D02*
G75*
G02*
X127255005Y-103698987I766500J766500D01*
G01*
X127693950Y-102300950D02*
G75*
G03*
X127254987Y-103360669I1059750J-1059750D01*
G01*
D36*
X124954670Y-103833000D02*
X125545000Y-103833000D01*
X124842000Y-103767000D02*
X124875000Y-103800000D01*
X124875000Y-103800000D02*
G75*
G03*
X124954670Y-103833013I79700J79700D01*
G01*
X166802800Y-106611800D02*
X166802800Y-108574800D01*
X161672000Y-106557500D02*
X161672000Y-106434000D01*
X162992800Y-108288300D02*
X162992800Y-108574800D01*
X162790214Y-107799213D02*
X161759328Y-106768327D01*
X161672000Y-106557500D02*
G75*
G03*
X161759318Y-106768337I298200J0D01*
G01*
X162790214Y-107799213D02*
G75*
G02*
X162992793Y-108288300I-489114J-489087D01*
G01*
X155864500Y-95385000D02*
X155391000Y-95385000D01*
X156672816Y-95050184D02*
X157227000Y-94496000D01*
X155864500Y-95385000D02*
G75*
G03*
X156672810Y-95050178I0J1143100D01*
G01*
X162992800Y-91749200D02*
X162992800Y-91085200D01*
X161291000Y-94115000D02*
X162523282Y-92882718D01*
X162992800Y-91749200D02*
G75*
G02*
X162523274Y-92882710I-1603000J0D01*
G01*
X161163479Y-93226521D02*
X160275000Y-94115000D01*
X161722800Y-91876200D02*
X161722800Y-91085200D01*
X161722800Y-91876200D02*
G75*
G02*
X161163470Y-93226512I-1909600J0D01*
G01*
X160452800Y-107821536D02*
X160452800Y-108574800D01*
X160046400Y-106840400D02*
X159640000Y-106434000D01*
X160046400Y-106840400D02*
G75*
G02*
X160452785Y-107821536I-981100J-981100D01*
G01*
X155487305Y-105448695D02*
X155391000Y-105545000D01*
X157791935Y-105352391D02*
X155719805Y-105352391D01*
X155487305Y-105448695D02*
G75*
G02*
X155719805Y-105352395I232495J-232505D01*
G01*
X162307000Y-94115000D02*
X162319700Y-94127700D01*
X162350361Y-94140400D02*
X162459400Y-94140400D01*
X163878809Y-92543191D02*
X162307000Y-94115000D01*
X164261000Y-91620500D02*
X164261000Y-91080000D01*
X162350361Y-94140400D02*
G75*
G02*
X162319712Y-94127688I39J43400D01*
G01*
X163878809Y-92543191D02*
G75*
G03*
X164260995Y-91620500I-922709J922691D01*
G01*
X155297605Y-106839395D02*
X155195000Y-106942000D01*
X155483719Y-106815000D02*
X155475094Y-106815000D01*
X155436820Y-106815000D02*
X155433586Y-106815000D01*
X155515523Y-106815000D02*
X155505281Y-106815000D01*
X155377523Y-106815000D02*
X155375906Y-106815000D01*
X155470782Y-106815000D02*
X155466470Y-106815000D01*
X155438974Y-106815000D02*
X155437897Y-106815000D01*
X155371594Y-106815000D02*
X155367282Y-106815000D01*
X155449218Y-106815000D02*
X155444905Y-106815000D01*
X155428195Y-106815000D02*
X155422804Y-106815000D01*
X155437897Y-106815000D02*
X155436820Y-106815000D01*
X155516601Y-106815000D02*
X155515523Y-106815000D01*
X155422804Y-106815000D02*
X155416875Y-106815000D01*
X155667000Y-106815000D02*
X155598000Y-106815000D01*
X155457844Y-106815000D02*
X155453531Y-106815000D01*
X155574820Y-106815000D02*
X155598000Y-106815000D01*
X155399625Y-106815000D02*
X155393695Y-106815000D01*
X155475094Y-106815000D02*
X155470782Y-106815000D01*
X155440592Y-106815000D02*
X155438974Y-106815000D01*
X155928000Y-106815000D02*
X155667000Y-106815000D01*
X155379679Y-106815000D02*
X155378601Y-106815000D01*
X155378601Y-106815000D02*
X155377523Y-106815000D01*
X155393695Y-106815000D02*
X155388304Y-106815000D01*
X155357039Y-106815000D02*
X155356500Y-106815000D01*
X155552179Y-106815000D02*
X155529538Y-106815000D01*
X155517679Y-106815000D02*
X155516601Y-106815000D01*
X155453531Y-106815000D02*
X155449218Y-106815000D01*
X155505281Y-106815000D02*
X155483719Y-106815000D01*
X155379679Y-106815000D02*
X155382913Y-106815000D01*
X155359195Y-106815000D02*
X155358117Y-106815000D01*
X155361351Y-106815000D02*
X155360273Y-106815000D01*
X155529538Y-106815000D02*
X155517679Y-106815000D01*
X155433586Y-106815000D02*
X155428195Y-106815000D01*
X155574820Y-106815000D02*
X155552179Y-106815000D01*
X155375906Y-106815000D02*
X155371594Y-106815000D01*
X155360273Y-106815000D02*
X155359195Y-106815000D01*
X155367282Y-106815000D02*
X155362970Y-106815000D01*
X155457844Y-106815000D02*
X155466470Y-106815000D01*
X155416875Y-106815000D02*
X155399625Y-106815000D01*
X155444905Y-106815000D02*
X155440592Y-106815000D01*
X155362970Y-106815000D02*
X155361351Y-106815000D01*
X155358117Y-106815000D02*
X155357039Y-106815000D01*
X155388304Y-106815000D02*
X155382913Y-106815000D01*
X156844717Y-106435283D02*
X157227000Y-106053000D01*
X155297605Y-106839395D02*
G75*
G02*
X155356500Y-106815003I58895J-58905D01*
G01*
X156844717Y-106435283D02*
G75*
G02*
X155928000Y-106815010I-916717J916683D01*
G01*
X164262800Y-107961600D02*
X164262800Y-108574800D01*
X162459400Y-105545000D02*
X163829203Y-106914802D01*
X164262800Y-107961600D02*
G75*
G03*
X163829203Y-106914802I-1480400J0D01*
G01*
X165558200Y-108533566D02*
X165558200Y-106694490D01*
X165544600Y-108566400D02*
X165531000Y-108580000D01*
X165560101Y-106689901D02*
X165562002Y-106688000D01*
X165558200Y-108533566D02*
G75*
G02*
X165544610Y-108566410I-46400J-34D01*
G01*
X165560101Y-106689901D02*
G75*
G03*
X165558196Y-106694490I4599J-4599D01*
G01*
X160452800Y-91711100D02*
X160452800Y-91085200D01*
X160010222Y-92779578D02*
X159360600Y-93429200D01*
X160010222Y-92779578D02*
G75*
G03*
X160452787Y-91711100I-1068522J1068478D01*
G01*
X170460400Y-108422400D02*
X170612800Y-108574800D01*
X170308000Y-106561000D02*
X170308000Y-108054473D01*
X170308000Y-108054473D02*
G75*
G03*
X170460392Y-108422408I520300J-27D01*
G01*
X161721000Y-108039500D02*
X161721000Y-108578727D01*
X161722800Y-108576927D02*
X161722800Y-108574800D01*
X160656000Y-106434000D02*
X161338809Y-107116808D01*
X161721900Y-108579100D02*
G75*
G02*
X161720935Y-108578731I-400J400D01*
G01*
X161338809Y-107116808D02*
G75*
G02*
X161720996Y-108039500I-922709J-922692D01*
G01*
X161722800Y-108576927D02*
G75*
G02*
X161721892Y-108579092I-3100J27D01*
G01*
X155813700Y-101735000D02*
X155391000Y-101735000D01*
X157240648Y-99816352D02*
X157254296Y-99830000D01*
X156858810Y-101112590D02*
X156535295Y-101436105D01*
X157227000Y-99703000D02*
X157227000Y-99783402D01*
X157227000Y-99703000D02*
X157227000Y-100223700D01*
X156535295Y-101436105D02*
G75*
G02*
X155813700Y-101734997I-721595J721605D01*
G01*
X156858810Y-101112590D02*
G75*
G03*
X157226994Y-100223700I-888910J888890D01*
G01*
X157227000Y-99783402D02*
G75*
G03*
X157240649Y-99816351I46600J2D01*
G01*
X124954670Y-105733000D02*
X125545000Y-105733000D01*
X123390373Y-97830000D02*
X123315000Y-97830000D01*
X124842000Y-105799000D02*
X124875000Y-105766000D01*
X123429000Y-97814000D02*
X123445000Y-97798000D01*
X123429000Y-97814000D02*
G75*
G02*
X123390373Y-97829989I-38600J38600D01*
G01*
X124875000Y-105766000D02*
G75*
G02*
X124954670Y-105732987I79700J-79700D01*
G01*
D35*
X124761852Y-101630000D02*
X123452500Y-101630000D01*
X125041900Y-101746000D02*
X125157900Y-101862000D01*
X124761852Y-101630000D02*
G75*
G02*
X125041914Y-101745986I48J-396000D01*
G01*
X118692754Y-102353000D02*
X118696182Y-102353000D01*
X118761276Y-102353000D02*
X118749856Y-102353000D01*
X119291356Y-102353000D02*
X119264504Y-102353000D01*
X119535837Y-102353000D02*
X119542102Y-102353000D01*
X119407404Y-102353000D02*
X119399051Y-102353000D01*
X119399051Y-102353000D02*
X119390698Y-102353000D01*
X119574469Y-102353000D02*
X119577602Y-102353000D01*
X118933720Y-102353000D02*
X118924584Y-102353000D01*
X119429333Y-102353000D02*
X119427246Y-102353000D01*
X119587000Y-102353000D02*
X119585955Y-102353000D01*
X119579690Y-102353000D02*
X119577602Y-102353000D01*
X118690470Y-102353000D02*
X118688186Y-102353000D01*
X119415759Y-102353000D02*
X119407404Y-102353000D01*
X118888039Y-102353000D02*
X118878903Y-102353000D01*
X119437685Y-102353000D02*
X119431420Y-102353000D01*
X118878903Y-102353000D02*
X118869765Y-102353000D01*
X119298813Y-102353000D02*
X119291356Y-102353000D01*
X121166750Y-101630000D02*
X121577500Y-101630000D01*
D36*
X117671500Y-97983500D02*
X117720522Y-97934478D01*
D35*
X118857201Y-102353000D02*
X118854918Y-102353000D01*
X118729300Y-102353000D02*
X118727016Y-102353000D01*
X120465556Y-101920444D02*
X120348370Y-102037630D01*
X119340579Y-102353000D02*
X119298813Y-102353000D01*
X119073703Y-102353000D02*
X119038242Y-102353000D01*
X118897175Y-102353000D02*
X118915448Y-102353000D01*
X118845784Y-102353000D02*
X118834364Y-102353000D01*
X118723590Y-102353000D02*
X118714454Y-102353000D01*
X119544190Y-102353000D02*
X119542102Y-102353000D01*
X118731584Y-102353000D02*
X118729300Y-102353000D01*
X119424113Y-102353000D02*
X119415759Y-102353000D01*
X118714454Y-102353000D02*
X118705318Y-102353000D01*
X118692754Y-102353000D02*
X118690470Y-102353000D01*
X119470054Y-102353000D02*
X119458569Y-102353000D01*
X118852635Y-102353000D02*
X118845784Y-102353000D01*
X119557763Y-102353000D02*
X119549410Y-102353000D01*
X118685902Y-102353000D02*
X118688186Y-102353000D01*
D36*
X118683618Y-102353000D02*
X118682476Y-102353000D01*
D35*
X119503467Y-102353000D02*
X119514953Y-102353000D01*
X118933720Y-102353000D02*
X118951992Y-102353000D01*
X119448127Y-102353000D02*
X119437685Y-102353000D01*
X119546278Y-102353000D02*
X119549410Y-102353000D01*
X119581778Y-102353000D02*
X119579690Y-102353000D01*
X118924584Y-102353000D02*
X118915448Y-102353000D01*
X119264504Y-102353000D02*
X119237652Y-102353000D01*
X118997672Y-102353000D02*
X118951992Y-102353000D01*
X118869765Y-102353000D02*
X118860628Y-102353000D01*
X118685902Y-102353000D02*
X118683618Y-102353000D01*
X119458569Y-102353000D02*
X119448127Y-102353000D01*
X118705318Y-102353000D02*
X118696182Y-102353000D01*
X119427246Y-102353000D02*
X119424113Y-102353000D01*
X119431420Y-102353000D02*
X119429333Y-102353000D01*
X118857201Y-102353000D02*
X118860628Y-102353000D01*
X119218560Y-102353000D02*
X119237652Y-102353000D01*
D36*
X117667501Y-101926499D02*
X117709693Y-101968692D01*
D35*
X118731584Y-102353000D02*
X118738436Y-102353000D01*
X119218560Y-102353000D02*
X119153525Y-102353000D01*
X119340579Y-102353000D02*
X119357285Y-102353000D01*
X119390698Y-102353000D02*
X119373991Y-102353000D01*
X119525395Y-102353000D02*
X119514953Y-102353000D01*
X118773838Y-102353000D02*
X118761276Y-102353000D01*
X119574469Y-102353000D02*
X119566116Y-102353000D01*
X119581778Y-102353000D02*
X119583866Y-102353000D01*
X118834364Y-102353000D02*
X118822944Y-102353000D01*
X118822944Y-102353000D02*
X118810382Y-102353000D01*
X119038242Y-102353000D02*
X119002781Y-102353000D01*
X118897175Y-102353000D02*
X118888039Y-102353000D01*
X119585955Y-102353000D02*
X119583866Y-102353000D01*
X119002781Y-102353000D02*
X118997672Y-102353000D01*
X119535837Y-102353000D02*
X119525395Y-102353000D01*
X119373991Y-102353000D02*
X119365638Y-102353000D01*
D36*
X117476000Y-101464178D02*
X117476000Y-98455478D01*
X118074153Y-97788000D02*
X118115135Y-97788000D01*
D35*
X118723590Y-102353000D02*
X118727016Y-102353000D01*
D36*
X118115135Y-102118000D02*
X118070153Y-102118000D01*
D35*
X119365638Y-102353000D02*
X119357285Y-102353000D01*
X119088490Y-102353000D02*
X119073703Y-102353000D01*
X118810382Y-102353000D02*
X118773838Y-102353000D01*
X119503467Y-102353000D02*
X119470054Y-102353000D01*
X119566116Y-102353000D02*
X119557763Y-102353000D01*
X119546278Y-102353000D02*
X119544190Y-102353000D01*
X118749856Y-102353000D02*
X118738436Y-102353000D01*
X119153525Y-102353000D02*
X119088490Y-102353000D01*
D36*
X118682476Y-97553000D02*
X119141000Y-97553000D01*
D35*
X118854918Y-102353000D02*
X118852635Y-102353000D01*
D36*
X118074153Y-97788000D02*
G75*
G03*
X117720548Y-97934504I47J-500100D01*
G01*
D35*
X121166750Y-101630000D02*
G75*
G03*
X120465539Y-101920427I-50J-991600D01*
G01*
D36*
X118682476Y-97553000D02*
G75*
G03*
X118398811Y-97670506I24J-401200D01*
G01*
X117671500Y-97983500D02*
G75*
G03*
X117475991Y-98455478I472000J-472000D01*
G01*
X118070153Y-102118000D02*
G75*
G02*
X117709709Y-101968676I47J509800D01*
G01*
X117667501Y-101926499D02*
G75*
G02*
X117476010Y-101464178I462299J462299D01*
G01*
X118115135Y-102118000D02*
G75*
G02*
X118398794Y-102235511I-35J-401200D01*
G01*
X118682476Y-102353000D02*
G75*
G02*
X118398811Y-102235494I24J401200D01*
G01*
D35*
X119587000Y-102353000D02*
G75*
G03*
X120348362Y-102037622I0J1076700D01*
G01*
D36*
X118115135Y-97788000D02*
G75*
G03*
X118398794Y-97670489I-35J401200D01*
G01*
D35*
X143984200Y-99474400D02*
X142250000Y-99474400D01*
X143984200Y-101455600D02*
X142250000Y-101455600D01*
X143984200Y-103436800D02*
X142250000Y-103436800D01*
D36*
X137669000Y-107704000D02*
X137669000Y-104689389D01*
X156644877Y-104275000D02*
X156084000Y-104275000D01*
X146051000Y-103429500D02*
X146051000Y-103462200D01*
X137716220Y-104608780D02*
X137692610Y-104632390D01*
X157227000Y-104616000D02*
X157056500Y-104445500D01*
X145710000Y-103055800D02*
X146027878Y-103373677D01*
X156644877Y-104275000D02*
G75*
G02*
X157056507Y-104445493I23J-582100D01*
G01*
X137669000Y-104689389D02*
G75*
G02*
X137692617Y-104632397I80600J-11D01*
G01*
X146051000Y-103429500D02*
G75*
G03*
X146027868Y-103373687I-78900J0D01*
G01*
G04 #@! TA.AperFunction,Conductor*
G36*
X119002643Y-87450185D02*
G01*
X119048398Y-87502989D01*
X119058342Y-87572147D01*
X119037179Y-87625623D01*
X118969400Y-87722420D01*
X118969399Y-87722422D01*
X118869570Y-87936507D01*
X118869567Y-87936513D01*
X118812364Y-88149999D01*
X118812364Y-88150000D01*
X119709988Y-88150000D01*
X119677075Y-88207007D01*
X119643000Y-88334174D01*
X119643000Y-88465826D01*
X119677075Y-88592993D01*
X119709988Y-88650000D01*
X118812364Y-88650000D01*
X118869567Y-88863486D01*
X118869570Y-88863492D01*
X118969399Y-89077578D01*
X119104894Y-89271082D01*
X119198308Y-89364496D01*
X119231793Y-89425819D01*
X119226809Y-89495511D01*
X119184937Y-89551444D01*
X119161803Y-89565124D01*
X119114032Y-89586768D01*
X118999114Y-89643438D01*
X118994073Y-89645654D01*
X118987310Y-89649269D01*
X118856660Y-89719104D01*
X118852027Y-89722056D01*
X118741030Y-89786142D01*
X118632210Y-89853808D01*
X118627432Y-89856497D01*
X118621335Y-89860569D01*
X118621297Y-89860596D01*
X118621282Y-89860606D01*
X118596399Y-89877232D01*
X118596398Y-89877231D01*
X118573578Y-89892480D01*
X118562656Y-89899778D01*
X118517242Y-89930123D01*
X118502907Y-89939701D01*
X118502894Y-89939710D01*
X118497875Y-89943064D01*
X118493572Y-89946441D01*
X118389410Y-90021083D01*
X118318610Y-90075409D01*
X118277503Y-90106953D01*
X118277493Y-90106960D01*
X118277475Y-90106975D01*
X118272995Y-90110651D01*
X118272993Y-90110651D01*
X118272994Y-90110652D01*
X118205544Y-90166007D01*
X118173339Y-90192438D01*
X118173337Y-90192440D01*
X118105435Y-90248166D01*
X118101835Y-90251765D01*
X118095576Y-90257604D01*
X118063631Y-90285405D01*
X118045706Y-90301937D01*
X118037007Y-90309251D01*
X118032329Y-90312831D01*
X117982134Y-90361889D01*
X117982131Y-90361892D01*
X117978011Y-90365920D01*
X117969389Y-90374346D01*
X117919823Y-90422790D01*
X117917627Y-90425221D01*
X117910933Y-90431813D01*
X117892883Y-90449726D01*
X117890793Y-90451613D01*
X117773226Y-90569181D01*
X117711903Y-90602666D01*
X117685545Y-90605500D01*
X116773129Y-90605500D01*
X116773123Y-90605501D01*
X116713516Y-90611908D01*
X116578671Y-90662202D01*
X116578664Y-90662206D01*
X116463455Y-90748452D01*
X116463452Y-90748455D01*
X116377206Y-90863664D01*
X116377202Y-90863671D01*
X116326908Y-90998517D01*
X116320501Y-91058116D01*
X116320500Y-91058135D01*
X116320500Y-92853870D01*
X116320501Y-92853876D01*
X116326908Y-92913483D01*
X116377202Y-93048328D01*
X116377206Y-93048335D01*
X116463452Y-93163544D01*
X116463455Y-93163547D01*
X116578664Y-93249793D01*
X116578671Y-93249797D01*
X116579827Y-93250228D01*
X116713517Y-93300091D01*
X116773127Y-93306500D01*
X116853853Y-93306499D01*
X116920891Y-93326183D01*
X116952226Y-93355009D01*
X117057157Y-93491750D01*
X117106005Y-93540595D01*
X117107653Y-93542243D01*
X117117100Y-93551690D01*
X117117105Y-93551697D01*
X117142594Y-93577184D01*
X117608165Y-94042755D01*
X117608175Y-94042766D01*
X117612499Y-94047090D01*
X117612500Y-94047091D01*
X117629883Y-94064474D01*
X117629885Y-94064477D01*
X117629886Y-94064477D01*
X117666204Y-94100795D01*
X117666204Y-94100796D01*
X117787262Y-94221855D01*
X117787267Y-94221859D01*
X117787268Y-94221860D01*
X117856463Y-94278647D01*
X117895797Y-94336393D01*
X117897668Y-94406237D01*
X117861480Y-94466006D01*
X117798724Y-94496721D01*
X117777798Y-94498500D01*
X113793126Y-94498500D01*
X113760059Y-94499583D01*
X113743858Y-94500645D01*
X113710957Y-94503885D01*
X113605803Y-94517729D01*
X113605801Y-94517729D01*
X113605796Y-94517730D01*
X113540952Y-94530628D01*
X113540947Y-94530629D01*
X113509692Y-94539003D01*
X113509684Y-94539005D01*
X113447076Y-94560256D01*
X113447052Y-94560265D01*
X113356666Y-94597703D01*
X113356630Y-94597720D01*
X113297324Y-94626966D01*
X113269296Y-94643149D01*
X113214325Y-94679879D01*
X113214297Y-94679900D01*
X113136666Y-94739469D01*
X113086937Y-94783082D01*
X113064082Y-94805937D01*
X113020469Y-94855666D01*
X112960887Y-94933313D01*
X112960876Y-94933328D01*
X112924149Y-94988295D01*
X112924137Y-94988314D01*
X112907960Y-95016336D01*
X112878720Y-95075631D01*
X112841266Y-95166053D01*
X112841262Y-95166064D01*
X112820008Y-95228675D01*
X112811630Y-95259944D01*
X112798730Y-95324800D01*
X112784887Y-95429949D01*
X112781644Y-95462867D01*
X112781644Y-95462873D01*
X112780583Y-95479058D01*
X112779500Y-95512125D01*
X112779500Y-104401874D01*
X112779646Y-104406324D01*
X112780583Y-104434942D01*
X112781644Y-104451131D01*
X112784887Y-104484049D01*
X112798730Y-104589198D01*
X112811630Y-104654054D01*
X112820008Y-104685323D01*
X112841262Y-104747934D01*
X112841266Y-104747945D01*
X112878714Y-104838354D01*
X112907970Y-104897680D01*
X112924149Y-104925702D01*
X112960880Y-104980673D01*
X112960885Y-104980680D01*
X113020468Y-105058330D01*
X113039377Y-105079891D01*
X113064070Y-105108048D01*
X113086950Y-105130928D01*
X113086956Y-105130933D01*
X113136669Y-105174531D01*
X113214319Y-105234114D01*
X113214325Y-105234118D01*
X113269296Y-105270849D01*
X113297318Y-105287028D01*
X113297322Y-105287030D01*
X113297329Y-105287034D01*
X113356635Y-105316280D01*
X113356640Y-105316282D01*
X113356644Y-105316284D01*
X113384152Y-105327678D01*
X113447062Y-105353736D01*
X113509674Y-105374990D01*
X113540941Y-105383368D01*
X113605793Y-105396268D01*
X113651649Y-105402305D01*
X113651652Y-105402306D01*
X113651652Y-105402305D01*
X113685361Y-105406743D01*
X113697922Y-105408397D01*
X113697922Y-105408398D01*
X113710946Y-105410113D01*
X113736993Y-105412678D01*
X113743862Y-105413355D01*
X113743867Y-105413355D01*
X113743874Y-105413356D01*
X113760059Y-105414417D01*
X113793126Y-105415500D01*
X118389187Y-105415500D01*
X118456226Y-105435185D01*
X118501981Y-105487989D01*
X118511925Y-105557147D01*
X118482900Y-105620703D01*
X118467849Y-105635356D01*
X118396553Y-105693863D01*
X118341764Y-105748647D01*
X118341676Y-105748731D01*
X118295764Y-105794644D01*
X118295763Y-105794645D01*
X118239632Y-105850775D01*
X118239624Y-105850783D01*
X117773227Y-106317181D01*
X117711904Y-106350666D01*
X117685546Y-106353500D01*
X116773129Y-106353500D01*
X116773123Y-106353501D01*
X116713516Y-106359908D01*
X116578671Y-106410202D01*
X116578664Y-106410206D01*
X116463455Y-106496452D01*
X116463452Y-106496455D01*
X116377206Y-106611664D01*
X116377202Y-106611671D01*
X116326908Y-106746517D01*
X116320501Y-106806116D01*
X116320500Y-106806135D01*
X116320500Y-108601870D01*
X116320501Y-108601876D01*
X116326908Y-108661483D01*
X116377202Y-108796328D01*
X116377206Y-108796335D01*
X116463452Y-108911544D01*
X116463455Y-108911547D01*
X116578664Y-108997793D01*
X116578671Y-108997797D01*
X116713517Y-109048091D01*
X116713516Y-109048091D01*
X116720444Y-109048835D01*
X116773127Y-109054500D01*
X117768872Y-109054499D01*
X117768874Y-109054498D01*
X117768887Y-109054498D01*
X117802465Y-109050887D01*
X117810230Y-109050053D01*
X117877286Y-109061620D01*
X118100896Y-109169304D01*
X118351084Y-109256847D01*
X118609501Y-109315826D01*
X118872897Y-109345501D01*
X119005429Y-109345500D01*
X122052831Y-109345500D01*
X122052835Y-109345501D01*
X122124718Y-109345500D01*
X122132827Y-109345765D01*
X122148365Y-109346783D01*
X122293721Y-109356308D01*
X122309790Y-109358424D01*
X122463935Y-109389083D01*
X122479600Y-109393280D01*
X122628431Y-109443801D01*
X122643402Y-109450003D01*
X122784359Y-109519515D01*
X122798394Y-109527617D01*
X122921823Y-109610089D01*
X122929076Y-109614935D01*
X122941945Y-109624810D01*
X123046111Y-109716162D01*
X123083535Y-109775164D01*
X123083119Y-109845033D01*
X123044995Y-109903585D01*
X122981268Y-109932231D01*
X122933184Y-109929222D01*
X122933000Y-109929364D01*
X122933000Y-110826988D01*
X122875993Y-110794075D01*
X122748826Y-110760000D01*
X122617174Y-110760000D01*
X122490007Y-110794075D01*
X122433000Y-110826988D01*
X122433000Y-109929364D01*
X122432999Y-109929364D01*
X122219513Y-109986567D01*
X122219507Y-109986570D01*
X122005422Y-110086399D01*
X122005420Y-110086400D01*
X121811926Y-110221886D01*
X121811920Y-110221891D01*
X121644891Y-110388920D01*
X121644890Y-110388922D01*
X121514575Y-110575031D01*
X121459998Y-110618655D01*
X121390499Y-110625848D01*
X121328145Y-110594326D01*
X121311425Y-110575031D01*
X121181109Y-110388922D01*
X121181108Y-110388920D01*
X121014082Y-110221894D01*
X120820578Y-110086399D01*
X120606492Y-109986570D01*
X120606486Y-109986567D01*
X120393000Y-109929364D01*
X120393000Y-110826988D01*
X120335993Y-110794075D01*
X120208826Y-110760000D01*
X120077174Y-110760000D01*
X119950007Y-110794075D01*
X119893000Y-110826988D01*
X119893000Y-109929364D01*
X119892999Y-109929364D01*
X119679513Y-109986567D01*
X119679507Y-109986570D01*
X119465422Y-110086399D01*
X119465420Y-110086400D01*
X119271926Y-110221886D01*
X119271920Y-110221891D01*
X119104891Y-110388920D01*
X119104886Y-110388926D01*
X118969400Y-110582420D01*
X118969399Y-110582422D01*
X118869570Y-110796507D01*
X118869567Y-110796513D01*
X118812364Y-111009999D01*
X118812364Y-111010000D01*
X119709988Y-111010000D01*
X119677075Y-111067007D01*
X119643000Y-111194174D01*
X119643000Y-111325826D01*
X119677075Y-111452993D01*
X119709988Y-111510000D01*
X118812364Y-111510000D01*
X118869567Y-111723486D01*
X118869570Y-111723492D01*
X118969399Y-111937578D01*
X119037179Y-112034376D01*
X119059506Y-112100582D01*
X119042496Y-112168350D01*
X118991548Y-112216163D01*
X118935604Y-112229500D01*
X113406833Y-112229500D01*
X113339794Y-112209815D01*
X113319152Y-112193181D01*
X112551819Y-111425848D01*
X112518334Y-111364525D01*
X112515500Y-111338167D01*
X112515500Y-108601844D01*
X112921000Y-108601844D01*
X112927401Y-108661372D01*
X112927403Y-108661379D01*
X112977645Y-108796086D01*
X112977649Y-108796093D01*
X113063809Y-108911187D01*
X113063812Y-108911190D01*
X113178906Y-108997350D01*
X113178913Y-108997354D01*
X113313620Y-109047596D01*
X113313627Y-109047598D01*
X113373155Y-109053999D01*
X113373172Y-109054000D01*
X113621000Y-109054000D01*
X114121000Y-109054000D01*
X114368828Y-109054000D01*
X114368844Y-109053999D01*
X114428372Y-109047598D01*
X114428379Y-109047596D01*
X114563086Y-108997354D01*
X114563093Y-108997350D01*
X114678187Y-108911190D01*
X114678190Y-108911187D01*
X114764350Y-108796093D01*
X114764354Y-108796086D01*
X114814596Y-108661379D01*
X114814598Y-108661372D01*
X114820999Y-108601844D01*
X114821000Y-108601827D01*
X114821000Y-107954000D01*
X114121000Y-107954000D01*
X114121000Y-109054000D01*
X113621000Y-109054000D01*
X113621000Y-107954000D01*
X112921000Y-107954000D01*
X112921000Y-108601844D01*
X112515500Y-108601844D01*
X112515500Y-106806155D01*
X112921000Y-106806155D01*
X112921000Y-107454000D01*
X113621000Y-107454000D01*
X114121000Y-107454000D01*
X114821000Y-107454000D01*
X114821000Y-106806172D01*
X114820999Y-106806155D01*
X114814598Y-106746627D01*
X114814596Y-106746620D01*
X114764354Y-106611913D01*
X114764350Y-106611906D01*
X114678190Y-106496812D01*
X114678187Y-106496809D01*
X114563093Y-106410649D01*
X114563086Y-106410645D01*
X114428379Y-106360403D01*
X114428372Y-106360401D01*
X114368844Y-106354000D01*
X114121000Y-106354000D01*
X114121000Y-107454000D01*
X113621000Y-107454000D01*
X113621000Y-106354000D01*
X113373155Y-106354000D01*
X113313627Y-106360401D01*
X113313620Y-106360403D01*
X113178913Y-106410645D01*
X113178906Y-106410649D01*
X113063812Y-106496809D01*
X113063809Y-106496812D01*
X112977649Y-106611906D01*
X112977645Y-106611913D01*
X112927403Y-106746620D01*
X112927401Y-106746627D01*
X112921000Y-106806155D01*
X112515500Y-106806155D01*
X112515500Y-92853844D01*
X112921000Y-92853844D01*
X112927401Y-92913372D01*
X112927403Y-92913379D01*
X112977645Y-93048086D01*
X112977649Y-93048093D01*
X113063809Y-93163187D01*
X113063812Y-93163190D01*
X113178906Y-93249350D01*
X113178913Y-93249354D01*
X113313620Y-93299596D01*
X113313627Y-93299598D01*
X113373155Y-93305999D01*
X113373172Y-93306000D01*
X113621000Y-93306000D01*
X114121000Y-93306000D01*
X114368828Y-93306000D01*
X114368844Y-93305999D01*
X114428372Y-93299598D01*
X114428379Y-93299596D01*
X114563086Y-93249354D01*
X114563093Y-93249350D01*
X114678187Y-93163190D01*
X114678190Y-93163187D01*
X114764350Y-93048093D01*
X114764354Y-93048086D01*
X114814596Y-92913379D01*
X114814598Y-92913372D01*
X114820999Y-92853844D01*
X114821000Y-92853827D01*
X114821000Y-92206000D01*
X114121000Y-92206000D01*
X114121000Y-93306000D01*
X113621000Y-93306000D01*
X113621000Y-92206000D01*
X112921000Y-92206000D01*
X112921000Y-92853844D01*
X112515500Y-92853844D01*
X112515500Y-91058155D01*
X112921000Y-91058155D01*
X112921000Y-91706000D01*
X113621000Y-91706000D01*
X114121000Y-91706000D01*
X114821000Y-91706000D01*
X114821000Y-91058172D01*
X114820999Y-91058155D01*
X114814598Y-90998627D01*
X114814596Y-90998620D01*
X114764354Y-90863913D01*
X114764350Y-90863906D01*
X114678190Y-90748812D01*
X114678187Y-90748809D01*
X114563093Y-90662649D01*
X114563086Y-90662645D01*
X114428379Y-90612403D01*
X114428372Y-90612401D01*
X114368844Y-90606000D01*
X114121000Y-90606000D01*
X114121000Y-91706000D01*
X113621000Y-91706000D01*
X113621000Y-90606000D01*
X113373155Y-90606000D01*
X113313627Y-90612401D01*
X113313620Y-90612403D01*
X113178913Y-90662645D01*
X113178906Y-90662649D01*
X113063812Y-90748809D01*
X113063809Y-90748812D01*
X112977649Y-90863906D01*
X112977645Y-90863913D01*
X112927403Y-90998620D01*
X112927401Y-90998627D01*
X112921000Y-91058155D01*
X112515500Y-91058155D01*
X112515500Y-88321833D01*
X112535185Y-88254794D01*
X112551819Y-88234152D01*
X113319152Y-87466819D01*
X113380475Y-87433334D01*
X113406833Y-87430500D01*
X118935604Y-87430500D01*
X119002643Y-87450185D01*
G37*
G04 #@! TD.AperFunction*
G04 #@! TA.AperFunction,Conductor*
G36*
X122217075Y-111067007D02*
G01*
X122183000Y-111194174D01*
X122183000Y-111325826D01*
X122217075Y-111452993D01*
X122249988Y-111510000D01*
X120576012Y-111510000D01*
X120608925Y-111452993D01*
X120643000Y-111325826D01*
X120643000Y-111194174D01*
X120608925Y-111067007D01*
X120576012Y-111010000D01*
X122249988Y-111010000D01*
X122217075Y-111067007D01*
G37*
G04 #@! TD.AperFunction*
G04 #@! TA.AperFunction,Conductor*
G36*
X174381348Y-89769402D02*
G01*
X174433605Y-89815781D01*
X174452500Y-89881576D01*
X174452500Y-109786000D01*
X174432815Y-109853039D01*
X174380011Y-109898794D01*
X174328500Y-109910000D01*
X174033108Y-109910000D01*
X173966069Y-109890315D01*
X173920314Y-109837511D01*
X173910370Y-109768353D01*
X173939395Y-109704797D01*
X173956581Y-109688796D01*
X173958190Y-109687187D01*
X174044350Y-109572093D01*
X174044354Y-109572086D01*
X174094596Y-109437379D01*
X174094598Y-109437372D01*
X174100999Y-109377844D01*
X174101000Y-109377827D01*
X174101000Y-108830000D01*
X173025000Y-108830000D01*
X172957961Y-108810315D01*
X172912206Y-108757511D01*
X172901000Y-108706000D01*
X172901000Y-108330000D01*
X173401000Y-108330000D01*
X174101000Y-108330000D01*
X174101000Y-107782172D01*
X174100999Y-107782155D01*
X174094598Y-107722627D01*
X174094596Y-107722620D01*
X174044354Y-107587913D01*
X174044350Y-107587906D01*
X173958190Y-107472812D01*
X173958187Y-107472809D01*
X173843093Y-107386649D01*
X173843086Y-107386645D01*
X173708379Y-107336403D01*
X173708372Y-107336401D01*
X173648844Y-107330000D01*
X173401000Y-107330000D01*
X173401000Y-108330000D01*
X172901000Y-108330000D01*
X172901000Y-107330000D01*
X172653155Y-107330000D01*
X172593627Y-107336401D01*
X172593619Y-107336403D01*
X172560047Y-107348925D01*
X172490355Y-107353909D01*
X172473381Y-107348925D01*
X172438482Y-107335908D01*
X172438483Y-107335908D01*
X172378883Y-107329501D01*
X172378881Y-107329500D01*
X172378873Y-107329500D01*
X172378864Y-107329500D01*
X171383129Y-107329500D01*
X171383123Y-107329501D01*
X171323518Y-107335908D01*
X171289331Y-107348659D01*
X171219639Y-107353642D01*
X171202669Y-107348659D01*
X171185140Y-107342121D01*
X171168483Y-107335909D01*
X171168482Y-107335908D01*
X171108883Y-107329501D01*
X171108881Y-107329500D01*
X171108873Y-107329500D01*
X171108865Y-107329500D01*
X171057500Y-107329500D01*
X170990461Y-107309815D01*
X170944706Y-107257011D01*
X170933500Y-107205500D01*
X170933500Y-107184962D01*
X170953185Y-107117923D01*
X170965351Y-107101989D01*
X170999859Y-107063665D01*
X171089250Y-106908835D01*
X171144497Y-106738803D01*
X171163185Y-106561000D01*
X171144497Y-106383197D01*
X171089250Y-106213165D01*
X170999859Y-106058335D01*
X170947771Y-106000486D01*
X170880235Y-105925478D01*
X170880232Y-105925476D01*
X170880231Y-105925475D01*
X170880230Y-105925474D01*
X170735593Y-105820388D01*
X170572267Y-105747671D01*
X170572265Y-105747670D01*
X170444594Y-105720533D01*
X170397391Y-105710500D01*
X170218609Y-105710500D01*
X170187954Y-105717015D01*
X170043733Y-105747670D01*
X170043728Y-105747672D01*
X169880408Y-105820387D01*
X169735768Y-105925475D01*
X169616140Y-106058336D01*
X169526750Y-106213164D01*
X169526747Y-106213170D01*
X169471504Y-106383192D01*
X169471503Y-106383194D01*
X169453078Y-106558499D01*
X169452815Y-106561000D01*
X169471503Y-106738803D01*
X169471504Y-106738806D01*
X169471504Y-106738807D01*
X169526747Y-106908829D01*
X169526750Y-106908835D01*
X169616141Y-107063665D01*
X169650649Y-107101989D01*
X169680879Y-107164980D01*
X169682500Y-107184962D01*
X169682500Y-107205500D01*
X169662815Y-107272539D01*
X169610011Y-107318294D01*
X169558500Y-107329500D01*
X168843129Y-107329500D01*
X168843123Y-107329501D01*
X168783518Y-107335908D01*
X168749331Y-107348659D01*
X168679639Y-107353642D01*
X168662669Y-107348659D01*
X168645140Y-107342121D01*
X168628483Y-107335909D01*
X168628482Y-107335908D01*
X168568883Y-107329501D01*
X168568881Y-107329500D01*
X168568873Y-107329500D01*
X168568865Y-107329500D01*
X167579547Y-107329500D01*
X167512508Y-107309815D01*
X167466753Y-107257011D01*
X167456809Y-107187853D01*
X167485834Y-107124297D01*
X167487292Y-107122646D01*
X167494659Y-107114465D01*
X167584050Y-106959635D01*
X167639297Y-106789603D01*
X167657985Y-106611800D01*
X167639297Y-106433997D01*
X167611673Y-106348981D01*
X167584052Y-106263970D01*
X167584049Y-106263964D01*
X167494659Y-106109135D01*
X167434999Y-106042876D01*
X167375035Y-105976278D01*
X167375032Y-105976276D01*
X167375031Y-105976275D01*
X167375030Y-105976274D01*
X167230393Y-105871188D01*
X167067067Y-105798471D01*
X167067065Y-105798470D01*
X166939394Y-105771333D01*
X166892191Y-105761300D01*
X166713409Y-105761300D01*
X166682754Y-105767815D01*
X166538533Y-105798470D01*
X166538528Y-105798472D01*
X166375208Y-105871187D01*
X166248604Y-105963170D01*
X166182797Y-105986649D01*
X166114743Y-105970823D01*
X166102833Y-105963169D01*
X166050956Y-105925478D01*
X166011193Y-105896588D01*
X165847867Y-105823871D01*
X165847865Y-105823870D01*
X165710369Y-105794645D01*
X165672991Y-105786700D01*
X165494209Y-105786700D01*
X165463554Y-105793215D01*
X165319333Y-105823870D01*
X165319328Y-105823872D01*
X165156008Y-105896587D01*
X165011368Y-106001675D01*
X164891740Y-106134536D01*
X164802350Y-106289364D01*
X164802347Y-106289370D01*
X164747104Y-106459392D01*
X164747103Y-106459394D01*
X164736687Y-106558499D01*
X164729411Y-106627730D01*
X164728415Y-106637202D01*
X164731059Y-106662365D01*
X164718488Y-106731094D01*
X164670755Y-106782117D01*
X164603014Y-106799233D01*
X164536773Y-106777009D01*
X164504983Y-106743639D01*
X164504614Y-106743902D01*
X164502804Y-106741352D01*
X164502733Y-106741277D01*
X164502596Y-106741058D01*
X164414818Y-106630988D01*
X164355124Y-106556134D01*
X164338600Y-106539610D01*
X164318184Y-106519193D01*
X164318156Y-106519163D01*
X163342180Y-105543189D01*
X163308695Y-105481866D01*
X163306542Y-105468487D01*
X163295897Y-105367197D01*
X163240650Y-105197165D01*
X163151259Y-105042335D01*
X163101901Y-104987518D01*
X163031635Y-104909478D01*
X163031632Y-104909476D01*
X163031631Y-104909475D01*
X163031630Y-104909474D01*
X162886993Y-104804388D01*
X162723667Y-104731671D01*
X162723665Y-104731670D01*
X162595994Y-104704533D01*
X162548791Y-104694500D01*
X162370009Y-104694500D01*
X162339354Y-104701015D01*
X162195133Y-104731670D01*
X162195128Y-104731672D01*
X162031808Y-104804387D01*
X161887168Y-104909475D01*
X161767540Y-105042336D01*
X161678150Y-105197164D01*
X161678147Y-105197170D01*
X161622904Y-105367192D01*
X161622903Y-105367195D01*
X161618051Y-105413356D01*
X161610228Y-105487796D01*
X161609987Y-105490085D01*
X161583402Y-105554700D01*
X161526104Y-105594684D01*
X161512447Y-105598413D01*
X161407733Y-105620670D01*
X161244412Y-105693385D01*
X161244408Y-105693388D01*
X161236879Y-105698857D01*
X161171073Y-105722333D01*
X161103020Y-105706505D01*
X161091112Y-105698851D01*
X161083592Y-105693387D01*
X160921448Y-105621197D01*
X160920267Y-105620671D01*
X160920265Y-105620670D01*
X160792594Y-105593533D01*
X160745391Y-105583500D01*
X160566609Y-105583500D01*
X160535954Y-105590015D01*
X160391733Y-105620670D01*
X160228412Y-105693385D01*
X160228408Y-105693388D01*
X160220879Y-105698857D01*
X160155073Y-105722333D01*
X160087020Y-105706505D01*
X160075112Y-105698851D01*
X160067592Y-105693387D01*
X159905448Y-105621197D01*
X159904267Y-105620671D01*
X159904265Y-105620670D01*
X159776594Y-105593533D01*
X159729391Y-105583500D01*
X159550609Y-105583500D01*
X159519954Y-105590015D01*
X159375733Y-105620670D01*
X159375732Y-105620670D01*
X159330839Y-105640658D01*
X159261589Y-105649941D01*
X159198313Y-105620311D01*
X159188256Y-105610349D01*
X159119134Y-105533580D01*
X159119131Y-105533578D01*
X159119130Y-105533577D01*
X159119129Y-105533576D01*
X159056116Y-105487794D01*
X159013453Y-105432466D01*
X159007474Y-105362852D01*
X159040080Y-105301057D01*
X159056115Y-105287163D01*
X159120030Y-105240726D01*
X159122858Y-105237586D01*
X159159248Y-105197170D01*
X159239659Y-105107865D01*
X159329050Y-104953035D01*
X159371822Y-104821395D01*
X159411259Y-104763721D01*
X159463970Y-104738425D01*
X159584929Y-104712714D01*
X159610263Y-104707330D01*
X159610263Y-104707329D01*
X159610267Y-104707329D01*
X159773593Y-104634612D01*
X159801113Y-104614616D01*
X159866919Y-104591136D01*
X159934973Y-104606961D01*
X159946883Y-104614614D01*
X159974407Y-104634612D01*
X160137733Y-104707329D01*
X160312609Y-104744500D01*
X160312610Y-104744500D01*
X160491389Y-104744500D01*
X160491391Y-104744500D01*
X160666267Y-104707329D01*
X160829593Y-104634612D01*
X160974230Y-104529526D01*
X160976246Y-104527288D01*
X161044817Y-104451131D01*
X161093859Y-104396665D01*
X161183250Y-104241835D01*
X161188986Y-104224183D01*
X161228423Y-104166507D01*
X161292781Y-104139308D01*
X161306917Y-104138500D01*
X167380393Y-104138500D01*
X167380624Y-104138488D01*
X167468472Y-104138489D01*
X167778782Y-104107929D01*
X168084602Y-104047100D01*
X168382987Y-103956588D01*
X168671064Y-103837265D01*
X168946057Y-103690279D01*
X169205319Y-103517047D01*
X169446353Y-103319237D01*
X169556595Y-103208995D01*
X169610300Y-103155291D01*
X169610300Y-103155289D01*
X169620502Y-103145088D01*
X169620505Y-103145083D01*
X169858372Y-102907216D01*
X169919694Y-102873734D01*
X169946052Y-102870900D01*
X169949989Y-102870900D01*
X169949991Y-102870900D01*
X170124867Y-102833729D01*
X170288193Y-102761012D01*
X170432830Y-102655926D01*
X170442319Y-102645388D01*
X170485113Y-102597860D01*
X170552459Y-102523065D01*
X170641850Y-102368235D01*
X170643467Y-102363260D01*
X170656091Y-102324405D01*
X170697097Y-102198203D01*
X170715785Y-102020400D01*
X170697097Y-101842597D01*
X170662897Y-101737340D01*
X170641852Y-101672570D01*
X170641849Y-101672564D01*
X170552459Y-101517735D01*
X170505603Y-101465696D01*
X170432835Y-101384878D01*
X170432832Y-101384876D01*
X170432831Y-101384875D01*
X170432830Y-101384874D01*
X170288193Y-101279788D01*
X170124867Y-101207071D01*
X170124865Y-101207070D01*
X169985826Y-101177517D01*
X169949991Y-101169900D01*
X169871830Y-101169900D01*
X169804791Y-101150215D01*
X169759036Y-101097411D01*
X169749092Y-101028253D01*
X169778117Y-100964697D01*
X169784149Y-100958219D01*
X169786777Y-100955591D01*
X169819961Y-100922407D01*
X169819961Y-100922406D01*
X170105177Y-100637188D01*
X170145111Y-100612729D01*
X170144329Y-100610972D01*
X170150263Y-100608329D01*
X170150267Y-100608329D01*
X170313593Y-100535612D01*
X170458230Y-100430526D01*
X170577859Y-100297665D01*
X170667250Y-100142835D01*
X170722497Y-99972803D01*
X170741185Y-99795000D01*
X170722497Y-99617197D01*
X170682623Y-99494478D01*
X170667252Y-99447170D01*
X170667250Y-99447167D01*
X170667250Y-99447165D01*
X170577859Y-99292335D01*
X170523688Y-99232172D01*
X170458235Y-99159478D01*
X170458232Y-99159476D01*
X170458231Y-99159475D01*
X170458230Y-99159474D01*
X170313593Y-99054388D01*
X170150267Y-98981671D01*
X170150265Y-98981670D01*
X170022594Y-98954533D01*
X169975391Y-98944500D01*
X169796609Y-98944500D01*
X169765954Y-98951015D01*
X169621733Y-98981670D01*
X169621728Y-98981672D01*
X169458408Y-99054387D01*
X169313768Y-99159475D01*
X169194140Y-99292336D01*
X169104750Y-99447163D01*
X169104749Y-99447167D01*
X169081354Y-99519165D01*
X169051105Y-99568525D01*
X168741152Y-99878479D01*
X168705689Y-99913942D01*
X168699767Y-99919489D01*
X168563642Y-100038868D01*
X168550774Y-100048742D01*
X168403617Y-100147069D01*
X168389570Y-100155179D01*
X168230838Y-100233458D01*
X168215854Y-100239665D01*
X168048264Y-100296556D01*
X168032596Y-100300754D01*
X167929192Y-100321323D01*
X167859600Y-100315096D01*
X167804423Y-100272233D01*
X167781178Y-100206344D01*
X167781000Y-100199706D01*
X167781000Y-99980000D01*
X163081000Y-99980000D01*
X163081000Y-100225500D01*
X163061315Y-100292539D01*
X163008511Y-100338294D01*
X162957000Y-100349500D01*
X160919772Y-100349500D01*
X160910044Y-100349118D01*
X160892348Y-100347725D01*
X160782990Y-100339118D01*
X160763772Y-100336074D01*
X160644601Y-100307463D01*
X160626096Y-100301450D01*
X160512870Y-100254550D01*
X160495534Y-100245717D01*
X160462542Y-100225500D01*
X160391036Y-100181680D01*
X160375298Y-100170246D01*
X160278355Y-100087447D01*
X160271206Y-100080838D01*
X160214593Y-100024224D01*
X160214570Y-100024203D01*
X160093892Y-99903524D01*
X160063643Y-99854161D01*
X160040252Y-99782170D01*
X160040249Y-99782164D01*
X159950859Y-99627335D01*
X159894221Y-99564432D01*
X159831235Y-99494478D01*
X159831232Y-99494476D01*
X159831231Y-99494475D01*
X159831230Y-99494474D01*
X159686593Y-99389388D01*
X159523267Y-99316671D01*
X159523265Y-99316670D01*
X159395594Y-99289533D01*
X159348391Y-99279500D01*
X159221500Y-99279500D01*
X159154461Y-99259815D01*
X159108706Y-99207011D01*
X159097500Y-99155500D01*
X159097500Y-98827844D01*
X163081000Y-98827844D01*
X163087401Y-98887372D01*
X163087403Y-98887383D01*
X163124434Y-98986668D01*
X163129418Y-99056360D01*
X163124434Y-99073332D01*
X163087403Y-99172616D01*
X163087401Y-99172627D01*
X163081000Y-99232155D01*
X163081000Y-99480000D01*
X163781000Y-99480000D01*
X164281000Y-99480000D01*
X165181000Y-99480000D01*
X165681000Y-99480000D01*
X166581000Y-99480000D01*
X167081000Y-99480000D01*
X167781000Y-99480000D01*
X167781000Y-99232172D01*
X167780999Y-99232155D01*
X167774598Y-99172627D01*
X167774597Y-99172623D01*
X167737564Y-99073334D01*
X167732580Y-99003642D01*
X167737564Y-98986666D01*
X167774597Y-98887376D01*
X167774598Y-98887372D01*
X167780999Y-98827844D01*
X167781000Y-98827827D01*
X167781000Y-98580000D01*
X167081000Y-98580000D01*
X167081000Y-99480000D01*
X166581000Y-99480000D01*
X166581000Y-98580000D01*
X165681000Y-98580000D01*
X165681000Y-99480000D01*
X165181000Y-99480000D01*
X165181000Y-98580000D01*
X164281000Y-98580000D01*
X164281000Y-99480000D01*
X163781000Y-99480000D01*
X163781000Y-98580000D01*
X163081000Y-98580000D01*
X163081000Y-98827844D01*
X159097500Y-98827844D01*
X159097500Y-97427844D01*
X163081000Y-97427844D01*
X163087401Y-97487372D01*
X163087403Y-97487383D01*
X163124434Y-97586668D01*
X163129418Y-97656360D01*
X163124434Y-97673332D01*
X163087403Y-97772616D01*
X163087401Y-97772627D01*
X163081000Y-97832155D01*
X163081000Y-98080000D01*
X163781000Y-98080000D01*
X164281000Y-98080000D01*
X165181000Y-98080000D01*
X165681000Y-98080000D01*
X166581000Y-98080000D01*
X167081000Y-98080000D01*
X167781000Y-98080000D01*
X167781000Y-97832172D01*
X167780999Y-97832155D01*
X167774598Y-97772627D01*
X167774597Y-97772623D01*
X167737564Y-97673334D01*
X167732580Y-97603642D01*
X167737564Y-97586666D01*
X167774597Y-97487376D01*
X167774598Y-97487372D01*
X167780999Y-97427844D01*
X167781000Y-97427827D01*
X167781000Y-97180000D01*
X167081000Y-97180000D01*
X167081000Y-98080000D01*
X166581000Y-98080000D01*
X166581000Y-97180000D01*
X165681000Y-97180000D01*
X165681000Y-98080000D01*
X165181000Y-98080000D01*
X165181000Y-97180000D01*
X164281000Y-97180000D01*
X164281000Y-98080000D01*
X163781000Y-98080000D01*
X163781000Y-97180000D01*
X163081000Y-97180000D01*
X163081000Y-97427844D01*
X159097500Y-97427844D01*
X159097500Y-96432155D01*
X163081000Y-96432155D01*
X163081000Y-96680000D01*
X163781000Y-96680000D01*
X164281000Y-96680000D01*
X165181000Y-96680000D01*
X165681000Y-96680000D01*
X166581000Y-96680000D01*
X167081000Y-96680000D01*
X167781000Y-96680000D01*
X167781000Y-96432172D01*
X167780999Y-96432155D01*
X167774598Y-96372627D01*
X167774596Y-96372620D01*
X167724354Y-96237913D01*
X167724350Y-96237906D01*
X167638190Y-96122812D01*
X167638187Y-96122809D01*
X167523093Y-96036649D01*
X167523086Y-96036645D01*
X167388379Y-95986403D01*
X167388372Y-95986401D01*
X167328844Y-95980000D01*
X167081000Y-95980000D01*
X167081000Y-96680000D01*
X166581000Y-96680000D01*
X166581000Y-95980000D01*
X166333155Y-95980000D01*
X166273627Y-95986401D01*
X166273616Y-95986403D01*
X166174332Y-96023434D01*
X166104640Y-96028418D01*
X166087668Y-96023434D01*
X165988383Y-95986403D01*
X165988372Y-95986401D01*
X165928844Y-95980000D01*
X165681000Y-95980000D01*
X165681000Y-96680000D01*
X165181000Y-96680000D01*
X165181000Y-95980000D01*
X164933155Y-95980000D01*
X164873627Y-95986401D01*
X164873616Y-95986403D01*
X164774332Y-96023434D01*
X164704640Y-96028418D01*
X164687668Y-96023434D01*
X164588383Y-95986403D01*
X164588372Y-95986401D01*
X164528844Y-95980000D01*
X164281000Y-95980000D01*
X164281000Y-96680000D01*
X163781000Y-96680000D01*
X163781000Y-95980000D01*
X163533155Y-95980000D01*
X163473627Y-95986401D01*
X163473620Y-95986403D01*
X163338913Y-96036645D01*
X163338906Y-96036649D01*
X163223812Y-96122809D01*
X163223809Y-96122812D01*
X163137649Y-96237906D01*
X163137645Y-96237913D01*
X163087403Y-96372620D01*
X163087401Y-96372627D01*
X163081000Y-96432155D01*
X159097500Y-96432155D01*
X159097500Y-94395903D01*
X159117185Y-94328864D01*
X159169989Y-94283109D01*
X159239147Y-94273165D01*
X159247233Y-94274603D01*
X159271209Y-94279700D01*
X159344155Y-94279700D01*
X159411194Y-94299385D01*
X159456949Y-94352189D01*
X159462084Y-94365379D01*
X159467460Y-94381923D01*
X159493746Y-94462826D01*
X159493750Y-94462835D01*
X159583141Y-94617665D01*
X159611593Y-94649264D01*
X159702764Y-94750521D01*
X159702767Y-94750523D01*
X159702770Y-94750526D01*
X159847407Y-94855612D01*
X160010733Y-94928329D01*
X160185609Y-94965500D01*
X160185610Y-94965500D01*
X160364389Y-94965500D01*
X160364391Y-94965500D01*
X160539267Y-94928329D01*
X160702593Y-94855612D01*
X160710112Y-94850148D01*
X160775918Y-94826667D01*
X160843972Y-94842491D01*
X160855887Y-94850148D01*
X160863407Y-94855612D01*
X161026733Y-94928329D01*
X161201609Y-94965500D01*
X161201610Y-94965500D01*
X161380389Y-94965500D01*
X161380391Y-94965500D01*
X161555267Y-94928329D01*
X161718593Y-94855612D01*
X161726112Y-94850148D01*
X161791918Y-94826667D01*
X161859972Y-94842491D01*
X161871887Y-94850148D01*
X161879407Y-94855612D01*
X162042733Y-94928329D01*
X162217609Y-94965500D01*
X162217610Y-94965500D01*
X162396389Y-94965500D01*
X162396391Y-94965500D01*
X162571267Y-94928329D01*
X162734593Y-94855612D01*
X162879230Y-94750526D01*
X162889181Y-94739475D01*
X162932046Y-94691868D01*
X162998859Y-94617665D01*
X163088250Y-94462835D01*
X163143497Y-94292803D01*
X163154141Y-94191524D01*
X163180724Y-94126913D01*
X163189771Y-94116817D01*
X164257193Y-93049396D01*
X164257199Y-93049392D01*
X164267402Y-93039187D01*
X164267405Y-93039187D01*
X164281087Y-93025504D01*
X164281102Y-93025496D01*
X164321111Y-92985485D01*
X164321112Y-92985486D01*
X164410577Y-92896019D01*
X164489249Y-92793489D01*
X164545672Y-92752289D01*
X164615418Y-92748134D01*
X164676339Y-92782345D01*
X164709093Y-92844062D01*
X164710943Y-92881938D01*
X164707639Y-92913379D01*
X164706817Y-92921200D01*
X164713574Y-92985486D01*
X164725505Y-93099005D01*
X164725506Y-93099007D01*
X164780749Y-93269029D01*
X164780752Y-93269035D01*
X164870143Y-93423865D01*
X164881672Y-93436669D01*
X164989766Y-93556721D01*
X164989769Y-93556723D01*
X164989772Y-93556726D01*
X165134409Y-93661812D01*
X165297735Y-93734529D01*
X165472611Y-93771700D01*
X165472612Y-93771700D01*
X165651391Y-93771700D01*
X165651393Y-93771700D01*
X165826269Y-93734529D01*
X165989595Y-93661812D01*
X166109515Y-93574683D01*
X166175321Y-93551203D01*
X166243375Y-93567028D01*
X166255287Y-93574684D01*
X166375201Y-93661808D01*
X166375202Y-93661809D01*
X166375204Y-93661810D01*
X166375207Y-93661812D01*
X166538533Y-93734529D01*
X166713409Y-93771700D01*
X166713410Y-93771700D01*
X166892189Y-93771700D01*
X166892191Y-93771700D01*
X167067067Y-93734529D01*
X167230393Y-93661812D01*
X167364916Y-93564074D01*
X167430720Y-93540595D01*
X167498774Y-93556420D01*
X167510676Y-93564069D01*
X167645207Y-93661812D01*
X167808533Y-93734529D01*
X167983409Y-93771700D01*
X167983410Y-93771700D01*
X168162189Y-93771700D01*
X168162191Y-93771700D01*
X168337067Y-93734529D01*
X168500393Y-93661812D01*
X168634916Y-93564074D01*
X168700720Y-93540595D01*
X168768774Y-93556420D01*
X168780676Y-93564069D01*
X168915207Y-93661812D01*
X169078533Y-93734529D01*
X169253409Y-93771700D01*
X169253410Y-93771700D01*
X169331779Y-93771700D01*
X169398818Y-93791385D01*
X169444573Y-93844189D01*
X169455099Y-93882736D01*
X169457826Y-93908672D01*
X169471503Y-94038805D01*
X169471504Y-94038807D01*
X169526747Y-94208829D01*
X169526750Y-94208835D01*
X169616141Y-94363665D01*
X169654473Y-94406237D01*
X169735764Y-94496521D01*
X169735767Y-94496523D01*
X169735770Y-94496526D01*
X169880407Y-94601612D01*
X170043733Y-94674329D01*
X170218609Y-94711500D01*
X170218610Y-94711500D01*
X170397389Y-94711500D01*
X170397391Y-94711500D01*
X170572267Y-94674329D01*
X170735593Y-94601612D01*
X170819857Y-94540389D01*
X170885660Y-94516910D01*
X170953714Y-94532735D01*
X171002410Y-94582840D01*
X171016061Y-94627744D01*
X171020902Y-94673796D01*
X171020904Y-94673807D01*
X171076147Y-94843829D01*
X171076150Y-94843835D01*
X171165541Y-94998665D01*
X171199747Y-95036654D01*
X171285164Y-95131521D01*
X171285167Y-95131523D01*
X171285170Y-95131526D01*
X171429807Y-95236612D01*
X171593133Y-95309329D01*
X171768009Y-95346500D01*
X171768010Y-95346500D01*
X171946789Y-95346500D01*
X171946791Y-95346500D01*
X172121667Y-95309329D01*
X172284993Y-95236612D01*
X172429630Y-95131526D01*
X172438658Y-95121500D01*
X172459217Y-95098666D01*
X172549259Y-94998665D01*
X172638650Y-94843835D01*
X172693897Y-94673803D01*
X172712585Y-94496000D01*
X172693897Y-94318197D01*
X172638650Y-94148165D01*
X172637569Y-94144838D01*
X172631500Y-94106520D01*
X172631500Y-92699168D01*
X172651185Y-92632129D01*
X172667814Y-92611491D01*
X172768153Y-92511153D01*
X172864378Y-92385750D01*
X172868466Y-92375880D01*
X172895345Y-92335654D01*
X172900999Y-92330000D01*
X173401000Y-92330000D01*
X173648828Y-92330000D01*
X173648844Y-92329999D01*
X173708372Y-92323598D01*
X173708379Y-92323596D01*
X173843086Y-92273354D01*
X173843093Y-92273350D01*
X173958187Y-92187190D01*
X173958190Y-92187187D01*
X174044350Y-92072093D01*
X174044354Y-92072086D01*
X174094596Y-91937379D01*
X174094598Y-91937372D01*
X174100999Y-91877844D01*
X174101000Y-91877827D01*
X174101000Y-91330000D01*
X173401000Y-91330000D01*
X173401000Y-92330000D01*
X172900999Y-92330000D01*
X172901000Y-92329999D01*
X172901000Y-92322002D01*
X172910439Y-92274549D01*
X172910936Y-92273350D01*
X172924868Y-92239715D01*
X172945500Y-92083000D01*
X172945500Y-90954000D01*
X172965185Y-90886961D01*
X173017989Y-90841206D01*
X173069500Y-90830000D01*
X174101000Y-90830000D01*
X174101000Y-90282172D01*
X174100999Y-90282155D01*
X174094598Y-90222627D01*
X174094596Y-90222620D01*
X174044354Y-90087913D01*
X174044350Y-90087906D01*
X173952949Y-89965811D01*
X173928531Y-89900347D01*
X173943382Y-89832074D01*
X173992787Y-89782668D01*
X174052215Y-89767500D01*
X174244993Y-89767500D01*
X174245000Y-89767500D01*
X174312316Y-89758637D01*
X174381348Y-89769402D01*
G37*
G04 #@! TD.AperFunction*
G04 #@! TA.AperFunction,Conductor*
G36*
X155633539Y-90584029D02*
G01*
X155679294Y-90636833D01*
X155690500Y-90688344D01*
X155690500Y-91770500D01*
X155670815Y-91837539D01*
X155618011Y-91883294D01*
X155566500Y-91894500D01*
X154593129Y-91894500D01*
X154593123Y-91894501D01*
X154533516Y-91900908D01*
X154398671Y-91951202D01*
X154398664Y-91951206D01*
X154283455Y-92037452D01*
X154283452Y-92037455D01*
X154197206Y-92152664D01*
X154197202Y-92152671D01*
X154146908Y-92287517D01*
X154140501Y-92347116D01*
X154140500Y-92347135D01*
X154140500Y-93342870D01*
X154140501Y-93342876D01*
X154146908Y-93402481D01*
X154159659Y-93436669D01*
X154164642Y-93506361D01*
X154159659Y-93523331D01*
X154146908Y-93557518D01*
X154140501Y-93617116D01*
X154140500Y-93617135D01*
X154140500Y-94612870D01*
X154140501Y-94612876D01*
X154146908Y-94672481D01*
X154159659Y-94706669D01*
X154164642Y-94776361D01*
X154159659Y-94793331D01*
X154146908Y-94827518D01*
X154140501Y-94887116D01*
X154140500Y-94887135D01*
X154140500Y-95882870D01*
X154140501Y-95882876D01*
X154146908Y-95942481D01*
X154159659Y-95976669D01*
X154164642Y-96046361D01*
X154159659Y-96063331D01*
X154146908Y-96097518D01*
X154140501Y-96157116D01*
X154140500Y-96157135D01*
X154140500Y-97152870D01*
X154140501Y-97152876D01*
X154146908Y-97212481D01*
X154159659Y-97246669D01*
X154164642Y-97316361D01*
X154159659Y-97333331D01*
X154146908Y-97367518D01*
X154140501Y-97427116D01*
X154140500Y-97427135D01*
X154140500Y-98422870D01*
X154140501Y-98422876D01*
X154146908Y-98482481D01*
X154159659Y-98516669D01*
X154164642Y-98586361D01*
X154159659Y-98603331D01*
X154146908Y-98637518D01*
X154140501Y-98697116D01*
X154140500Y-98697135D01*
X154140500Y-99692870D01*
X154140501Y-99692876D01*
X154146908Y-99752481D01*
X154159659Y-99786669D01*
X154164642Y-99856361D01*
X154159659Y-99873331D01*
X154146908Y-99907518D01*
X154140501Y-99967116D01*
X154140500Y-99967135D01*
X154140500Y-100962870D01*
X154140501Y-100962876D01*
X154146908Y-101022481D01*
X154159659Y-101056669D01*
X154164642Y-101126361D01*
X154159659Y-101143331D01*
X154146908Y-101177518D01*
X154140501Y-101237116D01*
X154140500Y-101237135D01*
X154140500Y-102232870D01*
X154140501Y-102232876D01*
X154146908Y-102292481D01*
X154159659Y-102326669D01*
X154164642Y-102396361D01*
X154159659Y-102413331D01*
X154146908Y-102447518D01*
X154140501Y-102507116D01*
X154140500Y-102507135D01*
X154140500Y-103502870D01*
X154140501Y-103502876D01*
X154146908Y-103562481D01*
X154159659Y-103596669D01*
X154164642Y-103666361D01*
X154159659Y-103683331D01*
X154146908Y-103717518D01*
X154140501Y-103777116D01*
X154140500Y-103777135D01*
X154140500Y-104772870D01*
X154140501Y-104772876D01*
X154146908Y-104832481D01*
X154159659Y-104866669D01*
X154164642Y-104936361D01*
X154159659Y-104953331D01*
X154146908Y-104987518D01*
X154140501Y-105047116D01*
X154140500Y-105047135D01*
X154140500Y-106042870D01*
X154140501Y-106042876D01*
X154146908Y-106102481D01*
X154159659Y-106136669D01*
X154164642Y-106206361D01*
X154159659Y-106223331D01*
X154146908Y-106257518D01*
X154140501Y-106317116D01*
X154140500Y-106317135D01*
X154140500Y-107312870D01*
X154140501Y-107312876D01*
X154146908Y-107372483D01*
X154197202Y-107507328D01*
X154197206Y-107507335D01*
X154283452Y-107622544D01*
X154283455Y-107622547D01*
X154398664Y-107708793D01*
X154398671Y-107708797D01*
X154533517Y-107759091D01*
X154533516Y-107759091D01*
X154540444Y-107759835D01*
X154593127Y-107765500D01*
X155566500Y-107765499D01*
X155633539Y-107785183D01*
X155679294Y-107837987D01*
X155690500Y-107889499D01*
X155690500Y-107949730D01*
X155670815Y-108016769D01*
X155618011Y-108062524D01*
X155613950Y-108064292D01*
X155472097Y-108123044D01*
X155472086Y-108123049D01*
X155283014Y-108232203D01*
X155109818Y-108365096D01*
X155109810Y-108365103D01*
X155079310Y-108395600D01*
X155079262Y-108395645D01*
X155038825Y-108436084D01*
X155032627Y-108442282D01*
X154974591Y-108500317D01*
X154742342Y-108732566D01*
X154742339Y-108732570D01*
X154698595Y-108776314D01*
X154692673Y-108781861D01*
X154547929Y-108908798D01*
X154535060Y-108918672D01*
X154378399Y-109023349D01*
X154364353Y-109031459D01*
X154195366Y-109114794D01*
X154180380Y-109121001D01*
X154001966Y-109181564D01*
X153986298Y-109185763D01*
X153801494Y-109222521D01*
X153785413Y-109224638D01*
X153593214Y-109237234D01*
X153585105Y-109237499D01*
X153505743Y-109237499D01*
X153505727Y-109237500D01*
X145278071Y-109237500D01*
X145211032Y-109217815D01*
X145165277Y-109165011D01*
X145155333Y-109095853D01*
X145184358Y-109032297D01*
X145219615Y-109004143D01*
X145355904Y-108931296D01*
X145374797Y-108918672D01*
X145594332Y-108771985D01*
X145594337Y-108771981D01*
X145728979Y-108661483D01*
X145816000Y-108590067D01*
X145821249Y-108584818D01*
X145882572Y-108551333D01*
X145908930Y-108548499D01*
X146409202Y-108548499D01*
X146409208Y-108548499D01*
X146511997Y-108537999D01*
X146678534Y-108482814D01*
X146827856Y-108390712D01*
X146951912Y-108266656D01*
X147044014Y-108117334D01*
X147099199Y-107950797D01*
X147109700Y-107848009D01*
X147109699Y-106797992D01*
X147109485Y-106795900D01*
X147099199Y-106695203D01*
X147099198Y-106695200D01*
X147093029Y-106676582D01*
X147044014Y-106528666D01*
X146963430Y-106398018D01*
X146944991Y-106330628D01*
X146963429Y-106267831D01*
X147044414Y-106136534D01*
X147089496Y-106000483D01*
X147129267Y-105943041D01*
X147145186Y-105932111D01*
X147265910Y-105862412D01*
X147425128Y-105740238D01*
X147433229Y-105732135D01*
X147433239Y-105732128D01*
X147440305Y-105725062D01*
X147440307Y-105725061D01*
X147496084Y-105669284D01*
X147551861Y-105613507D01*
X147551862Y-105613504D01*
X147556905Y-105608462D01*
X147556957Y-105608402D01*
X147567035Y-105598326D01*
X147689209Y-105439107D01*
X147789555Y-105265304D01*
X147866357Y-105079891D01*
X147918301Y-104886039D01*
X147944499Y-104687065D01*
X147944499Y-104670630D01*
X147944500Y-104670617D01*
X147944500Y-104533511D01*
X147944501Y-104507839D01*
X147944500Y-104507834D01*
X147944500Y-100405213D01*
X147944500Y-100398715D01*
X147944489Y-100398513D01*
X147944491Y-100367439D01*
X147915334Y-100145918D01*
X147857510Y-99930098D01*
X147772009Y-99723672D01*
X147660295Y-99530173D01*
X147524279Y-99352911D01*
X147501882Y-99330514D01*
X147501865Y-99330495D01*
X147497550Y-99326180D01*
X147497548Y-99326177D01*
X147440559Y-99269189D01*
X147431185Y-99259815D01*
X147385195Y-99213824D01*
X147385161Y-99213793D01*
X147339873Y-99168506D01*
X147339779Y-99168420D01*
X147324858Y-99153499D01*
X147324852Y-99153493D01*
X147165077Y-99030888D01*
X147150656Y-99022561D01*
X147140705Y-99016816D01*
X147092491Y-98966248D01*
X147079350Y-98922031D01*
X147074199Y-98871603D01*
X147074198Y-98871600D01*
X147060538Y-98830376D01*
X147019014Y-98705066D01*
X146926912Y-98555744D01*
X146908849Y-98537681D01*
X146875364Y-98476358D01*
X146880348Y-98406666D01*
X146908849Y-98362319D01*
X146910823Y-98360345D01*
X146926912Y-98344256D01*
X147019014Y-98194934D01*
X147074199Y-98028397D01*
X147084700Y-97925609D01*
X147084699Y-96925592D01*
X147082569Y-96904744D01*
X147074199Y-96822803D01*
X147074198Y-96822800D01*
X147057135Y-96771308D01*
X147019014Y-96656266D01*
X147016198Y-96651701D01*
X146948074Y-96541253D01*
X146929634Y-96473861D01*
X146949161Y-96411645D01*
X146948120Y-96411003D01*
X146951910Y-96404857D01*
X146951912Y-96404856D01*
X147044014Y-96255534D01*
X147099199Y-96088997D01*
X147109700Y-95986209D01*
X147109699Y-94936192D01*
X147109406Y-94933328D01*
X147099199Y-94833403D01*
X147099198Y-94833400D01*
X147082524Y-94783082D01*
X147044014Y-94666866D01*
X146951912Y-94517544D01*
X146827856Y-94393488D01*
X146678534Y-94301386D01*
X146511997Y-94246201D01*
X146511995Y-94246200D01*
X146409210Y-94235700D01*
X145634198Y-94235700D01*
X145634172Y-94235702D01*
X145602352Y-94238952D01*
X145533659Y-94226181D01*
X145482777Y-94178298D01*
X145465858Y-94110508D01*
X145488276Y-94044332D01*
X145515443Y-94016327D01*
X145637191Y-93925186D01*
X145723350Y-93810093D01*
X145723354Y-93810086D01*
X145773596Y-93675379D01*
X145773598Y-93675372D01*
X145779999Y-93615844D01*
X145780000Y-93615827D01*
X145780000Y-92968000D01*
X145080000Y-92968000D01*
X145080000Y-94068000D01*
X145306036Y-94068000D01*
X145373075Y-94087685D01*
X145418830Y-94140489D01*
X145428774Y-94209647D01*
X145399749Y-94273203D01*
X145369878Y-94295756D01*
X145371013Y-94297595D01*
X145364867Y-94301385D01*
X145364866Y-94301386D01*
X145307580Y-94336720D01*
X145215542Y-94393489D01*
X145091488Y-94517543D01*
X145091483Y-94517549D01*
X145089441Y-94520861D01*
X145087447Y-94522653D01*
X145087007Y-94523211D01*
X145086911Y-94523135D01*
X145037491Y-94567583D01*
X144968528Y-94578802D01*
X144904447Y-94550955D01*
X144878368Y-94520856D01*
X144876519Y-94517859D01*
X144876516Y-94517855D01*
X144752545Y-94393884D01*
X144603324Y-94301843D01*
X144603312Y-94301838D01*
X144600985Y-94301067D01*
X144599597Y-94300106D01*
X144596779Y-94298792D01*
X144597003Y-94298310D01*
X144543543Y-94261291D01*
X144516724Y-94196773D01*
X144529044Y-94127998D01*
X144552316Y-94095682D01*
X144580000Y-94067998D01*
X144580000Y-92592000D01*
X144599685Y-92524961D01*
X144652489Y-92479206D01*
X144704000Y-92468000D01*
X145780000Y-92468000D01*
X145780000Y-92168500D01*
X145799685Y-92101461D01*
X145852489Y-92055706D01*
X145904000Y-92044500D01*
X145959389Y-92044500D01*
X145959391Y-92044500D01*
X146134267Y-92007329D01*
X146297593Y-91934612D01*
X146442230Y-91829526D01*
X146561859Y-91696665D01*
X146651250Y-91541835D01*
X146706497Y-91371803D01*
X146725185Y-91194000D01*
X146706497Y-91016197D01*
X146666397Y-90892782D01*
X146651252Y-90846170D01*
X146651249Y-90846164D01*
X146646843Y-90838533D01*
X146595928Y-90750344D01*
X146579455Y-90682443D01*
X146602308Y-90616416D01*
X146657229Y-90573226D01*
X146703315Y-90564344D01*
X155566500Y-90564344D01*
X155633539Y-90584029D01*
G37*
G04 #@! TD.AperFunction*
G04 #@! TA.AperFunction,Conductor*
G36*
X123545539Y-103349685D02*
G01*
X123591294Y-103402489D01*
X123602500Y-103454000D01*
X123602500Y-104322285D01*
X123612066Y-104339804D01*
X123614900Y-104366162D01*
X123614900Y-106795399D01*
X123752372Y-106795399D01*
X123752383Y-106795398D01*
X123802970Y-106790230D01*
X123871663Y-106802999D01*
X123922548Y-106850879D01*
X123939469Y-106918668D01*
X123917054Y-106984845D01*
X123903255Y-107001269D01*
X123753400Y-107151124D01*
X123627900Y-107330357D01*
X123627898Y-107330361D01*
X123535426Y-107528668D01*
X123535422Y-107528677D01*
X123478793Y-107740020D01*
X123478793Y-107740024D01*
X123460447Y-107949730D01*
X123459723Y-107958000D01*
X123475955Y-108143543D01*
X123478793Y-108175975D01*
X123478794Y-108175982D01*
X123496642Y-108242594D01*
X123494979Y-108312444D01*
X123455816Y-108370306D01*
X123391587Y-108397809D01*
X123323067Y-108386407D01*
X123116400Y-108286883D01*
X123116397Y-108286882D01*
X123116393Y-108286880D01*
X122843227Y-108191298D01*
X122843225Y-108191297D01*
X122561073Y-108126900D01*
X122561055Y-108126897D01*
X122273479Y-108094498D01*
X122273476Y-108094498D01*
X122128770Y-108094500D01*
X119088974Y-108094500D01*
X119088958Y-108094499D01*
X119010285Y-108094499D01*
X119000558Y-108094117D01*
X118841667Y-108081614D01*
X118822447Y-108078570D01*
X118672226Y-108042506D01*
X118653722Y-108036494D01*
X118606100Y-108016769D01*
X118510990Y-107977374D01*
X118493656Y-107968542D01*
X118361928Y-107887820D01*
X118346185Y-107876382D01*
X118264967Y-107807015D01*
X118226774Y-107748508D01*
X118221499Y-107712725D01*
X118221499Y-107689452D01*
X118241184Y-107622413D01*
X118257818Y-107601771D01*
X118456389Y-107403200D01*
X119177474Y-106682116D01*
X119183351Y-106676611D01*
X119336533Y-106542282D01*
X119349365Y-106532435D01*
X119515364Y-106421525D01*
X119529384Y-106413431D01*
X119708440Y-106325136D01*
X119723405Y-106318939D01*
X119912433Y-106254778D01*
X119928078Y-106250586D01*
X120103670Y-106215663D01*
X120173261Y-106221892D01*
X120228437Y-106264757D01*
X120245563Y-106298274D01*
X120267586Y-106364734D01*
X120359688Y-106514056D01*
X120483744Y-106638112D01*
X120633066Y-106730214D01*
X120799603Y-106785399D01*
X120902391Y-106795900D01*
X121677408Y-106795899D01*
X121677416Y-106795898D01*
X121677419Y-106795898D01*
X121739042Y-106789603D01*
X121780197Y-106785399D01*
X121946734Y-106730214D01*
X122096056Y-106638112D01*
X122220112Y-106514056D01*
X122222152Y-106510747D01*
X122224145Y-106508955D01*
X122224593Y-106508389D01*
X122224689Y-106508465D01*
X122274094Y-106464023D01*
X122343056Y-106452795D01*
X122407140Y-106480634D01*
X122433229Y-106510739D01*
X122435081Y-106513741D01*
X122435083Y-106513744D01*
X122559054Y-106637715D01*
X122708275Y-106729756D01*
X122708280Y-106729758D01*
X122874702Y-106784905D01*
X122874709Y-106784906D01*
X122977419Y-106795399D01*
X123114899Y-106795399D01*
X123114900Y-106795398D01*
X123114900Y-104828114D01*
X123105334Y-104810596D01*
X123102500Y-104784238D01*
X123102500Y-103454000D01*
X123122185Y-103386961D01*
X123174989Y-103341206D01*
X123226500Y-103330000D01*
X123478500Y-103330000D01*
X123545539Y-103349685D01*
G37*
G04 #@! TD.AperFunction*
G04 #@! TA.AperFunction,Conductor*
G36*
X139019559Y-96993185D02*
G01*
X139064329Y-97046827D01*
X139074600Y-97096242D01*
X139074600Y-97167000D01*
X140288100Y-97167000D01*
X140355139Y-97186685D01*
X140400894Y-97239489D01*
X140412100Y-97291000D01*
X140412100Y-98231400D01*
X140413681Y-98232981D01*
X140447166Y-98294304D01*
X140450000Y-98320662D01*
X140450000Y-103562800D01*
X140430315Y-103629839D01*
X140377511Y-103675594D01*
X140326000Y-103686800D01*
X139125001Y-103686800D01*
X139125001Y-103936786D01*
X139135494Y-104039497D01*
X139190641Y-104205919D01*
X139190646Y-104205930D01*
X139265323Y-104327000D01*
X139278894Y-104334574D01*
X139320139Y-104346685D01*
X139365894Y-104399489D01*
X139377100Y-104451000D01*
X139377100Y-105295000D01*
X140414599Y-105295000D01*
X140414599Y-105070028D01*
X140414598Y-105070013D01*
X140404105Y-104967302D01*
X140348601Y-104799803D01*
X140346199Y-104729975D01*
X140381931Y-104669933D01*
X140444451Y-104638740D01*
X140466307Y-104636799D01*
X140574972Y-104636799D01*
X140574984Y-104636798D01*
X140652969Y-104628831D01*
X140721662Y-104641600D01*
X140772547Y-104689480D01*
X140789468Y-104757270D01*
X140780692Y-104793358D01*
X140782058Y-104793811D01*
X140779787Y-104800664D01*
X140779786Y-104800666D01*
X140724601Y-104967203D01*
X140724601Y-104967204D01*
X140724600Y-104967204D01*
X140714100Y-105069983D01*
X140714100Y-106020001D01*
X140714101Y-106020019D01*
X140724600Y-106122796D01*
X140724601Y-106122799D01*
X140779785Y-106289331D01*
X140779787Y-106289336D01*
X140787392Y-106301665D01*
X140871696Y-106438345D01*
X140871889Y-106438657D01*
X140944651Y-106511419D01*
X140978136Y-106572742D01*
X140973152Y-106642434D01*
X140944651Y-106686781D01*
X140871889Y-106759542D01*
X140779787Y-106908863D01*
X140779785Y-106908868D01*
X140769027Y-106941335D01*
X140724601Y-107075403D01*
X140724601Y-107075404D01*
X140724600Y-107075404D01*
X140714100Y-107178183D01*
X140714100Y-107811716D01*
X140694415Y-107878755D01*
X140671842Y-107904959D01*
X140669191Y-107907283D01*
X140656335Y-107917145D01*
X140604392Y-107951849D01*
X140537714Y-107972724D01*
X140470335Y-107954237D01*
X140447824Y-107936425D01*
X140414599Y-107903200D01*
X139001100Y-107903200D01*
X138934061Y-107883515D01*
X138888306Y-107830711D01*
X138877100Y-107779200D01*
X138877100Y-107403200D01*
X139377100Y-107403200D01*
X140414599Y-107403200D01*
X140414599Y-107178228D01*
X140414598Y-107178213D01*
X140404105Y-107075502D01*
X140348958Y-106909080D01*
X140348956Y-106909075D01*
X140256915Y-106759854D01*
X140183842Y-106686781D01*
X140150357Y-106625458D01*
X140155341Y-106555766D01*
X140183842Y-106511419D01*
X140256915Y-106438345D01*
X140348956Y-106289124D01*
X140348958Y-106289119D01*
X140404105Y-106122697D01*
X140404106Y-106122690D01*
X140414599Y-106019986D01*
X140414600Y-106019973D01*
X140414600Y-105795000D01*
X139377100Y-105795000D01*
X139377100Y-107403200D01*
X138877100Y-107403200D01*
X138877100Y-104370000D01*
X138622995Y-104370000D01*
X138555956Y-104350315D01*
X138510201Y-104297511D01*
X138505064Y-104284317D01*
X138500303Y-104269664D01*
X138497470Y-104260945D01*
X138408079Y-104106115D01*
X138361223Y-104054076D01*
X138288455Y-103973258D01*
X138288452Y-103973256D01*
X138288451Y-103973255D01*
X138288450Y-103973254D01*
X138143813Y-103868168D01*
X137980487Y-103795451D01*
X137980485Y-103795450D01*
X137846635Y-103767000D01*
X137805611Y-103758280D01*
X137626829Y-103758280D01*
X137545534Y-103775559D01*
X137512373Y-103782608D01*
X137442706Y-103777291D01*
X137386972Y-103735153D01*
X137362868Y-103669573D01*
X137368662Y-103623000D01*
X137387897Y-103563803D01*
X137406585Y-103386000D01*
X137387897Y-103208197D01*
X137358535Y-103117831D01*
X137332652Y-103038170D01*
X137332649Y-103038164D01*
X137325851Y-103026389D01*
X137274134Y-102936813D01*
X139125000Y-102936813D01*
X139125000Y-103186800D01*
X139950000Y-103186800D01*
X139950000Y-101705600D01*
X139125001Y-101705600D01*
X139125001Y-101955586D01*
X139135494Y-102058297D01*
X139190641Y-102224719D01*
X139190643Y-102224724D01*
X139286475Y-102380091D01*
X139283982Y-102381628D01*
X139305144Y-102434101D01*
X139292095Y-102502741D01*
X139286096Y-102512075D01*
X139286475Y-102512309D01*
X139190643Y-102667675D01*
X139190641Y-102667680D01*
X139135494Y-102834102D01*
X139135493Y-102834109D01*
X139125000Y-102936813D01*
X137274134Y-102936813D01*
X137243259Y-102883335D01*
X137186310Y-102820087D01*
X137123635Y-102750478D01*
X137123632Y-102750476D01*
X137123631Y-102750475D01*
X137123630Y-102750474D01*
X136978993Y-102645388D01*
X136815667Y-102572671D01*
X136815665Y-102572670D01*
X136687994Y-102545533D01*
X136640791Y-102535500D01*
X136462009Y-102535500D01*
X136431354Y-102542015D01*
X136287133Y-102572670D01*
X136287128Y-102572672D01*
X136123808Y-102645387D01*
X135979168Y-102750475D01*
X135859540Y-102883336D01*
X135770150Y-103038164D01*
X135770147Y-103038170D01*
X135714904Y-103208192D01*
X135714903Y-103208194D01*
X135696215Y-103386000D01*
X135714903Y-103563805D01*
X135714904Y-103563807D01*
X135770147Y-103733829D01*
X135770150Y-103733835D01*
X135859541Y-103888665D01*
X135868650Y-103898781D01*
X135898879Y-103961770D01*
X135900500Y-103981753D01*
X135900500Y-105098219D01*
X135880815Y-105165258D01*
X135828011Y-105211013D01*
X135758853Y-105220957D01*
X135719089Y-105208128D01*
X135635547Y-105164490D01*
X135551870Y-105140547D01*
X135439918Y-105108514D01*
X135439915Y-105108513D01*
X135439913Y-105108513D01*
X135367131Y-105102042D01*
X135320537Y-105097900D01*
X135320533Y-105097900D01*
X134737000Y-105097900D01*
X134669961Y-105078215D01*
X134624206Y-105025411D01*
X134613000Y-104973900D01*
X134613000Y-101791342D01*
X134632685Y-101724303D01*
X134681906Y-101680254D01*
X134697399Y-101672570D01*
X134711796Y-101665430D01*
X134860222Y-101546122D01*
X134916175Y-101476512D01*
X134973515Y-101436596D01*
X135043337Y-101434016D01*
X135103470Y-101469594D01*
X135109467Y-101476515D01*
X135165132Y-101545766D01*
X135165133Y-101545767D01*
X135313474Y-101665007D01*
X135313477Y-101665009D01*
X135483976Y-101749568D01*
X135668675Y-101795502D01*
X135711403Y-101798400D01*
X135912500Y-101798400D01*
X136412500Y-101798400D01*
X136613597Y-101798400D01*
X136656324Y-101795502D01*
X136841023Y-101749568D01*
X137011522Y-101665009D01*
X137011525Y-101665007D01*
X137159866Y-101545767D01*
X137159867Y-101545766D01*
X137279107Y-101397425D01*
X137279109Y-101397422D01*
X137363668Y-101226923D01*
X137409602Y-101042224D01*
X137412500Y-100999496D01*
X137412500Y-100955613D01*
X139125000Y-100955613D01*
X139125000Y-101205600D01*
X139950000Y-101205600D01*
X139950000Y-99724400D01*
X139125001Y-99724400D01*
X139125001Y-99974386D01*
X139135494Y-100077097D01*
X139190641Y-100243519D01*
X139190643Y-100243524D01*
X139286475Y-100398891D01*
X139283982Y-100400428D01*
X139305144Y-100452901D01*
X139292095Y-100521541D01*
X139286096Y-100530875D01*
X139286475Y-100531109D01*
X139190643Y-100686475D01*
X139190641Y-100686480D01*
X139135494Y-100852902D01*
X139135493Y-100852909D01*
X139125000Y-100955613D01*
X137412500Y-100955613D01*
X137412500Y-100548400D01*
X136412500Y-100548400D01*
X136412500Y-101798400D01*
X135912500Y-101798400D01*
X135912500Y-100172400D01*
X135932185Y-100105361D01*
X135984989Y-100059606D01*
X136036500Y-100048400D01*
X137412500Y-100048400D01*
X137412500Y-99597303D01*
X137409602Y-99554575D01*
X137363670Y-99369882D01*
X137363204Y-99368943D01*
X137363091Y-99368304D01*
X137361352Y-99363571D01*
X137362199Y-99363259D01*
X137351047Y-99300139D01*
X137378018Y-99235684D01*
X137435284Y-99196133D01*
X137606619Y-99139358D01*
X137606624Y-99139356D01*
X137755845Y-99047315D01*
X137879815Y-98923345D01*
X137971856Y-98774124D01*
X137971858Y-98774119D01*
X138027005Y-98607697D01*
X138027006Y-98607690D01*
X138037499Y-98504986D01*
X138037500Y-98504973D01*
X138037500Y-98230000D01*
X136824000Y-98230000D01*
X136756961Y-98210315D01*
X136711206Y-98157511D01*
X136700000Y-98106000D01*
X136700000Y-97941986D01*
X139074601Y-97941986D01*
X139085094Y-98044697D01*
X139140241Y-98211119D01*
X139140243Y-98211124D01*
X139232284Y-98360345D01*
X139268817Y-98396878D01*
X139302302Y-98458201D01*
X139297318Y-98527893D01*
X139285318Y-98549195D01*
X139286475Y-98549909D01*
X139190643Y-98705275D01*
X139190641Y-98705280D01*
X139135494Y-98871702D01*
X139135493Y-98871709D01*
X139125000Y-98974413D01*
X139125000Y-99224400D01*
X139950000Y-99224400D01*
X139950000Y-98685000D01*
X139948419Y-98683419D01*
X139914934Y-98622096D01*
X139912100Y-98595738D01*
X139912100Y-97667000D01*
X139074601Y-97667000D01*
X139074601Y-97941986D01*
X136700000Y-97941986D01*
X136700000Y-97854000D01*
X136719685Y-97786961D01*
X136772489Y-97741206D01*
X136824000Y-97730000D01*
X138037499Y-97730000D01*
X138037499Y-97455028D01*
X138037498Y-97455013D01*
X138027006Y-97352304D01*
X137999071Y-97268004D01*
X137996669Y-97198175D01*
X138032400Y-97138133D01*
X138094921Y-97106940D01*
X138116777Y-97104999D01*
X138537472Y-97104999D01*
X138537486Y-97104998D01*
X138640197Y-97094505D01*
X138806619Y-97039358D01*
X138806630Y-97039353D01*
X138885503Y-96990704D01*
X138952895Y-96972263D01*
X139019559Y-96993185D01*
G37*
G04 #@! TD.AperFunction*
G04 #@! TA.AperFunction,Conductor*
G36*
X130324835Y-101148101D02*
G01*
X130354918Y-101203207D01*
X130360857Y-101227089D01*
X130360860Y-101227096D01*
X130445467Y-101397692D01*
X130445469Y-101397695D01*
X130564777Y-101546121D01*
X130564778Y-101546122D01*
X130713204Y-101665430D01*
X130713207Y-101665432D01*
X130883802Y-101750039D01*
X130883803Y-101750039D01*
X130883807Y-101750041D01*
X131068611Y-101796000D01*
X131111377Y-101798900D01*
X132013622Y-101798899D01*
X132056389Y-101796000D01*
X132241193Y-101750041D01*
X132411796Y-101665430D01*
X132560222Y-101546122D01*
X132615853Y-101476914D01*
X132673196Y-101436995D01*
X132743018Y-101434415D01*
X132803151Y-101469994D01*
X132809147Y-101476914D01*
X132864777Y-101546121D01*
X132864778Y-101546122D01*
X133013204Y-101665430D01*
X133043094Y-101680254D01*
X133094407Y-101727675D01*
X133112000Y-101791342D01*
X133112000Y-104973900D01*
X133092315Y-105040939D01*
X133039511Y-105086694D01*
X132988000Y-105097900D01*
X132404471Y-105097900D01*
X132404465Y-105097900D01*
X132404464Y-105097901D01*
X132392816Y-105098936D01*
X132285084Y-105108513D01*
X132089454Y-105164489D01*
X132026890Y-105197170D01*
X131909093Y-105258702D01*
X131909091Y-105258703D01*
X131909090Y-105258704D01*
X131751390Y-105387290D01*
X131632108Y-105533580D01*
X131622802Y-105544993D01*
X131582999Y-105621192D01*
X131528589Y-105725354D01*
X131472614Y-105920983D01*
X131472613Y-105920986D01*
X131465545Y-106000486D01*
X131462000Y-106040363D01*
X131462000Y-106496812D01*
X131462001Y-106829500D01*
X131442317Y-106896539D01*
X131389513Y-106942294D01*
X131338001Y-106953500D01*
X129436704Y-106953500D01*
X129369665Y-106933815D01*
X129365597Y-106931086D01*
X129279639Y-106870898D01*
X129116619Y-106794880D01*
X129064181Y-106748709D01*
X129045029Y-106681515D01*
X129065245Y-106614634D01*
X129118410Y-106569299D01*
X129169023Y-106558499D01*
X129510470Y-106558499D01*
X129560904Y-106569219D01*
X129628020Y-106599100D01*
X129657733Y-106612329D01*
X129832609Y-106649500D01*
X129832610Y-106649500D01*
X130011389Y-106649500D01*
X130011391Y-106649500D01*
X130186267Y-106612329D01*
X130349593Y-106539612D01*
X130494230Y-106434526D01*
X130494707Y-106433997D01*
X130540447Y-106383197D01*
X130613859Y-106301665D01*
X130703250Y-106146835D01*
X130758497Y-105976803D01*
X130777185Y-105799000D01*
X130758497Y-105621197D01*
X130715152Y-105487796D01*
X130703252Y-105451170D01*
X130703249Y-105451164D01*
X130613859Y-105296335D01*
X130504183Y-105174528D01*
X130490807Y-105159672D01*
X130460577Y-105096681D01*
X130459466Y-105065486D01*
X130465500Y-104999091D01*
X130465499Y-104566910D01*
X130465499Y-104566902D01*
X130459467Y-104500518D01*
X130473004Y-104431972D01*
X130490809Y-104406324D01*
X130494226Y-104402528D01*
X130494230Y-104402526D01*
X130613859Y-104269665D01*
X130703250Y-104114835D01*
X130758497Y-103944803D01*
X130777185Y-103767000D01*
X130758497Y-103589197D01*
X130703250Y-103419165D01*
X130613859Y-103264335D01*
X130567003Y-103212296D01*
X130494235Y-103131478D01*
X130494232Y-103131476D01*
X130494231Y-103131475D01*
X130494230Y-103131474D01*
X130349593Y-103026388D01*
X130186267Y-102953671D01*
X130186265Y-102953670D01*
X130058594Y-102926533D01*
X130011391Y-102916500D01*
X129832609Y-102916500D01*
X129795439Y-102924400D01*
X129657734Y-102953670D01*
X129657733Y-102953670D01*
X129560908Y-102996780D01*
X129510473Y-103007500D01*
X129378308Y-103007500D01*
X129311269Y-102987815D01*
X129265514Y-102935011D01*
X129255570Y-102865853D01*
X129272770Y-102818402D01*
X129280214Y-102806334D01*
X129335399Y-102639797D01*
X129345900Y-102537008D01*
X129345900Y-101761729D01*
X129365585Y-101694690D01*
X129382219Y-101674048D01*
X129471805Y-101584462D01*
X129564583Y-101491683D01*
X129570465Y-101486174D01*
X129709056Y-101364635D01*
X129721906Y-101354774D01*
X129871770Y-101254641D01*
X129885793Y-101246545D01*
X130047445Y-101166828D01*
X130062418Y-101160628D01*
X130113374Y-101143331D01*
X130194726Y-101115715D01*
X130264535Y-101112807D01*
X130324835Y-101148101D01*
G37*
G04 #@! TD.AperFunction*
G04 #@! TA.AperFunction,Conductor*
G36*
X159353232Y-101281147D02*
G01*
X159378456Y-101296728D01*
X159520190Y-101409757D01*
X159749042Y-101553555D01*
X159992555Y-101670825D01*
X160247668Y-101760094D01*
X160511171Y-101820237D01*
X160779746Y-101850499D01*
X160779747Y-101850500D01*
X167579349Y-101850500D01*
X167579354Y-101850501D01*
X167606861Y-101850500D01*
X167606893Y-101850509D01*
X167658235Y-101850509D01*
X167658235Y-101850510D01*
X167804548Y-101850509D01*
X168095764Y-101821823D01*
X168382766Y-101764732D01*
X168504925Y-101727675D01*
X168662783Y-101679789D01*
X168662788Y-101679786D01*
X168662791Y-101679786D01*
X168892919Y-101584461D01*
X168962386Y-101576993D01*
X169024866Y-101608267D01*
X169060519Y-101668356D01*
X169058302Y-101737340D01*
X169024105Y-101842589D01*
X169024103Y-101842594D01*
X169013458Y-101943871D01*
X168986872Y-102008485D01*
X168977819Y-102018589D01*
X168725711Y-102270698D01*
X168725709Y-102270700D01*
X168725700Y-102270707D01*
X168674896Y-102321513D01*
X168668973Y-102327061D01*
X168489044Y-102484855D01*
X168476175Y-102494729D01*
X168280597Y-102625409D01*
X168266550Y-102633519D01*
X168055584Y-102737555D01*
X168040598Y-102743763D01*
X167817857Y-102819371D01*
X167802191Y-102823569D01*
X167571490Y-102869457D01*
X167555408Y-102871574D01*
X167316448Y-102887234D01*
X167308339Y-102887499D01*
X167229035Y-102887499D01*
X167229019Y-102887500D01*
X160985715Y-102887500D01*
X160985643Y-102887503D01*
X160951995Y-102887503D01*
X160753635Y-102918919D01*
X160562637Y-102980976D01*
X160562633Y-102980977D01*
X160466450Y-103029985D01*
X160410156Y-103043500D01*
X160312608Y-103043500D01*
X160151302Y-103077786D01*
X160081635Y-103072470D01*
X160025902Y-103030333D01*
X160001797Y-102964753D01*
X160001522Y-102956518D01*
X160001521Y-102953261D01*
X160001522Y-102953261D01*
X160001508Y-102878515D01*
X160001507Y-102878513D01*
X160001507Y-102874371D01*
X160001500Y-102874319D01*
X160001500Y-102874314D01*
X159999321Y-102866185D01*
X159997488Y-102858324D01*
X159976016Y-102750474D01*
X159972319Y-102731906D01*
X159972318Y-102731905D01*
X159972318Y-102731902D01*
X159915086Y-102593800D01*
X159843835Y-102487205D01*
X159839549Y-102480313D01*
X159835121Y-102472643D01*
X159835059Y-102472562D01*
X159779885Y-102417405D01*
X159779885Y-102417404D01*
X159779872Y-102417393D01*
X159730791Y-102368313D01*
X159726013Y-102363260D01*
X159572023Y-102190953D01*
X159563356Y-102180084D01*
X159476941Y-102058297D01*
X159431653Y-101994472D01*
X159424257Y-101982701D01*
X159408774Y-101954688D01*
X159314164Y-101783508D01*
X159308132Y-101770983D01*
X159306420Y-101766851D01*
X159221036Y-101560716D01*
X159216444Y-101547591D01*
X159181992Y-101428004D01*
X159182349Y-101358135D01*
X159220423Y-101299551D01*
X159284126Y-101270851D01*
X159353232Y-101281147D01*
G37*
G04 #@! TD.AperFunction*
G04 #@! TA.AperFunction,Conductor*
G36*
X128949022Y-96996579D02*
G01*
X129018369Y-97039353D01*
X129018380Y-97039358D01*
X129184802Y-97094505D01*
X129184809Y-97094506D01*
X129287519Y-97104999D01*
X129708222Y-97104999D01*
X129775261Y-97124683D01*
X129821016Y-97177487D01*
X129830960Y-97246646D01*
X129825928Y-97268002D01*
X129797995Y-97352298D01*
X129797993Y-97352309D01*
X129787500Y-97455013D01*
X129787500Y-97730000D01*
X131001000Y-97730000D01*
X131068039Y-97749685D01*
X131113794Y-97802489D01*
X131125000Y-97854000D01*
X131125000Y-98106000D01*
X131105315Y-98173039D01*
X131052511Y-98218794D01*
X131001000Y-98230000D01*
X129787501Y-98230000D01*
X129787501Y-98504986D01*
X129797994Y-98607697D01*
X129853141Y-98774119D01*
X129853143Y-98774124D01*
X129945184Y-98923345D01*
X130069154Y-99047315D01*
X130218375Y-99139356D01*
X130218378Y-99139357D01*
X130303351Y-99167515D01*
X130360795Y-99207288D01*
X130387618Y-99271804D01*
X130375436Y-99340313D01*
X130360860Y-99369704D01*
X130360859Y-99369707D01*
X130341595Y-99447170D01*
X130333502Y-99479712D01*
X130298219Y-99540019D01*
X130235934Y-99571678D01*
X130225329Y-99573188D01*
X130198761Y-99575805D01*
X130188345Y-99576831D01*
X129898970Y-99634389D01*
X129706184Y-99692870D01*
X129616619Y-99720039D01*
X129616617Y-99720039D01*
X129616613Y-99720041D01*
X129344033Y-99832945D01*
X129344028Y-99832947D01*
X129083821Y-99972028D01*
X129083814Y-99972031D01*
X128838493Y-100135946D01*
X128838486Y-100135952D01*
X128610415Y-100323120D01*
X128610410Y-100323125D01*
X128558357Y-100375176D01*
X128558356Y-100375176D01*
X128530139Y-100403394D01*
X128530137Y-100403396D01*
X128506092Y-100427440D01*
X128483351Y-100450181D01*
X128422028Y-100483666D01*
X128395670Y-100486500D01*
X128328196Y-100486500D01*
X128261157Y-100466815D01*
X128215402Y-100414011D01*
X128204838Y-100349898D01*
X128212099Y-100278818D01*
X128212100Y-100278809D01*
X128212099Y-99228792D01*
X128211650Y-99224400D01*
X128201599Y-99126003D01*
X128201598Y-99126000D01*
X128184146Y-99073334D01*
X128146414Y-98959466D01*
X128054312Y-98810144D01*
X128050783Y-98806615D01*
X128017298Y-98745292D01*
X128022282Y-98675600D01*
X128032922Y-98653841D01*
X128070614Y-98592734D01*
X128125799Y-98426197D01*
X128136300Y-98323409D01*
X128136299Y-97835629D01*
X128155983Y-97768591D01*
X128172618Y-97747949D01*
X128264207Y-97656360D01*
X128495599Y-97424969D01*
X128495600Y-97424966D01*
X128500342Y-97420225D01*
X128500433Y-97420123D01*
X128521711Y-97398846D01*
X128659948Y-97225504D01*
X128777908Y-97037775D01*
X128777911Y-97037766D01*
X128778931Y-97036145D01*
X128831266Y-96989854D01*
X128900320Y-96979206D01*
X128949022Y-96996579D01*
G37*
G04 #@! TD.AperFunction*
G04 #@! TA.AperFunction,Conductor*
G36*
X131413025Y-95266185D02*
G01*
X131458780Y-95318989D01*
X131469344Y-95383102D01*
X131462000Y-95454981D01*
X131462000Y-96405001D01*
X131462001Y-96405019D01*
X131472500Y-96507796D01*
X131472501Y-96507800D01*
X131504478Y-96604299D01*
X131506880Y-96674128D01*
X131471148Y-96734170D01*
X131408627Y-96765362D01*
X131372077Y-96764746D01*
X131371931Y-96766182D01*
X131262486Y-96755000D01*
X131241778Y-96755000D01*
X131174739Y-96735315D01*
X131128984Y-96682511D01*
X131119040Y-96613353D01*
X131124072Y-96591997D01*
X131152004Y-96507700D01*
X131152006Y-96507690D01*
X131162499Y-96404986D01*
X131162500Y-96404973D01*
X131162500Y-96180000D01*
X129749000Y-96180000D01*
X129681961Y-96160315D01*
X129636206Y-96107511D01*
X129625000Y-96056000D01*
X129625000Y-95804000D01*
X129644685Y-95736961D01*
X129697489Y-95691206D01*
X129749000Y-95680000D01*
X131162499Y-95680000D01*
X131162499Y-95455028D01*
X131162498Y-95455013D01*
X131155152Y-95383102D01*
X131167922Y-95314409D01*
X131215802Y-95263525D01*
X131278510Y-95246500D01*
X131345986Y-95246500D01*
X131413025Y-95266185D01*
G37*
G04 #@! TD.AperFunction*
G04 #@! TA.AperFunction,Conductor*
G36*
X140332446Y-90422501D02*
G01*
X140408396Y-90422500D01*
X140457390Y-90422620D01*
X140457805Y-90422622D01*
X140506775Y-90422983D01*
X140506823Y-90422984D01*
X140554768Y-90423574D01*
X140557400Y-90423636D01*
X140581663Y-90424463D01*
X140586395Y-90424716D01*
X140609560Y-90426406D01*
X140614320Y-90426846D01*
X140616267Y-90427064D01*
X140638238Y-90429524D01*
X140640605Y-90429813D01*
X140676464Y-90434533D01*
X140716208Y-90439765D01*
X140718801Y-90440135D01*
X140791102Y-90451263D01*
X140796377Y-90452193D01*
X140864741Y-90465792D01*
X140866722Y-90466186D01*
X140872002Y-90467357D01*
X140930808Y-90481746D01*
X140937343Y-90483346D01*
X140941606Y-90484389D01*
X140946820Y-90485785D01*
X141015733Y-90505872D01*
X141020845Y-90507484D01*
X141088804Y-90530554D01*
X141093832Y-90532384D01*
X141160643Y-90558366D01*
X141165632Y-90560432D01*
X141231334Y-90589342D01*
X141236224Y-90591623D01*
X141300539Y-90623341D01*
X141305319Y-90625829D01*
X141368212Y-90660335D01*
X141372879Y-90663029D01*
X141414596Y-90688344D01*
X141434195Y-90700237D01*
X141438722Y-90703121D01*
X141498386Y-90742987D01*
X141502774Y-90746059D01*
X141561634Y-90789217D01*
X141563677Y-90790750D01*
X141564757Y-90791579D01*
X141564759Y-90791581D01*
X141624095Y-90837112D01*
X141625893Y-90838520D01*
X141635468Y-90846165D01*
X141645066Y-90853829D01*
X141648726Y-90856869D01*
X141666351Y-90872094D01*
X141669897Y-90875280D01*
X141687543Y-90891756D01*
X141689505Y-90893628D01*
X141723586Y-90926874D01*
X141724023Y-90927302D01*
X141758696Y-90961461D01*
X141759135Y-90961896D01*
X141793748Y-90996337D01*
X141793963Y-90996552D01*
X141808960Y-91011548D01*
X141818321Y-91020909D01*
X141818357Y-91020950D01*
X141877678Y-91080268D01*
X141877693Y-91080282D01*
X141926004Y-91128593D01*
X141926045Y-91128630D01*
X141938981Y-91141566D01*
X141941206Y-91143182D01*
X141941846Y-91144013D01*
X141942684Y-91144728D01*
X141942533Y-91144903D01*
X141983871Y-91198512D01*
X141989850Y-91268126D01*
X141957244Y-91329921D01*
X141896405Y-91364278D01*
X141868320Y-91367500D01*
X140932129Y-91367500D01*
X140932123Y-91367501D01*
X140872516Y-91373908D01*
X140737671Y-91424202D01*
X140737664Y-91424206D01*
X140622455Y-91510452D01*
X140622452Y-91510455D01*
X140536206Y-91625664D01*
X140536202Y-91625671D01*
X140485908Y-91760517D01*
X140479501Y-91820116D01*
X140479501Y-91820123D01*
X140479500Y-91820135D01*
X140479500Y-93162547D01*
X140459815Y-93229586D01*
X140443181Y-93250228D01*
X140197459Y-93495949D01*
X140197444Y-93495963D01*
X140176445Y-93516961D01*
X140176407Y-93516981D01*
X140050553Y-93642841D01*
X140050542Y-93642853D01*
X139896338Y-93843824D01*
X139896329Y-93843839D01*
X139769679Y-94063211D01*
X139769669Y-94063230D01*
X139703124Y-94223889D01*
X139659284Y-94278293D01*
X139627569Y-94294142D01*
X139530266Y-94326386D01*
X139380942Y-94418489D01*
X139256889Y-94542542D01*
X139164787Y-94691863D01*
X139164785Y-94691868D01*
X139117902Y-94833352D01*
X139078129Y-94890797D01*
X139013613Y-94917620D01*
X138944837Y-94905305D01*
X138935100Y-94899887D01*
X138806628Y-94820645D01*
X138806619Y-94820641D01*
X138640197Y-94765494D01*
X138640190Y-94765493D01*
X138537486Y-94755000D01*
X138200000Y-94755000D01*
X138200000Y-96056000D01*
X138180315Y-96123039D01*
X138127511Y-96168794D01*
X138076000Y-96180000D01*
X136662501Y-96180000D01*
X136662501Y-96404986D01*
X136672994Y-96507697D01*
X136700928Y-96591996D01*
X136703330Y-96661824D01*
X136667598Y-96721866D01*
X136605078Y-96753059D01*
X136583227Y-96755000D01*
X136562531Y-96755000D01*
X136562512Y-96755001D01*
X136453069Y-96766182D01*
X136452816Y-96763712D01*
X136394472Y-96759327D01*
X136338690Y-96717253D01*
X136314511Y-96651701D01*
X136320518Y-96604306D01*
X136352499Y-96507797D01*
X136363000Y-96405009D01*
X136362999Y-95455013D01*
X136662500Y-95455013D01*
X136662500Y-95680000D01*
X137700000Y-95680000D01*
X137700000Y-94755000D01*
X137362528Y-94755000D01*
X137362512Y-94755001D01*
X137259802Y-94765494D01*
X137093380Y-94820641D01*
X137093375Y-94820643D01*
X136944154Y-94912684D01*
X136820184Y-95036654D01*
X136728143Y-95185875D01*
X136728141Y-95185880D01*
X136672994Y-95352302D01*
X136672993Y-95352309D01*
X136662500Y-95455013D01*
X136362999Y-95455013D01*
X136362999Y-95454992D01*
X136360220Y-95427792D01*
X136352499Y-95352203D01*
X136352498Y-95352200D01*
X136343421Y-95324808D01*
X136297314Y-95185666D01*
X136205212Y-95036344D01*
X136081156Y-94912288D01*
X135970166Y-94843829D01*
X135931836Y-94820187D01*
X135931831Y-94820185D01*
X135901861Y-94810254D01*
X135765297Y-94765001D01*
X135765295Y-94765000D01*
X135662516Y-94754500D01*
X135662509Y-94754500D01*
X135012230Y-94754500D01*
X134945191Y-94734815D01*
X134924549Y-94718181D01*
X134832379Y-94626011D01*
X134832314Y-94625952D01*
X134777577Y-94571214D01*
X134534649Y-94371848D01*
X134534648Y-94371847D01*
X134534644Y-94371844D01*
X134346604Y-94246200D01*
X134273350Y-94197253D01*
X134273349Y-94197252D01*
X134273344Y-94197249D01*
X134273339Y-94197246D01*
X134273332Y-94197242D01*
X133996196Y-94049109D01*
X133996191Y-94049107D01*
X133984663Y-94044332D01*
X133956105Y-94032502D01*
X133705853Y-93928843D01*
X133512878Y-93870305D01*
X133405117Y-93837616D01*
X133279175Y-93812564D01*
X133096905Y-93776307D01*
X133096893Y-93776305D01*
X132784143Y-93745501D01*
X132784139Y-93745500D01*
X132784129Y-93745500D01*
X132700929Y-93745500D01*
X132700927Y-93745500D01*
X130038405Y-93745500D01*
X130033157Y-93745500D01*
X130032971Y-93745508D01*
X129966769Y-93745508D01*
X129677516Y-93778096D01*
X129677492Y-93778100D01*
X129393694Y-93842872D01*
X129393689Y-93842874D01*
X129118915Y-93939019D01*
X128856642Y-94065321D01*
X128610146Y-94220204D01*
X128610142Y-94220207D01*
X128382551Y-94401704D01*
X128331898Y-94452356D01*
X128331895Y-94452359D01*
X128134989Y-94649264D01*
X128134964Y-94649277D01*
X128020266Y-94763979D01*
X128017632Y-94767282D01*
X127960438Y-94807414D01*
X127890626Y-94810254D01*
X127855599Y-94795494D01*
X127755324Y-94733643D01*
X127755319Y-94733641D01*
X127588897Y-94678494D01*
X127588890Y-94678493D01*
X127486186Y-94668000D01*
X127348700Y-94668000D01*
X127348700Y-96019000D01*
X127329015Y-96086039D01*
X127276211Y-96131794D01*
X127224700Y-96143000D01*
X126972700Y-96143000D01*
X126905661Y-96123315D01*
X126859906Y-96070511D01*
X126848700Y-96019000D01*
X126848700Y-94668000D01*
X126711227Y-94668000D01*
X126711212Y-94668001D01*
X126608502Y-94678494D01*
X126442080Y-94733641D01*
X126442075Y-94733643D01*
X126292854Y-94825684D01*
X126168883Y-94949655D01*
X126168879Y-94949660D01*
X126167026Y-94952665D01*
X126165218Y-94954290D01*
X126164402Y-94955323D01*
X126164225Y-94955183D01*
X126115074Y-94999385D01*
X126046111Y-95010601D01*
X125982031Y-94982752D01*
X125955953Y-94952653D01*
X125955937Y-94952628D01*
X125953912Y-94949344D01*
X125829856Y-94825288D01*
X125690730Y-94739475D01*
X125680536Y-94733187D01*
X125680531Y-94733185D01*
X125679062Y-94732698D01*
X125513997Y-94678001D01*
X125513995Y-94678000D01*
X125411216Y-94667500D01*
X125411209Y-94667500D01*
X125006452Y-94667500D01*
X124939413Y-94647815D01*
X124918771Y-94631181D01*
X124903643Y-94616053D01*
X124856154Y-94568563D01*
X124856039Y-94568458D01*
X124802558Y-94514977D01*
X124672534Y-94411286D01*
X124579033Y-94336721D01*
X124486046Y-94278293D01*
X124336955Y-94184612D01*
X124162908Y-94100795D01*
X124079366Y-94060563D01*
X124079363Y-94060562D01*
X124079359Y-94060560D01*
X123809510Y-93966135D01*
X123809501Y-93966132D01*
X123530776Y-93902514D01*
X123530764Y-93902512D01*
X123246677Y-93870501D01*
X123246675Y-93870500D01*
X123165325Y-93870500D01*
X123165323Y-93870500D01*
X123103724Y-93870500D01*
X123103713Y-93870499D01*
X123027773Y-93870499D01*
X123027772Y-93870499D01*
X123020178Y-93870499D01*
X123020162Y-93870500D01*
X120133883Y-93870500D01*
X120126930Y-93870305D01*
X119887236Y-93856844D01*
X119873418Y-93855287D01*
X119640179Y-93815658D01*
X119626622Y-93812564D01*
X119399276Y-93747066D01*
X119386152Y-93742473D01*
X119167586Y-93651941D01*
X119155057Y-93645908D01*
X118947989Y-93531466D01*
X118936215Y-93524068D01*
X118743260Y-93387160D01*
X118732388Y-93378489D01*
X118553407Y-93218541D01*
X118548353Y-93213763D01*
X118524241Y-93189651D01*
X118492760Y-93158169D01*
X118492750Y-93158160D01*
X118257818Y-92923228D01*
X118224333Y-92861905D01*
X118221499Y-92835556D01*
X118221499Y-91941450D01*
X118241184Y-91874412D01*
X118257818Y-91853770D01*
X118351072Y-91760517D01*
X118728813Y-91382777D01*
X118769857Y-91341889D01*
X118811057Y-91301158D01*
X118851757Y-91261227D01*
X118853151Y-91259881D01*
X118881744Y-91232734D01*
X118884314Y-91230363D01*
X118913160Y-91204519D01*
X118915745Y-91202268D01*
X118946249Y-91176487D01*
X118947370Y-91175554D01*
X119005390Y-91127940D01*
X119005391Y-91127937D01*
X119015457Y-91119677D01*
X119015458Y-91119675D01*
X119015819Y-91119378D01*
X119017233Y-91118236D01*
X119093443Y-91057752D01*
X119096617Y-91055318D01*
X119173751Y-90998111D01*
X119177014Y-90995771D01*
X119256014Y-90941095D01*
X119259342Y-90938873D01*
X119289917Y-90919158D01*
X119340085Y-90886812D01*
X119343469Y-90884707D01*
X119425901Y-90835300D01*
X119429331Y-90833319D01*
X119513351Y-90786627D01*
X119516887Y-90784738D01*
X119529461Y-90778279D01*
X119602338Y-90740844D01*
X119605892Y-90739093D01*
X119685095Y-90701634D01*
X119692715Y-90698030D01*
X119696391Y-90696363D01*
X119784520Y-90658160D01*
X119788228Y-90656623D01*
X119877580Y-90621313D01*
X119881344Y-90619898D01*
X119971748Y-90587551D01*
X119975556Y-90586257D01*
X120066902Y-90556908D01*
X120070767Y-90555735D01*
X120163259Y-90529324D01*
X120167085Y-90528299D01*
X120260236Y-90504968D01*
X120264185Y-90504047D01*
X120295373Y-90497310D01*
X120358229Y-90483736D01*
X120362060Y-90482973D01*
X120456552Y-90465781D01*
X120460480Y-90465134D01*
X120555459Y-90451046D01*
X120559478Y-90450517D01*
X120655904Y-90439424D01*
X120657882Y-90439214D01*
X120661730Y-90438834D01*
X120662202Y-90438788D01*
X120662227Y-90438788D01*
X120662227Y-90438787D01*
X120732740Y-90431842D01*
X120746105Y-90430525D01*
X120747844Y-90430367D01*
X120787235Y-90427061D01*
X120790770Y-90426816D01*
X120825211Y-90424924D01*
X120829401Y-90424694D01*
X120832918Y-90424552D01*
X120869060Y-90423613D01*
X120872370Y-90423528D01*
X120874359Y-90423492D01*
X120931052Y-90422947D01*
X120931406Y-90422944D01*
X120989208Y-90422611D01*
X121047122Y-90422500D01*
X121123071Y-90422501D01*
X121123075Y-90422500D01*
X140332442Y-90422500D01*
X140332446Y-90422501D01*
G37*
G04 #@! TD.AperFunction*
G04 #@! TA.AperFunction,Conductor*
G36*
X144014426Y-93921592D02*
G01*
X144015712Y-93919875D01*
X144137906Y-94011350D01*
X144137911Y-94011353D01*
X144163710Y-94020975D01*
X144219645Y-94062846D01*
X144244063Y-94128310D01*
X144229212Y-94196583D01*
X144208061Y-94224838D01*
X144196700Y-94236199D01*
X144196700Y-95587200D01*
X144177015Y-95654239D01*
X144124211Y-95699994D01*
X144072700Y-95711200D01*
X143820700Y-95711200D01*
X143753661Y-95691515D01*
X143707906Y-95638711D01*
X143696700Y-95587200D01*
X143696700Y-94543343D01*
X143703658Y-94502389D01*
X143705641Y-94496721D01*
X143740653Y-94396663D01*
X143799096Y-94140602D01*
X143807942Y-94062091D01*
X143814733Y-94001811D01*
X143841799Y-93937397D01*
X143899393Y-93897841D01*
X143969230Y-93895702D01*
X144014426Y-93921592D01*
G37*
G04 #@! TD.AperFunction*
G04 #@! TA.AperFunction,Conductor*
G36*
X119143059Y-95005061D02*
G01*
X119248223Y-95018906D01*
X119279491Y-95027284D01*
X119369918Y-95064740D01*
X119397952Y-95080925D01*
X119475602Y-95140509D01*
X119498491Y-95163398D01*
X119558074Y-95241048D01*
X119574259Y-95269081D01*
X119611715Y-95359508D01*
X119620093Y-95390775D01*
X119633939Y-95495939D01*
X119635000Y-95512125D01*
X119635000Y-96128500D01*
X119615315Y-96195539D01*
X119562511Y-96241294D01*
X119511000Y-96252500D01*
X118461247Y-96252500D01*
X118402770Y-96264131D01*
X118402769Y-96264132D01*
X118336447Y-96308447D01*
X118292132Y-96374769D01*
X118289649Y-96387253D01*
X118257262Y-96449163D01*
X118196545Y-96483735D01*
X118135941Y-96482833D01*
X118060057Y-96462500D01*
X117901943Y-96462500D01*
X117749216Y-96503423D01*
X117749209Y-96503426D01*
X117612290Y-96582475D01*
X117612282Y-96582481D01*
X117500481Y-96694282D01*
X117500475Y-96694290D01*
X117421426Y-96831209D01*
X117421423Y-96831216D01*
X117380500Y-96983943D01*
X117380500Y-97142057D01*
X117412870Y-97262861D01*
X117421423Y-97294783D01*
X117421426Y-97294790D01*
X117500475Y-97431709D01*
X117500481Y-97431717D01*
X117544373Y-97475609D01*
X117577858Y-97536932D01*
X117572874Y-97606624D01*
X117539343Y-97654556D01*
X117539727Y-97654940D01*
X117537557Y-97657109D01*
X117537235Y-97657571D01*
X117536284Y-97658382D01*
X117492083Y-97702591D01*
X117492076Y-97702598D01*
X117406037Y-97788635D01*
X117405947Y-97788736D01*
X117386089Y-97808595D01*
X117386078Y-97808607D01*
X117294216Y-97935042D01*
X117223256Y-98074306D01*
X117223255Y-98074307D01*
X117174955Y-98222949D01*
X117150501Y-98377322D01*
X117150501Y-98406493D01*
X117150500Y-98406517D01*
X117150500Y-98455467D01*
X117150499Y-98517008D01*
X117150500Y-98517021D01*
X117150500Y-101514561D01*
X117150509Y-101514708D01*
X117150509Y-101541242D01*
X117166352Y-101641293D01*
X117174619Y-101693495D01*
X117182934Y-101719087D01*
X117222250Y-101840099D01*
X117292227Y-101977443D01*
X117292229Y-101977446D01*
X117292232Y-101977451D01*
X117382838Y-102102161D01*
X117382840Y-102102163D01*
X117399962Y-102119285D01*
X117399966Y-102119290D01*
X117515393Y-102234719D01*
X117515647Y-102234942D01*
X117526021Y-102245316D01*
X117526383Y-102245579D01*
X117526486Y-102245712D01*
X117529723Y-102248477D01*
X117529142Y-102249156D01*
X117569050Y-102300904D01*
X117575034Y-102370517D01*
X117542432Y-102432314D01*
X117541184Y-102433579D01*
X117500481Y-102474282D01*
X117500475Y-102474290D01*
X117421426Y-102611209D01*
X117421423Y-102611216D01*
X117380500Y-102763943D01*
X117380500Y-102922057D01*
X117401949Y-103002104D01*
X117421423Y-103074783D01*
X117421426Y-103074790D01*
X117500475Y-103211709D01*
X117500479Y-103211714D01*
X117500480Y-103211716D01*
X117612284Y-103323520D01*
X117612286Y-103323521D01*
X117612290Y-103323524D01*
X117681499Y-103363481D01*
X117749216Y-103402577D01*
X117901943Y-103443500D01*
X117901945Y-103443500D01*
X118060055Y-103443500D01*
X118060057Y-103443500D01*
X118135940Y-103423167D01*
X118205787Y-103424828D01*
X118263650Y-103463990D01*
X118289649Y-103518747D01*
X118292132Y-103531230D01*
X118336447Y-103597552D01*
X118402769Y-103641867D01*
X118402770Y-103641868D01*
X118461247Y-103653499D01*
X118461250Y-103653500D01*
X119511000Y-103653500D01*
X119578039Y-103673185D01*
X119623794Y-103725989D01*
X119635000Y-103777500D01*
X119635000Y-104401874D01*
X119633939Y-104418060D01*
X119620093Y-104523224D01*
X119611715Y-104554491D01*
X119574259Y-104644918D01*
X119558074Y-104672951D01*
X119498491Y-104750601D01*
X119475601Y-104773491D01*
X119397951Y-104833074D01*
X119369918Y-104849259D01*
X119279491Y-104886715D01*
X119248224Y-104895093D01*
X119154398Y-104907446D01*
X119143058Y-104908939D01*
X119126874Y-104910000D01*
X113793126Y-104910000D01*
X113776941Y-104908939D01*
X113763917Y-104907224D01*
X113671775Y-104895093D01*
X113640508Y-104886715D01*
X113550081Y-104849259D01*
X113522048Y-104833074D01*
X113444398Y-104773491D01*
X113421508Y-104750601D01*
X113361925Y-104672951D01*
X113345740Y-104644918D01*
X113308284Y-104554491D01*
X113299906Y-104523223D01*
X113286061Y-104418059D01*
X113285000Y-104401874D01*
X113285000Y-95512125D01*
X113286061Y-95495940D01*
X113299906Y-95390776D01*
X113308284Y-95359508D01*
X113345740Y-95269081D01*
X113361923Y-95241050D01*
X113421513Y-95163392D01*
X113444392Y-95140513D01*
X113522050Y-95080923D01*
X113550079Y-95064740D01*
X113640509Y-95027283D01*
X113671775Y-95018906D01*
X113776941Y-95005061D01*
X113793126Y-95004000D01*
X119126874Y-95004000D01*
X119143059Y-95005061D01*
G37*
G04 #@! TD.AperFunction*
M02*
