G04 #@! TF.GenerationSoftware,KiCad,Pcbnew,8.0.4*
G04 #@! TF.CreationDate,2024-11-10T20:26:25+01:00*
G04 #@! TF.ProjectId,NatSi-DevKit,4e617453-692d-4446-9576-4b69742e6b69,v1.0.0*
G04 #@! TF.SameCoordinates,Original*
G04 #@! TF.FileFunction,Soldermask,Top*
G04 #@! TF.FilePolarity,Negative*
%FSLAX46Y46*%
G04 Gerber Fmt 4.6, Leading zero omitted, Abs format (unit mm)*
G04 Created by KiCad (PCBNEW 8.0.4) date 2024-11-10 20:26:25*
%MOMM*%
%LPD*%
G01*
G04 APERTURE LIST*
G04 Aperture macros list*
%AMRoundRect*
0 Rectangle with rounded corners*
0 $1 Rounding radius*
0 $2 $3 $4 $5 $6 $7 $8 $9 X,Y pos of 4 corners*
0 Add a 4 corners polygon primitive as box body*
4,1,4,$2,$3,$4,$5,$6,$7,$8,$9,$2,$3,0*
0 Add four circle primitives for the rounded corners*
1,1,$1+$1,$2,$3*
1,1,$1+$1,$4,$5*
1,1,$1+$1,$6,$7*
1,1,$1+$1,$8,$9*
0 Add four rect primitives between the rounded corners*
20,1,$1+$1,$2,$3,$4,$5,0*
20,1,$1+$1,$4,$5,$6,$7,0*
20,1,$1+$1,$6,$7,$8,$9,0*
20,1,$1+$1,$8,$9,$2,$3,0*%
G04 Aperture macros list end*
%ADD10C,0.000000*%
%ADD11C,0.010000*%
%ADD12RoundRect,0.250000X-0.350000X-0.450000X0.350000X-0.450000X0.350000X0.450000X-0.350000X0.450000X0*%
%ADD13RoundRect,0.250000X-0.325000X-0.450000X0.325000X-0.450000X0.325000X0.450000X-0.325000X0.450000X0*%
%ADD14RoundRect,0.162500X-0.837500X-0.162500X0.837500X-0.162500X0.837500X0.162500X-0.837500X0.162500X0*%
%ADD15RoundRect,0.250000X0.537500X0.425000X-0.537500X0.425000X-0.537500X-0.425000X0.537500X-0.425000X0*%
%ADD16C,1.500000*%
%ADD17RoundRect,0.250000X0.337500X0.475000X-0.337500X0.475000X-0.337500X-0.475000X0.337500X-0.475000X0*%
%ADD18R,0.900000X1.500000*%
%ADD19R,1.500000X0.900000*%
%ADD20R,0.900000X0.900000*%
%ADD21R,0.900000X1.700000*%
%ADD22RoundRect,0.250000X-0.337500X-0.475000X0.337500X-0.475000X0.337500X0.475000X-0.337500X0.475000X0*%
%ADD23RoundRect,0.375000X-0.375000X0.625000X-0.375000X-0.625000X0.375000X-0.625000X0.375000X0.625000X0*%
%ADD24RoundRect,0.500000X-1.400000X0.500000X-1.400000X-0.500000X1.400000X-0.500000X1.400000X0.500000X0*%
%ADD25RoundRect,0.243750X0.243750X0.456250X-0.243750X0.456250X-0.243750X-0.456250X0.243750X-0.456250X0*%
%ADD26RoundRect,0.250000X0.350000X0.450000X-0.350000X0.450000X-0.350000X-0.450000X0.350000X-0.450000X0*%
%ADD27RoundRect,0.250000X-0.537500X-0.425000X0.537500X-0.425000X0.537500X0.425000X-0.537500X0.425000X0*%
%ADD28C,0.600000*%
%ADD29O,2.204000X1.104000*%
%ADD30O,1.904000X1.104000*%
%ADD31RoundRect,0.250001X0.462499X0.624999X-0.462499X0.624999X-0.462499X-0.624999X0.462499X-0.624999X0*%
%ADD32R,1.700000X1.700000*%
%ADD33O,1.700000X1.700000*%
G04 APERTURE END LIST*
D10*
G36*
X149652405Y-98395478D02*
G01*
X149652405Y-98489460D01*
X149558107Y-98489460D01*
X149463809Y-98489460D01*
X149463809Y-98395478D01*
X149463809Y-98301494D01*
X149558107Y-98301494D01*
X149652405Y-98301494D01*
X149652405Y-98395478D01*
G37*
G36*
X149841000Y-99170839D02*
G01*
X149841000Y-99648587D01*
X149746701Y-99648587D01*
X149652405Y-99648587D01*
X149652405Y-99170839D01*
X149652405Y-98693091D01*
X149746701Y-98693091D01*
X149841000Y-98693091D01*
X149841000Y-99170839D01*
G37*
G36*
X149841000Y-102727314D02*
G01*
X149841000Y-103111861D01*
X149750631Y-103107162D01*
X149660263Y-103102465D01*
X149656054Y-102722617D01*
X149651846Y-102342767D01*
X149746422Y-102342767D01*
X149841000Y-102342767D01*
X149841000Y-102727314D01*
G37*
G36*
X150029594Y-104363406D02*
G01*
X150029594Y-104457389D01*
X149935296Y-104457389D01*
X149841000Y-104457389D01*
X149841000Y-104363406D01*
X149841000Y-104269422D01*
X149935296Y-104269422D01*
X150029594Y-104269422D01*
X150029594Y-104363406D01*
G37*
G36*
X150623633Y-97240268D02*
G01*
X150618954Y-97338167D01*
X150520727Y-97342831D01*
X150422501Y-97347494D01*
X150422501Y-97244931D01*
X150422501Y-97142369D01*
X150525407Y-97142369D01*
X150628312Y-97142369D01*
X150623633Y-97240268D01*
G37*
G36*
X151978406Y-95897091D02*
G01*
X151978406Y-95998907D01*
X151679797Y-95998907D01*
X151381189Y-95998907D01*
X151381189Y-95897091D01*
X151381189Y-95795277D01*
X151679797Y-95795277D01*
X151978406Y-95795277D01*
X151978406Y-95897091D01*
G37*
G36*
X152167000Y-98003882D02*
G01*
X152167000Y-98097866D01*
X152064845Y-98097866D01*
X151962689Y-98097866D01*
X151962689Y-98003882D01*
X151962689Y-97909899D01*
X152064845Y-97909899D01*
X152167000Y-97909899D01*
X152167000Y-98003882D01*
G37*
G36*
X153314287Y-100118503D02*
G01*
X153314287Y-100212482D01*
X153219989Y-100212482D01*
X153125692Y-100212482D01*
X153125692Y-100118503D01*
X153125692Y-100024520D01*
X153219989Y-100024520D01*
X153314287Y-100024520D01*
X153314287Y-100118503D01*
G37*
G36*
X149460812Y-103779928D02*
G01*
X149455951Y-103869994D01*
X149361653Y-103869994D01*
X149267356Y-103869994D01*
X149262721Y-103791073D01*
X149262105Y-103743605D01*
X149265665Y-103709859D01*
X149269269Y-103701007D01*
X149289925Y-103695010D01*
X149331888Y-103690964D01*
X149373063Y-103689860D01*
X149465672Y-103689860D01*
X149460812Y-103779928D01*
G37*
G36*
X150815406Y-97048386D02*
G01*
X150814402Y-97100685D01*
X150809556Y-97129077D01*
X150798125Y-97140969D01*
X150780045Y-97143674D01*
X150734914Y-97146553D01*
X150705393Y-97149333D01*
X150664430Y-97150369D01*
X150640679Y-97138243D01*
X150629641Y-97107082D01*
X150626818Y-97051008D01*
X150626811Y-97046710D01*
X150626811Y-96954402D01*
X150721110Y-96954402D01*
X150815406Y-96954402D01*
X150815406Y-97048386D01*
G37*
G36*
X149746701Y-104065793D02*
G01*
X149841000Y-104065793D01*
X149841000Y-104159776D01*
X149841000Y-104253759D01*
X149746701Y-104253759D01*
X149652405Y-104253759D01*
X149652405Y-104159776D01*
X149652405Y-104065793D01*
X149746701Y-104065793D01*
G37*
G36*
X149652405Y-103971809D02*
G01*
X149652405Y-104065793D01*
X149558107Y-104065793D01*
X149463809Y-104065793D01*
X149463809Y-103971809D01*
X149463809Y-103877826D01*
X149558107Y-103877826D01*
X149652405Y-103877826D01*
X149652405Y-103971809D01*
G37*
G36*
X151378009Y-104549228D02*
G01*
X151382688Y-104645355D01*
X151287641Y-104645355D01*
X151192594Y-104645355D01*
X151192594Y-104739338D01*
X151192594Y-104833322D01*
X151098296Y-104833322D01*
X151004000Y-104833322D01*
X151004000Y-104739338D01*
X151004000Y-104645355D01*
X151097546Y-104645355D01*
X151191093Y-104645355D01*
X151195772Y-104549228D01*
X151200452Y-104453100D01*
X151286890Y-104453100D01*
X151373331Y-104453100D01*
X151378009Y-104549228D01*
G37*
G36*
X153704014Y-99738654D02*
G01*
X153708693Y-99836553D01*
X153613646Y-99836553D01*
X153518598Y-99836553D01*
X153518598Y-99930537D01*
X153518598Y-100024520D01*
X153416442Y-100024520D01*
X153314287Y-100024520D01*
X153314287Y-99930537D01*
X153314287Y-99836553D01*
X153407834Y-99836553D01*
X153501382Y-99836553D01*
X153506061Y-99738654D01*
X153510740Y-99640756D01*
X153605037Y-99640756D01*
X153699336Y-99640756D01*
X153704014Y-99738654D01*
G37*
G36*
X149379366Y-98492440D02*
G01*
X149455951Y-98497294D01*
X149455951Y-98685260D01*
X149455951Y-98873227D01*
X149367692Y-98877860D01*
X149317488Y-98879730D01*
X149290160Y-98875963D01*
X149277197Y-98862662D01*
X149270087Y-98835922D01*
X149269465Y-98832827D01*
X149264888Y-98794334D01*
X149261418Y-98735300D01*
X149259625Y-98666503D01*
X149259498Y-98643650D01*
X149260905Y-98571153D01*
X149265571Y-98525273D01*
X149274175Y-98501402D01*
X149281139Y-98495865D01*
X149308908Y-98491913D01*
X149354583Y-98491346D01*
X149379366Y-98492440D01*
G37*
G36*
X150250583Y-102330479D02*
G01*
X150430358Y-102334936D01*
X150430850Y-102432835D01*
X150431341Y-102530733D01*
X150332623Y-102530733D01*
X150233905Y-102530733D01*
X150233905Y-102633744D01*
X150233905Y-102736756D01*
X150316415Y-102733614D01*
X150366257Y-102732175D01*
X150403478Y-102731928D01*
X150414944Y-102732418D01*
X150423522Y-102747799D01*
X150428884Y-102785835D01*
X150429945Y-102824431D01*
X150428929Y-102914499D01*
X150229262Y-102918882D01*
X150029594Y-102923266D01*
X150029594Y-102632526D01*
X150030092Y-102524808D01*
X150031748Y-102444913D01*
X150034805Y-102389343D01*
X150039501Y-102354607D01*
X150046077Y-102337212D01*
X150050199Y-102333903D01*
X150073469Y-102331129D01*
X150120948Y-102329593D01*
X150185438Y-102329414D01*
X150250583Y-102330479D01*
G37*
G36*
X150909704Y-96374840D02*
G01*
X151004000Y-96374840D01*
X151004000Y-96664621D01*
X151004000Y-96954402D01*
X150909704Y-96954402D01*
X150815406Y-96954402D01*
X150815406Y-96664621D01*
X150815406Y-96374840D01*
X150909704Y-96374840D01*
G37*
G36*
X150626811Y-96077226D02*
G01*
X150626811Y-96171210D01*
X150721110Y-96171210D01*
X150815406Y-96171210D01*
X150815406Y-96273024D01*
X150815406Y-96374840D01*
X150721110Y-96374840D01*
X150626811Y-96374840D01*
X150626811Y-96280857D01*
X150623835Y-96220652D01*
X150614726Y-96189924D01*
X150607166Y-96185134D01*
X150580754Y-96183703D01*
X150535727Y-96182026D01*
X150508939Y-96181219D01*
X150430358Y-96179041D01*
X150425679Y-96081143D01*
X150421001Y-95983244D01*
X150523905Y-95983244D01*
X150626811Y-95983244D01*
X150626811Y-96077226D01*
G37*
G36*
X148403928Y-99836553D02*
G01*
X148507052Y-99836553D01*
X148502155Y-100020603D01*
X148497260Y-100204651D01*
X148399033Y-100209314D01*
X148300806Y-100213977D01*
X148300806Y-100025267D01*
X148300806Y-99836553D01*
X148403928Y-99836553D01*
G37*
G36*
X148677996Y-98394730D02*
G01*
X148677996Y-98487824D01*
X148595486Y-98492558D01*
X148512976Y-98497294D01*
X148505117Y-98591276D01*
X148497260Y-98685260D01*
X148399033Y-98689923D01*
X148300806Y-98694586D01*
X148300806Y-99265570D01*
X148300806Y-99836553D01*
X148206510Y-99836553D01*
X148112212Y-99836553D01*
X148112212Y-99265604D01*
X148112212Y-98694655D01*
X148202579Y-98689957D01*
X148292948Y-98685260D01*
X148297627Y-98587360D01*
X148302307Y-98489460D01*
X148395854Y-98489460D01*
X148489402Y-98489460D01*
X148489402Y-98395478D01*
X148489402Y-98301494D01*
X148583699Y-98301494D01*
X148677996Y-98301494D01*
X148677996Y-98394730D01*
G37*
G36*
X150403778Y-97343531D02*
G01*
X150425709Y-97363703D01*
X150433229Y-97405625D01*
X150431634Y-97449090D01*
X150425600Y-97526134D01*
X150329753Y-97530797D01*
X150233905Y-97535461D01*
X150233905Y-97628697D01*
X150233905Y-97721933D01*
X150139836Y-97721933D01*
X150045765Y-97721933D01*
X150041608Y-98203596D01*
X150037453Y-98685260D01*
X149947084Y-98687518D01*
X149856716Y-98689778D01*
X149856716Y-98495637D01*
X149856716Y-98301494D01*
X149754559Y-98301494D01*
X149652405Y-98301494D01*
X149652405Y-98207511D01*
X149652405Y-98113528D01*
X149746701Y-98113528D01*
X149841000Y-98113528D01*
X149841000Y-97917730D01*
X149841000Y-97721933D01*
X149943155Y-97721933D01*
X150045311Y-97721933D01*
X150045311Y-97627950D01*
X150045311Y-97533966D01*
X150139608Y-97533966D01*
X150233905Y-97533966D01*
X150233905Y-97439983D01*
X150234648Y-97387914D01*
X150239141Y-97359691D01*
X150250777Y-97347834D01*
X150272949Y-97344862D01*
X150277124Y-97344727D01*
X150328181Y-97342490D01*
X150364439Y-97340256D01*
X150403778Y-97343531D01*
G37*
G36*
X150333588Y-95795277D02*
G01*
X150433270Y-95795277D01*
X150429341Y-95869680D01*
X150426701Y-95918077D01*
X150424562Y-95954556D01*
X150423956Y-95963663D01*
X150408949Y-95976111D01*
X150365293Y-95982351D01*
X150328203Y-95983244D01*
X150233905Y-95983244D01*
X150233905Y-95889260D01*
X150233905Y-95795277D01*
X150333588Y-95795277D01*
G37*
G36*
X150807548Y-95419344D02*
G01*
X151004000Y-95419344D01*
X151004000Y-95513328D01*
X151004000Y-95607311D01*
X151193343Y-95607311D01*
X151382688Y-95607311D01*
X151378009Y-95702510D01*
X151373331Y-95797711D01*
X151192594Y-95797711D01*
X151011857Y-95797711D01*
X151007177Y-95702510D01*
X151002502Y-95607311D01*
X150806800Y-95607311D01*
X150611096Y-95607311D01*
X150611096Y-95513328D01*
X150611096Y-95419344D01*
X150807548Y-95419344D01*
G37*
G36*
X150611096Y-95317529D02*
G01*
X150611096Y-95419344D01*
X150422501Y-95419344D01*
X150233905Y-95419344D01*
X150233905Y-95607311D01*
X150233905Y-95795277D01*
X150139608Y-95795277D01*
X150045311Y-95795277D01*
X150045311Y-95505496D01*
X150045311Y-95215713D01*
X150328203Y-95215713D01*
X150611096Y-95215713D01*
X150611096Y-95317529D01*
G37*
G36*
X149455951Y-99648587D02*
G01*
X149652405Y-99648587D01*
X149652405Y-99742571D01*
X149652405Y-99836553D01*
X149455951Y-99836553D01*
X149259498Y-99836553D01*
X149259498Y-99742571D01*
X149259498Y-99648587D01*
X149455951Y-99648587D01*
G37*
G36*
X148776223Y-98492630D02*
G01*
X148874450Y-98497294D01*
X148878733Y-98783158D01*
X148883016Y-99069023D01*
X148976961Y-99069023D01*
X149070903Y-99069023D01*
X149070903Y-98975040D01*
X149070903Y-98881057D01*
X149165201Y-98881057D01*
X149259498Y-98881057D01*
X149259498Y-99069023D01*
X149259498Y-99256990D01*
X149165201Y-99256990D01*
X149070903Y-99256990D01*
X149070903Y-99358806D01*
X149070903Y-99460621D01*
X149165201Y-99460621D01*
X149259498Y-99460621D01*
X149259498Y-99554604D01*
X149259498Y-99648587D01*
X149165201Y-99648587D01*
X149070903Y-99648587D01*
X149070903Y-99555351D01*
X149070903Y-99462115D01*
X148972891Y-99457452D01*
X148874878Y-99452789D01*
X148874210Y-99366638D01*
X148873277Y-99302258D01*
X148871567Y-99226321D01*
X148870067Y-99174754D01*
X148866591Y-99069023D01*
X148772295Y-99069023D01*
X148677996Y-99069023D01*
X148677996Y-98778423D01*
X148677996Y-98487966D01*
X148776223Y-98492630D01*
G37*
G36*
X151962689Y-98199679D02*
G01*
X151962689Y-98301494D01*
X151868392Y-98301494D01*
X151774095Y-98301494D01*
X151774095Y-98591276D01*
X151774095Y-98881057D01*
X151868392Y-98881057D01*
X151962689Y-98881057D01*
X151962689Y-99069023D01*
X151962689Y-99256990D01*
X152449893Y-99256990D01*
X152937097Y-99256990D01*
X152937097Y-99163007D01*
X152937097Y-99069023D01*
X153416442Y-99069023D01*
X153895788Y-99069023D01*
X153895788Y-99358806D01*
X153895788Y-99648587D01*
X153801490Y-99648587D01*
X153707194Y-99648587D01*
X153707194Y-99460621D01*
X153707194Y-99272655D01*
X153322146Y-99272655D01*
X152937097Y-99272655D01*
X152937097Y-99366638D01*
X152937097Y-99460621D01*
X152449893Y-99460621D01*
X151962689Y-99460621D01*
X151962689Y-99367419D01*
X151962689Y-99274217D01*
X151872321Y-99269519D01*
X151781952Y-99264823D01*
X151777546Y-99073675D01*
X151773139Y-98882528D01*
X151675391Y-98877877D01*
X151577642Y-98873227D01*
X151574738Y-98587360D01*
X151571836Y-98301494D01*
X151672965Y-98301494D01*
X151774095Y-98301494D01*
X151774095Y-98199679D01*
X151774095Y-98097866D01*
X151868392Y-98097866D01*
X151962689Y-98097866D01*
X151962689Y-98199679D01*
G37*
G36*
X153125692Y-100314298D02*
G01*
X153125692Y-100416113D01*
X153031394Y-100416113D01*
X152937097Y-100416113D01*
X152937097Y-100510095D01*
X152937097Y-100604079D01*
X152740644Y-100604079D01*
X152544191Y-100604079D01*
X152544191Y-100698062D01*
X152544191Y-100792045D01*
X152355595Y-100792045D01*
X152167000Y-100792045D01*
X152167000Y-101465592D01*
X152167000Y-102139138D01*
X152064845Y-102139138D01*
X151962689Y-102139138D01*
X151962689Y-102812683D01*
X151962689Y-103486230D01*
X151868392Y-103486230D01*
X151774095Y-103486230D01*
X151774095Y-103869213D01*
X151774095Y-104252196D01*
X151683726Y-104256893D01*
X151593357Y-104261592D01*
X151588679Y-104359490D01*
X151584000Y-104457389D01*
X151482593Y-104457389D01*
X151381189Y-104457389D01*
X151381189Y-104366017D01*
X151382859Y-104315014D01*
X151387179Y-104277532D01*
X151391666Y-104264201D01*
X151412028Y-104258451D01*
X151453440Y-104254659D01*
X151489892Y-104253756D01*
X151577642Y-104253754D01*
X151577642Y-103873907D01*
X151577642Y-103494061D01*
X151675868Y-103489398D01*
X151774095Y-103484736D01*
X151774095Y-102811935D01*
X151774095Y-102139138D01*
X151868223Y-102139138D01*
X151962352Y-102139138D01*
X151966450Y-101469508D01*
X151970547Y-100799877D01*
X152060155Y-100795202D01*
X152149761Y-100790528D01*
X152154452Y-100701218D01*
X152159142Y-100611910D01*
X152350930Y-100607519D01*
X152542716Y-100603126D01*
X152547382Y-100508653D01*
X152552049Y-100414181D01*
X152740644Y-100411231D01*
X152929239Y-100408282D01*
X152933918Y-100310382D01*
X152938597Y-100212482D01*
X153032145Y-100212482D01*
X153125692Y-100212482D01*
X153125692Y-100314298D01*
G37*
G36*
X150045311Y-103297482D02*
G01*
X150045311Y-103484666D01*
X150135679Y-103489363D01*
X150226048Y-103494061D01*
X150230331Y-103779928D01*
X150234614Y-104065793D01*
X150277402Y-104065793D01*
X150328558Y-104065793D01*
X150422501Y-104065793D01*
X150422501Y-104261592D01*
X150422501Y-104457389D01*
X150524656Y-104457389D01*
X150626811Y-104457389D01*
X150626811Y-104551372D01*
X150626811Y-104645355D01*
X150721110Y-104645355D01*
X150815406Y-104645355D01*
X150815406Y-104739338D01*
X150815406Y-104833322D01*
X150909704Y-104833322D01*
X151004000Y-104833322D01*
X151004000Y-104935137D01*
X151004000Y-105036953D01*
X150816157Y-105036953D01*
X150628312Y-105036953D01*
X150623633Y-104939053D01*
X150618954Y-104841154D01*
X150426429Y-104836756D01*
X150233905Y-104832358D01*
X150233905Y-104738856D01*
X150233905Y-104645355D01*
X150139608Y-104645355D01*
X150045311Y-104645355D01*
X150045311Y-104551372D01*
X150233905Y-104551372D01*
X150233905Y-104645355D01*
X150332132Y-104645373D01*
X150430358Y-104645391D01*
X150427875Y-104558052D01*
X150425631Y-104509335D01*
X150422447Y-104475357D01*
X150420017Y-104465399D01*
X150403284Y-104462314D01*
X150366412Y-104459202D01*
X150320689Y-104456670D01*
X150277402Y-104455328D01*
X150247838Y-104455787D01*
X150245693Y-104455998D01*
X150239467Y-104471009D01*
X150235194Y-104508610D01*
X150233905Y-104551372D01*
X150045311Y-104551372D01*
X150045311Y-104457389D01*
X150139608Y-104457389D01*
X150233905Y-104457389D01*
X150233905Y-104261592D01*
X150233905Y-104065793D01*
X150139608Y-104065793D01*
X150045311Y-104065793D01*
X150045311Y-103776012D01*
X150045311Y-103486230D01*
X149951012Y-103486230D01*
X149856716Y-103486230D01*
X149856716Y-103298264D01*
X149856716Y-103110297D01*
X149951012Y-103110297D01*
X150045311Y-103110297D01*
X150045311Y-103297482D01*
G37*
G36*
X153125692Y-95599479D02*
G01*
X153125692Y-95983244D01*
X153032145Y-95983244D01*
X152938597Y-95983244D01*
X152933918Y-96081143D01*
X152929239Y-96179041D01*
X152836580Y-96179041D01*
X152743923Y-96179041D01*
X152742284Y-96273024D01*
X152740644Y-96367006D01*
X152642417Y-96371672D01*
X152544191Y-96376334D01*
X152544191Y-96469570D01*
X152544191Y-96562806D01*
X152449893Y-96562806D01*
X152355595Y-96562806D01*
X152355595Y-96656789D01*
X152355595Y-96750773D01*
X152262049Y-96750773D01*
X152168501Y-96750773D01*
X152163821Y-96848671D01*
X152159142Y-96946570D01*
X152060916Y-96951234D01*
X151962689Y-96955897D01*
X151962689Y-97049133D01*
X151962689Y-97142369D01*
X151868392Y-97142369D01*
X151774095Y-97142369D01*
X151774095Y-97338167D01*
X151774095Y-97533966D01*
X152064845Y-97533966D01*
X152355595Y-97533966D01*
X152355595Y-97721933D01*
X152355595Y-97909899D01*
X152261299Y-97909899D01*
X152167000Y-97909899D01*
X152167000Y-97815916D01*
X152167000Y-97721933D01*
X151870136Y-97721933D01*
X151573271Y-97721933D01*
X151573199Y-97432150D01*
X151573128Y-97142369D01*
X151672862Y-97142369D01*
X151772595Y-97142369D01*
X151777273Y-97044471D01*
X151781952Y-96946570D01*
X151871560Y-96941896D01*
X151961166Y-96937220D01*
X151965857Y-96847912D01*
X151970547Y-96758605D01*
X152060155Y-96753929D01*
X152149761Y-96749254D01*
X152154452Y-96659946D01*
X152159142Y-96570638D01*
X152257369Y-96565974D01*
X152355595Y-96561312D01*
X152355595Y-96468076D01*
X152355595Y-96374840D01*
X152449144Y-96374840D01*
X152542691Y-96374840D01*
X152547371Y-96276940D01*
X152552049Y-96179041D01*
X152641656Y-96174367D01*
X152731263Y-96169691D01*
X152735953Y-96080383D01*
X152740644Y-95991074D01*
X152838870Y-95986412D01*
X152937097Y-95981748D01*
X152937097Y-95700546D01*
X152937097Y-95419344D01*
X152748502Y-95419344D01*
X152559907Y-95419344D01*
X152559907Y-95513328D01*
X152559907Y-95607311D01*
X152457752Y-95607311D01*
X152355595Y-95607311D01*
X152355576Y-95705210D01*
X152355558Y-95803108D01*
X152186627Y-95800281D01*
X152115446Y-95799023D01*
X152055132Y-95797830D01*
X152013134Y-95796859D01*
X151998050Y-95796365D01*
X151985610Y-95781896D01*
X151979343Y-95739144D01*
X151978406Y-95701294D01*
X151978406Y-95607311D01*
X152167000Y-95607311D01*
X152355595Y-95607311D01*
X152355595Y-95514075D01*
X152355595Y-95420839D01*
X152453823Y-95416175D01*
X152552049Y-95411512D01*
X152556728Y-95313613D01*
X152561407Y-95215713D01*
X152843549Y-95215713D01*
X153125692Y-95215713D01*
X153125692Y-95599479D01*
G37*
G36*
X148693713Y-100407927D02*
G01*
X148693713Y-100603372D01*
X148979048Y-100607641D01*
X149264383Y-100611910D01*
X149265869Y-100698062D01*
X149267356Y-100784215D01*
X149361653Y-100792045D01*
X149455951Y-100799877D01*
X149463809Y-100893860D01*
X149471668Y-100987843D01*
X149749872Y-100992118D01*
X149841000Y-100993519D01*
X150028076Y-100996392D01*
X150032765Y-100898135D01*
X150037453Y-100799877D01*
X150135679Y-100795214D01*
X150233905Y-100790551D01*
X150233905Y-100893113D01*
X150233905Y-100995676D01*
X150139608Y-100995676D01*
X150045311Y-100995676D01*
X150045311Y-101089659D01*
X150045311Y-101183643D01*
X150139608Y-101183643D01*
X150233905Y-101183643D01*
X150233905Y-101281935D01*
X150233905Y-101380229D01*
X150143537Y-101379834D01*
X150053169Y-101379439D01*
X150048455Y-101469508D01*
X150043743Y-101559575D01*
X150138823Y-101559575D01*
X150233905Y-101559575D01*
X150233905Y-101661390D01*
X150233905Y-101763206D01*
X150139608Y-101763206D01*
X150045311Y-101763206D01*
X150045311Y-101857188D01*
X150045311Y-101951172D01*
X149848858Y-101951172D01*
X149652405Y-101951172D01*
X149652405Y-102139138D01*
X149652405Y-102327104D01*
X149558107Y-102327104D01*
X149463809Y-102327104D01*
X149463809Y-101653559D01*
X149463809Y-101575239D01*
X149652405Y-101575239D01*
X149652405Y-101669222D01*
X149652405Y-101763206D01*
X149841000Y-101763206D01*
X150029594Y-101763206D01*
X150029594Y-101669222D01*
X150029594Y-101575239D01*
X149841000Y-101575239D01*
X149652405Y-101575239D01*
X149463809Y-101575239D01*
X149463809Y-101183643D01*
X149652405Y-101183643D01*
X149652405Y-101277626D01*
X149652405Y-101371609D01*
X149841000Y-101371609D01*
X150029594Y-101371609D01*
X150029594Y-101277626D01*
X150029594Y-101183643D01*
X149841000Y-101183643D01*
X149652405Y-101183643D01*
X149463809Y-101183643D01*
X149463809Y-100980011D01*
X149369511Y-100980011D01*
X149275215Y-100980011D01*
X149275215Y-100886028D01*
X149275215Y-100792045D01*
X149078761Y-100792045D01*
X148882308Y-100792045D01*
X148882308Y-101754592D01*
X148882308Y-102717136D01*
X148972677Y-102721834D01*
X149063044Y-102726532D01*
X149067328Y-103012398D01*
X149071612Y-103298264D01*
X149165555Y-103298264D01*
X149259498Y-103298264D01*
X149259498Y-103494844D01*
X149259498Y-103691422D01*
X149169130Y-103686726D01*
X149078761Y-103682028D01*
X149074349Y-103490146D01*
X149069936Y-103298264D01*
X148976121Y-103298264D01*
X148882308Y-103298264D01*
X148882308Y-103008482D01*
X148882308Y-102718700D01*
X148788011Y-102718700D01*
X148693713Y-102718700D01*
X148693713Y-101661390D01*
X148693713Y-100604079D01*
X148591558Y-100604079D01*
X148489402Y-100604079D01*
X148489402Y-100408282D01*
X148489402Y-100212482D01*
X148591558Y-100212482D01*
X148693713Y-100212482D01*
X148693713Y-100407927D01*
G37*
D11*
X119871000Y-97103000D02*
X118431000Y-97103000D01*
X118431000Y-96403000D01*
X119871000Y-96403000D01*
X119871000Y-97103000D01*
G36*
X119871000Y-97103000D02*
G01*
X118431000Y-97103000D01*
X118431000Y-96403000D01*
X119871000Y-96403000D01*
X119871000Y-97103000D01*
G37*
X119871000Y-97903000D02*
X118431000Y-97903000D01*
X118431000Y-97203000D01*
X119871000Y-97203000D01*
X119871000Y-97903000D01*
G36*
X119871000Y-97903000D02*
G01*
X118431000Y-97903000D01*
X118431000Y-97203000D01*
X119871000Y-97203000D01*
X119871000Y-97903000D01*
G37*
X119871000Y-98403000D02*
X118431000Y-98403000D01*
X118431000Y-98003000D01*
X119871000Y-98003000D01*
X119871000Y-98403000D01*
G36*
X119871000Y-98403000D02*
G01*
X118431000Y-98403000D01*
X118431000Y-98003000D01*
X119871000Y-98003000D01*
X119871000Y-98403000D01*
G37*
X119871000Y-98903000D02*
X118431000Y-98903000D01*
X118431000Y-98503000D01*
X119871000Y-98503000D01*
X119871000Y-98903000D01*
G36*
X119871000Y-98903000D02*
G01*
X118431000Y-98903000D01*
X118431000Y-98503000D01*
X119871000Y-98503000D01*
X119871000Y-98903000D01*
G37*
X119871000Y-99403000D02*
X118431000Y-99403000D01*
X118431000Y-99003000D01*
X119871000Y-99003000D01*
X119871000Y-99403000D01*
G36*
X119871000Y-99403000D02*
G01*
X118431000Y-99403000D01*
X118431000Y-99003000D01*
X119871000Y-99003000D01*
X119871000Y-99403000D01*
G37*
X119871000Y-99903000D02*
X118431000Y-99903000D01*
X118431000Y-99503000D01*
X119871000Y-99503000D01*
X119871000Y-99903000D01*
G36*
X119871000Y-99903000D02*
G01*
X118431000Y-99903000D01*
X118431000Y-99503000D01*
X119871000Y-99503000D01*
X119871000Y-99903000D01*
G37*
X119871000Y-100403000D02*
X118431000Y-100403000D01*
X118431000Y-100003000D01*
X119871000Y-100003000D01*
X119871000Y-100403000D01*
G36*
X119871000Y-100403000D02*
G01*
X118431000Y-100403000D01*
X118431000Y-100003000D01*
X119871000Y-100003000D01*
X119871000Y-100403000D01*
G37*
X119871000Y-100903000D02*
X118431000Y-100903000D01*
X118431000Y-100503000D01*
X119871000Y-100503000D01*
X119871000Y-100903000D01*
G36*
X119871000Y-100903000D02*
G01*
X118431000Y-100903000D01*
X118431000Y-100503000D01*
X119871000Y-100503000D01*
X119871000Y-100903000D01*
G37*
X119871000Y-101403000D02*
X118431000Y-101403000D01*
X118431000Y-101003000D01*
X119871000Y-101003000D01*
X119871000Y-101403000D01*
G36*
X119871000Y-101403000D02*
G01*
X118431000Y-101403000D01*
X118431000Y-101003000D01*
X119871000Y-101003000D01*
X119871000Y-101403000D01*
G37*
X119871000Y-101903000D02*
X118431000Y-101903000D01*
X118431000Y-101503000D01*
X119871000Y-101503000D01*
X119871000Y-101903000D01*
G36*
X119871000Y-101903000D02*
G01*
X118431000Y-101903000D01*
X118431000Y-101503000D01*
X119871000Y-101503000D01*
X119871000Y-101903000D01*
G37*
X119871000Y-102703000D02*
X118431000Y-102703000D01*
X118431000Y-102003000D01*
X119871000Y-102003000D01*
X119871000Y-102703000D01*
G36*
X119871000Y-102703000D02*
G01*
X118431000Y-102703000D01*
X118431000Y-102003000D01*
X119871000Y-102003000D01*
X119871000Y-102703000D01*
G37*
X119871000Y-103503000D02*
X118431000Y-103503000D01*
X118431000Y-102803000D01*
X119871000Y-102803000D01*
X119871000Y-103503000D01*
G36*
X119871000Y-103503000D02*
G01*
X118431000Y-103503000D01*
X118431000Y-102803000D01*
X119871000Y-102803000D01*
X119871000Y-103503000D01*
G37*
D12*
X144009600Y-105367200D03*
X146009600Y-105367200D03*
D13*
X140200000Y-99474400D03*
X142250000Y-99474400D03*
D14*
X125545000Y-103833000D03*
X125545000Y-104783000D03*
X125545000Y-105733000D03*
X128965000Y-105733000D03*
X128965000Y-104783000D03*
X128965000Y-103833000D03*
D15*
X132750000Y-95930000D03*
X129875000Y-95930000D03*
D16*
X124715000Y-107958000D03*
D17*
X127124100Y-99753800D03*
X125049100Y-99753800D03*
D15*
X142002100Y-105545000D03*
X139127100Y-105545000D03*
D17*
X136950000Y-97980000D03*
X134875000Y-97980000D03*
D13*
X140200000Y-103436800D03*
X142250000Y-103436800D03*
D18*
X173151000Y-91080000D03*
X171881000Y-91080000D03*
X170611000Y-91080000D03*
X169341000Y-91080000D03*
X168071000Y-91080000D03*
X166801000Y-91080000D03*
X165531000Y-91080000D03*
X164261000Y-91080000D03*
X162991000Y-91080000D03*
X161721000Y-91080000D03*
X160451000Y-91080000D03*
X159181000Y-91080000D03*
X157911000Y-91080000D03*
X156641000Y-91080000D03*
D19*
X155391000Y-92845000D03*
X155391000Y-94115000D03*
X155391000Y-95385000D03*
X155391000Y-96655000D03*
X155391000Y-97925000D03*
X155391000Y-99195000D03*
X155391000Y-100465000D03*
X155391000Y-101735000D03*
X155391000Y-103005000D03*
X155391000Y-104275000D03*
X155391000Y-105545000D03*
X155391000Y-106815000D03*
D18*
X156641000Y-108580000D03*
X157911000Y-108580000D03*
X159181000Y-108580000D03*
X160451000Y-108580000D03*
X161721000Y-108580000D03*
X162991000Y-108580000D03*
X164261000Y-108580000D03*
X165531000Y-108580000D03*
X166801000Y-108580000D03*
X168071000Y-108580000D03*
X169341000Y-108580000D03*
X170611000Y-108580000D03*
X171881000Y-108580000D03*
X173151000Y-108580000D03*
D20*
X166831000Y-96930000D03*
X165431000Y-96930000D03*
X164031000Y-96930000D03*
X164031000Y-96930000D03*
X166831000Y-98330000D03*
X166831000Y-98330000D03*
X165431000Y-98330000D03*
X164031000Y-98330000D03*
X166831000Y-99730000D03*
X165431000Y-99730000D03*
X164031000Y-99730000D03*
D21*
X144830000Y-92718000D03*
X141430000Y-92718000D03*
D17*
X123352500Y-103580000D03*
X121277500Y-103580000D03*
X146021700Y-107323000D03*
X143946700Y-107323000D03*
D15*
X142002100Y-107653200D03*
X139127100Y-107653200D03*
D22*
X130875000Y-97980000D03*
X132950000Y-97980000D03*
D21*
X113871000Y-91956000D03*
X117271000Y-91956000D03*
D22*
X125023700Y-95893000D03*
X127098700Y-95893000D03*
D23*
X136162500Y-100298400D03*
X133862500Y-100298400D03*
D24*
X133862500Y-106598400D03*
D23*
X131562500Y-100298400D03*
D25*
X123452500Y-101630000D03*
X121577500Y-101630000D03*
D26*
X145984200Y-103436800D03*
X143984200Y-103436800D03*
D16*
X128652000Y-107958000D03*
D22*
X121289900Y-105570400D03*
X123364900Y-105570400D03*
D12*
X143984200Y-97425600D03*
X145984200Y-97425600D03*
D21*
X113871000Y-107704000D03*
X117271000Y-107704000D03*
D13*
X140200000Y-101455600D03*
X142250000Y-101455600D03*
D12*
X121315000Y-99730000D03*
X123315000Y-99730000D03*
X121315000Y-97830000D03*
X123315000Y-97830000D03*
D22*
X140162100Y-97417000D03*
X142237100Y-97417000D03*
D12*
X140199600Y-95461200D03*
X142199600Y-95461200D03*
D26*
X145984200Y-99474400D03*
X143984200Y-99474400D03*
D17*
X146021700Y-95461200D03*
X143946700Y-95461200D03*
D27*
X135075000Y-95930000D03*
X137950000Y-95930000D03*
D26*
X145984200Y-101455600D03*
X143984200Y-101455600D03*
D12*
X125035800Y-97823400D03*
X127035800Y-97823400D03*
D28*
X117981000Y-97063000D03*
X117981000Y-102843000D03*
D29*
X118471000Y-95628000D03*
X118471000Y-104278000D03*
D30*
X114301000Y-95628000D03*
X114301000Y-104278000D03*
D12*
X121315000Y-95927800D03*
X123315000Y-95927800D03*
D31*
X128132900Y-101862000D03*
X125157900Y-101862000D03*
D32*
X173483000Y-88400000D03*
D33*
X170943000Y-88400000D03*
X168403000Y-88400000D03*
X165863000Y-88400000D03*
X163323000Y-88400000D03*
X160783000Y-88400000D03*
X158243000Y-88400000D03*
X155703000Y-88400000D03*
X153163000Y-88400000D03*
X150623000Y-88400000D03*
X148083000Y-88400000D03*
X145543000Y-88400000D03*
X143003000Y-88400000D03*
X140463000Y-88400000D03*
X137923000Y-88400000D03*
X135383000Y-88400000D03*
X132843000Y-88400000D03*
X130303000Y-88400000D03*
X127763000Y-88400000D03*
X125223000Y-88400000D03*
X122683000Y-88400000D03*
X120143000Y-88400000D03*
D32*
X173483000Y-111260000D03*
D33*
X170943000Y-111260000D03*
X168403000Y-111260000D03*
X165863000Y-111260000D03*
X163323000Y-111260000D03*
X160783000Y-111260000D03*
X158243000Y-111260000D03*
X155703000Y-111260000D03*
X153163000Y-111260000D03*
X150623000Y-111260000D03*
X148083000Y-111260000D03*
X145543000Y-111260000D03*
X143003000Y-111260000D03*
X140463000Y-111260000D03*
X137923000Y-111260000D03*
X135383000Y-111260000D03*
X132843000Y-111260000D03*
X130303000Y-111260000D03*
X127763000Y-111260000D03*
X125223000Y-111260000D03*
X122683000Y-111260000D03*
X120143000Y-111260000D03*
M02*
