%TF.GenerationSoftware,KiCad,Pcbnew,8.0.4*%
%TF.CreationDate,2024-11-09T01:04:37+01:00*%
%TF.ProjectId,NatSi-DevKit,4e617453-692d-4446-9576-4b69742e6b69,v1.0.0*%
%TF.SameCoordinates,Original*%
%TF.FileFunction,Drillmap*%
%TF.FilePolarity,Positive*%
%FSLAX45Y45*%
G04 Gerber Fmt 4.5, Leading zero omitted, Abs format (unit mm)*
G04 Created by KiCad (PCBNEW 8.0.4) date 2024-11-09 01:04:37*
%MOMM*%
%LPD*%
G01*
G04 APERTURE LIST*
%ADD10C,0.100000*%
%ADD11C,0.200000*%
G04 APERTURE END LIST*
D10*
X11323100Y-8713000D02*
X11221500Y-8814600D01*
X11221500Y-8814600D02*
X11221500Y-11151400D01*
X17475300Y-8713000D02*
X17475300Y-11253000D01*
X17475300Y-11253000D02*
X11323100Y-11253000D01*
X11221500Y-11151400D02*
X11323100Y-11253000D01*
X11323100Y-8713000D02*
X17475300Y-8713000D01*
D11*
D10*
X11768100Y-9676300D02*
X11828100Y-9736300D01*
X11828100Y-9676300D02*
X11768100Y-9736300D01*
X11768100Y-10254300D02*
X11828100Y-10314300D01*
X11828100Y-10254300D02*
X11768100Y-10314300D01*
D11*
X11477277Y-11569484D02*
X11477277Y-11369484D01*
X11477277Y-11369484D02*
X11524896Y-11369484D01*
X11524896Y-11369484D02*
X11553467Y-11379008D01*
X11553467Y-11379008D02*
X11572515Y-11398055D01*
X11572515Y-11398055D02*
X11582039Y-11417103D01*
X11582039Y-11417103D02*
X11591562Y-11455198D01*
X11591562Y-11455198D02*
X11591562Y-11483769D01*
X11591562Y-11483769D02*
X11582039Y-11521865D01*
X11582039Y-11521865D02*
X11572515Y-11540912D01*
X11572515Y-11540912D02*
X11553467Y-11559960D01*
X11553467Y-11559960D02*
X11524896Y-11569484D01*
X11524896Y-11569484D02*
X11477277Y-11569484D01*
X11677277Y-11569484D02*
X11677277Y-11436150D01*
X11677277Y-11474246D02*
X11686801Y-11455198D01*
X11686801Y-11455198D02*
X11696324Y-11445674D01*
X11696324Y-11445674D02*
X11715372Y-11436150D01*
X11715372Y-11436150D02*
X11734420Y-11436150D01*
X11801086Y-11569484D02*
X11801086Y-11436150D01*
X11801086Y-11369484D02*
X11791562Y-11379008D01*
X11791562Y-11379008D02*
X11801086Y-11388531D01*
X11801086Y-11388531D02*
X11810610Y-11379008D01*
X11810610Y-11379008D02*
X11801086Y-11369484D01*
X11801086Y-11369484D02*
X11801086Y-11388531D01*
X11924896Y-11569484D02*
X11905848Y-11559960D01*
X11905848Y-11559960D02*
X11896324Y-11540912D01*
X11896324Y-11540912D02*
X11896324Y-11369484D01*
X12029658Y-11569484D02*
X12010610Y-11559960D01*
X12010610Y-11559960D02*
X12001086Y-11540912D01*
X12001086Y-11540912D02*
X12001086Y-11369484D01*
X12258229Y-11569484D02*
X12258229Y-11369484D01*
X12258229Y-11369484D02*
X12324896Y-11512341D01*
X12324896Y-11512341D02*
X12391562Y-11369484D01*
X12391562Y-11369484D02*
X12391562Y-11569484D01*
X12572515Y-11569484D02*
X12572515Y-11464722D01*
X12572515Y-11464722D02*
X12562991Y-11445674D01*
X12562991Y-11445674D02*
X12543943Y-11436150D01*
X12543943Y-11436150D02*
X12505848Y-11436150D01*
X12505848Y-11436150D02*
X12486801Y-11445674D01*
X12572515Y-11559960D02*
X12553467Y-11569484D01*
X12553467Y-11569484D02*
X12505848Y-11569484D01*
X12505848Y-11569484D02*
X12486801Y-11559960D01*
X12486801Y-11559960D02*
X12477277Y-11540912D01*
X12477277Y-11540912D02*
X12477277Y-11521865D01*
X12477277Y-11521865D02*
X12486801Y-11502817D01*
X12486801Y-11502817D02*
X12505848Y-11493293D01*
X12505848Y-11493293D02*
X12553467Y-11493293D01*
X12553467Y-11493293D02*
X12572515Y-11483769D01*
X12667753Y-11436150D02*
X12667753Y-11636150D01*
X12667753Y-11445674D02*
X12686801Y-11436150D01*
X12686801Y-11436150D02*
X12724896Y-11436150D01*
X12724896Y-11436150D02*
X12743943Y-11445674D01*
X12743943Y-11445674D02*
X12753467Y-11455198D01*
X12753467Y-11455198D02*
X12762991Y-11474246D01*
X12762991Y-11474246D02*
X12762991Y-11531388D01*
X12762991Y-11531388D02*
X12753467Y-11550436D01*
X12753467Y-11550436D02*
X12743943Y-11559960D01*
X12743943Y-11559960D02*
X12724896Y-11569484D01*
X12724896Y-11569484D02*
X12686801Y-11569484D01*
X12686801Y-11569484D02*
X12667753Y-11559960D01*
X12848705Y-11550436D02*
X12858229Y-11559960D01*
X12858229Y-11559960D02*
X12848705Y-11569484D01*
X12848705Y-11569484D02*
X12839182Y-11559960D01*
X12839182Y-11559960D02*
X12848705Y-11550436D01*
X12848705Y-11550436D02*
X12848705Y-11569484D01*
X12848705Y-11445674D02*
X12858229Y-11455198D01*
X12858229Y-11455198D02*
X12848705Y-11464722D01*
X12848705Y-11464722D02*
X12839182Y-11455198D01*
X12839182Y-11455198D02*
X12848705Y-11445674D01*
X12848705Y-11445674D02*
X12848705Y-11464722D01*
D10*
X11156500Y-11868000D02*
X11216500Y-11928000D01*
X11216500Y-11868000D02*
X11156500Y-11928000D01*
D11*
X11515372Y-11789484D02*
X11534420Y-11789484D01*
X11534420Y-11789484D02*
X11553467Y-11799008D01*
X11553467Y-11799008D02*
X11562991Y-11808531D01*
X11562991Y-11808531D02*
X11572515Y-11827579D01*
X11572515Y-11827579D02*
X11582039Y-11865674D01*
X11582039Y-11865674D02*
X11582039Y-11913293D01*
X11582039Y-11913293D02*
X11572515Y-11951388D01*
X11572515Y-11951388D02*
X11562991Y-11970436D01*
X11562991Y-11970436D02*
X11553467Y-11979960D01*
X11553467Y-11979960D02*
X11534420Y-11989484D01*
X11534420Y-11989484D02*
X11515372Y-11989484D01*
X11515372Y-11989484D02*
X11496324Y-11979960D01*
X11496324Y-11979960D02*
X11486801Y-11970436D01*
X11486801Y-11970436D02*
X11477277Y-11951388D01*
X11477277Y-11951388D02*
X11467753Y-11913293D01*
X11467753Y-11913293D02*
X11467753Y-11865674D01*
X11467753Y-11865674D02*
X11477277Y-11827579D01*
X11477277Y-11827579D02*
X11486801Y-11808531D01*
X11486801Y-11808531D02*
X11496324Y-11799008D01*
X11496324Y-11799008D02*
X11515372Y-11789484D01*
X11667753Y-11970436D02*
X11677277Y-11979960D01*
X11677277Y-11979960D02*
X11667753Y-11989484D01*
X11667753Y-11989484D02*
X11658229Y-11979960D01*
X11658229Y-11979960D02*
X11667753Y-11970436D01*
X11667753Y-11970436D02*
X11667753Y-11989484D01*
X11848705Y-11789484D02*
X11810610Y-11789484D01*
X11810610Y-11789484D02*
X11791562Y-11799008D01*
X11791562Y-11799008D02*
X11782039Y-11808531D01*
X11782039Y-11808531D02*
X11762991Y-11837103D01*
X11762991Y-11837103D02*
X11753467Y-11875198D01*
X11753467Y-11875198D02*
X11753467Y-11951388D01*
X11753467Y-11951388D02*
X11762991Y-11970436D01*
X11762991Y-11970436D02*
X11772515Y-11979960D01*
X11772515Y-11979960D02*
X11791562Y-11989484D01*
X11791562Y-11989484D02*
X11829658Y-11989484D01*
X11829658Y-11989484D02*
X11848705Y-11979960D01*
X11848705Y-11979960D02*
X11858229Y-11970436D01*
X11858229Y-11970436D02*
X11867753Y-11951388D01*
X11867753Y-11951388D02*
X11867753Y-11903769D01*
X11867753Y-11903769D02*
X11858229Y-11884722D01*
X11858229Y-11884722D02*
X11848705Y-11875198D01*
X11848705Y-11875198D02*
X11829658Y-11865674D01*
X11829658Y-11865674D02*
X11791562Y-11865674D01*
X11791562Y-11865674D02*
X11772515Y-11875198D01*
X11772515Y-11875198D02*
X11762991Y-11884722D01*
X11762991Y-11884722D02*
X11753467Y-11903769D01*
X11991562Y-11789484D02*
X12010610Y-11789484D01*
X12010610Y-11789484D02*
X12029658Y-11799008D01*
X12029658Y-11799008D02*
X12039182Y-11808531D01*
X12039182Y-11808531D02*
X12048705Y-11827579D01*
X12048705Y-11827579D02*
X12058229Y-11865674D01*
X12058229Y-11865674D02*
X12058229Y-11913293D01*
X12058229Y-11913293D02*
X12048705Y-11951388D01*
X12048705Y-11951388D02*
X12039182Y-11970436D01*
X12039182Y-11970436D02*
X12029658Y-11979960D01*
X12029658Y-11979960D02*
X12010610Y-11989484D01*
X12010610Y-11989484D02*
X11991562Y-11989484D01*
X11991562Y-11989484D02*
X11972515Y-11979960D01*
X11972515Y-11979960D02*
X11962991Y-11970436D01*
X11962991Y-11970436D02*
X11953467Y-11951388D01*
X11953467Y-11951388D02*
X11943943Y-11913293D01*
X11943943Y-11913293D02*
X11943943Y-11865674D01*
X11943943Y-11865674D02*
X11953467Y-11827579D01*
X11953467Y-11827579D02*
X11962991Y-11808531D01*
X11962991Y-11808531D02*
X11972515Y-11799008D01*
X11972515Y-11799008D02*
X11991562Y-11789484D01*
X12182039Y-11789484D02*
X12201086Y-11789484D01*
X12201086Y-11789484D02*
X12220134Y-11799008D01*
X12220134Y-11799008D02*
X12229658Y-11808531D01*
X12229658Y-11808531D02*
X12239182Y-11827579D01*
X12239182Y-11827579D02*
X12248705Y-11865674D01*
X12248705Y-11865674D02*
X12248705Y-11913293D01*
X12248705Y-11913293D02*
X12239182Y-11951388D01*
X12239182Y-11951388D02*
X12229658Y-11970436D01*
X12229658Y-11970436D02*
X12220134Y-11979960D01*
X12220134Y-11979960D02*
X12201086Y-11989484D01*
X12201086Y-11989484D02*
X12182039Y-11989484D01*
X12182039Y-11989484D02*
X12162991Y-11979960D01*
X12162991Y-11979960D02*
X12153467Y-11970436D01*
X12153467Y-11970436D02*
X12143943Y-11951388D01*
X12143943Y-11951388D02*
X12134420Y-11913293D01*
X12134420Y-11913293D02*
X12134420Y-11865674D01*
X12134420Y-11865674D02*
X12143943Y-11827579D01*
X12143943Y-11827579D02*
X12153467Y-11808531D01*
X12153467Y-11808531D02*
X12162991Y-11799008D01*
X12162991Y-11799008D02*
X12182039Y-11789484D01*
X12334420Y-11989484D02*
X12334420Y-11856150D01*
X12334420Y-11875198D02*
X12343943Y-11865674D01*
X12343943Y-11865674D02*
X12362991Y-11856150D01*
X12362991Y-11856150D02*
X12391563Y-11856150D01*
X12391563Y-11856150D02*
X12410610Y-11865674D01*
X12410610Y-11865674D02*
X12420134Y-11884722D01*
X12420134Y-11884722D02*
X12420134Y-11989484D01*
X12420134Y-11884722D02*
X12429658Y-11865674D01*
X12429658Y-11865674D02*
X12448705Y-11856150D01*
X12448705Y-11856150D02*
X12477277Y-11856150D01*
X12477277Y-11856150D02*
X12496324Y-11865674D01*
X12496324Y-11865674D02*
X12505848Y-11884722D01*
X12505848Y-11884722D02*
X12505848Y-11989484D01*
X12601086Y-11989484D02*
X12601086Y-11856150D01*
X12601086Y-11875198D02*
X12610610Y-11865674D01*
X12610610Y-11865674D02*
X12629658Y-11856150D01*
X12629658Y-11856150D02*
X12658229Y-11856150D01*
X12658229Y-11856150D02*
X12677277Y-11865674D01*
X12677277Y-11865674D02*
X12686801Y-11884722D01*
X12686801Y-11884722D02*
X12686801Y-11989484D01*
X12686801Y-11884722D02*
X12696324Y-11865674D01*
X12696324Y-11865674D02*
X12715372Y-11856150D01*
X12715372Y-11856150D02*
X12743943Y-11856150D01*
X12743943Y-11856150D02*
X12762991Y-11865674D01*
X12762991Y-11865674D02*
X12772515Y-11884722D01*
X12772515Y-11884722D02*
X12772515Y-11989484D01*
X13162991Y-11779960D02*
X12991563Y-12037103D01*
X13420134Y-11789484D02*
X13439182Y-11789484D01*
X13439182Y-11789484D02*
X13458229Y-11799008D01*
X13458229Y-11799008D02*
X13467753Y-11808531D01*
X13467753Y-11808531D02*
X13477277Y-11827579D01*
X13477277Y-11827579D02*
X13486801Y-11865674D01*
X13486801Y-11865674D02*
X13486801Y-11913293D01*
X13486801Y-11913293D02*
X13477277Y-11951388D01*
X13477277Y-11951388D02*
X13467753Y-11970436D01*
X13467753Y-11970436D02*
X13458229Y-11979960D01*
X13458229Y-11979960D02*
X13439182Y-11989484D01*
X13439182Y-11989484D02*
X13420134Y-11989484D01*
X13420134Y-11989484D02*
X13401086Y-11979960D01*
X13401086Y-11979960D02*
X13391563Y-11970436D01*
X13391563Y-11970436D02*
X13382039Y-11951388D01*
X13382039Y-11951388D02*
X13372515Y-11913293D01*
X13372515Y-11913293D02*
X13372515Y-11865674D01*
X13372515Y-11865674D02*
X13382039Y-11827579D01*
X13382039Y-11827579D02*
X13391563Y-11808531D01*
X13391563Y-11808531D02*
X13401086Y-11799008D01*
X13401086Y-11799008D02*
X13420134Y-11789484D01*
X13572515Y-11970436D02*
X13582039Y-11979960D01*
X13582039Y-11979960D02*
X13572515Y-11989484D01*
X13572515Y-11989484D02*
X13562991Y-11979960D01*
X13562991Y-11979960D02*
X13572515Y-11970436D01*
X13572515Y-11970436D02*
X13572515Y-11989484D01*
X13705848Y-11789484D02*
X13724896Y-11789484D01*
X13724896Y-11789484D02*
X13743944Y-11799008D01*
X13743944Y-11799008D02*
X13753467Y-11808531D01*
X13753467Y-11808531D02*
X13762991Y-11827579D01*
X13762991Y-11827579D02*
X13772515Y-11865674D01*
X13772515Y-11865674D02*
X13772515Y-11913293D01*
X13772515Y-11913293D02*
X13762991Y-11951388D01*
X13762991Y-11951388D02*
X13753467Y-11970436D01*
X13753467Y-11970436D02*
X13743944Y-11979960D01*
X13743944Y-11979960D02*
X13724896Y-11989484D01*
X13724896Y-11989484D02*
X13705848Y-11989484D01*
X13705848Y-11989484D02*
X13686801Y-11979960D01*
X13686801Y-11979960D02*
X13677277Y-11970436D01*
X13677277Y-11970436D02*
X13667753Y-11951388D01*
X13667753Y-11951388D02*
X13658229Y-11913293D01*
X13658229Y-11913293D02*
X13658229Y-11865674D01*
X13658229Y-11865674D02*
X13667753Y-11827579D01*
X13667753Y-11827579D02*
X13677277Y-11808531D01*
X13677277Y-11808531D02*
X13686801Y-11799008D01*
X13686801Y-11799008D02*
X13705848Y-11789484D01*
X13848706Y-11808531D02*
X13858229Y-11799008D01*
X13858229Y-11799008D02*
X13877277Y-11789484D01*
X13877277Y-11789484D02*
X13924896Y-11789484D01*
X13924896Y-11789484D02*
X13943944Y-11799008D01*
X13943944Y-11799008D02*
X13953467Y-11808531D01*
X13953467Y-11808531D02*
X13962991Y-11827579D01*
X13962991Y-11827579D02*
X13962991Y-11846627D01*
X13962991Y-11846627D02*
X13953467Y-11875198D01*
X13953467Y-11875198D02*
X13839182Y-11989484D01*
X13839182Y-11989484D02*
X13962991Y-11989484D01*
X14029658Y-11789484D02*
X14153467Y-11789484D01*
X14153467Y-11789484D02*
X14086801Y-11865674D01*
X14086801Y-11865674D02*
X14115372Y-11865674D01*
X14115372Y-11865674D02*
X14134420Y-11875198D01*
X14134420Y-11875198D02*
X14143944Y-11884722D01*
X14143944Y-11884722D02*
X14153467Y-11903769D01*
X14153467Y-11903769D02*
X14153467Y-11951388D01*
X14153467Y-11951388D02*
X14143944Y-11970436D01*
X14143944Y-11970436D02*
X14134420Y-11979960D01*
X14134420Y-11979960D02*
X14115372Y-11989484D01*
X14115372Y-11989484D02*
X14058229Y-11989484D01*
X14058229Y-11989484D02*
X14039182Y-11979960D01*
X14039182Y-11979960D02*
X14029658Y-11970436D01*
X14324896Y-11789484D02*
X14286801Y-11789484D01*
X14286801Y-11789484D02*
X14267753Y-11799008D01*
X14267753Y-11799008D02*
X14258229Y-11808531D01*
X14258229Y-11808531D02*
X14239182Y-11837103D01*
X14239182Y-11837103D02*
X14229658Y-11875198D01*
X14229658Y-11875198D02*
X14229658Y-11951388D01*
X14229658Y-11951388D02*
X14239182Y-11970436D01*
X14239182Y-11970436D02*
X14248706Y-11979960D01*
X14248706Y-11979960D02*
X14267753Y-11989484D01*
X14267753Y-11989484D02*
X14305848Y-11989484D01*
X14305848Y-11989484D02*
X14324896Y-11979960D01*
X14324896Y-11979960D02*
X14334420Y-11970436D01*
X14334420Y-11970436D02*
X14343944Y-11951388D01*
X14343944Y-11951388D02*
X14343944Y-11903769D01*
X14343944Y-11903769D02*
X14334420Y-11884722D01*
X14334420Y-11884722D02*
X14324896Y-11875198D01*
X14324896Y-11875198D02*
X14305848Y-11865674D01*
X14305848Y-11865674D02*
X14267753Y-11865674D01*
X14267753Y-11865674D02*
X14248706Y-11875198D01*
X14248706Y-11875198D02*
X14239182Y-11884722D01*
X14239182Y-11884722D02*
X14229658Y-11903769D01*
X14420134Y-11789484D02*
X14420134Y-11827579D01*
X14496325Y-11789484D02*
X14496325Y-11827579D01*
X14791563Y-12065674D02*
X14782039Y-12056150D01*
X14782039Y-12056150D02*
X14762991Y-12027579D01*
X14762991Y-12027579D02*
X14753468Y-12008531D01*
X14753468Y-12008531D02*
X14743944Y-11979960D01*
X14743944Y-11979960D02*
X14734420Y-11932341D01*
X14734420Y-11932341D02*
X14734420Y-11894246D01*
X14734420Y-11894246D02*
X14743944Y-11846627D01*
X14743944Y-11846627D02*
X14753468Y-11818055D01*
X14753468Y-11818055D02*
X14762991Y-11799008D01*
X14762991Y-11799008D02*
X14782039Y-11770436D01*
X14782039Y-11770436D02*
X14791563Y-11760912D01*
X14858229Y-11808531D02*
X14867753Y-11799008D01*
X14867753Y-11799008D02*
X14886801Y-11789484D01*
X14886801Y-11789484D02*
X14934420Y-11789484D01*
X14934420Y-11789484D02*
X14953468Y-11799008D01*
X14953468Y-11799008D02*
X14962991Y-11808531D01*
X14962991Y-11808531D02*
X14972515Y-11827579D01*
X14972515Y-11827579D02*
X14972515Y-11846627D01*
X14972515Y-11846627D02*
X14962991Y-11875198D01*
X14962991Y-11875198D02*
X14848706Y-11989484D01*
X14848706Y-11989484D02*
X14972515Y-11989484D01*
X15210610Y-11989484D02*
X15210610Y-11789484D01*
X15296325Y-11989484D02*
X15296325Y-11884722D01*
X15296325Y-11884722D02*
X15286801Y-11865674D01*
X15286801Y-11865674D02*
X15267753Y-11856150D01*
X15267753Y-11856150D02*
X15239182Y-11856150D01*
X15239182Y-11856150D02*
X15220134Y-11865674D01*
X15220134Y-11865674D02*
X15210610Y-11875198D01*
X15420134Y-11989484D02*
X15401087Y-11979960D01*
X15401087Y-11979960D02*
X15391563Y-11970436D01*
X15391563Y-11970436D02*
X15382039Y-11951388D01*
X15382039Y-11951388D02*
X15382039Y-11894246D01*
X15382039Y-11894246D02*
X15391563Y-11875198D01*
X15391563Y-11875198D02*
X15401087Y-11865674D01*
X15401087Y-11865674D02*
X15420134Y-11856150D01*
X15420134Y-11856150D02*
X15448706Y-11856150D01*
X15448706Y-11856150D02*
X15467753Y-11865674D01*
X15467753Y-11865674D02*
X15477277Y-11875198D01*
X15477277Y-11875198D02*
X15486801Y-11894246D01*
X15486801Y-11894246D02*
X15486801Y-11951388D01*
X15486801Y-11951388D02*
X15477277Y-11970436D01*
X15477277Y-11970436D02*
X15467753Y-11979960D01*
X15467753Y-11979960D02*
X15448706Y-11989484D01*
X15448706Y-11989484D02*
X15420134Y-11989484D01*
X15601087Y-11989484D02*
X15582039Y-11979960D01*
X15582039Y-11979960D02*
X15572515Y-11960912D01*
X15572515Y-11960912D02*
X15572515Y-11789484D01*
X15753468Y-11979960D02*
X15734420Y-11989484D01*
X15734420Y-11989484D02*
X15696325Y-11989484D01*
X15696325Y-11989484D02*
X15677277Y-11979960D01*
X15677277Y-11979960D02*
X15667753Y-11960912D01*
X15667753Y-11960912D02*
X15667753Y-11884722D01*
X15667753Y-11884722D02*
X15677277Y-11865674D01*
X15677277Y-11865674D02*
X15696325Y-11856150D01*
X15696325Y-11856150D02*
X15734420Y-11856150D01*
X15734420Y-11856150D02*
X15753468Y-11865674D01*
X15753468Y-11865674D02*
X15762991Y-11884722D01*
X15762991Y-11884722D02*
X15762991Y-11903769D01*
X15762991Y-11903769D02*
X15667753Y-11922817D01*
X15839182Y-11979960D02*
X15858230Y-11989484D01*
X15858230Y-11989484D02*
X15896325Y-11989484D01*
X15896325Y-11989484D02*
X15915372Y-11979960D01*
X15915372Y-11979960D02*
X15924896Y-11960912D01*
X15924896Y-11960912D02*
X15924896Y-11951388D01*
X15924896Y-11951388D02*
X15915372Y-11932341D01*
X15915372Y-11932341D02*
X15896325Y-11922817D01*
X15896325Y-11922817D02*
X15867753Y-11922817D01*
X15867753Y-11922817D02*
X15848706Y-11913293D01*
X15848706Y-11913293D02*
X15839182Y-11894246D01*
X15839182Y-11894246D02*
X15839182Y-11884722D01*
X15839182Y-11884722D02*
X15848706Y-11865674D01*
X15848706Y-11865674D02*
X15867753Y-11856150D01*
X15867753Y-11856150D02*
X15896325Y-11856150D01*
X15896325Y-11856150D02*
X15915372Y-11865674D01*
X15991563Y-12065674D02*
X16001087Y-12056150D01*
X16001087Y-12056150D02*
X16020134Y-12027579D01*
X16020134Y-12027579D02*
X16029658Y-12008531D01*
X16029658Y-12008531D02*
X16039182Y-11979960D01*
X16039182Y-11979960D02*
X16048706Y-11932341D01*
X16048706Y-11932341D02*
X16048706Y-11894246D01*
X16048706Y-11894246D02*
X16039182Y-11846627D01*
X16039182Y-11846627D02*
X16029658Y-11818055D01*
X16029658Y-11818055D02*
X16020134Y-11799008D01*
X16020134Y-11799008D02*
X16001087Y-11770436D01*
X16001087Y-11770436D02*
X15991563Y-11760912D01*
X16353468Y-12065674D02*
X16343944Y-12056150D01*
X16343944Y-12056150D02*
X16324896Y-12027579D01*
X16324896Y-12027579D02*
X16315372Y-12008531D01*
X16315372Y-12008531D02*
X16305849Y-11979960D01*
X16305849Y-11979960D02*
X16296325Y-11932341D01*
X16296325Y-11932341D02*
X16296325Y-11894246D01*
X16296325Y-11894246D02*
X16305849Y-11846627D01*
X16305849Y-11846627D02*
X16315372Y-11818055D01*
X16315372Y-11818055D02*
X16324896Y-11799008D01*
X16324896Y-11799008D02*
X16343944Y-11770436D01*
X16343944Y-11770436D02*
X16353468Y-11760912D01*
X16429658Y-11856150D02*
X16429658Y-11989484D01*
X16429658Y-11875198D02*
X16439182Y-11865674D01*
X16439182Y-11865674D02*
X16458230Y-11856150D01*
X16458230Y-11856150D02*
X16486801Y-11856150D01*
X16486801Y-11856150D02*
X16505849Y-11865674D01*
X16505849Y-11865674D02*
X16515372Y-11884722D01*
X16515372Y-11884722D02*
X16515372Y-11989484D01*
X16639182Y-11989484D02*
X16620134Y-11979960D01*
X16620134Y-11979960D02*
X16610611Y-11970436D01*
X16610611Y-11970436D02*
X16601087Y-11951388D01*
X16601087Y-11951388D02*
X16601087Y-11894246D01*
X16601087Y-11894246D02*
X16610611Y-11875198D01*
X16610611Y-11875198D02*
X16620134Y-11865674D01*
X16620134Y-11865674D02*
X16639182Y-11856150D01*
X16639182Y-11856150D02*
X16667753Y-11856150D01*
X16667753Y-11856150D02*
X16686801Y-11865674D01*
X16686801Y-11865674D02*
X16696325Y-11875198D01*
X16696325Y-11875198D02*
X16705849Y-11894246D01*
X16705849Y-11894246D02*
X16705849Y-11951388D01*
X16705849Y-11951388D02*
X16696325Y-11970436D01*
X16696325Y-11970436D02*
X16686801Y-11979960D01*
X16686801Y-11979960D02*
X16667753Y-11989484D01*
X16667753Y-11989484D02*
X16639182Y-11989484D01*
X16762992Y-11856150D02*
X16839182Y-11856150D01*
X16791563Y-11789484D02*
X16791563Y-11960912D01*
X16791563Y-11960912D02*
X16801087Y-11979960D01*
X16801087Y-11979960D02*
X16820134Y-11989484D01*
X16820134Y-11989484D02*
X16839182Y-11989484D01*
X17058230Y-11856150D02*
X17058230Y-12056150D01*
X17058230Y-11865674D02*
X17077277Y-11856150D01*
X17077277Y-11856150D02*
X17115373Y-11856150D01*
X17115373Y-11856150D02*
X17134420Y-11865674D01*
X17134420Y-11865674D02*
X17143944Y-11875198D01*
X17143944Y-11875198D02*
X17153468Y-11894246D01*
X17153468Y-11894246D02*
X17153468Y-11951388D01*
X17153468Y-11951388D02*
X17143944Y-11970436D01*
X17143944Y-11970436D02*
X17134420Y-11979960D01*
X17134420Y-11979960D02*
X17115373Y-11989484D01*
X17115373Y-11989484D02*
X17077277Y-11989484D01*
X17077277Y-11989484D02*
X17058230Y-11979960D01*
X17267754Y-11989484D02*
X17248706Y-11979960D01*
X17248706Y-11979960D02*
X17239182Y-11960912D01*
X17239182Y-11960912D02*
X17239182Y-11789484D01*
X17429658Y-11989484D02*
X17429658Y-11884722D01*
X17429658Y-11884722D02*
X17420135Y-11865674D01*
X17420135Y-11865674D02*
X17401087Y-11856150D01*
X17401087Y-11856150D02*
X17362992Y-11856150D01*
X17362992Y-11856150D02*
X17343944Y-11865674D01*
X17429658Y-11979960D02*
X17410611Y-11989484D01*
X17410611Y-11989484D02*
X17362992Y-11989484D01*
X17362992Y-11989484D02*
X17343944Y-11979960D01*
X17343944Y-11979960D02*
X17334420Y-11960912D01*
X17334420Y-11960912D02*
X17334420Y-11941865D01*
X17334420Y-11941865D02*
X17343944Y-11922817D01*
X17343944Y-11922817D02*
X17362992Y-11913293D01*
X17362992Y-11913293D02*
X17410611Y-11913293D01*
X17410611Y-11913293D02*
X17429658Y-11903769D01*
X17496325Y-11856150D02*
X17572515Y-11856150D01*
X17524896Y-11789484D02*
X17524896Y-11960912D01*
X17524896Y-11960912D02*
X17534420Y-11979960D01*
X17534420Y-11979960D02*
X17553468Y-11989484D01*
X17553468Y-11989484D02*
X17572515Y-11989484D01*
X17715373Y-11979960D02*
X17696325Y-11989484D01*
X17696325Y-11989484D02*
X17658230Y-11989484D01*
X17658230Y-11989484D02*
X17639182Y-11979960D01*
X17639182Y-11979960D02*
X17629658Y-11960912D01*
X17629658Y-11960912D02*
X17629658Y-11884722D01*
X17629658Y-11884722D02*
X17639182Y-11865674D01*
X17639182Y-11865674D02*
X17658230Y-11856150D01*
X17658230Y-11856150D02*
X17696325Y-11856150D01*
X17696325Y-11856150D02*
X17715373Y-11865674D01*
X17715373Y-11865674D02*
X17724896Y-11884722D01*
X17724896Y-11884722D02*
X17724896Y-11903769D01*
X17724896Y-11903769D02*
X17629658Y-11922817D01*
X17896325Y-11989484D02*
X17896325Y-11789484D01*
X17896325Y-11979960D02*
X17877277Y-11989484D01*
X17877277Y-11989484D02*
X17839182Y-11989484D01*
X17839182Y-11989484D02*
X17820135Y-11979960D01*
X17820135Y-11979960D02*
X17810611Y-11970436D01*
X17810611Y-11970436D02*
X17801087Y-11951388D01*
X17801087Y-11951388D02*
X17801087Y-11894246D01*
X17801087Y-11894246D02*
X17810611Y-11875198D01*
X17810611Y-11875198D02*
X17820135Y-11865674D01*
X17820135Y-11865674D02*
X17839182Y-11856150D01*
X17839182Y-11856150D02*
X17877277Y-11856150D01*
X17877277Y-11856150D02*
X17896325Y-11865674D01*
X17972516Y-12065674D02*
X17982039Y-12056150D01*
X17982039Y-12056150D02*
X18001087Y-12027579D01*
X18001087Y-12027579D02*
X18010611Y-12008531D01*
X18010611Y-12008531D02*
X18020135Y-11979960D01*
X18020135Y-11979960D02*
X18029658Y-11932341D01*
X18029658Y-11932341D02*
X18029658Y-11894246D01*
X18029658Y-11894246D02*
X18020135Y-11846627D01*
X18020135Y-11846627D02*
X18010611Y-11818055D01*
X18010611Y-11818055D02*
X18001087Y-11799008D01*
X18001087Y-11799008D02*
X17982039Y-11770436D01*
X17982039Y-11770436D02*
X17972516Y-11760912D01*
M02*
